<?xml version="1.0" encoding="UTF-8" standalone="no"?>
<svg
   xmlns:dc="http://purl.org/dc/elements/1.1/"
   xmlns:cc="http://creativecommons.org/ns#"
   xmlns:rdf="http://www.w3.org/1999/02/22-rdf-syntax-ns#"
   xmlns:svg="http://www.w3.org/2000/svg"
   xmlns="http://www.w3.org/2000/svg"
   xmlns:sodipodi="http://sodipodi.sourceforge.net/DTD/sodipodi-0.dtd"
   xmlns:inkscape="http://www.inkscape.org/namespaces/inkscape"
   width="241.4977mm"
   height="80.872772mm"
   viewBox="0 0 241.4977 80.872772"
   version="1.1"
   id="svg1540"
   inkscape:version="1.0.2 (e86c870879, 2021-01-15)"
   sodipodi:docname="arrow.svg">
  <defs
     id="defs1534" />
  <sodipodi:namedview
     id="base"
     pagecolor="#ffffff"
     bordercolor="#666666"
     borderopacity="1.0"
     inkscape:pageopacity="0.0"
     inkscape:pageshadow="2"
     inkscape:zoom="0.7"
     inkscape:cx="416.56152"
     inkscape:cy="304.06377"
     inkscape:document-units="mm"
     inkscape:current-layer="layer1"
     inkscape:document-rotation="0"
     showgrid="false"
     fit-margin-top="0"
     fit-margin-left="0"
     fit-margin-right="0"
     fit-margin-bottom="0"
     inkscape:window-width="1530"
     inkscape:window-height="1205"
     inkscape:window-x="26"
     inkscape:window-y="23"
     inkscape:window-maximized="0" />
  <metadata
     id="metadata1537">
    <rdf:RDF>
      <cc:Work
         rdf:about="">
        <dc:format>image/svg+xml</dc:format>
        <dc:type
           rdf:resource="http://purl.org/dc/dcmitype/StillImage" />
        <dc:title></dc:title>
      </cc:Work>
    </rdf:RDF>
  </metadata>
  <g
     inkscape:label="Layer 1"
     inkscape:groupmode="layer"
     id="layer1"
     transform="translate(90.347652,349.60932)">
    <path
       style="fill:#314f9c;fill-opacity:1;stroke-width:0.264583"
       d="m 150.81312,-308.89166 c -0.20443,0.19364 -0.29952,0.45335 -0.2113,0.57714 0.25168,0.35318 -1.15563,0.90334 -1.56037,0.61 -0.24669,-0.17879 -0.41415,-0.0508 -0.60995,0.46634 -0.30148,0.79624 -0.11372,1.16368 0.33381,0.65324 0.38059,-0.43407 0.70872,-0.44616 0.73624,-0.0271 0.0336,0.51107 -1.63729,3.25398 -1.8979,3.11564 -0.2459,-0.13054 -1.38351,0.7948 -2.10908,1.71554 -0.24342,0.3089 -1.03634,1.60391 -1.76205,2.87779 -1.50043,2.63383 -3.15264,4.75324 -4.39638,5.63956 -0.57144,0.40722 -0.83695,0.80772 -0.80978,1.22149 0.0472,0.71827 -3.8121,4.98803 -4.35596,4.81931 -0.1826,-0.0567 -1.00576,0.91529 -1.83554,2.16735 -1.8097,2.73068 -3.39571,4.67208 -3.68943,4.51616 -0.11821,-0.0628 -1.04543,0.49859 -2.0605,1.2474 -1.38397,1.02096 -1.72972,1.39376 -1.38239,1.49056 0.3698,0.10306 -0.0662,0.79388 -2.16258,3.42644 -4.10002,5.14867 -5.77214,6.17961 -8.77596,5.41087 -1.70331,-0.43592 -4.64456,-2.05922 -5.99267,-3.3074 -0.89022,-0.82423 -0.94403,-0.94363 -0.54316,-1.20528 0.39315,-0.2566 0.398,-0.37069 0.0417,-0.97994 -0.2439,-0.41701 -0.49695,-1.76679 -0.64033,-3.41545 -0.22476,-2.58492 -0.21013,-2.71932 0.28256,-2.59781 0.78953,0.19469 1.11704,-0.51238 0.96288,-2.07882 -0.076,-0.77255 0.0165,-2.22364 0.20565,-3.22465 0.33262,-1.76041 0.32645,-1.83696 -0.18823,-2.33699 l -0.53212,-0.51696 -0.1172,0.76612 c -0.0803,0.52482 -0.15393,0.26744 -0.23388,-0.81712 -0.0817,-1.10746 -0.0381,-1.42905 0.14489,-1.07013 0.25015,0.49074 0.26093,0.49098 0.24687,0.006 -0.0295,-1.02008 -0.83519,-3.86233 -1.00444,-3.5435 -0.24595,0.46332 -0.64704,-1.16157 -0.50346,-2.0396 0.0639,-0.391 0.29012,-0.86912 0.50263,-1.0625 0.95572,-0.86967 -1.24562,-3.86883 -3.89772,-5.31035 -0.66477,-0.36133 -1.21805,-0.79624 -1.22948,-0.96647 -0.0491,-0.73259 -3.978304,-1.0248 -5.527729,-0.4111 -0.460958,0.18257 -0.552892,0.14279 -0.44839,-0.19404 0.165374,-0.53302 -0.048,-0.5217 -0.796679,0.0423 -0.565651,0.42611 -0.585865,0.41805 -0.508914,-0.2028 0.06788,-0.54767 -0.06785,-0.68482 -0.88768,-0.89696 -0.532298,-0.13774 -1.085872,-0.43229 -1.230164,-0.65457 -0.234885,-0.36184 -0.413504,-0.33093 -1.706151,0.29528 -1.489767,0.72171 -1.724092,1.01434 -0.99371,1.24094 0.555074,0.17222 0.27647,0.67497 -0.3986,0.7193 -0.290417,0.0191 -0.462405,-0.089 -0.382196,-0.24005 0.09557,-0.18004 -1.90167,-0.14029 -5.794988,0.11536 -5.47082,0.35923 -6.014532,0.35284 -6.872472,-0.0802 -1.60036,-0.80785 -3.477737,-0.86588 -8.398479,-0.25961 -5.421348,0.66796 -10.448822,0.69943 -14.870937,0.093 -2.62518,-0.35998 -3.134667,-0.36464 -3.469954,-0.0317 -0.570418,0.56632 -2.500973,0.63833 -2.846432,0.10613 -0.229309,-0.35325 -0.733186,-0.40023 -2.919955,-0.27229 -2.073048,0.12129 -2.75462,0.0669 -3.161351,-0.25237 -0.412455,-0.32376 -0.867742,-0.35595 -2.225634,-0.15744 -0.938912,0.13722 -3.034936,0.15168 -4.657845,0.0319 -1.930516,-0.14238 -3.784738,-0.10837 -5.36289,0.0984 -1.862514,0.244 -2.417199,0.23919 -2.434279,-0.0209 -0.01747,-0.26598 -0.784348,-0.24731 -3.641391,0.0886 -3.382973,0.39777 -5.474531,0.38382 -4.890636,-0.0327 0.274303,-0.19567 -7.5595949,0.0903 -14.4095113,0.52598 -3.49342189,0.22237 -4.2204662,0.20517 -4.0034541,-0.094 0.21384185,-0.29476 0.11843589,-0.31416 -0.4928842,-0.10021 -1.7375718,0.60815 -9.3726364,0.78221 -16.2625864,0.37077 -7.909312,-0.47232 -12.712146,-0.30614 -14.587069,0.5047 -1.091774,0.47216 -1.494164,0.50307 -4.616891,0.35466 -6.967722,-0.33115 -11.304867,-0.2889 -18.64458,0.18164 -4.138824,0.26576 -8.354836,0.56744 -9.368849,0.67141 -1.144526,0.11734 -3.200287,0.0227 -5.421164,-0.24954 -1.967626,-0.24119 -4.386262,-0.38543 -5.374748,-0.32052 -0.988485,0.0649 -1.878473,0.004 -1.977752,-0.13529 -0.09928,-0.13931 -0.499965,-0.22853 -0.890414,-0.19825 -0.693478,0.0536 -0.697049,0.0638 -0.154679,0.4346 0.513651,0.35114 0.384499,0.38256 -1.724652,0.41948 -1.800021,0.0315 -2.6016,-0.0921 -3.808406,-0.58741 -1.931244,-0.7926 -3.795331,-2.37178 -4.872219,-4.12756 -0.757518,-1.23507 -0.853527,-1.61666 -1.007799,-4.00545 -0.146016,-2.26036 -0.09015,-2.83641 0.387948,-4.00277 1.215423,-2.96516 4.324116,-5.42355 8.646541,-6.83778 1.658722,-0.54271 3.152905,-0.78661 6.682446,-1.09083 2.500315,-0.21548 4.846212,-0.48847 5.213107,-0.60659 0.366897,-0.11809 1.373175,-0.11271 2.236179,0.012 1.20465,0.17411 1.53999,0.3206 1.443783,0.63068 -0.102104,0.3291 0.03879,0.36008 0.760705,0.16725 0.599002,-0.15999 0.772042,-0.1467 0.53416,0.0409 -0.193517,0.15268 -0.266375,0.463 -0.161903,0.68961 0.208768,0.45284 0.886686,0.51302 1.106865,0.0982 0.07671,-0.14451 0.287645,-0.21927 0.468757,-0.16614 0.181111,0.0531 0.500034,-0.0288 0.708689,-0.18261 0.303241,-0.22315 0.310561,-0.37557 0.03645,-0.75939 -0.327771,-0.45896 -0.163702,-0.50656 3.710168,-1.07623 4.101917,-0.6032 5.71104,-0.61468 6.470783,-0.0462 0.230055,0.17214 1.401904,0.3264 2.60411,0.34277 1.202201,0.0164 2.528876,0.0753 2.948162,0.13086 0.487232,0.0646 0.892332,-0.0472 1.122567,-0.30977 0.509823,-0.58149 1.494351,-0.9338 1.519951,-0.54393 0.012,0.18269 0.236348,0.24076 0.539847,0.13973 0.285624,-0.0951 0.468102,-0.0764 0.405505,0.0415 -0.144863,0.2729 1.544375,0.37028 5.690952,0.32806 2.644844,-0.0269 3.24096,-0.097 3.054216,-0.35907 -0.181664,-0.25492 0.02212,-0.30518 0.938799,-0.23155 1.71879,0.13808 9.134375,0.2665 17.889643,0.30979 4.230566,0.0209 9.8033664,0.0851 12.3839993,0.14261 4.1517282,0.0925 4.7762013,0.0538 5.4227223,-0.33622 1.1023542,-0.66502 2.7019821,-1.02653 2.6350325,-0.59551 -0.034244,0.22045 0.3857833,0.40347 1.1492901,0.50076 1.3157875,0.16766 8.4903978,-0.45629 9.4253988,-0.8197 0.438954,-0.17061 0.588629,-0.12133 0.609774,0.20071 0.01694,0.25802 0.248008,0.41237 0.584302,0.39028 0.398531,-0.0262 0.503114,-0.15184 0.368801,-0.44318 -0.165652,-0.35932 0.113273,-0.40912 2.396204,-0.42785 1.421024,-0.0116 4.013843,-0.0465 5.761821,-0.0775 4.028468,-0.0714 6.37424,0.12844 7.650142,0.65157 0.876527,0.35938 1.353146,0.36149 3.713226,0.0165 2.843655,-0.41573 3.433228,-0.42147 8.51918,-0.0829 1.734297,0.11543 3.726352,0.11659 4.42679,0.003 l 1.273521,-0.2073 -0.101005,0.76175 c -0.09464,0.71375 -0.04632,0.75816 0.766846,0.70476 0.47732,-0.0313 1.35548,-0.38748 1.951466,-0.79143 0.909106,-0.61618 1.206396,-0.69784 1.846076,-0.50702 0.419356,0.1251 0.890856,0.3656 1.047776,0.53445 0.156922,0.16885 0.645422,0.54901 1.085557,0.84482 0.971434,0.65287 2.972647,0.63521 3.178428,-0.0281 0.493629,-1.59103 5.571095,-1.86722 6.703014,-0.36457 0.578572,0.76805 0.231747,1.23409 -0.704568,0.94677 -0.663323,-0.20356 -2.715004,0.16604 -3.051384,0.54972 -0.09599,0.10948 0.862392,0.0915 2.129741,-0.0398 1.267343,-0.13142 2.309845,-0.14967 2.316646,-0.0409 0.0069,0.10892 0.19761,0.18589 0.423991,0.17103 0.226383,-0.0149 0.345978,0.0966 0.265769,0.2477 -0.180976,0.34093 1.199918,0.26912 1.689459,-0.0879 0.19392,-0.14141 0.28056,-0.4734 0.192536,-0.73775 -0.150714,-0.45263 0.06166,-0.49308 3.643056,-0.69379 2.091704,-0.1172 3.880586,-0.14519 3.975291,-0.0622 0.299002,0.26215 1.21684,0.0972 2.347426,-0.42179 1.251093,-0.57435 1.909863,-0.47761 1.960124,0.28785 0.02302,0.35055 0.269805,0.57411 0.72545,0.65719 0.803759,0.14654 1.087364,-0.10798 1.149839,-1.03211 0.03192,-0.47206 0.231686,-0.7048 0.686426,-0.7997 0.537353,-0.11215 0.593501,-0.0678 0.346133,0.27352 -0.357547,0.49333 -0.03576,0.78118 1.438005,1.28633 1.153997,0.39554 2.371438,0.36776 2.748883,-0.0627 0.189869,-0.21655 0.469877,-0.12415 0.980729,0.32379 0.65863,0.57747 0.772068,0.59496 1.439167,0.22193 0.3983,-0.22272 1.035662,-0.49855 1.416359,-0.61295 0.673241,-0.20233 0.685513,-0.18611 0.448612,0.59251 -0.13396,0.44029 -0.154598,0.87854 -0.04586,0.97388 0.108739,0.0953 0.896024,-0.0711 1.749515,-0.36992 1.723875,-0.60349 4.070722,-0.85267 4.349277,-0.46179 0.24251,0.3403 3.50904,0.10989 3.70615,-0.26139 0.0857,-0.16141 0.32225,-0.24181 0.52573,-0.17869 0.20347,0.0631 0.43378,-0.005 0.5118,-0.15243 0.078,-0.14697 0.28751,-0.19465 0.46555,-0.10593 0.17804,0.0887 0.0984,-0.0646 -0.17698,-0.34049 -0.46909,-0.47005 -0.47777,-0.56857 -0.13749,-1.56118 0.28505,-0.83152 0.29808,-1.66709 0.0606,-3.88369 -0.2237,-2.08819 -0.22021,-2.76452 0.0135,-2.59515 0.21901,0.15874 0.39869,-0.0568 0.58523,-0.70214 0.34618,-1.19751 0.31269,-1.34108 -0.30564,-1.31012 -0.72741,0.0364 -0.9525,-0.24881 -0.5905,-0.74829 0.18132,-0.25018 0.52201,-0.37885 0.81307,-0.30709 0.6346,0.15649 0.62039,0.0386 -0.15159,-1.25714 -0.44447,-0.74602 -0.56463,-1.18664 -0.40564,-1.48742 0.12424,-0.23507 0.14313,-0.87105 0.042,-1.41329 -0.10115,-0.54225 -0.0779,-1.14037 0.0519,-1.32918 0.12972,-0.18881 0.28112,-0.8683 0.33647,-1.50999 0.13263,-1.53822 0.44946,-2.18382 1.09242,-2.22604 0.28987,-0.019 0.571,-0.21647 0.62474,-0.43875 0.347,-1.43513 0.3055,-1.38751 0.74959,-0.86029 0.22595,0.26825 0.42883,0.76203 0.45084,1.0973 0.0694,1.05638 0.69285,0.61974 1.08269,-0.75824 0.79516,-2.81065 2.78683,-4.05719 5.46755,-3.422 0.23353,0.0553 0.27558,0.26835 0.14011,0.70979 -0.1811,0.59017 -0.13167,0.6259 0.76863,0.55559 0.52917,-0.0418 1.38334,-0.0211 1.8981,0.0451 0.77868,0.10003 0.66906,0.0109 -0.65253,-0.53065 -0.87366,-0.35798 -1.66279,-0.71604 -1.75365,-0.79569 -0.2138,-0.18746 1.17537,-1.80675 1.58113,-1.84306 0.40257,-0.0365 2.0184,1.15275 2.04132,1.50184 0.0105,0.15962 -0.27299,0.21617 -0.69659,0.13894 -0.693,-0.12635 -0.70127,-0.11284 -0.27791,0.45352 0.24001,0.32105 1.29263,1.09818 2.33915,1.72695 1.85495,1.11445 2.94799,1.91139 2.06851,1.50813 -0.22554,-0.10341 -0.72027,-0.36933 -1.09942,-0.59092 -0.37913,-0.22159 -1.05117,-0.46204 -1.49341,-0.53431 -0.73856,-0.12069 -0.70097,-0.0669 0.4612,0.66022 0.69592,0.43539 1.71723,0.99789 2.26959,1.25 1.06036,0.48396 1.211,0.81163 0.79491,1.72898 -0.21537,0.47484 -0.14155,0.6453 0.46725,1.0788 0.77652,0.55292 2.15618,2.11003 2.17912,2.45939 0.008,0.117 -0.17415,0.22508 -0.40406,0.24017 -0.73522,0.0483 -0.21048,0.64948 1.33107,1.52502 2.21705,1.2592 4.20211,2.19425 3.97163,1.87084 -0.11626,-0.16315 -0.0274,-0.29526 0.20938,-0.31081 0.23314,-0.0153 0.42637,0.1979 0.44567,0.49172 0.0187,0.28532 0.26349,0.6228 0.5439,0.74999 0.2804,0.12719 1.29979,1.2364 2.2653,2.4649 2.02919,2.58193 2.43337,2.92768 3.14537,2.69067 0.37181,-0.12373 0.52885,-0.0437 0.55016,0.28069 0.0311,0.47439 0.98966,1.34785 2.39724,2.18452 1.03155,0.61316 2.18867,3.03957 1.6418,3.44276 -0.36085,0.26605 0.37951,0.89003 2.67683,2.25605 1.04102,0.619 1.1472,0.63352 1.42576,0.19488 0.2757,-0.43414 0.35552,-0.4132 0.95071,0.2494 0.35736,0.39781 1.12908,1.20896 1.71493,1.80252 0.58586,0.59358 1.08178,1.33185 1.10205,1.64059 0.0347,0.52805 -0.0165,0.51864 -0.86202,-0.15839 -0.98205,-0.78634 -0.6024,-0.2466 0.85851,1.22055 0.81139,0.81486 0.94233,1.12117 1.02637,2.40092 0.0598,0.91071 -0.008,1.41161 -0.17841,1.32107 -0.15983,-0.0848 -0.25298,0.18542 -0.22273,0.64621 0.0286,0.43563 0.17565,0.85768 0.32675,0.93788 0.40078,0.21275 0.37603,0.78941 -0.0513,1.19413 z m -6.43549,6.78867 c -0.0641,0.004 -0.18205,0.13127 -0.26226,0.28237 -0.0802,0.1511 -0.02,0.26646 0.13376,0.25637 0.15378,-0.0101 0.2718,-0.13717 0.26226,-0.28237 -0.01,-0.14521 -0.0697,-0.26058 -0.13376,-0.25637 z m -22.90993,-41.41477 c -0.4335,-0.0565 -0.44576,-0.013 -0.0995,0.35245 0.21717,0.22927 0.64791,0.53165 0.9572,0.67193 0.54236,0.24601 0.5459,0.23348 0.0996,-0.35245 -0.25454,-0.33414 -0.68527,-0.63652 -0.95721,-0.67193 z m -16.18021,4.01522 c -0.082,0.0935 -0.0764,0.32182 0.0124,0.5074 0.0982,0.20507 0.15656,0.1384 0.14903,-0.16999 -0.007,-0.27907 -0.0794,-0.43091 -0.16141,-0.33741 z m -36.262208,17.53851 c -0.366866,0.16798 -0.399182,0.13965 -0.157501,-0.13809 0.167245,-0.19219 0.374952,-0.2873 0.461576,-0.21135 0.08662,0.076 -0.05021,0.2332 -0.304075,0.34944 z"
       id="path1772" />
    <path
       style="fill:#000000;stroke-width:0.264583"
       id="path1770"
       d="" />
  </g>
</svg>
