<?xml version="1.0" encoding="UTF-8" standalone="no"?>
<svg
   xmlns:dc="http://purl.org/dc/elements/1.1/"
   xmlns:cc="http://creativecommons.org/ns#"
   xmlns:rdf="http://www.w3.org/1999/02/22-rdf-syntax-ns#"
   xmlns:svg="http://www.w3.org/2000/svg"
   xmlns="http://www.w3.org/2000/svg"
   xmlns:sodipodi="http://sodipodi.sourceforge.net/DTD/sodipodi-0.dtd"
   xmlns:inkscape="http://www.inkscape.org/namespaces/inkscape"
   width="63.574406mm"
   height="68.072128mm"
   viewBox="0 0 63.574406 68.072133"
   version="1.1"
   id="svg8"
   sodipodi:docname="carrots2.svg"
   inkscape:version="1.0.2 (e86c870879, 2021-01-15)">
  <defs
     id="defs2" />
  <sodipodi:namedview
     id="base"
     pagecolor="#ffffff"
     bordercolor="#666666"
     borderopacity="1.0"
     inkscape:pageopacity="0.0"
     inkscape:pageshadow="2"
     inkscape:zoom="3.959798"
     inkscape:cx="151.36601"
     inkscape:cy="97.418369"
     inkscape:document-units="mm"
     inkscape:current-layer="layer1"
     inkscape:document-rotation="0"
     showgrid="false"
     inkscape:window-width="2560"
     inkscape:window-height="1403"
     inkscape:window-x="0"
     inkscape:window-y="0"
     inkscape:window-maximized="1"
     fit-margin-top="0"
     fit-margin-left="0"
     fit-margin-right="0"
     fit-margin-bottom="0"
     inkscape:pagecheckerboard="true" />
  <metadata
     id="metadata5">
    <rdf:RDF>
      <cc:Work
         rdf:about="">
        <dc:format>image/svg+xml</dc:format>
        <dc:type
           rdf:resource="http://purl.org/dc/dcmitype/StillImage" />
        <dc:title></dc:title>
      </cc:Work>
    </rdf:RDF>
  </metadata>
  <g
     inkscape:label="Layer 1"
     inkscape:groupmode="layer"
     id="layer1"
     transform="translate(-15.303185,-74.336498)">
    <rect
       style="fill:#314f9c;fill-opacity:1;stroke:none;stroke-width:0.499999;stroke-opacity:1"
       id="rect833"
       width="47.824322"
       height="47.824322"
       x="96.139885"
       y="9.1050224"
       transform="rotate(45)"
       ry="0" />
    <rect
       style="opacity:0;fill:#e6e6e6;stroke:none;stroke-width:0.498719"
       id="rect887"
       width="118.81631"
       height="68.343079"
       x="-23.118219"
       y="74.068542" />
    <rect
       style="opacity:0;fill:#335dc9;fill-opacity:1;stroke:#335dc9;stroke-width:0.494947;stroke-opacity:1"
       id="rect949"
       width="126.52166"
       height="68.571114"
       x="-9.8696404"
       y="74.314247" />
    <rect
       style="fill:#d8388b;fill-opacity:1;stroke:none;stroke-width:0.499999;stroke-opacity:1"
       id="rect833-5"
       width="47.824322"
       height="47.824322"
       x="84.914604"
       y="20.330343"
       transform="rotate(45)"
       ry="0" />
    <rect
       style="fill:#d8388b;fill-opacity:1;stroke:none;stroke-width:0.499999;stroke-opacity:1"
       id="rect833-3"
       width="47.824322"
       height="47.824322"
       x="73.689323"
       y="31.555681"
       transform="rotate(45)"
       ry="0" />
    <rect
       style="fill:#d8388b;fill-opacity:1;stroke:none;stroke-width:0.499999;stroke-opacity:1"
       id="rect833-5-5"
       width="47.824322"
       height="47.824322"
       x="62.464043"
       y="42.780964"
       transform="rotate(45)"
       ry="0" />
    <rect
       style="opacity:0.51569;fill:none;fill-opacity:1;stroke:#000000;stroke-width:0.001;stroke-miterlimit:4;stroke-dasharray:none;stroke-opacity:1"
       id="rect1035"
       width="63.492947"
       height="67.990669"
       x="15.343915"
       y="74.377228" />
    <rect
       style="fill:#ffffff;fill-opacity:1;stroke:none;stroke-width:0.499999;stroke-opacity:1"
       id="rect833-5-5-2"
       width="47.824322"
       height="47.824322"
       x="40.013481"
       y="65.231529"
       transform="rotate(45)"
       ry="1.6722616" />
    <g
       inkscape:label="Layer 1"
       id="layer1-1"
       transform="matrix(0.42209759,0,0,0.42209759,135.07593,40.736902)">
      <path
         style="fill:#d8388b;fill-opacity:1;stroke-width:1"
         d="m 100.15908,255.90737 c -2.227694,-0.25217 -6.526051,-1.08422 -7.385585,-1.42967 -0.376208,-0.1512 -0.452477,-0.11624 -0.296614,0.13595 0.166738,0.26979 -0.136699,0.30078 -1.477949,0.15094 -3.914709,-0.43732 -14.769769,-2.89208 -13.461722,-3.04422 0.218281,-0.0254 -1.672397,-0.56831 -4.201507,-1.20649 -4.000621,-1.00949 -14.004692,-4.00355 -16.294737,-4.87676 -0.592757,-0.22602 -0.694928,-0.35478 -0.417566,-0.5262 0.261983,-0.16191 0.0434,-0.31414 -0.762714,-0.53121 -0.621464,-0.16735 -2.457622,-0.91705 -4.080351,-1.66602 -2.403219,-1.1092 -3.244842,-1.37055 -4.537917,-1.40915 -1.151281,-0.0344 -2.573771,-0.40433 -5.176784,-1.34641 -3.233029,-1.17008 -3.862507,-1.50777 -6.342023,-3.40226 -3.461073,-2.64444 -7.88702,-6.87968 -9.101418,-8.70924 -0.976715,-1.47149 -1.774021,-1.9182 -2.366383,-1.32584 -0.297508,0.29751 -0.86799,-0.11045 -3.501073,-2.50369 -4.591478,-4.17323 -7.70307,-7.72981 -11.00885,-12.58322 -2.992262,-4.39311 -2.999576,-4.40548 -2.488934,-4.20953 0.236642,0.0908 0.430257,0.10227 0.430257,0.0255 0,-0.0768 -0.615365,-1.13134 -1.367477,-2.34342 -1.571022,-2.53179 -4.236858,-7.78972 -4.739306,-9.34752 -0.187745,-0.58208 -0.60271702,-1.29645 -0.92216102,-1.5875 -0.319444,-0.29104 -0.773614,-0.9102 -1.009265,-1.37592 -0.472856,-0.9345 -0.577056,-2.05444 -0.167603,-1.80138 0.143469,0.0887 -0.402319,-1.24376 -1.21286298,-2.96095 -2.048691,-4.34028 -3.281325,-7.35547 -3.281325,-8.02656 0,-1.42789 -1.857954,-9.24556 -2.679837,-11.27589 l -0.304834,-0.75305 -0.168685,0.64217 c -0.159481,0.60713 -0.18446,0.59076 -0.457839,-0.29999 -0.240493,-0.7836 -0.202546,-1.14223 0.225489,-2.13105 l 0.514642,-1.1889 -0.975971,-1.93802 c -0.754616,-1.49847 -0.913122,-2.03865 -0.698865,-2.38173 0.215463,-0.34502 -0.01052,-1.05411 -1.015896,-3.18768 -1.608961,-3.41448 -2.106224,-6.43235 -2.304968,-13.98875 -0.114237,-4.34341 -0.214313,-5.31475 -0.632781,-6.14181 -0.348271,-0.68831 -0.574484,-1.99525 -0.755627,-4.36562 -0.142199,-1.86076 -0.393254,-4.87148 -0.557899,-6.69049 -0.244613,-2.7025 -0.22043,-4.39592 0.132248,-9.26042 1.028644,-14.18815 2.617366,-23.712606 4.910716,-29.439966 0.4463,-1.11459 0.980364,-3.1321 1.186809,-4.48337 0.411985,-2.69662 0.836254,-4.16693 1.319723,-4.57353 0.173033,-0.14552 1.898941,-3.00302 3.835352,-6.35 C 1.541788,63.586014 7.204632,55.41332 8.20785,55.386711 c 0.222971,-0.0059 0.808281,-0.355303 1.300689,-0.776419 0.64121,-0.548373 0.855451,-0.917996 0.754918,-1.302436 -0.159399,-0.609544 0.350556,-1.158867 0.895947,-0.965115 0.492088,0.174815 0.979056,-0.254437 2.20831,-1.946577 2.205617,-3.036157 16.888462,-12.794573 22.554366,-14.989931 1.512949,-0.586219 2.569604,-1.14995 2.638039,-1.407408 0.103103,-0.38788 5.184143,-3.235418 5.738132,-3.21579 0.126961,0.0045 0.08262,0.186773 -0.09854,0.405054 -0.181158,0.218281 -0.268502,0.396875 -0.194096,0.396875 0.0744,0 2.678592,-1.202518 5.787083,-2.672263 6.3461,-3.000536 11.112453,-5.080663 14.665077,-6.400117 2.155925,-0.800715 2.456267,-0.852649 2.967593,-0.513142 0.520232,0.34542 0.756422,0.276152 2.760686,-0.80962 1.205479,-0.653047 2.608501,-1.259533 3.117824,-1.347748 0.675301,-0.116963 0.534836,-0.01674 -0.518777,0.370132 -1.426855,0.523925 -2.573306,1.277551 -1.465598,0.963418 0.291041,-0.08254 1.124479,-0.292472 1.852083,-0.466524 0.727604,-0.174052 2.216785,-0.761564 3.309289,-1.305581 1.092507,-0.544017 2.630977,-1.180548 3.418822,-1.414514 l 1.432451,-0.425391 -0.640699,0.682209 -0.640696,0.682209 0.661458,-0.141617 c 0.363802,-0.07789 1.316302,-0.267543 2.116667,-0.421452 0.800364,-0.153909 2.552356,-0.827162 3.893314,-1.496116 2.156,-1.075549 2.691747,-1.23139 4.630209,-1.346854 1.342678,-0.07998 3.281762,0.03367 5.004183,0.293283 4.237156,0.638651 9.411716,0.494511 9.124426,-0.254166 -0.071,-0.185086 0.0122,-0.387312 0.18489,-0.449393 0.37237,-0.133846 8.20593,0.465296 9.48282,0.725285 4.19838,0.854835 7.04463,1.576699 7.49319,1.900419 0.49469,0.357008 0.45664,0.372502 -0.49451,0.201367 -0.68248,-0.122795 -0.97359,-0.09341 -0.86208,0.08701 0.0926,0.149826 -0.72816,-0.01229 -1.82391,-0.360254 -2.17437,-0.690488 -2.87231,-0.796292 -2.2367,-0.339071 0.33723,0.242588 0.32869,0.263644 -0.0568,0.140117 -0.24954,-0.07995 -1.38063,-0.224956 -2.51354,-0.322224 -3.61573,-0.310435 -1.83405,0.299923 3.89249,1.333465 2.98273,0.538332 5.47312,1.028757 5.5342,1.089834 0.0611,0.06108 -0.22103,0.111048 -0.6269,0.111048 -1.29445,0 -0.2878,0.725301 2.01729,1.453478 2.43534,0.769324 2.8658,0.809325 2.8658,0.266314 0,-0.493198 0.11071,-0.492622 1.80113,0.0094 1.69646,0.503792 5.78396,2.340405 11.45549,5.147225 2.38599,1.18082 5.33295,2.562077 6.54879,3.069461 4.13705,1.726434 5.33001,2.427927 5.33001,3.134207 0,0.414585 0.36526,0.949688 1.04603,1.532401 1.60522,1.374006 2.32549,1.696907 2.93545,1.31598 0.61588,-0.384618 0.86792,-0.408117 0.65334,-0.06091 -0.0874,0.141416 0.4363,0.684737 1.16378,1.207381 0.72749,0.522644 1.57584,1.359854 1.88524,1.860466 0.77517,1.254262 5.25132,5.137173 6.13281,5.320006 0.39587,0.08211 0.78545,0.356243 0.86573,0.609184 0.19002,0.598699 3.37358,3.564869 5.19354,4.838888 0.78267,0.547894 1.72069,1.236401 2.08449,1.530017 l 0.66146,0.533847 -0.98886,-0.452959 c -1.09351,-0.500888 -1.39247,-0.398261 -1.14168,0.391912 0.20103,0.633415 5.61037,5.142695 7.05055,5.877422 0.74902,0.382122 1.46105,1.177361 2.65615,2.966581 0.89805,1.34448 2.42979,3.39701 3.40388,4.56118 0.97409,1.16416 2.82212,3.48588 4.10672,5.15937 1.2846,1.67349 2.98807,3.79626 3.78549,4.71727 0.86813,1.00269 1.4722,1.95878 1.50557,2.38296 0.0307,0.38962 0.83722,2.10499 1.79237,3.81193 0.95516,1.70694 1.82189,3.37211 1.92608,3.70038 0.17457,0.55003 0.1521,0.56588 -0.28649,0.20205 -0.45771,-0.37968 -0.45768,-0.35935 7.9e-4,0.53125 0.63339,1.23042 2.96533,4.68224 3.305,4.89216 0.14785,0.0914 0.26883,0.43235 0.26883,0.75771 0,0.32535 0.65381,2.19356 1.45291,4.15156 0.7991,1.95801 1.45395,3.76135 1.45521,4.00743 0.001,0.24607 0.12402,0.52263 0.2728,0.61458 0.33249,0.20549 1.5646,2.621226 2.45673,4.816776 0.44579,1.09709 0.56495,1.66689 0.36269,1.73431 -0.21165,0.0705 -0.17091,0.40912 0.13699,1.13846 0.24102,0.57092 0.50341,1.76972 0.58308,2.66398 0.0797,0.89427 0.29085,1.94639 0.46931,2.33804 0.29945,0.65723 0.35059,0.67637 0.66355,0.24837 0.30754,-0.42058 0.3765,-0.37425 0.74083,0.49772 0.52196,1.24923 0.50977,1.3195 -0.16615,0.95776 -0.73153,-0.39151 -0.66602,-0.16285 0.95346,3.32801 0.97904,2.11034 1.20262,2.85092 1.10474,3.65917 -0.068,0.56189 0.0441,1.41269 0.25181,1.90973 0.41782,0.99998 0.48986,1.50514 0.13466,0.94431 -0.17193,-0.27148 -0.27579,-0.16555 -0.40226,0.41028 -0.11645,0.5302 0.0907,1.56865 0.65373,3.27637 0.78451,2.37969 0.81558,2.63398 0.64476,5.27826 -0.0987,1.52797 -0.18302,3.52414 -0.18736,4.43592 -0.007,1.37395 -0.07,1.60624 -0.37074,1.35667 -0.19958,-0.16562 -0.36286,-0.67717 -0.36286,-1.13677 0,-0.69352 -0.14107,-0.88889 -0.82948,-1.14873 l -0.82948,-0.3131 0.17343,1.37957 c 0.0954,0.75876 0.24605,3.58222 0.33482,6.27436 0.25985,7.88062 -0.54363,16.23826 -2.4528,25.51373 -0.50709,2.46364 -0.98109,4.57497 -1.05332,4.69185 -0.0722,0.11688 -0.0511,0.64014 0.0469,1.16281 0.18019,0.96045 0.46733,0.9545 0.73683,-0.0153 0.0809,-0.29104 0.0822,0.0563 0.003,0.77176 -0.13309,1.20064 -0.72285,2.53472 -1.12116,2.53613 -0.0924,2.6e-4 -0.13784,-0.86288 -0.10098,-1.91823 l 0.067,-1.91882 -0.65879,1.98437 c -0.87762,2.64352 -0.85158,3.51945 0.077,2.59085 0.48321,-0.48321 -0.96206,4.26817 -2.02874,6.66957 l -0.52887,1.19062 -0.0187,-0.87551 c -0.042,-1.96594 -0.66003,-0.44134 -2.92659,7.21921 -1.30251,4.40221 -3.65732,10.15628 -5.57894,13.63234 -1.44388,2.61187 -4.75315,7.01681 -7.55943,10.06232 -2.37812,2.58085 -3.15705,4.25927 -1.17513,2.53218 1.16776,-1.01763 0.20445,0.2192 -1.06417,1.36632 -0.68644,0.62069 -1.54584,1.63272 -1.90979,2.24896 -1.32508,2.24361 -7.42106,7.54337 -8.90881,7.74519 -0.21828,0.0296 -0.635,0.15181 -0.92604,0.27154 -0.4443,0.18279 -0.40471,0.0504 0.24687,-0.82575 0.46794,-0.6292 -0.22361,-0.0842 -1.74189,1.37281 -1.38486,1.32894 -3.04376,2.74355 -3.68645,3.14356 -1.8956,1.17983 -3.39899,2.49624 -4.60362,4.03107 -1.18894,1.51482 -3.17344,2.8474 -7.14825,4.79999 -3.30729,1.62468 -4.10353,1.64382 -1.71979,0.0413 1.09141,-0.7337 1.82963,-1.33431 1.64051,-1.33468 -0.53022,-10e-4 -1.79642,0.71201 -4.68322,2.63728 -2.92936,1.95367 -3.77751,2.44954 -2.77812,1.62423 0.3638,-0.30044 0.75075,-0.54889 0.85989,-0.55213 0.10914,-0.003 0.19844,-0.13297 0.19844,-0.2883 0,-0.43934 -0.94824,-0.0624 -3.7731,1.49996 -1.42037,0.78556 -2.71173,1.42829 -2.8697,1.42829 -1.06336,0 -3.33564,0.96497 -4.12055,1.74987 -0.65001,0.65002 -1.13159,0.89596 -1.75437,0.89596 -0.53101,0 -1.03124,0.20184 -1.31151,0.52917 -0.35797,0.41808 -0.77302,0.5272 -1.97703,0.51979 -1.48206,-0.009 -1.50576,-0.0205 -0.86249,-0.41515 0.3638,-0.22317 0.46055,-0.34461 0.21499,-0.26986 -0.24556,0.0747 -0.95994,0.2727 -1.5875,0.43988 -0.62757,0.16718 -1.73634,0.56072 -2.46395,0.87455 l -1.32291,0.57058 1.19062,0.13229 c 1.13481,0.12609 1.06038,0.16006 -1.5875,0.72445 -1.93915,0.41332 -4.01661,0.62715 -6.87917,0.70804 -2.25557,0.0637 -5.23213,0.18095 -6.61458,0.26047 -2.39835,0.13795 -2.45072,0.12976 -1.14275,-0.17888 2.00179,-0.47234 2.03474,-0.76015 0.0765,-0.66832 -1.55848,0.0731 -1.70686,0.13008 -1.65587,0.63601 0.0528,0.52375 -0.10563,0.56561 -2.75314,0.7276 -3.66513,0.22426 -8.66949,0.16375 -11.32579,-0.13693 z m 49.00862,-28.59692 c 0.207,0.59177 1.00728,0.35017 1.90374,-0.57474 0.51253,-0.52881 1.03676,-0.84441 1.26017,-0.75868 0.2449,0.094 1.12834,-0.64864 2.45515,-2.06379 2.00457,-2.13805 2.09447,-2.19889 2.73908,-1.85391 0.59277,0.31724 0.75664,0.2925 1.48163,-0.22375 0.87804,-0.62521 1.00631,-1.03975 0.48443,-1.5655 -0.26505,-0.267 -0.24614,-0.30099 0.0952,-0.17111 0.25141,0.0956 0.73934,-0.0991 1.19063,-0.47531 0.42055,-0.35055 1.19147,-0.71578 1.71313,-0.81163 0.71669,-0.13168 1.21781,-0.50535 2.05052,-1.52901 0.60612,-0.74511 1.10204,-1.50243 1.10204,-1.68293 0,-0.1805 0.35347,-0.39888 0.78548,-0.48528 0.9194,-0.18388 1.31971,-0.585 2.54975,-2.55488 0.63101,-1.01056 0.85901,-1.23748 0.74618,-0.74265 -0.196,0.85957 0.0293,1.30226 0.55926,1.09889 0.50057,-0.19208 2.76766,-4.33595 2.76766,-5.05882 0,-0.53659 1.96625,-2.47464 2.398,-2.3636 0.32408,0.0833 4.60852,-6.26005 5.27579,-7.81116 0.32287,-0.75052 0.8611,-1.58017 1.19609,-1.84367 0.33498,-0.2635 1.10808,-1.26922 1.71799,-2.23495 0.67083,-1.06219 1.18301,-1.63601 1.29644,-1.45247 0.18765,0.30362 1.35267,-2.64154 1.34754,-3.40657 -0.002,-0.21966 0.21542,-0.53559 0.48199,-0.70206 0.64486,-0.40272 2.79579,-4.8203 3.37255,-6.92651 0.25271,-0.92287 0.61931,-1.73929 0.81467,-1.81425 0.19536,-0.075 0.35519,-0.40046 0.35519,-0.72333 0,-0.32287 0.29766,-0.86666 0.66146,-1.20844 0.84267,-0.79164 0.93506,-2.13867 0.13229,-1.92874 -0.29104,0.0761 -0.52916,0.0282 -0.52916,-0.1065 0,-0.38449 0.77584,-1.31444 0.78533,-0.94132 0.005,0.1819 0.18701,0.33073 0.40529,0.33073 0.31412,0 0.39688,-0.37762 0.39688,-1.81108 0,-1.45399 0.10081,-1.90231 0.51132,-2.27381 0.28123,-0.25451 0.4492,-0.62463 0.37328,-0.82249 -0.0759,-0.19786 0.0512,-0.62988 0.28242,-0.96006 0.2857,-0.40788 0.42048,-1.18596 0.42048,-2.42745 0,-1.55518 0.12104,-2.03871 0.81316,-3.24842 0.44725,-0.7817 0.9235,-1.42127 1.05834,-1.42127 0.13484,0 0.24878,-0.38696 0.25321,-0.8599 0.007,-0.71853 0.0529,-0.7829 0.28072,-0.39154 0.14997,0.2576 0.20233,0.68999 0.11636,0.96086 -0.16447,0.5182 0.57642,1.02157 0.92724,0.62998 0.44103,-0.49229 1.11196,-7.26863 1.23864,-12.51024 0.17057,-7.05753 -0.19662,-11.76612 -0.97852,-12.54802 l -0.53415,-0.53415 v 0.60357 c 0,0.33197 -0.10469,0.53888 -0.23265,0.4598 -0.41936,-0.25918 -0.52134,-1.21233 -0.16756,-1.56611 0.28349,-0.28349 0.28522,-0.58313 0.01,-1.64899 -0.18532,-0.71641 -0.42257,-1.9574 -0.52722,-2.75776 -0.17452,-1.33479 -0.15715,-1.41146 0.20991,-0.92646 0.2201,0.29081 0.48473,0.4442 0.58806,0.34086 0.34044,-0.34043 -0.4264,-2.6703 -1.98424,-6.02874 -2.22013,-4.78622 -2.81608,-6.40983 -3.9795,-10.84166 -1.21577,-4.63124 -2.03152,-6.71103 -2.55367,-6.51067 -0.23021,0.0884 -0.35846,-0.0578 -0.35846,-0.40861 0,-0.30039 -0.24787,-0.89427 -0.55084,-1.31974 -1.56801,-2.20208 -3.19174,-8.188016 -2.02554,-7.467266 0.16291,0.10068 0.0527,-0.22497 -0.24484,-0.72368 -0.29757,-0.49871 -0.93294,-1.62112 -1.41195,-2.49424 -0.89277,-1.62734 -2.53608,-3.56737 -3.03042,-3.57762 -0.15237,-0.003 -0.86486,-1.28308 -1.58332,-2.84427 -0.71847,-1.56119 -1.35057,-2.92782 -1.40468,-3.03696 -0.29582,-0.59665 0.22449,-0.0513 0.84354,0.88417 0.39405,0.59544 0.7767,1.02235 0.85035,0.9487 0.23182,-0.23182 -0.4601,-1.32846 -1.55823,-2.46965 -0.58207,-0.60489 -0.98324,-1.22126 -0.89149,-1.3697 0.0917,-0.14845 -0.48968,-1.04374 -1.29205,-1.98953 -0.80238,-0.94579 -1.45887,-1.83834 -1.45887,-1.98343 0,-0.50143 -1.37166,-1.89192 -1.8663,-1.89192 -0.27298,0 -0.63903,-0.26789 -0.81344,-0.59531 -0.17441,-0.32742 -0.4709,-0.71437 -0.65886,-0.8599 -0.18796,-0.14552 -0.46628,-0.60006 -0.6185,-1.0101 -0.25869,-0.69685 -0.23788,-0.73489 0.31882,-0.58281 0.45012,0.12297 0.31263,-0.0988 -0.56294,-0.90813 -1.19236,-1.10212 -1.79784,-1.37137 -1.51563,-0.67396 0.37537,0.92762 0.50195,1.31461 0.38946,1.19063 -0.066,-0.0728 -0.88867,-0.96274 -1.8281,-1.97774 -0.93943,-1.01499 -1.47751,-1.66984 -1.19575,-1.45521 0.5067,0.38596 0.5067,0.38018 0,-0.5267 -0.65858,-1.17874 -4.95738,-5.49769 -8.83551,-8.87693 -1.66735,-1.45285 -3.60113,-3.348795 -4.2973,-4.21321 -0.69616,-0.864417 -1.45304,-1.599152 -1.68194,-1.632749 -0.52609,-0.07721 -0.74633,-0.239487 -4.38909,-3.233997 -1.65236,-1.358315 -3.0043,-2.604693 -3.0043,-2.769732 0,-0.165042 -1.27378,-1.018225 -2.83064,-1.895964 -1.55685,-0.877742 -4.19984,-2.365021 -5.8733,-3.305064 -2.266,-1.272897 -2.97424,-1.791592 -2.77466,-2.032069 0.19009,-0.229045 0.12843,-0.397767 -0.21212,-0.58048 -0.26406,-0.141671 -1.31355,-0.924284 -2.33219,-1.73914 -1.40871,-1.126885 -2.0421,-1.471009 -2.64584,-1.437495 -0.43656,0.02423 -1.92484,-0.379265 -3.30729,-0.896664 -2.3278,-0.871212 -4.90625,-1.541008 -10.98021,-2.852304 -1.99819,-0.431387 -2.1578,-0.50006 -0.99218,-0.426907 1.0155,0.06373 1.38906,-0.0064 1.38906,-0.260661 0,-0.683391 -3.38554,-1.296608 -8.66257,-1.569037 -1.92834,-0.09955 -3.43784,-0.286593 -3.35782,-0.416067 0.0799,-0.129368 -0.23158,-0.235213 -0.6923,-0.235213 -0.6359,0 -0.80099,0.0956 -0.68538,0.396875 0.1143,0.297852 -0.0437,0.396875 -0.63315,0.396875 -0.431995,0 -0.785447,-0.105183 -0.785447,-0.233739 0,-0.362381 -1.216776,-0.508154 -1.750134,-0.209672 -0.262718,0.147024 -0.780084,0.286901 -1.149704,0.310839 -1.25779,0.08146 -5.661393,0.958313 -6.16426,1.22744 -0.4318,0.231092 -0.489056,0.18316 -0.41478,-0.347239 0.07686,-0.548834 -0.0088,-0.607802 -0.792699,-0.545612 -0.483378,0.03835 -1.580952,0.30624 -2.439051,0.595313 -0.858099,0.289072 -1.891355,0.527929 -2.296128,0.530792 -1.536634,0.01087 -4.955093,0.759427 -5.238581,1.147119 -0.160906,0.220052 -0.64239,0.487717 -1.069964,0.594812 -1.384467,0.346768 -5.541529,2.198275 -5.485405,2.443135 0.138641,0.604866 -3.811691,1.65776 -4.152258,1.106714 -0.262432,-0.424626 -3.514582,0.909248 -8.37624,3.435526 -2.204032,1.145289 -4.062415,2.027259 -4.129741,1.959933 -0.195545,-0.195545 -2.62886,0.924788 -3.573478,1.64528 -0.474768,0.362125 -1.092253,0.702516 -1.372185,0.756428 -0.817308,0.157398 -1.59902,0.650864 -2.833222,1.788512 -0.635375,0.585668 -1.421868,1.092872 -1.74776,1.127119 -0.917194,0.09638 -0.919292,0.09768 -1.066073,0.658966 -0.160813,0.614956 -0.717087,0.717579 -0.717087,0.132292 0,-0.534453 -0.513048,-0.499795 -2.149422,0.145203 -0.889936,0.35078 -1.4347,0.445908 -1.543687,0.269563 -0.09263,-0.149884 -0.910995,0.571339 -1.818585,1.602716 -1.199033,1.362575 -1.576501,1.963987 -1.380725,2.199881 0.189388,0.228201 0.167113,0.324652 -0.07498,0.324652 -0.517133,0 -7.717946,5.85313 -9.81039,7.97431 -1.005856,1.01967 -1.972151,1.79894 -2.147321,1.73172 -0.420846,-0.16149 -3.005751,2.71042 -4.679289,5.19883 -0.734004,1.09141 -1.428842,1.95776 -1.544087,1.92522 -0.246113,-0.0695 -2.349016,3.18298 -3.887289,6.01228 -1.347145,2.47776 -3.201689,6.83829 -4.163531,9.78958 -0.403122,1.23693 -1.009531,2.54662 -1.347577,2.91042 -0.864632,0.93051 -1.317263,2.14926 -1.81787,4.89479 -0.238802,1.30969 -0.620343,3.03609 -0.847869,3.83646 -0.227525,0.800356 -0.444646,2.366726 -0.482491,3.480826 -0.05329,1.56875 -0.196222,2.20455 -0.633722,2.81896 -0.475758,0.66815 -0.564913,1.16746 -0.564913,3.16379 0,2.55307 -0.387452,5.16905 -0.785659,5.30457 -0.151034,0.0514 -0.14904,0.33925 0.0052,0.74483 0.138231,0.36357 0.25133,2.31792 0.25133,4.34299 0,4.40432 0.4889,10.3699 0.869749,10.61274 0.150549,0.096 0.297008,1.34075 0.326876,2.77812 0.03116,1.49965 0.240936,3.23303 0.494582,4.08679 0.242256,0.81542 0.421366,2.12511 0.398021,2.91042 -0.02818,0.94804 0.181088,2.05019 0.622769,3.27991 0.858102,2.38913 1.093823,3.85886 0.58775,3.66466 -0.297214,-0.11405 -0.316851,0.0257 -0.1044,0.74327 0.143917,0.48606 1.149497,4.30157 2.234624,8.47891 2.209378,8.50531 3.186238,11.71163 4.511428,14.80774 1.027959,2.40167 1.058741,2.52676 0.509643,2.07105 -0.327158,-0.27152 -0.396875,-0.24774 -0.396875,0.13534 0,1.27371 0.730123,2.69488 2.106371,4.09999 1.304256,1.33162 1.666478,1.97423 3.292081,5.84036 3.758602,8.93899 7.138889,15.13714 10.954753,20.08681 2.122334,2.75294 7.465557,8.2563 7.866634,8.10239 0.160652,-0.0616 0.43961,0.12412 0.619905,0.41282 0.180295,0.2887 0.489321,0.46293 0.686721,0.38718 0.197398,-0.0757 0.424556,0.0333 0.504793,0.24244 0.244375,0.63683 0.691658,0.4243 0.691658,-0.32865 0,-1.25901 1.575708,-5.68924 2.516677,-7.07584 0.342334,-0.50445 0.867021,-1.78701 1.165971,-2.85012 0.298953,-1.06311 0.915638,-2.88543 1.370409,-4.0496 1.277115,-3.26926 2.542419,-7.09298 2.746129,-8.29873 0.201838,-1.19466 0.667481,-1.74723 0.667481,-0.79209 0,1.28956 0.586377,-0.0857 1.88628,-4.42401 1.639941,-5.47314 2.249917,-6.81906 6.003505,-13.2469 1.626999,-2.78616 3.388108,-5.97104 3.913574,-7.07752 0.525465,-1.10649 1.056944,-2.01179 1.18106,-2.01179 0.255815,0 1.567664,-1.84977 1.567664,-2.21048 0,-0.12956 -0.202285,-0.0722 -0.449519,0.12757 -0.609039,0.49198 2.007973,-4.40649 3.797385,-7.10788 1.5012,-2.26628 2.578256,-3.50821 3.928176,-4.52946 0.512127,-0.38745 0.676407,-0.64936 0.463021,-0.73822 -0.181902,-0.0757 -0.33073,-0.32003 -0.33073,-0.54286 0,-0.22283 -0.655097,-1.08241 -1.455772,-1.91016 -0.800674,-0.82776 -2.009163,-2.26554 -2.685531,-3.19506 -0.676368,-0.92953 -1.990532,-2.45458 -2.920368,-3.389 -1.832549,-1.8416 -2.55175,-3.06747 -3.609355,-6.15213 -0.967934,-2.82311 -1.489168,-6.14127 -1.483921,-9.44655 0.0044,-2.78968 0.644834,-6.94327 1.070522,-6.94327 0.118862,0 0.346724,-0.48505 0.50636,-1.07789 0.227023,-0.8431 0.36568,-1.01529 0.63655,-0.79049 0.617133,0.51217 1.248839,-0.76483 1.660705,-3.35714 0.106958,-0.67319 0.04334,-0.85989 -0.29301,-0.85989 -0.353774,0 -0.283136,-0.29197 0.400092,-1.65365 1.685446,-3.35912 3.725746,-6.14291 6.593237,-8.995826 1.572334,-1.56435 3.053945,-2.84427 3.292467,-2.84427 0.238522,0 1.222304,-0.47565 2.186181,-1.05699 1.936427,-1.16791 3.988919,-2.00211 6.015992,-2.44509 0.731854,-0.15993 1.509237,-0.49315 1.727518,-0.74048 0.606234,-0.6869 1.619911,-0.85003 1.767806,-0.28448 0.113265,0.43312 0.329364,0.41348 3.079607,-0.27995 3.570023,-0.90012 4.187878,-0.93498 7.008312,-0.39537 1.209138,0.23134 3.114138,0.50336 4.233333,0.60449 1.803733,0.16298 1.997063,0.13813 1.701863,-0.21872 -0.57659,-0.69698 0.8622,-0.25313 1.54888,0.47781 0.42758,0.45514 0.90116,0.64207 1.67455,0.66098 1.42845,0.0349 2.13669,0.28526 2.13669,0.75519 0,0.24387 0.75681,0.64143 2.0675,1.08606 3.18417,1.08017 5.15002,3.21987 7.10993,7.738666 0.57416,1.32378 1.27639,2.56969 1.56052,2.76871 0.66409,0.46514 1.74566,2.60039 2.50996,4.95521 0.33062,1.01864 0.80473,2.38786 1.05357,3.04271 0.67692,1.78137 0.70487,11.37137 0.0426,14.62349 -0.67967,3.33767 -1.82952,6.67712 -3.18215,9.24173 -0.6475,1.22768 -1.25878,2.71454 -1.35839,3.30414 -0.13167,0.77933 -0.35694,1.1521 -0.82515,1.36543 -0.35422,0.1614 -0.64403,0.40978 -0.64403,0.55197 0,0.14219 1.15288,1.17634 2.56197,2.29813 4.01258,3.19445 6.67085,5.83741 6.50585,6.46838 -0.18757,0.71726 0.67169,1.67599 1.14789,1.28078 0.26707,-0.22165 0.3882,-0.11601 0.53195,0.46395 0.10238,0.41303 0.68428,1.19144 1.29313,1.72981 0.9268,0.81952 1.32696,1.53013 2.45842,4.36562 1.32614,3.32339 6.40287,17.16546 6.40287,17.4579 0,0.0819 -0.17859,5.3e-4 -0.39688,-0.1805 -0.52155,-0.43285 -0.50312,-0.28233 0.16883,1.37927 0.31113,0.76937 1.55119,4.01823 2.75567,7.21969 1.86205,4.94921 2.13672,5.88029 1.83426,6.21787 -0.38707,0.43203 -0.19663,0.9937 0.67277,1.98421 0.25546,0.29104 0.53841,0.94589 0.62879,1.45521 0.16378,0.92301 0.16279,0.92243 -0.30217,-0.17648 -0.67687,-1.59977 -0.96555,-1.73397 -0.75865,-0.35269 0.0981,0.65485 0.56832,1.84547 1.04494,2.64584 0.96641,1.62284 1.5596,2.91041 1.34083,2.91041 -0.0792,0 -0.37431,-0.12325 -0.65578,-0.27389 -0.41725,-0.2233 -0.51151,-0.18665 -0.5103,0.19844 0.003,1.07305 0.61616,2.55358 1.43528,3.46762 1.63592,1.82547 1.8048,2.41741 1.62711,5.70312 -0.13105,2.42345 -0.0769,3.17689 0.30671,4.26617 0.37985,1.07862 0.58038,1.32292 1.08591,1.32292 0.56473,0 0.70215,0.2832 1.54069,3.175 1.0279,3.54485 1.64498,6.44521 1.47769,6.94531 -0.15115,0.45184 -0.5957,0.41894 -0.5957,-0.0441 0,-0.20615 -0.12674,-0.41707 -0.28165,-0.46871 -0.15491,-0.0516 -0.35044,-0.60673 -0.43451,-1.23354 -0.0873,-0.65067 -0.23672,-1.00396 -0.34832,-0.8234 -0.11802,0.19097 -0.37315,-0.21877 -0.64405,-1.03436 -0.24673,-0.74283 -0.55856,-1.41856 -0.69295,-1.50162 -0.54798,-0.33868 -0.0861,2.06967 1.05527,5.50261 0.13305,0.40018 0.15916,0.7276 0.058,0.7276 -0.30689,0 -0.31555,1.32737 -0.0124,1.89389 0.27638,0.51641 0.2996,0.51771 0.83109,0.0463 0.39659,-0.35177 0.57854,-0.39413 0.66245,-0.15424 z m 48.80845,-84.25337 c -0.76996,-3.39094 -0.88562,-3.98732 -0.69587,-3.5883 0.29137,0.61272 0.64212,0.33707 0.67334,-0.52917 0.0403,-1.11678 1.01052,3.57395 0.9988,4.82865 -0.02,2.13674 -0.39098,1.86647 -0.97627,-0.71118 z m -0.57864,1.57108 c -0.002,-0.47295 0.0416,-0.8599 0.0974,-0.8599 0.24059,0 0.34281,1.03142 0.13477,1.35977 -0.15508,0.24478 -0.2294,0.0848 -0.23215,-0.49987 z M 16.391494,77.830794 c 0.275773,-0.73057 1.603266,-2.85419 1.78418,-2.85419 0.125344,0 -1.49539,2.95032 -1.816835,3.30729 -0.131037,0.14552 -0.116345,-0.0584 0.03265,-0.4531 z M 198.71334,202.38266 c 0.1681,-0.50933 0.26731,-1.17754 0.22048,-1.48493 -0.0658,-0.43219 -0.31005,-0.17305 -1.07734,1.14326 -0.5457,0.93618 -0.99219,1.78398 -0.99219,1.884 0,0.10002 0.34727,0.002 0.77172,-0.21721 0.47717,-0.24676 0.88835,-0.75251 1.07733,-1.32512 z M 133.25857,172.7518 c -0.26678,-1.06295 -0.66301,-1.99604 -0.84759,-1.99604 -0.18372,0 0.084,2.04499 0.31714,2.42216 0.30712,0.49694 0.68578,0.19276 0.53045,-0.42612 z m 65.8552,-37.18185 c -0.21384,-1.55483 -0.81149,-1.6952 -0.76452,-0.17957 0.0276,0.8907 0.54995,1.93325 0.82886,1.65434 0.067,-0.067 0.038,-0.73061 -0.0643,-1.47477 z m -3.19746,-16.34179 c -0.27578,-1.53546 -0.56214,-1.92178 -0.78027,-1.05267 -0.12175,0.4851 -0.0389,0.94451 0.24998,1.38532 0.59871,0.91375 0.73842,0.82611 0.53029,-0.33265 z M 163.72724,63.944274 c -0.39247,-0.39246 -0.80648,-0.62034 -0.92003,-0.50639 -0.22613,0.22692 0.86316,1.21997 1.33819,1.21997 0.16248,0 -0.0257,-0.32111 -0.41816,-0.71358 z m 47.95372,109.025166 c 0,-0.43171 -0.11283,-0.89804 -0.25073,-1.03628 -0.49765,-0.49891 0.4829,-8.36197 1.20171,-9.63657 0.36693,-0.65063 0.37355,-0.63997 0.24171,0.38938 l -0.13556,1.05833 0.53045,-1.05833 0.53046,-1.05834 -0.16916,1.85209 c -0.17407,1.90601 -0.36138,2.61453 -0.36138,1.36701 0,-0.38805 -0.11906,-0.70555 -0.26458,-0.70555 -0.14553,0 -0.26519,0.0893 -0.26592,0.19843 -0.007,0.98813 -0.82203,9.17979 -0.92393,9.28168 -0.0732,0.0732 -0.13307,-0.22014 -0.13307,-0.65185 z m 1.59155,-15.64128 c 0.002,-0.10915 0.11947,-0.37704 0.26053,-0.59532 0.2074,-0.32093 0.25726,-0.28295 0.26053,0.19844 0.002,0.32742 -0.11501,0.59531 -0.26053,0.59531 -0.14552,0 -0.26276,-0.0893 -0.26053,-0.19843 z m 1.60434,-31.17674 c 0.0127,-0.30823 0.0754,-0.37092 0.15985,-0.15985 0.0764,0.19099 0.067,0.4192 -0.0209,0.50712 -0.0879,0.0879 -0.15045,-0.0684 -0.13896,-0.34727 z m -0.2437,-1.16858 c 0,-0.3638 0.0601,-0.51263 0.13345,-0.33073 0.0734,0.1819 0.0734,0.47956 0,0.66146 -0.0734,0.1819 -0.13345,0.0331 -0.13345,-0.33073 z"
         id="path2213"
         inkscape:connector-curvature="0" />
      <path
         style="fill:#000000;stroke-width:1"
         d=""
         id="path2207"
         inkscape:connector-curvature="0" />
      <path
         style="fill:#000000;stroke-width:1"
         d=""
         id="path2205"
         inkscape:connector-curvature="0" />
      <path
         style="fill:#000000;stroke-width:1"
         d=""
         id="path2203"
         inkscape:connector-curvature="0" />
      <path
         style="fill:#000000;stroke-width:1"
         d=""
         id="path2201"
         inkscape:connector-curvature="0" />
    </g>
    <rect
       style="fill:#314f9c;fill-opacity:1;stroke:none;stroke-width:0.499999;stroke-opacity:1"
       id="rect833-2"
       width="47.824322"
       height="47.824322"
       x="51.238762"
       y="54.006245"
       transform="rotate(45)"
       ry="0" />
  </g>
</svg>
