<?xml version="1.0" encoding="UTF-8" standalone="no"?>
<!-- Created with Inkscape (http://www.inkscape.org/) -->

<svg
   xmlns:dc="http://purl.org/dc/elements/1.1/"
   xmlns:cc="http://creativecommons.org/ns#"
   xmlns:rdf="http://www.w3.org/1999/02/22-rdf-syntax-ns#"
   xmlns:svg="http://www.w3.org/2000/svg"
   xmlns="http://www.w3.org/2000/svg"
   xmlns:sodipodi="http://sodipodi.sourceforge.net/DTD/sodipodi-0.dtd"
   xmlns:inkscape="http://www.inkscape.org/namespaces/inkscape"
   width="230.27066mm"
   height="240.14mm"
   viewBox="0 0 230.27066 240.14"
   version="1.1"
   id="svg1070"
   inkscape:version="0.92.3 (2405546, 2018-03-11)"
   sodipodi:docname="coin.svg">
  <defs
     id="defs1064" />
  <sodipodi:namedview
     id="base"
     pagecolor="#ffffff"
     bordercolor="#666666"
     borderopacity="1.0"
     inkscape:pageopacity="0.0"
     inkscape:pageshadow="2"
     inkscape:zoom="0.7"
     inkscape:cx="165.69828"
     inkscape:cy="486.53789"
     inkscape:document-units="mm"
     inkscape:current-layer="layer1"
     showgrid="false"
     fit-margin-top="0"
     fit-margin-left="0"
     fit-margin-right="0"
     fit-margin-bottom="0"
     inkscape:window-width="1920"
     inkscape:window-height="1017"
     inkscape:window-x="-8"
     inkscape:window-y="-8"
     inkscape:window-maximized="1" />
  <metadata
     id="metadata1067">
    <rdf:RDF>
      <cc:Work
         rdf:about="">
        <dc:format>image/svg+xml</dc:format>
        <dc:type
           rdf:resource="http://purl.org/dc/dcmitype/StillImage" />
        <dc:title></dc:title>
      </cc:Work>
    </rdf:RDF>
  </metadata>
  <g
     inkscape:label="Layer 1"
     inkscape:groupmode="layer"
     id="layer1"
     transform="translate(10.019771,-18.821267)">
    <path
       style="fill:#314f9c;fill-opacity:0.94117647;stroke-width:1"
       d="m 83.119994,258.75131 c -1.851581,-0.10375 -2.792344,-0.26287 -2.866321,-0.4848 -0.07134,-0.21402 -0.684639,-0.3359 -1.741713,-0.34612 -2.163273,-0.0209 -4.2311,-0.3744 -4.354422,-0.74437 -0.05467,-0.164 -0.416899,-0.29927 -0.804953,-0.30059 -1.255345,-0.004 -6.294612,-1.26042 -9.895496,-2.46669 -4.843751,-1.62262 -12.219263,-4.70759 -11.83001,-4.94816 0.461314,-0.28511 -1.840294,-1.55872 -3.524253,-1.95016 -1.952379,-0.45385 -3.617137,-1.42065 -7.629789,-4.43097 -5.81101,-4.35946 -11.284371,-9.52289 -20.014706,-18.88137 -3.519532,-3.77276 -9.295948,-11.54183 -10.7185604,-14.41608 -0.612218,-1.23693 -1.48223,-2.84427 -1.93336,-3.57188 -0.451131,-0.7276 -1.570645,-2.75167 -2.487809,-4.49792 -0.917165,-1.74625 -2.028288,-3.8193 -2.469163,-4.60678 -0.440875,-0.78748 -0.662791,-1.346 -0.493146,-1.24116 0.169644,0.10485 0.308445,0.10418 0.308445,-0.001 0,-0.10566 -0.944973,-2.06414 -2.09993899,-4.35219 -1.163006,-2.30396 -2.45303701,-5.32402 -2.89133501,-6.76881 -1.42652,-4.70236 -3.475393,-12.77981 -3.475393,-13.70135 0,-1.06169 -0.236478,-1.78828 -0.524152,-1.61049 -0.223841,0.13834 -1.652674,-5.08577 -2.124552,-7.7678 -0.163099,-0.92702 -0.268263,-2.37847 -0.233695,-3.22544 0.04072,-0.99781 -0.06482,-1.69379 -0.299805,-1.97693 -0.282246,-0.34008 -0.375741,-1.91283 -0.421675,-7.09331 -0.03521,-3.97152 -0.174062,-6.95676 -0.344238,-7.40117 -0.3568466,-0.93188 -0.3599806,-4.89094 -0.0072,-9.04475 0.148325,-1.74625 0.30869,-3.82985 0.356367,-4.63021 0.104352,-1.7518 0.612069,-3.70417 0.963274,-3.70417 0.139912,0 0.254385,-0.28492 0.254385,-0.63315 0,-0.34823 0.161081,-0.69496 0.357957,-0.77051 0.471969,-0.18111 0.851449,-3.63112 0.428175,-3.89271 -0.209669,-0.12958 -0.01775,-1.5615 0.659132,-4.9177 1.176132,-5.83169 1.708311,-7.78598 2.168295,-7.96249 0.195355,-0.075 0.357064,-0.33192 0.359354,-0.57102 0.0023,-0.23909 0.481735,-1.80393 1.065434,-3.47742 0.5837,-1.67349 1.109564,-3.452844 1.168588,-3.954134 0.06025,-0.51171 0.345564,-1.09188 0.650569,-1.32291 0.32608901,-0.247 0.89661701,-1.47634 1.42722201,-3.0753 0.486184,-1.46508 1.24596599,-3.19149 1.68840499,-3.83646 0.771665,-1.12488 2.462286,-4.29722 2.462286,-4.62031 0,-0.0855 -0.130941,-0.0745 -0.290981,0.0244 -0.198771,0.12285 -0.193287,-0.003 0.01731,-0.3962 0.169559,-0.31683 0.472977,-0.63924 0.674262,-0.71648 0.201285,-0.0772 0.560559,-0.72628 0.798387,-1.44232 0.237828,-0.71603 0.527784,-1.24293 0.644346,-1.1709 0.218395,0.13498 0.525194,-0.53597 1.086377,-2.37583 0.475021,-1.55737 1.919809,-3.68987 4.1196594,-6.08058 1.070562,-1.16346 1.946476,-2.30725 1.946476,-2.54176 0,-0.47752 1.158922,-2.16546 2.689015,-3.91648 0.558333,-0.63895 1.015152,-1.27273 1.015152,-1.40839 0,-0.51118 9.875009,-11.281959 12.319654,-13.437175 1.403037,-1.236927 2.901032,-2.753937 3.328871,-3.371136 0.427842,-0.617196 1.457497,-1.588489 2.288122,-2.158431 0.830625,-0.569942 2.335596,-1.731837 3.344378,-2.581991 4.356267,-3.671252 6.954123,-5.711784 7.756689,-6.092627 0.522208,-0.247803 0.860203,-0.60427 0.860203,-0.907212 0,-0.306749 0.186116,-0.49902 0.483047,-0.49902 0.265673,0 0.771689,-0.3101 1.124479,-0.689111 1.040649,-1.118003 16.656333,-8.726531 17.357802,-8.457352 0.188306,0.07226 1.623846,-0.417229 3.190086,-1.087754 4.171651,-1.78593 9.487694,-3.525174 9.804985,-3.207885 0.168452,0.168453 0.43737,0.171792 0.753383,0.0094 0.270285,-0.138932 1.086739,-0.320168 1.814343,-0.402745 0.727604,-0.08258 1.858698,-0.39404 2.513541,-0.692138 1.332982,-0.606801 2.252941,-0.723583 1.959473,-0.248741 -0.324133,0.524456 1.921126,0.016 3.420205,-0.774522 1.31971,-0.695939 1.490607,-0.718314 4.9202,-0.644196 3.901374,0.08432 5.045952,-0.0579 5.045952,-0.626974 0,-0.283916 0.39716,-0.375852 1.623657,-0.375852 0.89302,0 2.65674,-0.137545 3.91939,-0.305655 2.3734,-0.315997 4.38946,-0.121433 3.3205,0.32045 -0.29105,0.12031 -1.03519,0.15268 -1.65365,0.07193 -0.7376,-0.0963 -1.12448,-0.04545 -1.12448,0.147814 0,0.162043 -0.40969,0.294625 -0.91042,0.294625 -0.50074,0 -0.9847,0.120165 -1.07547,0.267034 -0.10946,0.177113 0.71868,0.20912 2.4593,0.09505 1.84742,-0.121069 2.67955,-0.08263 2.81087,0.129841 0.10583,0.171241 0.8666,0.301824 1.75842,0.301824 1.22084,0 1.57188,-0.08863 1.57188,-0.396875 0,-0.493288 2.01579,-0.524116 7.9375,-0.121389 6.17757,0.420127 6.87917,0.512255 6.87917,0.903318 0,0.366597 0.79218,0.663635 1.78594,0.669666 0.32742,0.002 0.59531,-0.117718 0.59531,-0.266011 0,-0.355482 1.10608,-0.09176 2.83105,0.675004 0.75671,0.336365 2.0664,0.695767 2.91042,0.798672 0.84401,0.102905 1.95794,0.400496 2.47538,0.661314 0.51744,0.260818 1.11276,0.464834 1.32292,0.453368 0.21016,-0.01146 0.72411,-0.0021 1.14211,0.02084 0.61078,0.0335 0.70105,0.112712 0.45975,0.403451 -0.5814,0.700552 0.38794,0.980183 4.74946,1.370098 0.37266,0.03332 1.26562,0.358337 1.98438,0.722272 0.71875,0.363934 3.27135,1.390447 5.67245,2.281139 2.40109,0.890693 4.66328,1.800327 5.02708,2.02141 0.3638,0.221083 1.33109,0.749953 2.14952,1.175266 0.81843,0.425314 1.55402,0.945187 1.63463,1.155274 0.0806,0.210087 0.92775,0.641932 1.88251,0.959656 0.95476,0.317723 1.80496,0.689374 1.88933,0.825891 0.26352,0.426385 3.89495,2.780912 5.14401,3.335252 1.23801,0.549433 2.41041,1.456189 3.78028,2.923743 0.80202,0.85921 1.51139,1.123413 1.51139,0.562916 0,-0.206162 0.12047,-0.196994 0.39396,0.02998 0.21668,0.179827 0.32704,0.435236 0.24525,0.567575 -0.0818,0.132338 0.52046,0.536554 1.33834,0.898257 0.81787,0.361703 1.98743,1.147096 2.59902,1.745316 0.61158,0.598221 1.73066,1.489779 2.48685,1.981237 1.32484,0.861039 2.72616,2.371601 2.72616,2.938672 0,0.150416 0.26789,0.475673 0.59531,0.722794 0.56967,0.429953 0.56365,0.430871 -0.13976,0.02127 -1.82035,-1.059987 -1.06502,0.155143 2.11,3.394477 1.87359,1.911538 4.15544,4.308959 5.07079,5.327605 0.91535,1.018646 1.57044,1.67349 1.45576,1.455208 -0.35999,-0.685146 1.9343,1.27893 3.04857,2.609808 0.6975,0.833085 0.92724,1.270745 0.66706,1.270745 -0.21828,0 -0.88268,-0.58023 -1.47643,-1.289409 -0.59376,-0.709176 -1.13415,-1.234818 -1.20087,-1.168095 -0.17869,0.178689 2.79893,4.063074 3.24615,4.234684 0.54616,0.20958 0.47204,-0.0966 -0.2126,-0.87818 -0.45876,-0.52373 -0.39321,-0.49744 0.28736,0.11524 1.09013,0.98138 1.58472,1.78737 0.94653,1.54247 -0.33361,-0.12801 -0.29132,0.0477 0.18714,0.77764 0.34,0.51868 0.69528,0.8954 0.78951,0.83716 0.31469,-0.19449 1.52815,1.92993 1.39443,2.44126 -0.0898,0.34332 0.39166,1.12309 1.53012,2.47829 3.91592,4.66139 5.57728,7.50129 7.5071,12.83251 0.50674,1.39987 1.2886,3.2806 1.73749,4.1794 1.26467,2.53226 2.09007,5.0241 2.08562,6.29641 -0.003,0.89843 -0.0682,1.06949 -0.28954,0.76173 -0.22958,-0.31915 -0.2491,-0.29325 -0.0996,0.1323 0.10222,0.29104 0.59079,1.71979 1.08571,3.174994 0.49492,1.45521 1.1162,2.94349 1.38062,3.3073 0.26443,0.3638 0.68015,1.67349 0.92383,2.91041 0.52189,2.64905 0.53349,3.11855 0.0458,1.85209 -0.56487,-1.46684 -0.48747,-0.0737 0.10094,1.81691 0.30018,0.96447 0.39343,1.63427 0.23488,1.68712 -0.16355,0.0545 -0.10169,0.71707 0.16364,1.75276 0.23462,0.91581 0.42658,2.10525 0.42658,2.6432 0,0.53795 0.17599,1.22935 0.39108,1.53643 0.47836,0.68296 0.87881,3.88246 0.40847,3.26358 -0.23294,-0.30651 -0.26095,-0.12577 -0.12298,0.79375 0.0983,0.65484 0.27929,1.38259 0.40231,1.61721 0.12783,0.24381 0.0958,1.0374 -0.0747,1.85209 -0.17341,0.82856 -0.31986,4.63853 -0.34974,9.0984 -0.029,4.33076 -0.17746,8.26586 -0.3408,9.03418 -0.15918,0.74869 -0.22217,1.77562 -0.13999,2.28206 0.15874,0.97818 -0.48939,5.52553 -1.10229,7.73376 -0.20195,0.72761 -0.56246,2.9898 -0.80115,5.02709 -0.41729,3.56172 -0.99628,6.32228 -1.44281,6.87917 -0.43464,0.54204 -1.85211,4.52369 -1.85328,5.20583 -0.001,0.72873 -2.18184,7.92634 -3.38605,11.17658 -0.52279,1.41104 -0.72096,1.7141 -0.86505,1.32292 -0.14803,-0.40186 -0.34097,-0.14966 -0.92746,1.21237 -1.25376,2.91164 -3.78872,7.72511 -4.24345,8.05761 -0.2372,0.17345 -0.46733,0.64385 -0.5114,1.04535 -0.0441,0.40149 -0.24801,0.86906 -0.45319,1.03904 -0.41558,0.34428 -1.65861,2.24364 -3.36233,5.13769 -0.6211,1.05503 -1.28985,1.91823 -1.48612,1.91823 -0.19628,0 -0.8602,0.74414 -1.47539,1.65365 -0.61518,0.9095 -1.62193,2.18942 -2.23723,2.84427 -1.54337,1.64258 -2.1142,2.40759 -2.34446,3.14199 -0.15167,0.48378 -0.11437,0.58523 0.16205,0.44074 0.19749,-0.10324 -0.0119,0.14974 -0.46541,0.56218 -0.9006,0.8191 -3.8122,4.45097 -3.83147,4.77928 -0.0339,0.57742 -2.93279,2.84575 -3.24186,2.53668 -0.0879,-0.088 -2.04551,1.70269 -4.35015,3.97919 -2.30464,2.27651 -4.3033,4.13911 -4.44148,4.13911 -0.13818,0 -1.02349,0.68628 -1.96736,1.52507 -0.94386,0.8388 -2.20201,1.85308 -2.79588,2.25396 -0.59387,0.40088 -1.41982,1.08382 -1.83544,1.51763 -0.41562,0.43382 -0.89741,0.78875 -1.07065,0.78875 -0.17324,0 -0.45732,0.17152 -0.6313,0.38115 -0.17398,0.20963 -0.47467,0.32039 -0.66821,0.24612 -0.19353,-0.0743 -0.84375,0.11591 -1.44493,0.42261 -0.60119,0.3067 -1.19238,0.49626 -1.31376,0.42124 -0.12139,-0.075 -1.05985,0.74072 -2.08549,1.81276 -1.31611,1.37566 -2.55246,2.33674 -4.202,3.26644 -3.4302,1.9333 -8.73683,4.55666 -8.8958,4.39769 -0.0758,-0.0758 -1.69964,0.58508 -3.6086,1.46857 -1.90896,0.88349 -3.65083,1.60634 -3.87082,1.60634 -0.22,0 -1.73535,0.52529 -3.36745,1.16731 -4.17449,1.64212 -13.53385,4.57171 -15.26934,4.77948 -0.79968,0.0957 -2.52609,0.45204 -3.83646,0.79177 -1.31037,0.33973 -3.09686,0.70364 -3.96999,0.80867 -0.87312,0.10504 -1.75453,0.32512 -1.95868,0.48906 -0.20416,0.16395 -1.33525,0.31473 -2.51355,0.33508 -4.19322,0.0724 -5.73594,0.34758 -7.16943,1.27882 -1.68903,1.09723 -2.52183,1.34798 -6.085418,1.83222 -3.184192,0.43269 -10.115042,0.98839 -11.377084,0.91218 -0.436562,-0.0263 -2.03404,-0.11742 -3.549951,-0.20236 z m 10.140439,-16.8253 c 0.714351,-0.21671 1.964508,-0.39732 2.778125,-0.40136 1.278551,-0.006 1.581648,-0.11169 2.233461,-0.7762 0.41478,-0.42287 1.17067,-0.96651 1.67975,-1.20808 1.250201,-0.59326 6.376721,-1.49863 7.320911,-1.29291 0.41744,0.0909 1.01276,0.0496 1.32292,-0.0918 1.08188,-0.49331 3.10765,-0.85857 6.98146,-1.2588 2.18621,-0.22587 5.55614,-0.80505 7.66574,-1.31748 2.07048,-0.50293 3.93143,-0.85037 4.13542,-0.77209 0.39667,0.15222 3.4907,-0.98806 7.57818,-2.79287 1.38245,-0.61041 2.8112,-1.10992 3.175,-1.11002 1.01848,-2.7e-4 3.71717,-1.03634 4.88965,-1.87718 0.57926,-0.4154 1.09445,-0.63151 1.14487,-0.48024 0.15382,0.46145 1.84307,-0.40586 3.24437,-1.66575 1.06809,-0.9603 1.63028,-1.24043 3.20155,-1.59527 2.17833,-0.49193 4.18592,-1.55468 4.19338,-2.21983 0.006,-0.49759 6.23256,-4.75348 6.52588,-4.46017 0.0945,0.0945 0.0329,0.17184 -0.13685,0.17184 -0.16977,0 -0.30868,0.17859 -0.30868,0.39688 0,0.21828 -0.10657,0.39687 -0.23683,0.39687 -0.13025,0 -0.80404,0.53578 -1.4973,1.19063 -1.68647,1.59302 -1.17154,1.5141 0.86322,-0.1323 0.89923,-0.7276 1.89235,-1.32291 2.20693,-1.32291 0.68384,0 2.26567,-1.26576 2.16452,-1.73202 -0.07,-0.32259 4.31513,-4.3024 5.74466,-5.2137 0.39982,-0.25489 1.29819,-1.17562 1.99636,-2.04608 1.00938,-1.25847 1.38504,-1.55363 1.83396,-1.44096 0.62508,0.15688 1.91805,-0.97321 1.63587,-1.42979 -0.18987,-0.3072 1.30297,-1.6312 1.83922,-1.6312 0.36721,0 2.49939,-2.48788 2.49939,-2.91635 0,-0.12265 0.24271,-0.30003 0.53935,-0.39418 0.29664,-0.0941 0.83963,-0.62492 1.20663,-1.1795 0.46757,-0.70655 0.8104,-0.97089 1.14552,-0.88325 0.36609,0.0957 0.7036,-0.27791 1.4392,-1.5933 0.52854,-0.9451 0.96097,-1.8851 0.96097,-2.08889 0,-0.20379 0.36124,-0.71663 0.80277,-1.13963 1.06396,-1.01934 3.88234,-5.18234 4.6632,-6.88796 0.34186,-0.74673 0.87156,-1.58392 1.1771,-1.86043 0.30553,-0.27651 0.8458,-0.99807 1.20059,-1.60347 0.35479,-0.6054 0.80019,-1.16025 0.98978,-1.23301 0.1896,-0.0728 0.50047,-0.68858 0.69084,-1.3685 0.19036,-0.67992 0.48414,-1.37537 0.65283,-1.54544 0.62841,-0.63355 2.19778,-3.56291 2.65434,-4.95455 0.25985,-0.79205 0.87236,-2.04772 1.36113,-2.79039 0.91811,-1.39503 1.09283,-1.95699 0.60847,-1.95699 -0.15411,0 -0.20541,-0.121 -0.11401,-0.2689 0.0914,-0.14789 0.26369,-0.20864 0.38285,-0.13499 0.11917,0.0736 0.29716,-0.43043 0.39554,-1.12016 0.21438,-1.50294 0.6689,-2.95912 1.09342,-3.50303 0.17036,-0.21828 0.3943,-0.99219 0.49763,-1.71979 0.18699,-1.31657 0.84946,-2.68719 1.59984,-3.30995 0.30586,-0.25384 0.47865,-0.2562 0.77461,-0.0106 0.31764,0.26362 0.4481,0.09 0.78517,-1.04508 0.57647,-1.94115 1.64755,-7.30856 2.13835,-10.71565 0.52177,-3.62211 0.5968,-6.09974 0.29167,-9.63187 -0.17827,-2.0637 -0.1614,-2.70549 0.0674,-2.56407 0.48235,0.29811 0.37897,-0.9843 -0.48854,-6.06031 -0.43656,-2.55443 -0.79611,-5.56396 -0.79899,-6.68783 -0.006,-2.29386 -0.41876,-5.55815 -0.75781,-5.99153 -0.12274,-0.15687 -0.22931,-0.46382 -0.23682,-0.6821 -0.008,-0.21828 -0.21027,-1.34937 -0.45057,-2.51354 -0.24222,-1.17348 -0.37211,-2.61956 -0.29148,-3.24524 0.19323,-1.49965 -0.49002,-4.64154 -1.33432,-6.13578 -0.61259,-1.08416 -1.42168,-3.53615 -1.42168,-4.30849 0,-0.16624 0.18476,-0.0711 0.41058,0.21134 0.39443,0.49341 0.4035,0.48759 0.23063,-0.14786 -0.099,-0.36381 -0.40729,-1.11203 -0.68516,-1.66273 -0.27788,-0.550694 -0.44355,-1.101054 -0.36817,-1.223024 0.0754,-0.12196 -0.15064,-0.92155 -0.50227,-1.77686 -0.35162,-0.85531 -0.70745,-1.87747 -0.79072,-2.27147 -0.0833,-0.394 -0.44807,-1.03647 -0.81065,-1.4277 -0.36258,-0.39123 -0.65924,-0.87254 -0.65924,-1.06957 0,-0.19703 -0.12279,-0.35824 -0.27287,-0.35824 -0.15008,0 -0.24621,-0.3959 -0.21362,-0.87977 0.038,-0.56452 -0.15509,-1.18079 -0.5389,-1.71979 -0.70516,-0.99031 -0.92046,-1.06469 -0.70838,-0.24471 0.0847,0.32742 -0.22172,-0.17859 -0.68091,-1.12448 -0.45919,-0.94588 -1.29653,-2.67229 -1.86077,-3.83646 -0.56423,-1.16416 -1.85635,-3.30729 -2.87138,-4.7625 -1.01503,-1.4552 -2.33346,-3.50931 -2.92985,-4.56468 -0.59638,-1.05537 -1.18472,-1.85681 -1.30741,-1.78098 -0.41451,0.25618 -4.13219,-5.46761 -3.84896,-5.9259 0.0857,-0.13859 -1.36319,-1.68744 -3.21967,-3.44188 -1.85647,-1.754447 -4.14931,-4.087257 -5.0952,-5.184024 -0.94588,-1.096767 -1.95791,-2.067957 -2.24895,-2.158196 -0.29105,-0.09024 -1.61893,-0.964586 -2.95086,-1.942989 -1.33193,-0.978402 -3.44073,-2.35091 -4.68623,-3.050016 -1.24549,-0.699103 -2.20047,-1.374743 -2.12218,-1.501418 0.21024,-0.34018 -0.76378,-1.072618 -3.86678,-2.907723 -1.52796,-0.903634 -3.27531,-1.976901 -3.88299,-2.385031 -0.60768,-0.408132 -1.27004,-0.678678 -1.4719,-0.601214 -0.20187,0.07746 -0.58633,-0.101481 -0.85437,-0.397655 -0.26803,-0.296174 -0.61853,-0.538498 -0.77889,-0.538498 -0.5592,0 -5.84443,-2.264923 -5.88165,-2.520513 -0.0206,-0.141687 -0.73501,-0.478268 -1.5875,-0.74796 -0.85249,-0.269692 -2.26436,-0.861516 -3.13749,-1.315165 -1.19986,-0.623415 -1.97513,-0.836134 -3.175,-0.871165 -0.87312,-0.02549 -2.30187,-0.238177 -3.175,-0.472633 -0.87312,-0.234457 -2.26375,-0.487057 -3.09027,-0.561334 -1.51351,-0.136014 -3.79345,-0.959106 -3.49192,-1.260636 0.0893,-0.08929 -0.17913,-0.237611 -0.59648,-0.329607 -0.41736,-0.092 -0.93742,-0.22639 -1.1557,-0.29865 -0.60954,-0.201781 -10.32333,-0.854065 -13.89063,-0.93276 -0.43656,-0.0096 -1.65618,0.0446 -2.71027,0.120516 -1.05409,0.07592 -1.85845,0.04405 -1.78746,-0.07081 0.1644,-0.266004 -0.51262,-0.528867 -1.36213,-0.528867 -0.36147,0 -0.88599,-0.122434 -1.16559,-0.272076 -0.38521,-0.206155 -0.97396,-0.105988 -2.43001,0.413424 -1.05689,0.377024 -2.69553,0.798717 -3.64141,0.937094 -4.681114,0.684818 -9.502998,1.349302 -10.451045,1.440216 -0.974971,0.0935 -4.938924,1.134074 -6.01927,1.580121 -0.270608,0.111727 -0.463021,0.0742 -0.463021,-0.0903 0,-0.457961 -7.041161,2.196682 -12.170834,4.588621 -1.673489,0.78034 -3.340364,1.482169 -3.704166,1.559621 -0.363802,0.07745 -1.375834,0.575552 -2.248959,1.106888 -0.873125,0.531336 -2.242343,1.316347 -3.042708,1.744472 -0.800364,0.428122 -1.970479,1.188788 -2.600256,1.69037 -0.629777,0.501578 -1.406025,0.911963 -1.724996,0.911963 -0.318974,0 -1.291984,0.533921 -2.162244,1.186495 -0.870262,0.652571 -2.117132,1.456242 -2.770822,1.785937 -0.653688,0.329692 -1.308532,0.7253 -1.455209,0.879123 -0.146674,0.153826 -0.742931,0.623753 -1.325015,1.044287 -1.1782,0.851204 -6.09791,5.088453 -6.799908,5.856629 -2.177232,2.382477 -5.751054,5.916283 -5.983279,5.916283 -0.158875,0 -0.499245,0.44335 -0.756383,0.98523 -0.257138,0.54187 -1.185458,1.7088 -2.062935,2.59316 -3.053665,3.07762 -8.341196,10.51465 -10.905845,15.33931 -0.618836,1.16417 -1.128636,1.95179 -1.132882,1.75026 -0.01066,-0.50582 -0.988849,0.77845 -1.469975,1.92995 -0.214408,0.51315 -0.389834,1.23607 -0.389834,1.60649 0,0.37042 -0.818415,2.309 -1.818696,4.30798 -5.059731,10.111404 -8.506312,20.391134 -8.8919274,26.520954 -0.0412,0.65485 -0.26699,2.32172 -0.501767,3.70417 -0.234777,1.38245 -0.550432,4.12088 -0.701457,6.08542 -0.151024,1.96453 -0.464492,4.19368 -0.696594,4.95366 -0.347505,1.13785 -0.398909,2.30557 -0.291179,6.61458 0.07195,2.87804 0.226519,5.46069 0.343477,5.73922 0.150401,0.35818 0.122037,0.45042 -0.09689,0.31512 -0.396576,-0.2451 -0.448313,-0.64973 0.593773,4.6439 0.496825,2.5238 1.086837,6.37466 1.311137,8.55747 0.2243014,2.18282 0.6615534,4.92125 0.9716724,6.08542 0.31012,1.16417 0.58916,2.69017 0.620092,3.39112 0.03093,0.70095 0.191948,1.35833 0.357817,1.46084 0.521219,0.32214 3.18025,7.51116 3.367976,9.10575 0.125992,1.07021 0.321083,1.59823 0.656912,1.77796 0.265654,0.14217 0.982432,1.52173 1.614784,3.10791 1.87593,4.70556 2.767986,6.49474 3.862559,7.74705 0.572363,0.65484 2.217246,3.03609 3.655298,5.29166 1.438051,2.25558 2.871698,4.3987 3.18588,4.7625 0.740466,0.85741 1.717553,2.57853 1.717553,3.02544 0,0.19214 0.171517,0.4917 0.381149,0.66568 0.209632,0.17398 0.324588,0.46371 0.25546,0.64386 -0.176231,0.45925 1.678974,2.81736 2.091859,2.65892 0.192498,-0.0739 1.380549,1.04219 2.756776,2.58971 1.330172,1.49574 3.075435,3.36486 3.878363,4.15362 0.802929,0.78876 1.409647,1.51536 1.348267,1.61468 -0.170064,0.27517 4.38091,4.60425 5.009308,4.76507 0.302882,0.0775 0.659154,0.38387 0.791718,0.6808 0.132567,0.29693 1.008476,1.06695 1.946466,1.71115 0.937993,0.64421 2.500918,1.89613 3.473169,2.78206 2.155521,1.96414 3.086114,2.59366 3.476975,2.3521 0.163549,-0.10109 0.466812,0.0581 0.673914,0.35381 0.207103,0.29569 0.782371,0.67154 1.278375,0.83524 0.496003,0.16369 0.963686,0.45884 1.039296,0.65587 0.07561,0.19704 0.764889,0.4928 1.531734,0.65726 0.880271,0.18879 2.569504,1.00207 4.582276,2.20614 1.753413,1.04891 3.325966,1.87576 3.494567,1.83744 0.1686,-0.0383 1.292719,0.29022 2.498039,0.73011 1.20532,0.43989 2.403147,0.79979 2.661841,0.79979 0.258691,0 1.337231,0.28135 2.396752,0.62521 3.648678,1.18417 7.667371,1.6994 15.420155,1.977 0.582083,0.0208 1.642803,-0.13941 2.357154,-0.35611 z m 7.198397,-25.38059 c -0.947631,-0.34625 -3.099805,-2.13973 -3.005357,-2.50445 0.02249,-0.0869 -0.155085,-0.52526 -0.394618,-0.97421 -0.239533,-0.44896 -0.740185,-1.99677 -1.112557,-3.43958 -0.604655,-2.34283 -0.654854,-2.89205 -0.469506,-5.13685 0.114147,-1.38245 0.143833,-3.88276 0.06597,-5.55625 l -0.141568,-3.04271 -0.864917,-0.0833 c -0.475708,-0.0458 -0.796102,-0.19464 -0.711991,-0.33073 0.08411,-0.1361 0.05092,-0.24745 -0.07376,-0.24745 -0.958241,0 -6.66442,-1.43135 -7.319033,-1.83593 -0.452237,-0.2795 -1.000311,-0.48812 -1.217944,-0.46362 -0.701807,0.079 -6.318527,-2.76319 -6.179013,-3.12676 0.07367,-0.19198 -0.445008,-0.70647 -1.215681,-1.20585 -0.739298,-0.47905 -1.832927,-1.5045 -2.430285,-2.27879 -0.959456,-1.24363 -1.421633,-1.55354 -2.146234,-1.43913 -0.10914,0.0172 -0.198437,-0.10463 -0.198437,-0.27081 0,-0.4083 -2.072839,-3.71778 -2.580743,-4.1204 -0.437322,-0.34667 -0.816647,-2.98492 -0.429483,-2.9871 0.127656,-7.9e-4 0.262353,-0.52776 0.299329,-1.17121 0.129069,-2.24602 1.743435,-4.92844 3.504647,-5.82329 1.039479,-0.52815 4.742053,-1.03454 5.394394,-0.73777 0.307303,0.1398 1.141637,0.47853 1.854075,0.75273 0.712441,0.27421 1.426816,0.73668 1.5875,1.02772 0.160687,0.29105 0.402839,0.60895 0.53812,0.70645 0.291875,0.21037 0.413319,0.75036 0.510948,2.27191 0.07523,1.17255 0.975138,2.71019 1.586137,2.71019 0.188561,0 0.611759,0.28625 0.940443,0.63612 0.328687,0.34987 1.331706,0.99641 2.228935,1.43674 4.895686,2.40269 12.225789,2.61429 18.900939,0.54562 1.41577,-0.43876 3.10445,-0.9107 3.75261,-1.04875 1.69108,-0.36019 5.03148,-2.63631 5.76394,-3.9275 0.32584,-0.57438 0.82485,-1.11809 1.10892,-1.20825 0.28407,-0.0902 0.94311,-0.9268 1.46454,-1.8592 0.52143,-0.9324 1.07156,-1.7716 1.22251,-1.86489 1.03541,-0.63992 2.41892,-8.45386 1.58776,-8.96754 -0.13285,-0.0821 -0.32035,-0.61564 -0.41665,-1.18562 -0.0963,-0.56997 -0.52564,-1.58909 -0.9541,-2.26469 -0.42845,-0.67561 -0.71781,-1.32738 -0.64302,-1.4484 0.0748,-0.12101 -0.45323,-0.66936 -1.17337,-1.21854 -0.72015,-0.54919 -1.25077,-1.09331 -1.17918,-1.20915 0.19043,-0.30813 -2.57438,-1.63527 -5.314,-2.55078 -2.28652,-0.76409 -7.24576,-1.91101 -8.26316,-1.91101 -0.26867,0 -0.96003,-0.2404 -1.53635,-0.53423 -0.87542,-0.44631 -1.3527,-0.50757 -2.900221,-0.37225 -1.73381,0.15162 -2.013199,0.0957 -4.365887,-0.87402 -6.151674,-2.53554 -11.49577,-6.9386 -15.571258,-12.82932 -0.676381,-0.97765 -1.31908,-1.78132 -1.428221,-1.78594 -0.278614,-0.0118 -1.256771,-1.01918 -1.256771,-1.29432 0,-0.12517 -0.482745,-1.27248 -1.072766,-2.54958 -1.447155,-3.13236 -2.321814,-5.89929 -2.627882,-8.31313 -0.139935,-1.10362 -0.37506,-2.95908 -0.522499,-4.12325 -0.577575,-4.56049 -0.698468,-6.95438 -0.344344,-6.81849 0.258167,0.0991 0.334158,-0.62348 0.334158,-3.17727 0,-2.8501 0.09388,-3.585 0.681408,-5.3343 0.908801,-2.705844 3.879545,-8.772284 4.731022,-9.661034 0.374216,-0.3906 0.606825,-0.78375 0.516906,-0.87367 -0.249095,-0.24909 2.56726,-4.41518 3.836514,-5.67515 0.616566,-0.61206 1.342842,-1.18324 1.61395,-1.26928 0.271108,-0.086 0.530233,-0.41513 0.575832,-0.73129 0.108677,-0.7535 2.791621,-2.61784 5.398783,-3.75153 1.106501,-0.48115 2.535981,-1.24428 3.176619,-1.69585 l 1.164799,-0.82102 0.01881,-2.05598 c 0.01035,-1.13079 0.12909,-3.00847 0.263856,-4.17264 0.134768,-1.16417 0.246732,-2.3841 0.248809,-2.71096 0.0021,-0.32972 0.149658,-0.5653 0.331454,-0.52917 0.424907,0.0845 0.564372,-2.74953 0.147973,-3.00688 -0.498493,-0.30809 0.77497,-2.507977 2.186393,-3.776966 0.717022,-0.644665 1.859972,-1.361668 2.539893,-1.59334 1.37424,-0.468249 4.98048,-0.588084 4.71384,-0.156641 -0.0899,0.145521 0.0357,0.264584 0.2793,0.264584 1.20528,0 4.61549,2.681959 4.61549,3.62985 0,0.121714 0.24744,0.433163 0.54986,0.692108 0.44201,0.378454 0.51858,0.662475 0.39035,1.447865 -0.0877,0.53738 -0.0466,1.85647 0.0913,2.93131 0.14917,1.16205 0.15493,2.2066 0.0142,2.57674 -0.13016,0.34236 -0.31812,1.41753 -0.41768,2.38928 -0.16164,1.57772 -0.13414,1.74882 0.25692,1.59875 0.4708,-0.18066 0.6114,0.20607 0.17334,0.4768 -0.14552,0.0899 -0.26458,0.40002 -0.26458,0.68907 0,0.45559 0.12116,0.50281 0.9103,0.35476 1.05833,-0.19854 3.12765,0.39672 4.8951,1.40813 0.64636,0.36988 1.55256,0.70245 2.01379,0.73904 0.46122,0.0366 1.79941,0.62482 2.97376,1.30716 2.3472,1.36382 2.83806,2.0353 3.21061,4.39207 0.43237,2.73516 -0.78081,5.71442 -3.02335,7.42461 -1.70148,1.29756 -3.08306,1.64963 -5.80676,1.4797 -1.82332,-0.11375 -2.37487,-0.25611 -3.10035,-0.80022 -1.46579,-1.09933 -3.54464,-1.53997 -6.97126,-1.47765 -1.67163,0.0304 -3.03934,0.15324 -3.03934,0.27296 0,0.11972 -0.16894,0.21767 -0.37543,0.21767 -0.20649,0 -0.71251,0.17258 -1.12448,0.38351 -0.41198,0.21093 -1.549541,0.73897 -2.527931,1.17342 -2.088865,0.92756 -4.121502,2.72119 -5.520402,4.8713 -0.548727,0.84339 -1.095399,1.51525 -1.214824,1.49303 -0.362487,-0.0675 -1.601994,3.444344 -2.077571,5.886244 -0.260033,1.33516 -0.597268,2.35557 -0.804815,2.43521 -0.274619,0.10538 -0.333087,0.69168 -0.25281,2.53516 0.06287,1.44378 0.0062,2.33737 -0.142404,2.24553 -0.504015,-0.3115 -0.224269,1.46083 0.429467,2.72088 0.615923,1.18716 0.649464,1.4101 0.375716,2.49725 -0.375095,1.48963 0.04623,3.38259 0.796552,3.5788 0.269147,0.0704 0.637101,0.48465 0.817673,0.92059 0.180576,0.43595 0.791848,1.5098 1.35839,2.38635 0.968745,1.49884 1.223991,2.33354 0.433834,1.41873 -0.933301,-1.08054 -1.829681,-2.00225 -1.947222,-2.00225 -0.315632,0 -0.06706,0.53631 0.748792,1.61559 0.920697,1.21798 1.426186,2.23618 0.970272,1.95441 -0.502933,-0.31083 -0.256206,0.31153 0.34884,0.87994 0.460156,0.43229 0.685316,0.49851 0.914792,0.26904 0.229476,-0.22948 0.681336,0.006 1.835832,0.95636 1.723557,1.41893 3.467848,2.37238 4.841059,2.64619 1.59317,0.31766 1.85209,0.4341 1.85209,0.83295 0,0.45422 1.08751,0.9409 1.41583,0.6336 0.28536,-0.2671 1.69737,0.12895 2.25865,0.63353 0.23461,0.2109 0.96234,0.42983 1.61718,0.48651 0.65485,0.0567 1.45069,0.2449 1.76855,0.41829 0.31785,0.17339 1.03223,0.31708 1.5875,0.3193 0.63118,0.003 0.88092,0.0857 0.66633,0.2218 -0.66613,0.42255 0.38708,0.8646 2.2794,0.95671 1.62361,0.079 2.81177,0.41358 3.22322,0.90757 0.12658,0.15197 1.72551,0.75866 5.15938,1.95764 0.87312,0.30486 1.64703,0.63011 1.71979,0.72277 0.0728,0.0927 0.75685,0.58569 1.5202,1.09561 0.76335,0.50992 1.3145,1.00054 1.22478,1.09026 -0.0897,0.0897 0.35728,0.42099 0.99334,0.73614 0.64313,0.31865 1.68498,1.21526 2.3471,2.01992 0.65484,0.7958 1.4616,1.69865 1.7928,2.00633 0.76937,0.71472 2.1747,2.89726 2.18,3.38562 0.002,0.20554 0.12129,0.5523 0.26458,0.77058 0.23159,0.35278 0.29248,0.35278 0.54807,0 0.22825,-0.31504 0.25768,-0.26282 0.14272,0.25328 -0.0979,0.4397 0.0552,0.91235 0.47296,1.46011 0.37004,0.48515 0.69594,1.39155 0.81268,2.26026 0.1072,0.79767 0.36028,1.85181 0.56242,2.34252 0.20213,0.49071 0.36752,1.34689 0.36752,1.90261 0,0.55573 0.11906,1.08399 0.26458,1.17393 0.14552,0.0899 0.26458,0.29801 0.26458,0.46238 0,0.16437 -0.26789,0.0108 -0.59531,-0.34122 l -0.59531,-0.64007 -0.0759,2.75308 c -0.0418,1.5142 0.0413,3.08947 0.18467,3.5006 0.14332,0.41114 0.15764,0.74752 0.0318,0.74752 -0.12583,0 -0.2742,-0.13628 -0.32973,-0.30286 -0.0555,-0.16657 -0.23853,0.57757 -0.40668,1.65365 -0.16815,1.07608 -0.60889,3.0001 -0.97943,4.27561 -0.72513,2.49613 -0.82617,3.23032 -0.40912,2.97256 0.14553,-0.0899 0.26459,-0.0434 0.26459,0.10353 0,0.14688 -0.1635,0.36226 -0.36333,0.47864 -0.19982,0.11637 -0.68742,0.85509 -1.08354,1.64161 -0.42892,0.85163 -0.79603,1.30738 -0.90763,1.1268 -0.10645,-0.17223 -0.73977,0.89751 -1.46603,2.47627 -1.56145,3.39427 -2.54512,4.54133 -6.42249,7.48923 -3.76542,2.8628 -5.33455,3.76321 -6.76131,3.87985 -1.40214,0.11463 -4.04161,1.07236 -5.08838,1.84631 -0.51608,0.38158 -1.3491,0.64185 -2.38125,0.74403 -1.47904,0.14641 -1.54231,0.13087 -0.92604,-0.22742 l 0.66146,-0.38456 -0.79375,0.0701 c -0.64574,0.0571 -0.79714,0.19349 -0.8119,0.7316 -0.01,0.36381 -0.11419,0.8755 -0.23158,1.13709 -0.11739,0.2616 -0.15297,0.92646 -0.0791,1.47746 0.0739,0.55101 0.0241,1.19885 -0.11064,1.43965 -0.16178,0.28908 -0.10822,0.84071 0.15764,1.6238 0.27558,0.81168 0.32625,1.37626 0.16056,1.78889 -0.13315,0.3316 -0.24964,0.43423 -0.25887,0.22808 -0.009,-0.20616 -0.0882,-0.30343 -0.17543,-0.21617 -0.0873,0.0873 -0.0138,0.59761 0.16326,1.13409 0.20481,0.62058 0.39417,0.85851 0.52054,0.65404 0.32759,-0.53005 0.47452,0.6723 0.5104,4.17674 0.0272,2.65253 -0.058,3.46299 -0.45871,4.36563 -0.93276,2.10117 -3.33139,3.67117 -5.52041,3.61331 -0.40973,-0.0108 -1.04262,0.0452 -1.40642,0.12438 -0.3638,0.0792 -1.12396,-0.0249 -1.68924,-0.23148 z m 8.54981,-5.63894 c -0.0165,-0.64475 -0.0445,-0.66735 -0.24599,-0.19844 -0.31054,0.72268 -0.31054,0.92604 0,0.92604 0.14553,0 0.25622,-0.32742 0.24599,-0.7276 z m 19.0686,-26.39219 c 0.18373,-0.22139 0.21238,-0.39688 0.0648,-0.39688 -0.14552,0 -0.4128,0.1786 -0.59396,0.39688 -0.18373,0.22139 -0.21238,0.39687 -0.0648,0.39687 0.14552,0 0.4128,-0.17859 0.59396,-0.39687 z m 5.93708,-8.86354 c 0.16889,-0.63569 0.15974,-0.64145 -0.23484,-0.14787 -0.22582,0.28247 -0.41058,0.69324 -0.41058,0.91281 0,0.55929 0.42855,0.0514 0.64542,-0.76494 z M 93.686431,95.872816 c 0.279606,-0.33691 0.263239,-0.37563 -0.0999,-0.23628 -0.238863,0.0917 -0.434298,0.27298 -0.434298,0.40293 0,0.34024 0.153159,0.29246 0.534194,-0.16665 z M 135.723,173.66637 c -0.0785,-0.14552 -0.0217,-0.91943 0.12624,-1.71979 0.14798,-0.80037 0.30693,-1.21708 0.35322,-0.92604 0.11286,0.7096 -0.2987,2.98072 -0.47946,2.64583 z m 69.77713,-19.40067 c -0.11708,-0.33839 -0.14247,-0.68565 -0.0564,-0.7717 0.27427,-0.27427 0.46706,0.13015 0.36655,0.76892 l -0.0973,0.61803 z m 1.54621,-6.3962 c 0.0752,-0.80037 0.13775,-1.9017 0.13902,-2.4474 0.001,-0.56679 0.13203,-0.99219 0.30487,-0.99219 0.36016,0 0.12227,3.29237 -0.30891,4.27537 -0.21252,0.48452 -0.24192,0.30249 -0.13498,-0.83578 z m -0.61066,0 c 0,-0.36381 0.0601,-0.51263 0.13345,-0.33073 0.0734,0.1819 0.0734,0.47955 0,0.66145 -0.0734,0.18191 -0.13345,0.0331 -0.13345,-0.33072 z m 0.75197,-5.68855 c 0,-0.3638 0.0457,-0.66145 0.10145,-0.66145 0.0558,0 0.15835,0.29765 0.22789,0.66145 0.0695,0.36381 0.0239,0.66146 -0.10144,0.66146 -0.12534,0 -0.2279,-0.29765 -0.2279,-0.66146 z m -82.67186,94.30709 c 0.11845,-0.19165 -0.15095,-0.22266 -0.84428,-0.0972 -1.35112,0.24451 -1.4518,0.37865 -0.28419,0.37865 0.52498,0 1.0328,-0.12666 1.12847,-0.28146 z m 3.56145,-1.20206 c 0,-0.0572 -0.1786,-0.10398 -0.39688,-0.10398 -0.21828,0 -0.39687,0.11532 -0.39687,0.25628 0,0.14095 0.17859,0.18774 0.39687,0.10398 0.21828,-0.0838 0.39688,-0.19909 0.39688,-0.25628 z m 79.89612,-107.19409 c -0.007,-0.80961 -0.0582,-0.906 -0.28072,-0.52383 -0.14997,0.2576 -0.19786,0.70409 -0.10642,0.99219 0.25397,0.80018 0.39603,0.62831 0.38714,-0.46836 z M 194.47924,82.186676 c -0.012,-0.47165 -0.74688,-1.38342 -0.95073,-1.17956 -0.094,0.094 0.0266,0.47223 0.26794,0.84058 0.48348,0.73787 0.69562,0.84319 0.68279,0.33898 z m 13.38177,-2.01036 c -0.41788,-0.40911 -0.42471,-0.38863 -0.10686,0.32058 0.18675,0.41669 0.38763,0.61336 0.4464,0.43704 0.0588,-0.17632 -0.094,-0.51725 -0.33954,-0.75762 z M 64.154454,29.071024 c 0.477319,-0.477318 0.02882,-0.459884 -1.032425,0.04013 l -1.058334,0.498648 0.917774,-0.141784 c 0.504775,-0.07798 1.032618,-0.25663 1.172985,-0.396997 z M 195.43071,60.63455 c -0.14359,-0.377084 -0.1132,-0.407474 0.14811,-0.148114 0.18082,0.179478 0.26212,0.39297 0.18065,0.474432 -0.0815,0.08146 -0.2294,-0.06538 -0.32876,-0.326318 z m -3.89031,-4.58856 -0.62462,-0.542256 0.8599,0.416758 c 0.84615,0.410094 1.08716,0.667751 0.62462,0.667751 -0.1294,0 -0.51635,-0.244015 -0.8599,-0.542253 z m -3.42375,-3.066574 c -0.61061,-0.663874 -0.6134,-0.682255 -0.0599,-0.394409 0.61402,0.319304 1.00383,0.787233 0.81398,0.977087 -0.0625,0.06251 -0.40185,-0.199699 -0.7541,-0.582678 z"
       id="path1637"
       inkscape:connector-curvature="0" />
  </g>
</svg>
