<?xml version="1.0" encoding="UTF-8" standalone="no"?>
<svg
   xmlns:dc="http://purl.org/dc/elements/1.1/"
   xmlns:cc="http://creativecommons.org/ns#"
   xmlns:rdf="http://www.w3.org/1999/02/22-rdf-syntax-ns#"
   xmlns:svg="http://www.w3.org/2000/svg"
   xmlns="http://www.w3.org/2000/svg"
   xmlns:sodipodi="http://sodipodi.sourceforge.net/DTD/sodipodi-0.dtd"
   xmlns:inkscape="http://www.inkscape.org/namespaces/inkscape"
   width="230.27066mm"
   height="240.14mm"
   viewBox="0 0 230.27066 240.14"
   version="1.1"
   id="svg1070"
   inkscape:version="1.0.2 (e86c870879, 2021-01-15)"
   sodipodi:docname="coin-flipped.svg">
  <defs
     id="defs1064" />
  <sodipodi:namedview
     id="base"
     pagecolor="#ffffff"
     bordercolor="#666666"
     borderopacity="1.0"
     inkscape:pageopacity="0.0"
     inkscape:pageshadow="2"
     inkscape:zoom="0.7"
     inkscape:cx="165.69828"
     inkscape:cy="486.53789"
     inkscape:document-units="mm"
     inkscape:current-layer="layer1"
     showgrid="false"
     fit-margin-top="0"
     fit-margin-left="0"
     fit-margin-right="0"
     fit-margin-bottom="0"
     inkscape:window-width="2560"
     inkscape:window-height="1376"
     inkscape:window-x="0"
     inkscape:window-y="0"
     inkscape:window-maximized="1"
     inkscape:document-rotation="0" />
  <metadata
     id="metadata1067">
    <rdf:RDF>
      <cc:Work
         rdf:about="">
        <dc:format>image/svg+xml</dc:format>
        <dc:type
           rdf:resource="http://purl.org/dc/dcmitype/StillImage" />
        <dc:title></dc:title>
      </cc:Work>
    </rdf:RDF>
  </metadata>
  <g
     inkscape:label="Layer 1"
     inkscape:groupmode="layer"
     id="layer1"
     transform="translate(10.019771,-18.821267)">
    <path
       style="fill:#314f9c;fill-opacity:0.941176;stroke-width:0.813703"
       d="m 124.907,238.35902 c 1.50664,-0.0845 2.27214,-0.21389 2.33233,-0.39448 0.0581,-0.17414 0.5571,-0.27332 1.41724,-0.28164 1.76026,-0.017 3.44286,-0.30465 3.5432,-0.60569 0.0445,-0.13345 0.33924,-0.24352 0.655,-0.24459 1.02147,-0.004 5.12194,-1.02561 8.05199,-2.00716 3.94137,-1.32033 9.94284,-3.83057 9.62611,-4.02633 -0.37537,-0.23199 1.49745,-1.26833 2.86769,-1.58684 1.58866,-0.3693 2.94328,-1.15599 6.20838,-3.6055 4.72844,-3.54731 9.18212,-7.7488 16.28602,-15.36382 2.86385,-3.0699 7.56414,-9.39162 8.72172,-11.7304 0.49817,-1.00649 1.2061,-2.31439 1.57318,-2.90644 0.36709,-0.59206 1.27804,-2.23905 2.02434,-3.65998 0.7463,-1.42093 1.65042,-3.10777 2.00916,-3.74855 0.35874,-0.64077 0.53932,-1.09524 0.40128,-1.00993 -0.13804,0.0853 -0.25098,0.0847 -0.25098,-8.2e-4 0,-0.086 0.76892,-1.6796 1.70872,-3.54139 0.94634,-1.87473 1.99604,-4.33217 2.35269,-5.50779 1.16076,-3.82632 2.82793,-10.39897 2.82793,-11.14883 0,-0.86389 0.19243,-1.45513 0.42651,-1.31045 0.18214,0.11256 1.34478,-4.13831 1.72875,-6.32069 0.13272,-0.75431 0.21829,-1.93536 0.19016,-2.62455 -0.0331,-0.81192 0.0527,-1.37824 0.24395,-1.60863 0.22967,-0.27672 0.30574,-1.55647 0.34312,-5.77184 0.0286,-3.23164 0.14163,-5.66074 0.28011,-6.02235 0.29036,-0.75828 0.29291,-3.97978 0.006,-7.35974 -0.1207,-1.42093 -0.25118,-3.11636 -0.28998,-3.76762 -0.0849,-1.42544 -0.49804,-3.01409 -0.78382,-3.01409 -0.11384,0 -0.20699,-0.23184 -0.20699,-0.5152 0,-0.28335 -0.13107,-0.56548 -0.29127,-0.62696 -0.38404,-0.14737 -0.69283,-2.95465 -0.34841,-3.16751 0.17061,-0.10544 0.0144,-1.2706 -0.53634,-4.00154 -0.95702,-4.74527 -1.39005,-6.33548 -1.76434,-6.4791 -0.15896,-0.0611 -0.29055,-0.27009 -0.29241,-0.46465 -0.002,-0.19455 -0.39199,-1.46786 -0.86695,-2.82958 -0.47496,-1.36172 -0.90285,-2.80959 -0.95088,-3.21749 -0.049,-0.41638 -0.28119,-0.88846 -0.52937,-1.07646 -0.26534,-0.20098 -0.72958,-1.2013 -1.16133,-2.50237 -0.39561,-1.19214 -1.01385,-2.59692 -1.37386,-3.12174 -0.62791,-0.91532 -2.00357,-3.496659 -2.00357,-3.759559 0,-0.0696 0.10654,-0.0606 0.23677,0.0198 0.16174,0.1 0.15728,-0.003 -0.0141,-0.32239 -0.13797,-0.2578 -0.38486,-0.52015 -0.54865,-0.583 -0.16379,-0.0628 -0.45613,-0.59098 -0.64965,-1.17362 -0.19352,-0.58264 -0.42946,-1.01138 -0.52431,-0.95276 -0.1777,0.10983 -0.42735,-0.43612 -0.88398,-1.93322 -0.38653,-1.26724 -1.56216,-3.002461 -3.35218,-4.947787 -0.87112,-0.946711 -1.58385,-1.877416 -1.58385,-2.068238 0,-0.388559 -0.94302,-1.76204 -2.18806,-3.18685 -0.45432,-0.519914 -0.82603,-1.035624 -0.82603,-1.14601 0,-0.415949 -8.03533,-9.18016 -10.02454,-10.933865 -1.14165,-1.00649 -2.36058,-2.240886 -2.70871,-2.743102 -0.34814,-0.502214 -1.18597,-1.292558 -1.86185,-1.756321 -0.67588,-0.463763 -1.90048,-1.409201 -2.72133,-2.100973 -3.54471,-2.987307 -5.65859,-4.647694 -6.31164,-4.957587 -0.42492,-0.201638 -0.69995,-0.491695 -0.69995,-0.7382 0,-0.249603 -0.15144,-0.406054 -0.39306,-0.406054 -0.21617,0 -0.62792,-0.25233 -0.91499,-0.560732 -0.84678,-0.909722 -13.5533,-7.100802 -14.12409,-6.88177 -0.15322,0.0588 -1.32132,-0.3395 -2.59578,-0.885108 -3.39448,-1.453216 -7.72016,-2.868443 -7.97834,-2.610264 -0.13707,0.13707 -0.35589,0.139787 -0.61303,0.0076 -0.21993,-0.11305 -0.88428,-0.260522 -1.47634,-0.327715 -0.59205,-0.0672 -1.51242,-0.320631 -2.04527,-0.563194 -1.08465,-0.493756 -1.83322,-0.588782 -1.59443,-0.202402 0.26375,0.426751 -1.56323,0.01302 -2.78303,-0.63023 -1.07385,-0.566288 -1.21291,-0.584494 -4.00358,-0.524184 -3.17456,0.06861 -4.10591,-0.04711 -4.10591,-0.510171 0,-0.231023 -0.32317,-0.305832 -1.32117,-0.305832 -0.72665,0 -2.1618,-0.11192 -3.18922,-0.248712 -1.93124,-0.257127 -3.57171,-0.09881 -2.7019,0.260751 0.23683,0.0979 0.84234,0.124237 1.34558,0.05853 0.60019,-0.07836 0.91499,-0.03698 0.91499,0.120277 0,0.131855 0.33336,0.239737 0.74081,0.239737 0.40746,0 0.80126,0.09778 0.87512,0.217286 0.089,0.144117 -0.5848,0.170162 -2.00115,0.07734 -1.50324,-0.09851 -2.18035,-0.06723 -2.2872,0.105652 -0.0861,0.139339 -0.70516,0.245595 -1.43083,0.245595 -0.9934,0 -1.27905,-0.07212 -1.27905,-0.322939 0,-0.401389 -1.640264,-0.426474 -6.458774,-0.09877 -5.0267,0.341858 -5.59759,0.416823 -5.59759,0.735032 0,0.298301 -0.6446,0.540001 -1.45323,0.544909 -0.26641,0.0016 -0.4844,-0.09579 -0.4844,-0.216454 0,-0.289256 -0.90002,-0.07467 -2.30363,0.549253 -0.61574,0.273701 -1.68144,0.566148 -2.36822,0.649882 -0.68677,0.08373 -1.59318,0.325884 -2.01423,0.538113 -0.42104,0.212227 -0.90545,0.378236 -1.07645,0.368906 -0.17101,-0.0093 -0.58922,-0.0017 -0.92934,0.01696 -0.497,0.02726 -0.57045,0.09171 -0.3741,0.328289 0.47308,0.570041 -0.31567,0.797577 -3.86465,1.114853 -0.30323,0.02712 -1.02984,0.291579 -1.6147,0.587714 -0.58485,0.296134 -2.6619,1.13141 -4.61569,1.856169 -1.95377,0.724759 -3.79452,1.464931 -4.09055,1.644827 -0.29602,0.179896 -1.08311,0.610238 -1.74906,0.956317 -0.66597,0.346078 -1.26452,0.769101 -1.33011,0.940049 -0.0656,0.170949 -0.75491,0.522342 -1.5318,0.780875 -0.77689,0.258532 -1.4687,0.560945 -1.53736,0.672029 -0.21442,0.346951 -3.16932,2.262836 -4.18568,2.713903 -1.00738,0.447076 -1.96136,1.184905 -3.07603,2.379058 -0.65261,0.699141 -1.22982,0.914124 -1.22982,0.458046 0,-0.167754 -0.098,-0.160294 -0.32057,0.02439 -0.17631,0.146326 -0.26612,0.354154 -0.19956,0.461838 0.0665,0.107684 -0.4235,0.436595 -1.08901,0.730914 -0.6655,0.294318 -1.61718,0.933395 -2.11483,1.420168 -0.49765,0.486774 -1.40825,1.212237 -2.02356,1.612138 -1.07803,0.70063 -2.21828,1.929778 -2.21828,2.391206 0,0.122393 -0.21798,0.387056 -0.48441,0.588139 -0.46354,0.349854 -0.45864,0.350601 0.11372,0.01731 1.48123,-0.862514 0.86662,0.126241 -1.71691,2.762095 -1.52454,1.555424 -3.38128,3.506211 -4.12611,4.335087 -0.74483,0.828874 -1.27788,1.361722 -1.18456,1.184106 0.29293,-0.557505 -1.57394,1.040668 -2.48063,2.123608 -0.56755,0.677883 -0.75449,1.034008 -0.54278,1.034008 0.17761,0 0.71824,-0.472135 1.20137,-1.049195 0.48314,-0.577058 0.92286,-1.004775 0.97715,-0.950483 0.1454,0.145401 -2.2775,3.306135 -2.6414,3.445774 -0.44441,0.170536 -0.3841,-0.0786 0.17299,-0.714577 0.3733,-0.426161 0.31996,-0.404769 -0.23383,0.09377 -0.88704,0.798551 -1.28948,1.454388 -0.77019,1.255112 0.27146,-0.104162 0.23705,0.03881 -0.15228,0.632768 -0.27665,0.422051 -0.56574,0.728589 -0.64242,0.681198 -0.25606,-0.158257 -1.24346,1.57039 -1.13465,1.986461 0.0731,0.27936 -0.3187,0.913861 -1.24506,2.016591 -3.1864,3.792986 -4.53825,6.103816 -6.10855,10.441846 -0.41234,1.13908 -1.04854,2.669439 -1.4138,3.400789 -1.02907,2.0605 -1.7007,4.08812 -1.69707,5.12341 0.003,0.73105 0.0555,0.87024 0.23559,0.61982 0.18681,-0.2597 0.2027,-0.23862 0.0811,0.10764 -0.0832,0.23683 -0.48072,1.39941 -0.88343,2.5835 -0.40273,1.18412 -0.90826,2.39514 -1.12342,2.69117 -0.21517,0.29603 -0.55344,1.36172 -0.75173,2.36821 -0.42466,2.15553 -0.4341,2.53757 -0.0373,1.50705 0.45964,-1.19357 0.39665,-0.06 -0.0821,1.47842 -0.24426,0.7848 -0.32014,1.32981 -0.19113,1.37282 0.13308,0.0443 0.0828,0.58348 -0.13315,1.42622 -0.19091,0.7452 -0.34711,1.71305 -0.34711,2.15078 0,0.43773 -0.1432,1.00033 -0.31822,1.2502 -0.38924,0.55572 -0.71509,3.15916 -0.33238,2.65558 0.18955,-0.24941 0.21234,-0.10234 0.10007,0.64588 -0.08,0.53284 -0.22725,1.12502 -0.32736,1.31592 -0.10402,0.19839 -0.0779,0.84414 0.0608,1.50705 0.1411,0.6742 0.26027,3.77439 0.28458,7.4034 0.0236,3.52395 0.1444,6.72595 0.27731,7.35113 0.12953,0.60922 0.18078,1.44483 0.11391,1.85692 -0.12916,0.79595 0.39822,4.49614 0.89694,6.29298 0.16433,0.59206 0.45767,2.43281 0.65189,4.09056 0.33955,2.89818 0.81068,5.14446 1.17402,5.5976 0.35367,0.44105 1.50707,3.68093 1.50802,4.23599 8.2e-4,0.59297 1.77537,6.44969 2.75524,9.09442 0.42539,1.14817 0.58664,1.39476 0.7039,1.07646 0.12045,-0.32699 0.27744,-0.12177 0.75467,0.98651 1.02019,2.36921 3.08289,6.28594 3.4529,6.5565 0.19302,0.14113 0.38027,0.5239 0.41613,0.8506 0.0359,0.32669 0.20181,0.70716 0.36876,0.84547 0.33816,0.28014 1.34962,1.82566 2.73594,4.18056 0.50539,0.85848 1.04956,1.56086 1.20926,1.56086 0.15972,0 0.69995,0.60551 1.20053,1.34558 0.50057,0.74006 1.31977,1.78153 1.82044,2.31439 1.25584,1.33657 1.72033,1.95907 1.90769,2.55665 0.12342,0.39365 0.0931,0.4762 -0.13186,0.35863 -0.16069,-0.084 0.01,0.12184 0.37871,0.45745 0.73282,0.6665 3.10199,3.62177 3.11768,3.88891 0.0276,0.46985 2.38641,2.31559 2.63791,2.0641 0.0716,-0.0716 1.66444,1.38548 3.53972,3.23788 1.87529,1.8524 3.50161,3.368 3.61405,3.368 0.11244,0 0.83282,0.55843 1.60084,1.24096 0.76803,0.68253 1.79179,1.50786 2.27502,1.83405 0.48323,0.3262 1.15531,0.88191 1.49351,1.2349 0.33818,0.353 0.73022,0.64181 0.87118,0.64181 0.14097,0 0.37212,0.13957 0.51369,0.31014 0.14157,0.17058 0.38624,0.26071 0.54373,0.20027 0.15747,-0.0604 0.68656,0.0943 1.17574,0.34388 0.48919,0.24956 0.97024,0.40381 1.06901,0.34276 0.0988,-0.0611 0.86241,0.60273 1.69697,1.47505 1.07092,1.11938 2.07695,1.90141 3.41918,2.65791 2.79116,1.57313 7.10918,3.70777 7.23853,3.57841 0.0617,-0.0617 1.383,0.47609 2.93633,1.19498 1.55333,0.7189 2.97069,1.30708 3.1497,1.30708 0.17901,0 1.41205,0.42744 2.7401,0.94985 3.39679,1.33619 11.01253,3.72001 12.4247,3.88907 0.6507,0.0778 2.05549,0.36783 3.12174,0.64427 1.06626,0.27644 2.51993,0.57255 3.23039,0.65801 0.71046,0.0855 1.42767,0.26455 1.59379,0.39796 0.166124,0.1334 1.086494,0.25609 2.045284,0.27265 3.41203,0.0589 4.66734,0.28283 5.83378,1.04058 1.37437,0.89282 2.05202,1.09685 4.95172,1.49089 2.59099,0.35207 8.23064,0.80425 9.25757,0.74223 0.35523,-0.0214 1.65511,-0.0955 2.88861,-0.16466 z m -8.25131,-13.69078 c -0.58126,-0.17634 -1.59852,-0.32331 -2.26056,-0.3266 -1.04036,-0.004 -1.287,-0.0909 -1.81737,-0.63159 -0.33752,-0.34409 -0.95258,-0.78645 -1.36682,-0.98301 -1.01729,-0.48275 -5.18875,-1.21944 -5.95705,-1.05205 -0.33967,0.074 -0.82408,0.0403 -1.07646,-0.0747 -0.88033,-0.40141 -2.5287,-0.69862 -5.680844,-1.02429 -1.77892,-0.18379 -4.52104,-0.65507 -6.23763,-1.07204 -1.68475,-0.40923 -3.19901,-0.69194 -3.365,-0.62825 -0.32277,0.12386 -2.84039,-0.80398 -6.16638,-2.27256 -1.12491,-0.4967 -2.28748,-0.90315 -2.58351,-0.90323 -0.82874,-2.1e-4 -3.02467,-0.84327 -3.97872,-1.52747 -0.47135,-0.338 -0.89056,-0.51385 -0.93158,-0.39077 -0.12517,0.37548 -1.49972,-0.33025 -2.63996,-1.35542 -0.86911,-0.7814 -1.32656,-1.00935 -2.60511,-1.29808 -1.77251,-0.40028 -3.40609,-1.26504 -3.41216,-1.80628 -0.004,-0.40489 -5.07145,-3.86792 -5.31013,-3.62925 -0.0769,0.0768 -0.0268,0.13983 0.11136,0.13983 0.13814,0 0.25117,0.14531 0.25117,0.32294 0,0.17761 0.0867,0.32293 0.19271,0.32293 0.10599,0 0.65425,0.43597 1.21836,0.96882 1.37228,1.29624 0.95328,1.23203 -0.7024,-0.10765 -0.73171,-0.59205 -1.53982,-1.07646 -1.79579,-1.07646 -0.55645,0 -1.84358,-1.02995 -1.76128,-1.40935 0.0569,-0.26249 -3.51123,-3.50088 -4.67444,-4.2424 -0.32533,-0.20741 -1.05634,-0.9566 -1.62444,-1.6649 -0.82134,-1.02402 -1.12702,-1.2642 -1.4923,-1.17251 -0.50863,0.12765 -1.56073,-0.7919 -1.33111,-1.16343 0.15449,-0.24997 -1.06024,-1.32731 -1.49659,-1.32731 -0.29879,0 -2.03375,-2.02439 -2.03375,-2.37304 0,-0.0998 -0.1975,-0.24414 -0.43887,-0.32074 -0.24138,-0.0766 -0.68322,-0.50851 -0.98184,-0.95977 -0.38047,-0.57492 -0.65943,-0.79002 -0.93211,-0.7187 -0.29789,0.0778 -0.57253,-0.22614 -1.17109,-1.29647 -0.43007,-0.76903 -0.78194,-1.53392 -0.78194,-1.69974 0,-0.16582 -0.29394,-0.58312 -0.65321,-0.92732 -0.86576,-0.82943 -3.15908,-4.21688 -3.79446,-5.60475 -0.27818,-0.60762 -0.7092,-1.28884 -0.95781,-1.51384 -0.24861,-0.225 -0.68823,-0.81213 -0.97693,-1.30475 -0.28869,-0.49261 -0.65111,-0.9441 -0.80538,-1.00329 -0.15428,-0.0593 -0.40723,-0.56031 -0.56214,-1.11356 -0.1549,-0.55325 -0.39395,-1.11914 -0.53121,-1.25753 -0.51134,-0.51552 -1.78834,-2.89915 -2.15984,-4.03153 -0.21144,-0.64449 -0.70984,-1.66624 -1.10756,-2.27054 -0.74707,-1.13514 -0.88924,-1.59241 -0.49511,-1.59241 0.1254,0 0.16714,-0.0985 0.0928,-0.21881 -0.0743,-0.12034 -0.21456,-0.16977 -0.31151,-0.10985 -0.097,0.0599 -0.24181,-0.35023 -0.32186,-0.91147 -0.17444,-1.22294 -0.54428,-2.40784 -0.88972,-2.85042 -0.13863,-0.17762 -0.32084,-0.80735 -0.40492,-1.3994 -0.15215,-1.0713 -0.69121,-2.18657 -1.30179,-2.69331 -0.24889,-0.20655 -0.38948,-0.20847 -0.6303,-0.009 -0.25848,0.21451 -0.36463,0.0733 -0.63891,-0.85038 -0.46906,-1.57952 -1.34061,-5.947 -1.73997,-8.71936 -0.42457,-2.94732 -0.48562,-4.96337 -0.23734,-7.83748 0.14506,-1.67923 0.13133,-2.20146 -0.0549,-2.08638 -0.39249,0.24257 -0.30838,-0.80094 0.39752,-4.9313 0.35523,-2.07855 0.64779,-4.52741 0.65014,-5.4419 0.004,-1.86652 0.34075,-4.52268 0.61663,-4.87532 0.0999,-0.12765 0.18659,-0.37742 0.19271,-0.55503 0.006,-0.17762 0.1711,-1.09799 0.36663,-2.04528 0.19709,-0.95486 0.30278,-2.13154 0.23717,-2.64065 -0.15723,-1.22027 0.39873,-3.77684 1.08574,-4.99271 0.49846,-0.88218 1.15682,-2.87737 1.15682,-3.50583 0,-0.13527 -0.15034,-0.0578 -0.33409,0.17198 -0.32094,0.40148 -0.32832,0.39674 -0.18766,-0.12032 0.0805,-0.29604 0.33141,-0.90486 0.55752,-1.35297 0.22611,-0.4481 0.36092,-0.89593 0.29958,-0.99518 -0.0613,-0.0992 0.12257,-0.74987 0.4087,-1.44583 0.28612,-0.69598 0.57565,-1.5277 0.64341,-1.8483 0.0678,-0.3206 0.3646,-0.84338 0.65962,-1.16173 0.29504,-0.31834 0.53643,-0.70999 0.53643,-0.87031 0,-0.16033 0.0999,-0.2915 0.22204,-0.2915 0.12212,0 0.20034,-0.32215 0.17382,-0.71587 -0.0309,-0.45935 0.1262,-0.96081 0.4385,-1.3994 0.5738,-0.805819 0.74898,-0.866339 0.57641,-0.19912 -0.069,0.26643 0.18042,-0.14532 0.55406,-0.914989 0.37365,-0.76967 1.05499,-2.17445 1.51412,-3.12174 0.45911,-0.94728 1.51052,-2.69115 2.33645,-3.87526 0.82593,-1.1841 1.89874,-2.855531 2.38402,-3.714289 0.48528,-0.858757 0.96402,-1.510892 1.06384,-1.449189 0.33729,0.208455 3.36238,-4.449008 3.13191,-4.821919 -0.0698,-0.112772 1.10923,-1.373075 2.61986,-2.800667 1.51061,-1.427599 3.3763,-3.325812 4.14598,-4.218254 0.76966,-0.892443 1.59316,-1.682702 1.82997,-1.756131 0.23683,-0.07343 1.31733,-0.784885 2.40112,-1.581015 1.0838,-0.796128 2.79973,-1.912941 3.8132,-2.481805 1.01347,-0.568863 1.79053,-1.118633 1.72683,-1.221708 -0.17107,-0.276806 0.62149,-0.872792 3.14641,-2.366022 1.2433,-0.735289 2.66512,-1.60861 3.15959,-1.940706 0.49447,-0.332099 1.03344,-0.552242 1.19769,-0.489209 0.16427,0.06303 0.47711,-0.08258 0.69521,-0.323574 0.21809,-0.240997 0.5033,-0.438177 0.63378,-0.438177 0.45502,0 4.75563,-1.842973 4.78591,-2.050948 0.0168,-0.115291 0.59809,-0.389168 1.29176,-0.608617 0.69367,-0.219449 1.84252,-0.701018 2.55299,-1.070153 0.97632,-0.507275 1.60716,-0.680365 2.5835,-0.70887 0.71046,-0.02074 1.87304,-0.193805 2.5835,-0.384582 0.71046,-0.190779 1.84202,-0.39632 2.51457,-0.456759 1.23154,-0.110675 3.08674,-0.780427 2.84138,-1.025783 -0.0726,-0.07266 0.14576,-0.193345 0.48536,-0.268202 0.3396,-0.07487 0.76278,-0.184214 0.94039,-0.243012 0.49599,-0.164191 8.40013,-0.694955 11.302854,-0.75899 0.35522,-0.0078 1.34764,0.03629 2.20535,0.09806 0.85772,0.06177 1.51222,0.03584 1.45446,-0.05762 -0.13377,-0.216449 0.41712,-0.430341 1.10837,-0.430341 0.29413,0 0.72093,-0.09963 0.94845,-0.221389 0.31344,-0.167748 0.79251,-0.08624 1.9773,0.336404 0.86,0.306786 2.19336,0.649919 2.96302,0.762516 3.80904,0.557238 7.73262,1.097931 8.50405,1.171908 0.79334,0.07608 4.01882,0.922798 4.8979,1.285748 0.22019,0.09091 0.37676,0.06037 0.37676,-0.07348 0,-0.372644 5.72941,1.787446 9.90344,3.733774 1.36172,0.634964 2.71806,1.206045 3.01409,1.269068 0.29602,0.06302 1.11952,0.468328 1.82998,0.900677 0.71047,0.432349 1.8246,1.071115 2.47586,1.419482 0.65126,0.348363 1.60338,0.967319 2.11584,1.375458 0.51245,0.408136 1.14408,0.742067 1.40363,0.742067 0.25955,0 1.05129,0.434453 1.75942,0.965454 0.70814,0.530999 1.72272,1.184948 2.25463,1.453222 0.53191,0.268271 1.06475,0.590178 1.18411,0.715344 0.11934,0.125169 0.60452,0.50755 1.07816,0.84974 0.95871,0.692626 4.96189,4.140487 5.53311,4.765554 1.77162,1.938628 4.67964,4.814095 4.86861,4.814095 0.12927,0 0.40623,0.360755 0.61547,0.801684 0.20923,0.440921 0.96461,1.390455 1.67861,2.110061 2.48478,2.504268 6.78726,8.555795 8.87412,12.481635 0.50355,0.94729 0.91837,1.58818 0.92183,1.42419 0.009,-0.41159 0.80463,0.63343 1.19612,1.57041 0.17446,0.41755 0.31721,1.005789 0.31721,1.307199 0,0.30141 0.66595,1.87884 1.47988,3.50541 4.11711,8.22768 6.9216,16.59233 7.23538,21.58018 0.0335,0.53285 0.21725,1.88918 0.40829,3.01409 0.19104,1.1249 0.44789,3.35317 0.57078,4.95172 0.12289,1.59854 0.37796,3.41241 0.56682,4.03081 0.28276,0.92587 0.32459,1.87604 0.23693,5.3823 -0.0585,2.34187 -0.18432,4.44337 -0.27949,4.67002 -0.12238,0.29145 -0.0993,0.3665 0.0788,0.25641 0.3227,-0.19943 0.3648,-0.52869 -0.48315,3.77875 -0.40427,2.05363 -0.88436,5.18708 -1.06688,6.96324 -0.18251,1.77617 -0.53831,4.00444 -0.79065,4.95172 -0.25235,0.94729 -0.4794,2.189 -0.50457,2.75937 -0.0252,0.57036 -0.15619,1.10527 -0.29116,1.18868 -0.42411,0.26213 -2.58777,6.11186 -2.74053,7.40938 -0.10252,0.87083 -0.26126,1.30049 -0.53453,1.44673 -0.21616,0.11568 -0.79941,1.23824 -1.31395,2.52892 -1.52645,3.82892 -2.25232,5.28478 -3.14298,6.30378 -0.46573,0.53285 -1.80418,2.47049 -2.97432,4.30585 -1.17015,1.83536 -2.33671,3.57923 -2.59236,3.87525 -0.60252,0.69768 -1.39758,2.09816 -1.39758,2.46181 0,0.15635 -0.13956,0.4001 -0.31014,0.54167 -0.17058,0.14157 -0.26412,0.37732 -0.20787,0.52391 0.1434,0.37369 -1.36619,2.2925 -1.70215,2.16357 -0.15664,-0.0602 -1.12336,0.84804 -2.2432,2.10725 -1.08236,1.21709 -2.50249,2.738 -3.15583,3.37981 -0.65335,0.64182 -1.14703,1.23305 -1.09709,1.31387 0.13838,0.22391 -3.56476,3.74649 -4.07609,3.87735 -0.24645,0.063 -0.53635,0.31236 -0.64422,0.55397 -0.10787,0.24161 -0.8206,0.86819 -1.58384,1.39237 -0.76325,0.5242 -2.03501,1.54288 -2.82613,2.26377 -1.75395,1.59823 -2.51118,2.11047 -2.82922,1.91391 -0.13309,-0.0822 -0.37985,0.0472 -0.54837,0.2879 -0.16852,0.2406 -0.63662,0.54643 -1.04022,0.67963 -0.4036,0.1332 -0.78415,0.37336 -0.84567,0.53369 -0.0615,0.16033 -0.6224,0.40099 -1.24638,0.53481 -0.71628,0.15362 -2.09081,0.81539 -3.72861,1.79514 -1.42676,0.8535 -2.70635,1.52631 -2.84354,1.49513 -0.13719,-0.0312 -1.05189,0.23615 -2.03266,0.5941 -0.98077,0.35794 -1.95545,0.65079 -2.16595,0.65079 -0.2105,0 -1.08811,0.22893 -1.95024,0.50873 -2.96894,0.96356 -6.23896,1.38281 -12.54742,1.60869 -0.47364,0.017 -1.33675,-0.11344 -1.91802,-0.28977 z m -5.85735,-20.65226 c 0.77109,-0.28174 2.52232,-1.7411 2.44547,-2.03787 -0.0183,-0.0707 0.12619,-0.42741 0.3211,-0.79272 0.19491,-0.36532 0.60229,-1.62478 0.90529,-2.7988 0.49201,-1.90636 0.53286,-2.35326 0.38204,-4.17987 -0.0929,-1.1249 -0.11703,-3.15941 -0.0537,-4.52113 l 0.1152,-2.47586 0.70379,-0.0678 c 0.38708,-0.0373 0.64778,-0.15838 0.57935,-0.26912 -0.0684,-0.11075 -0.0414,-0.20135 0.06,-0.20135 0.77972,0 5.42285,-1.16469 5.95551,-1.4939 0.36799,-0.22743 0.81396,-0.39718 0.99105,-0.37725 0.57106,0.0643 5.1414,-2.24841 5.02787,-2.54425 -0.0599,-0.15622 0.36211,-0.57486 0.98921,-0.9812 0.60157,-0.38981 1.49145,-1.22422 1.97753,-1.85426 0.78071,-1.01195 1.15678,-1.26412 1.74639,-1.17103 0.0888,0.014 0.16147,-0.0851 0.16147,-0.22036 0,-0.33223 1.68668,-3.02516 2.09996,-3.35278 0.35585,-0.28208 0.66451,-2.42884 0.34947,-2.43061 -0.10387,-6.4e-4 -0.21348,-0.42944 -0.24356,-0.95301 -0.10503,-1.82759 -1.41864,-4.01029 -2.85174,-4.73843 -0.84583,-0.42976 -3.85863,-0.84181 -4.38944,-0.60033 -0.25005,0.11376 -0.92895,0.38938 -1.50866,0.61251 -0.57972,0.22312 -1.16101,0.59943 -1.29176,0.83625 -0.13075,0.23682 -0.32779,0.4955 -0.43787,0.57484 -0.23749,0.17118 -0.33631,0.61057 -0.41576,1.84866 -0.0612,0.95411 -0.79347,2.20529 -1.29064,2.20529 -0.15343,0 -0.49779,0.23292 -0.76524,0.51761 -0.26745,0.28469 -1.08361,0.81078 -1.81369,1.16908 -3.98363,1.95507 -9.94816,2.12726 -15.37975,0.44397 -1.15201,-0.35702 -2.52609,-0.74103 -3.05351,-0.85337 -1.37603,-0.29308 -4.094134,-2.14517 -4.690134,-3.19581 -0.26513,-0.46738 -0.67118,-0.9098 -0.90233,-0.98316 -0.23115,-0.0734 -0.76742,-0.75414 -1.1917,-1.51284 -0.42429,-0.7587 -0.87194,-1.44155 -0.99476,-1.51747 -0.84252,-0.5207 -1.96829,-6.87892 -1.29197,-7.29691 0.10811,-0.0668 0.26067,-0.50094 0.33903,-0.96474 0.0784,-0.46378 0.42772,-1.29304 0.77636,-1.84278 0.34863,-0.54975 0.58408,-1.0801 0.52323,-1.17857 -0.0609,-0.0985 0.36879,-0.54466 0.95477,-0.99153 0.58598,-0.44687 1.01776,-0.88963 0.9595,-0.98389 -0.15495,-0.25072 2.09478,-1.33062 4.324024,-2.07557 1.86054,-0.62175 5.89589,-1.555 6.72376,-1.555 0.21861,0 0.78117,-0.19561 1.25013,-0.4347 0.71233,-0.36316 1.10069,-0.41301 2.35991,-0.3029 1.4108,0.12337 1.63815,0.0778 3.55254,-0.7112 5.00564,-2.06316 9.35414,-5.64595 12.67037,-10.43924 0.55038,-0.79552 1.07334,-1.44947 1.16215,-1.45323 0.22671,-0.01 1.02264,-0.82931 1.02264,-1.05319 0,-0.10185 0.39281,-1.03542 0.87291,-2.0746 1.17755,-2.54881 1.88927,-4.80027 2.13831,-6.76441 0.11387,-0.89802 0.30519,-2.40781 0.42516,-3.35511 0.46998,-3.71088 0.56835,-5.6588 0.2802,-5.54822 -0.21007,0.0806 -0.27191,-0.50732 -0.27191,-2.58535 0,-2.31914 -0.0764,-2.91712 -0.55446,-4.34054 -0.7395,-2.20175 -3.1568,-7.13802 -3.84965,-7.8612 -0.3045,-0.31783 -0.49377,-0.63774 -0.4206,-0.71091 0.20268,-0.20269 -2.08899,-3.592639 -3.12179,-4.617879 -0.5017,-0.49803 -1.09267,-0.96281 -1.31327,-1.03282 -0.2206,-0.07 -0.43145,-0.33779 -0.46856,-0.59505 -0.0884,-0.61313 -2.27154,-2.13015 -4.393,-3.05263 -0.90037,-0.39151 -2.06353,-1.01248 -2.58483,-1.37992 l -0.9478,-0.66807 -0.0153,-1.672952 c -0.008,-0.920127 -0.10504,-2.448 -0.2147,-3.395288 -0.10966,-0.947288 -0.20076,-1.939949 -0.20245,-2.205915 -0.002,-0.268295 -0.12178,-0.459987 -0.26971,-0.430588 -0.34574,0.06876 -0.45923,-2.237299 -0.1204,-2.446706 0.40562,-0.250693 -0.63061,-2.040747 -1.77908,-3.073327 -0.58345,-0.524565 -1.51347,-1.107993 -2.06672,-1.296505 -1.11822,-0.381015 -4.05263,-0.478526 -3.83566,-0.127459 0.0732,0.118411 -0.0291,0.215293 -0.22727,0.215293 -0.98074,0 -3.75564,2.182317 -3.75564,2.953618 0,0.09904 -0.20134,0.352466 -0.44742,0.56317 -0.35966,0.307949 -0.42197,0.539058 -0.31763,1.178131 0.0714,0.437268 0.0379,1.510616 -0.0743,2.385215 -0.12137,0.945563 -0.12606,1.795517 -0.0116,2.096701 0.10591,0.278579 0.25886,1.153448 0.33987,1.944163 0.13152,1.283795 0.10915,1.423019 -0.20906,1.300907 -0.38309,-0.147003 -0.4975,0.167679 -0.14105,0.387973 0.11841,0.07315 0.2153,0.325498 0.2153,0.560699 0,0.370714 -0.0986,0.409137 -0.74072,0.288669 -0.86116,-0.161552 -2.544984,0.322811 -3.983154,1.145801 -0.52595,0.30097 -1.26333,0.57158 -1.63863,0.60136 -0.3753,0.0298 -1.46418,0.50841 -2.41976,1.06364 -1.90992,1.10974 -2.30934,1.65613 -2.61248,3.57384 -0.35182,2.2256 0.63535,4.649829 2.4601,6.041419 1.3845,1.05583 2.5087,1.34231 4.72498,1.20404 1.48365,-0.0926 1.932444,-0.2084 2.522774,-0.65114 1.19271,-0.89453 2.88429,-1.25308 5.67253,-1.20238 1.36021,0.0247 2.47312,0.1247 2.47312,0.22211 0,0.0974 0.13747,0.17713 0.30549,0.17713 0.16802,0 0.57977,0.14042 0.91499,0.31205 0.33523,0.17164 1.26086,0.60131 2.05698,0.95482 1.69972,0.75476 3.35368,2.21424 4.49198,3.96379 0.44649,0.68626 0.89132,1.23296 0.9885,1.21488 0.29496,-0.055 1.30355,2.80267 1.69052,4.78966 0.21159,1.08642 0.48601,1.91673 0.65488,1.98153 0.22347,0.0857 0.27103,0.56283 0.20572,2.06286 -0.0512,1.17481 -0.005,1.90193 0.11587,1.8272 0.41012,-0.25347 0.18249,1.18868 -0.34946,2.21399 -0.50118,0.966 -0.52847,1.1474 -0.30572,2.03202 0.30522,1.21211 -0.0376,2.75242 -0.64815,2.91207 -0.21901,0.0573 -0.51841,0.39437 -0.66534,0.74909 -0.14695,0.35474 -0.64434,1.22853 -1.10533,1.94178 -0.78827,1.21961 -0.99597,1.89881 -0.35302,1.15443 0.75944,-0.87924 1.48882,-1.62924 1.58446,-1.62924 0.25683,0 0.0546,0.4364 -0.60929,1.31461 -0.74917,0.99107 -1.16049,1.81958 -0.78952,1.59031 0.40924,-0.25292 0.20848,0.25349 -0.28384,0.716 -0.37443,0.35177 -0.55765,0.40565 -0.74437,0.21892 -0.18673,-0.18673 -0.55441,0.004 -1.49383,0.77819 -1.40246,1.15459 -2.8218,1.93042 -3.93918,2.15322 -1.29636,0.25848 -1.50705,0.35323 -1.50705,0.67777 0,0.3696 -0.88491,0.76561 -1.15207,0.51556 -0.2322,-0.21734 -1.38115,0.10493 -1.83786,0.51551 -0.19091,0.17161 -0.78307,0.34975 -1.31591,0.39587 -0.53286,0.0462 -1.18043,0.19928 -1.43907,0.34037 -0.25864,0.14109 -0.83993,0.25801 -1.29175,0.25981 -0.5136,0.003 -0.71681,0.0698 -0.5422,0.18048 0.54204,0.34384 -0.31497,0.70353 -1.854764,0.77848 -1.32113,0.0643 -2.28794,0.33653 -2.62274,0.7385 -0.103,0.12365 -1.40405,0.61731 -4.19819,1.59293 -0.71047,0.24806 -1.3402,0.51272 -1.39941,0.58812 -0.0593,0.0754 -0.61584,0.47658 -1.23699,0.8915 -0.62114,0.41493 -1.06961,0.81414 -0.9966,0.88715 0.073,0.073 -0.29072,0.34255 -0.80829,0.599 -0.52331,0.25929 -1.37107,0.98886 -1.90984,1.64361 -0.53284,0.64754 -1.18931,1.3822 -1.45881,1.63256 -0.62603,0.58156 -1.76955,2.3575 -1.77387,2.75488 -0.002,0.16725 -0.0987,0.44941 -0.21528,0.62703 -0.18845,0.28706 -0.23799,0.28706 -0.44597,0 -0.18572,-0.25636 -0.20967,-0.21386 -0.11613,0.20609 0.0796,0.35778 -0.0449,0.74238 -0.38485,1.1881 -0.3011,0.39476 -0.56629,1.13231 -0.66128,1.83918 -0.0872,0.64907 -0.29316,1.50682 -0.45764,1.90611 -0.16448,0.3993 -0.29906,1.09597 -0.29906,1.54816 0,0.4522 -0.0969,0.88204 -0.21528,0.95523 -0.11842,0.0732 -0.2153,0.24249 -0.2153,0.37624 0,0.13375 0.21799,0.009 0.48441,-0.27765 l 0.4844,-0.52083 0.0618,2.24019 c 0.034,1.23211 -0.0336,2.51391 -0.15027,2.84845 -0.11662,0.33454 -0.12827,0.60826 -0.0259,0.60826 0.1024,0 0.22312,-0.1109 0.26831,-0.24644 0.0452,-0.13553 0.19409,0.46997 0.33092,1.34558 0.13682,0.8756 0.49545,2.44119 0.79696,3.47907 0.59004,2.03111 0.67226,2.62853 0.3329,2.41878 -0.11841,-0.0732 -0.21529,-0.0353 -0.21529,0.0843 0,0.11952 0.13303,0.29477 0.29564,0.38947 0.16259,0.0947 0.55935,0.69579 0.88168,1.33578 0.34901,0.69298 0.64773,1.06383 0.73854,0.91688 0.0866,-0.14014 0.60195,0.73031 1.19291,2.01495 1.27056,2.76193 2.07097,3.6953 5.22599,6.09401 3.06394,2.32946 4.34074,3.06213 5.5017,3.15704 1.14093,0.0933 3.28867,0.87259 4.140434,1.50235 0.41994,0.31049 1.09777,0.52228 1.93763,0.60542 1.2035,0.11913 1.25498,0.10649 0.75352,-0.18505 l -0.53823,-0.31292 0.64587,0.057 c 0.52545,0.0465 0.64864,0.15744 0.66065,0.5953 0.008,0.29604 0.0929,0.7124 0.18844,0.92525 0.0955,0.21287 0.12447,0.75387 0.0644,1.20222 -0.0602,0.44836 -0.0196,0.9755 0.09,1.17145 0.13164,0.23522 0.0881,0.68408 -0.12827,1.32129 -0.22425,0.66047 -0.26548,1.11987 -0.13065,1.45563 0.10835,0.26982 0.20314,0.35333 0.21064,0.18558 0.007,-0.16775 0.0717,-0.2469 0.14275,-0.1759 0.071,0.071 0.0112,0.48628 -0.13285,0.92282 -0.16665,0.50496 -0.32074,0.69857 -0.42356,0.53219 -0.26656,-0.4313 -0.38612,0.54705 -0.41531,3.39862 -0.0222,2.15837 0.0472,2.81785 0.37325,3.55233 0.75899,1.70972 2.71076,2.98724 4.49197,2.94016 0.3334,-0.009 0.84838,0.0368 1.14441,0.10121 0.29602,0.0645 0.91457,-0.0203 1.37453,-0.18836 z m -6.957,-4.58842 c 0.0135,-0.52464 0.0362,-0.54303 0.20016,-0.16147 0.25268,0.58804 0.25268,0.75352 0,0.75352 -0.11842,0 -0.20848,-0.26643 -0.20016,-0.59205 z M 88.325156,177.95217 c -0.14949,-0.18015 -0.17281,-0.32294 -0.0527,-0.32294 0.11841,0 0.3359,0.14532 0.48331,0.32294 0.1495,0.18014 0.17281,0.32293 0.0527,0.32293 -0.11841,0 -0.33589,-0.14531 -0.48331,-0.32293 z m -4.83101,-7.21229 c -0.13742,-0.51726 -0.12998,-0.52194 0.19109,-0.12032 0.18375,0.22984 0.33409,0.56409 0.33409,0.74276 0,0.45509 -0.34871,0.0418 -0.52518,-0.62244 z m 32.814914,-64.91551 c -0.22752,-0.27415 -0.21419,-0.30566 0.0813,-0.19226 0.19436,0.0746 0.35339,0.22212 0.35339,0.32786 0,0.27686 -0.12463,0.23798 -0.43467,-0.1356 z m -34.205274,63.30081 c 0.0638,-0.1184 0.0177,-0.74813 -0.10272,-1.39939 -0.12041,-0.65127 -0.24975,-0.99034 -0.28741,-0.75353 -0.0918,0.57741 0.24305,2.42543 0.39013,2.15292 z m -56.77783,-15.78637 c 0.0953,-0.27535 0.11592,-0.55791 0.0459,-0.62793 -0.22318,-0.22318 -0.38005,0.10589 -0.29827,0.62567 l 0.0792,0.50289 z m -1.25816,-5.20461 c -0.0611,-0.65125 -0.11208,-1.54742 -0.11312,-1.99145 -8.1e-4,-0.4612 -0.10743,-0.80735 -0.24807,-0.80735 -0.29307,0 -0.0995,2.67901 0.25136,3.47888 0.17292,0.39426 0.19685,0.24614 0.10983,-0.68008 z m 0.49689,0 c 0,-0.29603 -0.0489,-0.41712 -0.10858,-0.26911 -0.0597,0.14801 -0.0597,0.39021 0,0.53822 0.0597,0.14802 0.10858,0.0269 0.10858,-0.26911 z m -0.61187,-4.62879 c 0,-0.29602 -0.0372,-0.53822 -0.0826,-0.53822 -0.0454,0 -0.12885,0.2422 -0.18543,0.53822 -0.0566,0.29604 -0.0195,0.53824 0.0826,0.53824 0.10199,0 0.18545,-0.2422 0.18545,-0.53824 z m 67.27031,76.73794 c -0.0964,-0.15595 0.12282,-0.18118 0.68699,-0.0791 1.09941,0.19896 1.18133,0.30811 0.23125,0.30811 -0.42718,0 -0.8404,-0.10307 -0.91824,-0.22902 z m -2.89797,-0.97812 c 0,-0.0465 0.14534,-0.0847 0.32295,-0.0847 0.17761,0 0.32293,0.0938 0.32293,0.20853 0,0.1147 -0.14532,0.15277 -0.32293,0.0847 -0.17761,-0.0682 -0.32295,-0.162 -0.32295,-0.20853 z m -65.01168,-87.22412 c 0.005,-0.65878 0.0473,-0.73722 0.22842,-0.42624 0.12203,0.20961 0.161,0.57292 0.0866,0.80735 -0.20666,0.6511 -0.32225,0.51126 -0.31502,-0.38111 z m 10.98021,-37.353189 c 0.01,-0.38378 0.60773,-1.12569 0.77361,-0.95981 0.0765,0.0765 -0.0216,0.38425 -0.21803,0.68398 -0.39341,0.60041 -0.56603,0.68611 -0.55558,0.27583 z m -10.88878,-1.63583 c 0.34002,-0.3329 0.34558,-0.31623 0.087,0.26085 -0.15196,0.33906 -0.31542,0.49909 -0.36324,0.35562 -0.0479,-0.14347 0.0765,-0.42088 0.27629,-0.61647 z M 140.33931,51.467576 c -0.3884,-0.388395 -0.0235,-0.374209 0.84009,0.03266 l 0.86117,0.405751 -0.7468,-0.11537 c -0.41074,-0.06345 -0.84024,-0.20882 -0.95446,-0.323038 z M 33.519466,77.1509 c 0.11684,-0.306834 0.0921,-0.331562 -0.12052,-0.120521 -0.14713,0.146042 -0.21328,0.319761 -0.14699,0.386047 0.0663,0.06628 0.18666,-0.0532 0.26751,-0.265526 z m 3.16556,-3.733723 0.50825,-0.441236 -0.6997,0.339117 c -0.68852,0.333696 -0.88463,0.543352 -0.50826,0.543352 0.1053,0 0.42016,-0.198556 0.69971,-0.441233 z m 2.78591,-2.495279 c 0.49685,-0.540196 0.49912,-0.555153 0.0488,-0.320932 -0.49963,0.259818 -0.81682,0.640573 -0.66234,0.795058 0.0508,0.05087 0.32699,-0.162496 0.61361,-0.474126 z"
       id="path1637"
       inkscape:connector-curvature="0" />
  </g>
</svg>
