<?xml version="1.0" encoding="UTF-8" standalone="no"?>
<svg
   xmlns:dc="http://purl.org/dc/elements/1.1/"
   xmlns:cc="http://creativecommons.org/ns#"
   xmlns:rdf="http://www.w3.org/1999/02/22-rdf-syntax-ns#"
   xmlns:svg="http://www.w3.org/2000/svg"
   xmlns="http://www.w3.org/2000/svg"
   xmlns:sodipodi="http://sodipodi.sourceforge.net/DTD/sodipodi-0.dtd"
   xmlns:inkscape="http://www.inkscape.org/namespaces/inkscape"
   width="250mm"
   height="250mm"
   viewBox="0 0 250 250"
   version="1.1"
   id="svg7788"
   inkscape:version="1.0.2 (e86c870879, 2021-01-15)"
   sodipodi:docname="full-coin.svg">
  <defs
     id="defs7782" />
  <sodipodi:namedview
     id="base"
     pagecolor="#ffffff"
     bordercolor="#666666"
     borderopacity="1.0"
     inkscape:pageopacity="0.0"
     inkscape:pageshadow="2"
     inkscape:zoom="0.49497475"
     inkscape:cx="522.05695"
     inkscape:cy="527.71434"
     inkscape:document-units="mm"
     inkscape:current-layer="layer1"
     inkscape:document-rotation="0"
     showgrid="false"
     fit-margin-top="0"
     fit-margin-left="0"
     fit-margin-right="0"
     fit-margin-bottom="0"
     inkscape:window-width="1530"
     inkscape:window-height="1205"
     inkscape:window-x="26"
     inkscape:window-y="23"
     inkscape:window-maximized="0" />
  <metadata
     id="metadata7785">
    <rdf:RDF>
      <cc:Work
         rdf:about="">
        <dc:format>image/svg+xml</dc:format>
        <dc:type
           rdf:resource="http://purl.org/dc/dcmitype/StillImage" />
        <dc:title></dc:title>
      </cc:Work>
    </rdf:RDF>
  </metadata>
  <g
     inkscape:label="Layer 1"
     inkscape:groupmode="layer"
     id="layer1"
     transform="translate(367.79251,-122.67943)">
    <g
       id="g7862"
       transform="matrix(0.92799128,0,0,1.0415945,-26.484269,-5.1027926)">
      <path
         style="fill:#314f9c;fill-opacity:1;stroke-width:0.264583"
         d="m -245.68379,362.07033 c 0.14422,-0.75445 -0.1039,-0.93152 -1.87997,-1.3416 -0.77781,-0.17959 -1.32842,-0.4466 -1.29049,-0.62581 0.0925,-0.43709 -0.15116,-0.4012 -2.35591,0.34705 -1.06896,0.36279 -1.97334,0.66044 -2.00972,0.66146 -0.0364,0.001 -0.0661,0.23169 -0.0661,0.51261 0,0.31932 0.22314,0.55374 0.59532,0.62543 0.42238,0.0813 0.34099,0.12512 -0.2802,0.15069 -0.52396,0.0216 -0.80985,-0.0702 -0.71199,-0.22855 0.10365,-0.16771 -0.59295,-0.26518 -1.90262,-0.26621 -1.13637,-9e-4 -4.03066,-0.23829 -6.43176,-0.52754 -2.40109,-0.28925 -4.80619,-0.52664 -5.34466,-0.52754 -0.61864,-0.001 -1.06574,-0.15656 -1.21457,-0.42249 -0.29438,-0.52602 -2.65424,-1.03763 -6.77874,-1.46959 -1.73333,-0.18154 -3.01325,-0.37615 -2.84427,-0.43248 0.7403,-0.24677 0.15102,-0.56602 -2.00786,-1.08779 -1.27331,-0.30774 -3.4462,-0.74827 -4.82865,-0.97895 -1.38245,-0.23069 -3.7637,-0.71017 -5.29166,-1.06552 -7.4054,-1.72224 -7.3278,-1.69823 -7.62968,-2.36078 -0.33798,-0.74178 -1.69745,-1.48294 -3.88766,-2.11948 -2.27393,-0.66088 -3.57448,-1.26205 -4.60357,-2.12797 -0.57393,-0.48293 -1.13603,-0.72966 -1.54133,-0.67655 -1.10823,0.14523 -3.31089,-0.93724 -3.96988,-1.95095 -0.32877,-0.50572 -0.75623,-0.9195 -0.94993,-0.9195 -0.1937,0 -1.06449,-0.35594 -1.93508,-0.79098 -1.74396,-0.87146 -3.52871,-2.48429 -3.52871,-3.18879 0,-0.28317 -0.27618,-0.50723 -0.7394,-0.59988 -0.40667,-0.0813 -1.43642,-0.68913 -2.28834,-1.35065 -0.85192,-0.66153 -1.7973,-1.28161 -2.10084,-1.37795 -0.30354,-0.0963 -2.09054,-1.43819 -3.97111,-2.98189 -1.88057,-1.5437 -3.56102,-2.77588 -3.73435,-2.73817 -0.40634,0.0884 -2.77638,-1.99134 -2.77638,-2.43631 0,-0.18612 -0.47832,-0.66989 -1.06293,-1.07502 -0.58462,-0.40514 -1.48504,-1.20383 -2.00093,-1.77487 -0.73889,-0.81785 -0.87348,-1.11598 -0.63408,-1.40444 0.3502,-0.42197 0.13199,-0.91855 -0.40363,-0.91855 -0.51534,0 -3.51845,-2.8344 -4.00977,-3.78451 -0.3937,-0.76133 -0.38854,-0.78381 0.14753,-0.64362 0.30552,0.0799 0.55548,0.0959 0.55548,0.0356 0,-0.0603 -0.72532,-0.97192 -1.61182,-2.02575 -2.1051,-2.50247 -3.75023,-5.0245 -7.37676,-11.30878 -1.63756,-2.83765 -3.54443,-6.01797 -4.23749,-7.06736 -1.24777,-1.88929 -1.25228,-1.90393 -0.46032,-1.4944 l 0.79979,0.4136 -0.15352,-0.94607 c -0.2358,-1.45307 -0.76796,-2.35442 -1.73563,-2.93974 -2.01408,-1.21829 -2.40454,-1.75696 -3.46598,-4.78166 -2.05567,-5.8579 -3.43133,-12.37166 -5.30532,-25.12083 -1.20531,-8.19997 -1.46983,-9.59253 -1.92673,-10.14306 -0.19076,-0.22986 -0.27974,-1.05879 -0.22977,-2.14052 0.0449,-0.97097 -0.12085,-4.13653 -0.36823,-7.03458 -0.32315,-3.78556 -0.39841,-6.35206 -0.2673,-9.11509 0.10037,-2.11525 0.22594,-5.09607 0.27905,-6.62404 0.0531,-1.52797 0.29024,-3.67109 0.52695,-4.7625 0.23672,-1.0914 0.50054,-3.50242 0.58627,-5.35781 0.14798,-3.2025 0.36188,-4.02753 0.73743,-2.84427 0.44016,1.38681 0.66146,0.22668 0.66146,-3.46754 0,-2.68685 0.12944,-4.49622 0.39495,-5.52085 0.53676,-2.07141 2.13806,-5.82009 4.18494,-9.79703 0.93622,-1.81901 2.03397,-4.1705 2.43943,-5.22552 0.40546,-1.05503 0.84417,-1.91823 0.9749,-1.91823 0.29691,0 1.79537,-1.62075 1.79537,-1.94189 0,-0.13006 -0.28986,-0.18106 -0.64413,-0.11333 l -0.64413,0.12313 0.67202,-1.74593 c 0.3696,-0.96027 1.01297,-2.66202 1.4297,-3.78168 0.83861,-2.25317 2.11048,-4.70142 2.44545,-4.70732 0.11891,-0.002 0.59516,-0.40239 1.05833,-0.88953 0.46317,-0.48714 1.02073,-0.94403 1.23901,-1.0153 0.30839,-0.10071 0.32844,-0.21292 0.0899,-0.50335 -0.74033,-0.90141 1.19386,-4.0004 5.10596,-8.18087 2.33947,-2.49995 3.27079,-3.95964 3.27079,-5.12638 0,-1.09312 7.94381,-10.21755 8.89549,-10.21755 0.16916,0 0.37952,-0.28668 0.46746,-0.63706 0.19249,-0.76694 3.64323,-3.07463 3.81719,-2.55276 0.0679,0.20382 0.44366,8e-4 1.00482,-0.54317 l 0.8963,-0.86873 v 0.84565 c 0,0.72976 0.0923,0.84565 0.67376,0.84565 0.47155,0 0.80903,-0.23772 1.12448,-0.79208 0.24789,-0.43564 0.65488,-0.79282 0.90443,-0.79374 0.44298,-0.002 1.00149,-0.73539 1.00149,-1.31573 0,-0.15977 -0.25864,-0.38618 -0.57477,-0.50312 -0.52725,-0.19504 -0.42885,-0.33298 1.19,-1.66829 3.15141,-2.59943 10.13974,-7.36245 10.80223,-7.36245 0.12332,0 0.22421,0.16791 0.22421,0.37314 0,0.25126 0.74137,-0.0425 2.26963,-0.89915 1.2483,-0.69976 3.03423,-1.49127 3.96875,-1.7589 1.15652,-0.33122 1.69912,-0.61863 1.69912,-0.90002 0,-0.84285 1.39846,-1.48322 1.64221,-0.75198 0.11057,0.3317 2.82522,-0.95053 4.62317,-2.18369 0.87968,-0.60335 1.39647,-0.75857 2.52551,-0.75857 1.52154,0 5.79038,-1.27819 5.95908,-1.78429 0.0535,-0.16037 -0.17756,-0.3375 -0.51337,-0.39363 -0.60819,-0.10166 -0.60783,-0.1034 0.0933,-0.44892 0.60085,-0.29611 0.79338,-0.28416 1.31565,0.0817 0.87603,0.61359 1.35116,0.53521 2.21384,-0.36523 0.84364,-0.88057 1.31972,-0.99929 1.55444,-0.38763 0.13863,0.36126 0.25137,0.35721 1.02049,-0.0367 0.47556,-0.24354 1.24906,-0.77762 1.71889,-1.18682 1.34427,-1.1708 1.86769,-1.20806 8.51385,-0.60601 1.63288,0.14791 2.0116,0.10664 2.27052,-0.24747 0.47143,-0.64472 1.50569,-0.94538 3.90687,-1.13574 1.19988,-0.0951 2.5388,-0.3164 2.97536,-0.49174 0.54711,-0.21973 1.36923,-0.25431 2.64583,-0.1113 1.01865,0.11411 5.75841,0.21359 10.5328,0.22106 5.71638,0.009 8.62488,0.10394 8.5172,0.27817 -0.33918,0.54881 1.76851,0.23976 3.75994,-0.55132 l 2.05392,-0.81591 2.9139,0.67504 c 3.80584,0.88165 5.02509,1.09934 9.87871,1.76371 3.14893,0.43103 4.16821,0.66879 4.56406,1.06464 0.65217,0.65217 1.05253,0.64677 1.22599,-0.0165 0.0757,-0.2894 0.23793,-0.46419 0.36055,-0.3884 0.12262,0.0758 0.15126,0.32458 0.0636,0.55289 -0.22624,0.58959 0.3823,0.88213 1.84472,0.88682 1.11419,0.004 1.80993,0.31615 5.82084,2.61525 4.9958,2.86364 7.94569,4.38136 10.37622,5.33856 2.13746,0.84178 2.41806,1.06181 1.86753,1.46437 -0.37549,0.27457 -0.33709,0.33573 0.30684,0.48872 1.65867,0.39408 8.29994,2.64842 10.45882,3.55019 2.21313,0.92443 2.31448,1.00315 2.31511,1.79834 7.9e-4,0.9381 0.34039,1.15278 1.82381,1.15278 0.54237,0 1.21724,0.18671 1.49972,0.41491 0.49306,0.39831 0.48549,0.40893 -0.18944,0.26571 -0.38666,-0.0821 -0.89268,-0.22197 -1.12448,-0.31092 -0.89098,-0.3419 -0.3665,0.43395 0.72627,1.07436 0.74683,0.43767 1.55549,0.67589 2.31511,0.68199 0.64206,0.005 1.45586,0.16919 1.80844,0.36452 l 0.64106,0.35515 -0.57491,0.18247 c -0.78141,0.24801 -0.72518,0.4389 0.3437,1.16678 0.82709,0.56323 1.09071,0.60545 2.74383,0.43943 2.39662,-0.24068 3.22824,0.16865 4.16982,2.05242 0.84815,1.69686 1.78254,2.7287 3.07125,3.39158 1.18192,0.60795 1.76133,0.63981 1.96538,0.10806 0.22746,-0.59275 0.45936,-0.51226 2.54659,0.88392 1.05309,0.70443 2.77792,1.84819 3.83295,2.54169 1.52005,0.99916 1.91823,1.39605 1.91823,1.91203 0,0.53074 -0.0979,0.62009 -0.52917,0.4832 -0.33859,-0.10747 -0.52917,-0.0476 -0.52917,0.16636 0,0.18387 -0.42188,-0.0746 -0.93752,-0.57436 -0.51563,-0.49978 -1.08118,-0.91659 -1.25677,-0.92625 -0.17559,-0.01 -0.6672,-0.16475 -1.09248,-0.34465 -0.42528,-0.17989 -0.96106,-0.25384 -1.19063,-0.16433 -0.67044,0.26141 0.5181,1.07779 3.88209,2.66649 1.63711,0.77315 2.97656,1.47217 2.97656,1.55338 0,0.0812 -0.46977,-0.092 -1.04393,-0.38492 -1.10262,-0.56252 -1.49657,-0.39675 -1.20916,0.5088 0.19851,0.62546 2.51768,1.99513 2.51768,1.48692 0,-0.65895 2.19078,-0.31438 3.3651,0.52927 3.55299,2.55251 5.3318,3.99804 5.349,4.34683 0.0112,0.22643 1.10737,0.95037 2.5525,1.68568 2.54257,1.29372 3.08326,1.79737 2.52686,2.35377 -0.49971,0.49971 -0.34071,1.11393 0.49578,1.91534 0.57993,0.55561 0.87459,0.68304 1.08738,0.47025 0.21278,-0.21278 0.50465,-0.0496 1.07707,0.6024 0.43186,0.49186 0.71698,1.00467 0.6336,1.13958 -0.35811,0.57943 0.18178,1.85242 0.9143,2.15584 0.41006,0.16985 0.95122,0.53607 1.20258,0.81382 0.25135,0.27774 0.67668,0.50498 0.94517,0.50498 0.26848,0 0.48882,0.14883 0.48963,0.33073 0.004,0.91508 0.57213,2.28145 0.89669,2.1569 0.19286,-0.074 0.7136,0.17083 1.15719,0.54409 0.44359,0.37326 1.14382,0.85364 1.55607,1.06752 0.72559,0.37644 0.70522,0.38362 -0.63719,0.22463 l -1.38673,-0.16424 0.005,0.76446 c 0.004,0.65787 0.24497,0.90756 1.72844,1.7908 0.9481,0.56448 2.16074,1.17654 2.69476,1.36013 0.84107,0.28915 1.03467,0.52129 1.44743,1.73563 0.31174,0.91712 0.38255,1.4599 0.20479,1.56976 -0.16218,0.10023 -0.0393,0.3734 0.30489,0.67762 0.31713,0.28032 1.55914,1.83188 2.76002,3.44789 1.20088,1.61601 2.47979,3.17132 2.842,3.45624 0.50501,0.39724 0.6263,0.68694 0.52012,1.24236 -0.0977,0.51094 0.1442,1.26392 0.82098,2.55586 0.96618,1.84438 1.18309,2.54449 0.69486,2.24275 -0.14552,-0.0899 -0.26458,-0.0552 -0.26458,0.0771 0,0.13236 0.65403,0.76255 1.4534,1.40041 0.99031,0.79023 1.40971,1.29737 1.3163,1.59169 -0.0754,0.23756 0.2826,1.30769 0.79556,2.37805 0.51296,1.07036 0.93265,2.15783 0.93265,2.4166 0,0.25877 0.16993,0.47048 0.37762,0.47048 1.06219,0 3.02086,3.83608 2.6708,5.23081 -0.27266,1.08641 1.16249,2.24878 1.54518,1.25149 0.21703,-0.56558 0.8763,-0.49109 1.03531,0.11697 0.16369,0.62596 0.007,0.80592 -0.71207,0.81938 -0.43681,0.008 -0.22838,0.30058 1.00425,1.40888 1.44593,1.30009 1.5323,1.44183 1.22669,2.01286 -0.27823,0.51989 -0.26066,0.6524 0.11434,0.86227 0.33062,0.18502 0.39911,0.44823 0.26983,1.03687 -0.15082,0.68669 -0.0287,0.92646 0.94263,1.85045 1.36952,1.30279 1.75401,2.62331 1.21735,4.18097 -0.31633,0.91814 -0.31026,1.12817 0.0473,1.63871 0.37918,0.54136 0.37495,0.57209 -0.056,0.40672 -0.25639,-0.0984 -0.51595,-0.17888 -0.57681,-0.17888 -0.0609,0 -0.11065,-0.25086 -0.11065,-0.55747 0,-0.42868 -0.10697,-0.51251 -0.46302,-0.36285 -0.25466,0.10704 -0.73091,0.25272 -1.05833,0.32373 -0.32743,0.071 -0.59532,0.24966 -0.59532,0.39699 0,0.3968 1.24878,3.78668 1.757,4.76946 0.24219,0.46835 0.46309,1.14978 0.49089,1.51428 0.0278,0.36451 0.0692,0.79666 0.0919,0.96034 0.0228,0.16369 0.56488,0.84394 1.20466,1.51168 0.90085,0.9402 1.08746,1.27697 0.82729,1.4929 -0.18478,0.15335 -0.5434,0.19923 -0.79691,0.10194 -0.3633,-0.13941 -0.42803,-0.0703 -0.30556,0.32617 0.38664,1.25171 0.98976,4.22293 1.49853,7.38221 0.45648,2.83466 0.65595,3.51998 1.13416,3.89672 1.280127,1.00848 1.299897,0.22633 0.0745,-2.94663 -0.87882,-2.27557 -1.03918,-2.96228 -0.97872,-4.19124 0.037,-0.75109 0.44958,-0.77567 0.64241,-0.0383 0.18322,0.70068 0.78068,0.52808 0.9716,-0.2807 0.11761,-0.49823 0.22693,-0.34867 0.594517,0.81337 0.44563,1.40877 0.44508,1.41688 -0.0526,0.76633 -0.918067,-1.20013 -0.815937,-0.38792 0.26438,2.10291 1.04298,2.40471 1.1988,3.07743 0.52469,2.26515 -0.1841,-0.2218 -0.43918,-0.40327 -0.56687,-0.40327 -0.440447,0 -0.23077,1.65967 0.32285,2.55541 0.51683,0.83626 0.52607,0.94229 0.13419,1.54037 -0.3053,0.46597 -0.35449,0.81685 -0.17909,1.27813 0.22055,0.58013 0.3774,2.71259 0.29556,4.0188 -0.0283,0.45251 -0.0909,0.42262 -0.43198,-0.20628 -0.38614,-0.71202 -0.902887,-0.76637 -0.902887,-0.095 0,0.18094 0.432167,1.81102 0.960347,3.62241 0.88025,3.01862 0.96304,3.59145 0.99219,6.86529 0.0311,3.48691 0.008,3.6428 -0.98382,6.55323 -0.55862,1.63975 -1.124167,3.63404 -1.256777,4.43177 -0.1326,0.79773 -0.3479,2.0755 -0.47841,2.83948 -0.29933,1.75212 -1.40878,3.89112 -2.71797,5.24014 -1.19614,1.23254 -1.5376,1.30187 -1.55688,0.31611 -0.0107,-0.54606 -0.13388,-0.36452 -0.49379,0.7276 -0.26376,0.80037 -0.85258,2.22912 -1.30848,3.175 -0.82899,1.71997 -1.16248,4.23334 -0.5617,4.23334 0.14719,0 -0.26454,0.65336 -0.91497,1.4519 -0.65042,0.79855 -1.30639,1.68324 -1.45771,1.96598 -0.15132,0.28274 -0.64212,0.77539 -1.09067,1.09479 l -0.81554,0.58072 0.68717,-1.35607 c 0.37794,-0.74584 0.57285,-1.35607 0.43313,-1.35607 -0.4475,0 -1.0514,1.10958 -1.75693,3.22809 -0.71628,2.1508 -1.01303,2.65307 -0.72929,1.23439 0.26134,-1.30675 -0.45379,-0.84518 -1.30286,0.8409 -0.3998,0.79392 -1.14955,1.88883 -1.66611,2.43312 -0.83198,0.87665 -0.91897,1.09751 -0.76195,1.93451 0.15457,0.82388 0.10343,0.96417 -0.39937,1.09566 -0.31714,0.0829 -0.51978,0.29892 -0.45031,0.47996 0.128,0.33356 -0.86625,0.9242 -1.55574,0.9242 -0.24793,0 -0.31698,-0.15781 -0.2026,-0.46302 0.32015,-0.85425 -0.70621,0.19386 -1.2678,1.29468 -0.67364,1.32045 -0.66505,1.65128 0.0332,1.27759 0.29867,-0.15985 0.71218,-0.25333 0.9189,-0.20775 0.26269,0.0579 -0.0186,0.61884 -0.93409,1.86274 -0.7892,1.07229 -1.44889,1.72655 -1.65943,1.64576 -0.66047,-0.25344 -3.50338,1.91381 -6.7095,5.1149 -3.45036,3.44496 -5.6991,5.08749 -7.92628,5.78955 -0.77077,0.24296 -1.37912,0.51137 -1.35188,0.59646 0.2024,0.63241 -2.29833,2.43789 -5.88304,4.24745 -1.85662,0.93722 -1.90695,0.94739 -1.67667,0.33904 0.13166,-0.34785 -0.0622,-0.28302 -0.77924,0.26064 -3.57737,2.71223 -10.24152,6.51558 -9.91205,5.65699 0.15206,-0.39626 0.0994,-0.39908 -0.60926,-0.0326 -0.42664,0.22063 -1.7015,0.5299 -2.83302,0.68728 -2.33253,0.32443 -2.42665,0.36239 -2.69461,1.08675 -0.12842,0.34715 -1.36485,1.06761 -3.61948,2.10902 -6.5482,3.02463 -10.42803,4.71776 -10.76168,4.6963 -0.18461,-0.0119 0.0422,-0.18708 0.50398,-0.38937 0.97322,-0.4263 1.30965,-0.85288 0.95351,-1.20902 -0.33397,-0.33397 -4.44789,0.96743 -5.09092,1.61045 -0.2673,0.2673 -0.76574,0.47852 -1.10765,0.46938 -0.34192,-0.009 -1.48769,0.23405 -2.54616,0.5404 -1.05848,0.30636 -1.8499,0.43629 -1.75871,0.28875 0.1029,-0.16649 -0.17075,-0.23604 -0.72133,-0.18332 -0.66246,0.0634 -0.88749,0.21141 -0.88854,0.58432 -7.9e-4,0.27506 -0.2682,0.59807 -0.59531,0.71908 -0.35771,0.13232 -0.59391,0.11786 -0.59391,-0.0364 0,-0.43176 -1.38198,-0.28403 -1.93605,0.20696 -0.38041,0.33711 -0.55378,0.37366 -0.63749,0.13441 -0.086,-0.24581 -0.24968,-0.25653 -0.64951,-0.0425 -0.29399,0.15734 -1.56431,0.58266 -2.82293,0.94516 -1.25861,0.3625 -2.4015,0.7686 -2.53974,0.90244 -0.42693,0.41333 -0.6361,0.27328 -0.72326,-0.48426 -0.0699,-0.60727 -0.22676,-0.74137 -0.94857,-0.81088 -0.51367,-0.0495 -1.44085,0.18043 -2.28343,0.56617 -1.09038,0.4992 -1.90034,0.65693 -3.50078,0.68176 -2.71134,0.0421 -3.64629,0.29879 -3.75355,1.03066 -0.0894,0.60999 -0.006,0.57862 -4.41406,1.66484 -2.38049,0.58662 -3.35504,1.01933 -2.36802,1.05141 0.43611,0.0142 0.41726,0.0562 -0.12185,0.27177 -0.35847,0.14332 -1.49087,0.17769 -2.58576,0.0785 -1.79474,-0.16263 -1.93471,-0.21832 -1.77933,-0.70788 0.16201,-0.51044 0.0898,-0.52421 -1.83441,-0.34985 -1.10168,0.0998 -3.64539,0.57879 -5.65268,1.06434 -4.82504,1.16715 -5.36941,1.26009 -5.36941,0.9167 0,-0.35538 -2.85961,-0.0552 -4.29349,0.45069 -0.56527,0.19944 -0.99818,0.24252 -0.99818,0.0993 0,-0.41393 -1.37674,-0.27685 -2.54423,0.25332 -1.69974,0.77189 -2.6522,0.91739 -2.83787,0.43354 -0.20137,-0.52477 -1.12837,-0.5343 -1.32816,-0.0137 -0.24469,0.63767 -0.63606,0.45636 -0.50417,-0.23357 z m 5.47817,-23.82882 c 1.17289,-0.27264 1.47168,-0.27484 1.47168,-0.0108 0,0.34928 0.9231,0.70462 1.17531,0.45242 0.0812,-0.0812 0.14761,-0.37265 0.14761,-0.64768 0,-0.45854 0.0472,-0.46705 0.56767,-0.10246 0.51242,0.35891 0.66636,0.34726 1.58169,-0.11971 0.94833,-0.4838 1.22432,-0.49786 4.26097,-0.2171 4.4468,0.41115 9.43108,0.11371 12.20277,-0.72821 0.39703,-0.1206 0.45654,-0.0459 0.31604,0.39681 -0.17069,0.53778 -0.15353,0.5397 1.23065,0.13768 1.53761,-0.44658 8.891,-2.7452 9.38349,-2.93322 0.16876,-0.0644 0.38511,0.12951 0.48079,0.43097 0.14478,0.45617 0.26323,0.50032 0.7062,0.26326 0.29273,-0.15667 1.06251,-0.31478 1.71062,-0.35137 0.94612,-0.0534 1.37223,-0.25445 2.16197,-1.02002 0.54098,-0.52442 1.31318,-1.03451 1.71602,-1.13353 0.7005,-0.17219 0.72096,-0.14991 0.46956,0.51131 -0.23867,0.62777 -0.20376,0.69135 0.37962,0.69135 1.09703,0 2.01121,-0.59129 2.55148,-1.6503 0.73615,-1.44298 1.56959,-1.69398 3.35551,-1.01055 1.68429,0.64454 2.64775,0.68278 3.91045,0.15518 0.86772,-0.36255 0.91958,-0.44996 0.76276,-1.28584 -0.16629,-0.88642 -0.15377,-0.90049 1.0773,-1.21047 0.68505,-0.1725 1.79649,-0.58965 2.46989,-0.927 2.03794,-1.02095 3.16727,-1.31396 3.61909,-0.93898 0.28929,0.24009 0.31491,0.41395 0.0993,0.67377 -0.15985,0.1926 -0.22153,0.46198 -0.13708,0.59863 0.18724,0.30295 -0.44457,0.56848 -1.35265,0.56848 -0.55766,0 -0.61788,0.0655 -0.35337,0.38419 0.26352,0.31752 0.15437,0.45291 -0.62906,0.78024 -0.52135,0.21784 -0.94791,0.5212 -0.94791,0.67415 0,0.47615 0.35328,0.3231 2.79214,-1.20963 2.63564,-1.65641 3.55609,-2.07982 2.3907,-1.09975 -1.37579,1.15702 -0.0498,1.78891 1.44099,0.68671 0.72204,-0.53383 0.75269,-0.62193 0.40234,-1.15663 -0.34691,-0.52945 -0.31795,-0.63749 0.33985,-1.2677 0.95763,-0.91747 6.04227,-3.6286 6.48599,-3.45833 0.20242,0.0777 0.99095,-0.59579 1.87031,-1.5974 0.83619,-0.95242 1.6247,-1.73169 1.75225,-1.73169 0.12754,0 0.47503,0.26098 0.7722,0.57996 0.45236,0.48554 0.65861,0.53721 1.26708,0.31739 0.45717,-0.16516 0.71152,-0.43909 0.68566,-0.73845 -0.0798,-0.92386 0.70088,-1.47147 1.8758,-1.31575 0.95647,0.12676 1.18584,0.0407 2.0689,-0.77593 0.54624,-0.50518 1.14155,-0.91305 1.32292,-0.90639 0.91303,0.0336 1.52037,-0.0975 1.52037,-0.32809 0,-0.31336 1.6468,-2.68246 1.7753,-2.55396 0.0504,0.0504 -0.0357,0.42629 -0.1912,0.83537 -0.34896,0.91782 -0.17114,1.44627 0.48665,1.44627 0.56506,0 2.31604,-2.62356 2.46728,-3.6968 0.0758,-0.5376 0.2976,-0.69454 1.24551,-0.88117 1.6969,-0.3341 6.33003,-4.20233 6.76418,-5.64745 0.11403,-0.37955 0.32663,-0.52736 0.64047,-0.44529 0.27921,0.073 1.05078,-0.31369 1.90191,-0.95322 1.52491,-1.14579 1.83802,-1.2718 1.85203,-0.74534 0.0156,0.58528 1.03344,-0.87705 1.35308,-1.94394 0.17016,-0.56794 0.47758,-1.03262 0.68315,-1.03262 0.45215,0 3.23859,-2.39899 3.2433,-2.79232 0.002,-0.15333 0.31367,-0.90153 0.69296,-1.66267 0.51485,-1.03317 0.77254,-1.31507 1.01681,-1.11235 0.23848,0.19792 0.40398,0.10298 0.61047,-0.35022 0.1736,-0.38101 0.59946,-0.68498 1.09986,-0.78507 0.60403,-0.1208 0.81657,-0.30921 0.81657,-0.72386 0,-0.33804 -0.21006,-0.61548 -0.52916,-0.69893 -0.29105,-0.0761 -0.52917,-0.30309 -0.52917,-0.5044 0,-0.45018 0.57596,-0.47797 1.00542,-0.0485 0.24694,0.24695 0.3175,-0.0165 0.3175,-1.18558 0,-1.40456 0.0459,-1.51459 0.69975,-1.67871 1.20029,-0.30125 1.62939,-0.96113 1.63922,-2.52084 0.008,-1.26869 0.0983,-1.48973 0.8755,-2.14226 0.47662,-0.40018 1.13897,-0.72761 1.47189,-0.72761 0.47681,0 0.6053,-0.14729 0.6053,-0.69385 0,-0.59584 0.0578,-0.64592 0.40892,-0.35449 0.2249,0.18666 0.352,0.48771 0.28243,0.669 -0.13998,0.36476 0.62862,1.17309 1.11542,1.17309 0.17045,0 0.3099,-0.0454 0.3099,-0.10079 0,-0.0554 0.307,-0.91863 0.68223,-1.91822 l 0.68222,-1.81744 -0.76671,0.7313 c -0.4217,0.40222 -0.84776,0.65027 -0.94681,0.55122 -0.35097,-0.35097 -0.17163,-0.89651 0.48136,-1.46428 0.81824,-0.71144 0.81925,-0.90157 0.0145,-2.72112 -0.60542,-1.36897 -0.6154,-1.46275 -0.1558,-1.46275 0.57487,0 2.06826,1.65072 1.62658,1.79795 -0.33592,0.11197 -0.40763,1.11247 -0.0797,1.11247 0.2326,0 1.20032,-3.67124 1.62989,-6.18336 0.47046,-2.75119 0.63013,-6.39623 0.31925,-7.28801 -0.16739,-0.48018 -0.18303,-0.76763 -0.0368,-0.67729 0.1411,0.0872 0.25398,-0.20272 0.25398,-0.65239 0,-0.84349 -0.43422,-1.10007 -0.69807,-0.41249 -0.0838,0.21828 -0.31815,0.39687 -0.52087,0.39687 -0.46426,0 -0.46175,0.10931 0.0712,3.09281 0.34162,1.91259 0.3724,2.60954 0.13796,3.12408 -0.34188,0.75034 -0.84227,0.88366 -0.84227,0.2244 0,-0.39379 -0.0533,-0.38966 -0.52916,0.041 -0.64753,0.58601 -0.6934,1.89353 -0.0898,2.56048 0.48548,0.53645 0.26821,1.03104 -0.23283,0.53 -0.17261,-0.1726 -0.36484,-1.11494 -0.42719,-2.09409 -0.10333,-1.62276 -0.0752,-1.74858 0.31824,-1.42208 0.38469,0.31927 0.43091,0.26122 0.42528,-0.5341 -0.006,-0.8744 -0.23687,-2.08843 -0.64716,-3.40583 l -0.206,-0.66146 0.69432,0.64143 0.69432,0.64144 v -0.58359 c 0,-0.32098 -0.16686,-0.64763 -0.3708,-0.72589 -0.58717,-0.22531 -0.70507,-1.14858 -0.18791,-1.47155 0.41256,-0.25764 0.42417,-0.43933 0.12189,-1.9062 -0.18377,-0.89178 -0.26544,-1.89512 -0.18148,-2.22965 0.1394,-0.55539 0.19193,-0.57269 0.60475,-0.19909 0.24865,0.22503 0.60643,0.40914 0.79506,0.40914 0.65688,0 0.0442,-1.56689 -2.11763,-5.41548 -2.03853,-3.62914 -2.16405,-3.94918 -2.66814,-6.80318 -0.29093,-1.64718 -0.76977,-3.5009 -1.06408,-4.11936 -0.53636,-1.1271 -1.01707,-1.471 -1.01707,-0.7276 0,0.21828 -0.11609,0.39687 -0.25797,0.39687 -0.14194,0 -0.19077,-0.33601 -0.10856,-0.74703 0.10736,-0.53682 -0.038,-1.02324 -0.51669,-1.72858 -0.36636,-0.53985 -0.74188,-1.32655 -0.83449,-1.74823 -0.0926,-0.42167 -0.33933,-0.90855 -0.54826,-1.08194 -0.69315,-0.57526 -0.38905,-3.24933 0.3378,-2.97041 0.27899,0.10706 0.2019,-0.16007 -0.25345,-0.87821 -0.35992,-0.56763 -0.96364,-1.58023 -1.34159,-2.25022 -0.69262,-1.2278 -2.25656,-2.3191 -2.57804,-1.79894 -0.0876,0.14181 -0.29044,-0.19289 -0.45067,-0.74378 -0.51717,-1.77813 -0.93373,-4.31979 -0.73978,-4.51374 0.10376,-0.10376 0.53348,0.2273 0.95494,0.73569 0.60693,0.73214 0.76775,0.82027 0.77339,0.4238 0.004,-0.2753 -0.70652,-1.21862 -1.57874,-2.09626 -0.87222,-0.87765 -1.52779,-1.65378 -1.45683,-1.72474 0.071,-0.071 0.34749,0.0687 0.6145,0.31032 1.26272,1.14275 1.12803,-0.31399 -0.14691,-1.58894 -0.54318,-0.54318 -0.9921,-1.11269 -0.99761,-1.26559 -0.005,-0.15289 -0.10489,-0.54588 -0.22086,-0.8733 -0.20156,-0.56909 -0.3315,-0.64302 -1.23352,-0.70176 -0.21828,-0.0142 -0.51405,-0.29291 -0.65726,-0.61933 -0.1814,-0.41345 -0.40774,-0.54671 -0.74614,-0.4393 -0.41491,0.13168 -0.4734,0.0253 -0.40107,-0.72944 0.0587,-0.61294 0.20625,-0.86171 0.48156,-0.81212 0.21828,0.0393 0.008,-0.28811 -0.4672,-0.72761 -1.1159,-1.03198 -1.38489,-1.00717 -1.38489,0.12772 v 0.9268 l -0.97999,-1.12524 c -2.11119,-2.42409 -2.10533,-2.41592 -1.5997,-2.23425 0.28987,0.10415 0.46303,0.0369 0.46303,-0.17995 0,-0.87621 -1.78524,-3.76518 -3.40735,-5.51397 -2.64292,-2.84932 -3.86423,-4.49857 -4.54165,-6.13296 -0.48032,-1.15886 -0.75576,-1.49415 -1.33129,-1.62056 -0.96932,-0.2129 -4.7091,-5.19933 -4.06809,-5.42419 0.28037,-0.0984 -0.66564,-0.95338 -2.97603,-2.68983 -4.00174,-3.00764 -5.081,-4.05184 -4.64181,-4.49103 0.22733,-0.22733 0.17043,-0.47416 -0.22832,-0.99044 -0.29211,-0.37821 -0.79638,-1.10437 -1.12061,-1.61369 -0.36082,-0.56682 -0.84256,-0.96043 -1.24186,-1.01468 -0.3588,-0.0487 -0.95003,-0.36341 -1.31383,-0.69924 -1.00667,-0.92925 -3.27469,-2.30079 -6.35,-3.84004 -1.52797,-0.76478 -3.08922,-1.61042 -3.46945,-1.8792 -0.38023,-0.26879 -0.75021,-0.42982 -0.82219,-0.35784 -0.072,0.072 -0.28142,-0.0505 -0.46542,-0.27224 -0.29157,-0.35132 -0.21994,-0.38326 0.55761,-0.24866 0.49069,0.0849 1.2234,0.2795 1.62825,0.43233 0.40485,0.15283 0.81091,0.20305 0.90237,0.1116 0.34416,-0.34417 -0.78471,-1.15432 -4.26846,-3.06333 -1.97503,-1.08226 -3.46553,-2.04527 -3.31223,-2.14002 0.17734,-0.1096 0.11416,-0.30814 -0.17369,-0.54579 -0.35009,-0.28903 -0.4776,-0.29871 -0.56374,-0.0428 -0.19187,0.57009 -0.81699,0.36149 -1.18934,-0.39687 -0.26555,-0.54085 -0.52248,-0.70868 -1.001,-0.65385 -0.51079,0.0585 -0.57627,0.006 -0.31703,-0.25298 0.25924,-0.25924 -0.0425,-0.45767 -1.46083,-0.96076 -0.98316,-0.34871 -2.3024,-0.77852 -2.93166,-0.95511 -0.99374,-0.27889 -1.08936,-0.36651 -0.7276,-0.66675 0.22907,-0.19011 0.41649,-0.51575 0.41649,-0.72364 0,-0.46814 -1.55878,-1.14472 -2.63733,-1.14472 -0.44124,0 -0.80225,-0.10199 -0.80225,-0.22665 0,-0.29597 -2.8654,-2.1546 -3.32168,-2.1546 -0.19319,0 -0.42484,0.11906 -0.51478,0.26458 -0.0899,0.14552 -0.40781,0.26458 -0.70638,0.26458 -0.51982,0 -0.51635,0.0222 0.0818,0.52234 l 0.62462,0.52233 -1.1548,-0.44209 c -0.88884,-0.34027 -1.04522,-0.48052 -0.67902,-0.60898 0.61265,-0.21491 0.37557,-0.34559 -1.87034,-1.03094 -1.01865,-0.31084 -2.07846,-0.63506 -2.35513,-0.72048 -0.39512,-0.122 -0.46543,-0.0573 -0.32773,0.30154 0.13182,0.34352 0.0707,0.41674 -0.2462,0.29512 -0.23183,-0.089 -0.6254,-0.16175 -0.8746,-0.16175 -0.58644,0 -2.76956,-2.02925 -2.41733,-2.24694 0.14733,-0.091 0.26786,-0.25995 0.26786,-0.37534 0,-0.3724 -3.49154,-1.81474 -6.48034,-2.677 -1.59966,-0.46149 -3.38691,-1.11946 -3.97167,-1.46215 -0.58476,-0.3427 -1.59767,-0.65821 -2.25091,-0.70114 -0.65324,-0.0429 -1.32132,-0.24897 -1.48462,-0.45786 -0.19913,-0.25472 -0.88483,-0.39307 -2.08213,-0.4201 -1.3627,-0.0308 -1.84367,-0.14476 -2.03219,-0.48162 -0.18067,-0.32285 -0.43855,-0.39362 -0.96058,-0.26362 -0.64256,0.16002 -0.67745,0.13383 -0.35048,-0.26306 0.4376,-0.53114 0.10288,-1.04835 -1.07146,-1.65562 -0.41078,-0.21243 -0.74687,-0.56176 -0.74687,-0.77631 0,-0.49327 -0.55857,-0.49544 -1.72829,-0.007 -0.67797,0.28328 -0.91754,0.54574 -0.91754,1.00518 0,1.24457 -1.92198,1.45185 -10.02477,1.0812 -3.05271,-0.13965 -3.72113,-0.23698 -3.37343,-0.49122 0.23849,-0.17438 0.43361,-0.40821 0.43361,-0.51963 0,-0.24268 -5.68092,-0.002 -6.58981,0.27954 -0.48474,0.14999 -0.58633,0.11554 -0.42568,-0.1444 0.16781,-0.27151 -0.10811,-0.30362 -1.34769,-0.15683 -2.87149,0.34006 -8.08152,1.48135 -10.82804,2.37195 -1.69147,0.54849 -2.85501,0.79714 -3.07569,0.65727 -0.68477,-0.43402 -1.77321,-0.22456 -3.77635,0.72674 -1.29375,0.61439 -2.44568,0.97146 -3.20085,0.99218 -0.88923,0.0244 -1.18014,0.13629 -1.18136,0.45438 -0.004,1.06024 -1.85623,1.91712 -2.95697,1.368 -0.6763,-0.33738 -0.82012,-0.32006 -1.52814,0.1841 -1.4265,1.01576 -3.70426,1.92331 -4.39314,1.75041 -0.38291,-0.0961 -0.64836,-0.0478 -0.64836,0.11796 0,0.15438 -0.75993,0.62165 -1.68872,1.03837 -1.7608,0.79002 -2.3968,1.3339 -1.56804,1.34091 0.39861,0.003 0.41345,0.0453 0.0887,0.25062 -0.25244,0.15964 -0.45355,0.14357 -0.57046,-0.0456 -0.12158,-0.19672 -0.51354,-0.0841 -1.19989,0.3447 -3.14724,1.96633 -4.29939,2.7868 -4.31009,3.06931 -0.007,0.17368 -0.50959,0.70946 -1.1178,1.19063 -0.60821,0.48115 -1.81199,1.55944 -2.67507,2.39618 -1.53845,1.49151 -2.10966,1.7861 -2.4368,1.25677 -0.27212,-0.4403 -0.88002,-0.29722 -1.05302,0.24785 -0.21528,0.67827 -2.58639,3.19174 -3.01098,3.19174 -0.18307,0 -0.24972,-0.13451 -0.14812,-0.29891 0.50655,-0.81961 -0.68907,0.31735 -4.97059,4.72673 -4.82773,4.97188 -6.12223,6.50755 -7.70766,9.14355 l -0.92192,1.53284 -0.17993,-0.81925 c -0.20795,-0.94677 -0.54105,-0.92016 -1.30594,0.10434 -0.44835,0.60051 -0.53189,1.05082 -0.47126,2.54049 l 0.0737,1.81061 -3.70434,5.5965 c -4.00664,6.05322 -6.93212,11.58904 -8.19193,15.50145 -0.96857,3.00793 -1.27834,4.87624 -0.80848,4.87624 0.23384,0 0.20283,0.14673 -0.10225,0.48385 -0.49215,0.54382 -0.57661,1.10365 -0.16651,1.10365 0.15277,0 0.0865,0.35747 -0.15155,0.81785 -0.59793,1.15628 -1.12516,3.89387 -1.43868,7.47021 -0.26773,3.05407 -0.80131,5.2404 -1.46416,5.99944 -0.49644,0.56847 -0.73058,9.81736 -0.29639,11.70781 0.18674,0.81305 0.15489,0.99218 -0.17639,0.99218 -0.22235,0 -0.45743,-0.14882 -0.52239,-0.33072 -0.065,-0.18191 -0.21792,-0.23731 -0.33989,-0.12313 -0.19015,0.17798 0.88773,3.74873 1.9269,6.38341 0.22697,0.57543 0.30527,2.61834 0.26459,6.90274 -0.0548,5.77199 -0.0279,6.15014 0.52265,7.34218 0.31923,0.69123 0.47033,1.25677 0.33577,1.25677 -0.13457,0 -0.31768,0.29089 -0.40691,0.64642 -0.20039,0.79841 0.0759,1.33262 0.50644,0.97927 0.22142,-0.1817 0.80172,0.90246 2.0785,3.88318 0.97422,2.27439 1.67331,4.19776 1.55352,4.27414 -0.11978,0.0764 -0.26467,0.63959 -0.32198,1.25159 -0.0954,1.01915 -0.0492,1.11927 0.54923,1.19063 0.87776,0.10465 1.5793,1.54562 2.89457,5.94548 0.88114,2.94759 1.17906,3.61078 1.92797,4.29172 0.48718,0.44297 1.06847,0.80889 1.29176,0.81315 0.22329,0.004 0.63241,0.39471 0.90916,0.86765 0.27675,0.47295 1.45452,2.11006 2.61726,3.63803 1.16274,1.52796 2.23058,3.08525 2.37297,3.46063 0.1424,0.37538 0.50835,0.7921 0.81323,0.92604 0.30487,0.13395 0.81292,0.75591 1.12898,1.38216 0.31606,0.62624 0.71759,1.31085 0.89229,1.52135 0.25493,0.30717 0.23289,0.38273 -0.11164,0.38273 -0.57713,0 -0.54055,0.24432 0.14602,0.97514 0.57025,0.607 0.57053,0.61236 0.0324,0.61236 -0.68308,0 -1.19612,0.59602 -0.9855,1.1449 0.18451,0.4808 1.80608,1.50094 2.38584,1.50094 0.21465,0 0.48579,-0.25821 0.60253,-0.57379 0.19731,-0.53337 0.35978,-0.43432 2.30658,1.40623 1.15188,1.08901 2.86823,2.55699 3.81412,3.26217 0.94588,0.70519 2.04387,1.57974 2.43998,1.94346 0.6386,0.58639 0.67243,0.69623 0.29856,0.96961 -0.36095,0.26393 -0.17239,0.48614 1.31032,1.54418 0.95256,0.67974 2.08453,1.66365 2.51548,2.18647 0.4782,0.58014 0.85314,0.83799 0.96212,0.66166 0.26127,-0.42275 1.20479,0.14678 1.20479,0.72723 0,0.25682 -0.13275,0.59969 -0.29499,0.76193 -0.35991,0.35991 0.51001,0.84884 2.7686,1.55608 1.28632,0.40279 1.68104,0.67859 2.33817,1.63369 1.38926,2.01922 4.21807,3.61235 3.83877,2.16192 -0.21522,-0.82303 0.65814,-0.54189 1.08531,0.34937 0.30195,0.63 0.50162,0.72437 1.53267,0.72437 1.1111,0 1.16738,0.0339 0.89676,0.53952 -0.27953,0.52229 -0.22547,0.53805 1.69266,0.49358 2.31588,-0.0537 3.16505,0.34555 5.94701,2.79611 1.22966,1.08317 1.81814,1.43722 2.19179,1.31863 0.28092,-0.0892 1.50956,0.15592 2.73029,0.54462 1.62989,0.51899 2.34536,0.63632 2.69321,0.44165 0.35347,-0.19781 0.77835,-0.11116 1.67411,0.34143 1.82239,0.92075 4.71581,1.64448 9.5348,2.38493 2.4011,0.36893 4.91301,0.85339 5.58202,1.07658 1.14088,0.38061 1.30164,0.37221 2.58949,-0.13541 1.4561,-0.57395 2.81932,-0.72193 2.54381,-0.27615 -0.68913,1.11505 7.40096,1.59619 11.36092,0.67566 z m 16.55293,-1.54724 -0.66146,-0.28663 0.75179,-0.10251 c 0.83167,-0.1134 1.19828,0.0852 0.81807,0.44325 -0.14258,0.13426 -0.52647,0.1114 -0.9084,-0.0541 z m 17.99167,-2.2756 c 0,-0.30062 0.67006,-0.56049 1.4107,-0.54712 0.4523,0.008 0.38532,0.0921 -0.3166,0.39687 -1.04469,0.45356 -1.0941,0.46035 -1.0941,0.15025 z m 24.73854,-9.8179 c 0.0899,-0.14552 0.28258,-0.26458 0.4281,-0.26458 0.14552,0 0.191,0.11906 0.10107,0.26458 -0.0899,0.14553 -0.28259,0.26459 -0.42811,0.26459 -0.14552,0 -0.191,-0.11906 -0.10106,-0.26459 z m -61.86583,-3.01735 c -0.45699,-0.4931 -0.76643,-0.60248 -1.37643,-0.48652 -0.70169,0.13339 -0.74856,0.10317 -0.43283,-0.27903 0.30922,-0.37432 0.25894,-0.45173 -0.39687,-0.61102 -0.65597,-0.15932 -4.05825,-2.60017 -4.05825,-2.91145 0,-0.0638 0.29766,-0.22923 0.66146,-0.36754 0.8748,-0.3326 0.83657,-0.59839 -0.26077,-1.81302 -0.85938,-0.95123 -0.92575,-1.15193 -0.97391,-2.94486 -0.0454,-1.6889 -0.13444,-2.0008 -0.72872,-2.55184 -0.88248,-0.81828 -1.01599,-0.79467 -1.31247,0.23211 l -0.24828,0.8599 -0.0239,-0.97055 c -0.0131,-0.5338 -0.10569,-1.18864 -0.20569,-1.45521 -0.16007,-0.42664 -0.12839,-0.44119 0.26458,-0.12153 0.52297,0.4254 0.545,0.29774 0.28103,-1.62812 -0.13297,-0.97016 -0.2496,-1.17442 -0.59531,-1.04254 -0.58026,0.22135 0.91809,-1.56627 1.65027,-1.96887 0.55122,-0.3031 0.5487,-0.31259 -0.17013,-0.64011 -0.57363,-0.26136 -1.08867,-0.2663 -2.4087,-0.0231 -2.55973,0.47165 -3.32079,0.40503 -4.02246,-0.35208 -0.48342,-0.52162 -0.8714,-0.66146 -1.83518,-0.66146 -0.73358,0 -1.38081,-0.15866 -1.61903,-0.39688 -0.26894,-0.26894 -0.93521,-0.39687 -2.06691,-0.39687 -1.46759,0 -1.68744,-0.0666 -1.81359,-0.54896 -0.11987,-0.45837 -0.23125,-0.50203 -0.67492,-0.26459 -0.67466,0.36107 -1.12018,0.35982 -0.50001,-0.001 0.63854,-0.37192 0.57986,-0.83513 -0.19844,-1.56631 -0.3638,-0.34177 -0.66146,-0.83878 -0.66146,-1.10445 0,-0.39513 -0.21373,-0.48312 -1.1734,-0.48312 -1.3764,0 -2.63235,0.41533 -2.39878,0.79325 0.0901,0.1458 0.0448,0.26508 -0.10075,0.26508 -0.39985,0 -0.6072,-0.46947 -0.25865,-0.58565 0.16777,-0.0559 -0.57563,-0.61874 -1.652,-1.25071 -3.3565,-1.97069 -7.21216,-4.82011 -6.83646,-5.05231 0.2414,-0.14919 -0.10907,-0.65576 -1.22783,-1.77468 -1.68444,-1.68468 -3.05564,-3.91569 -3.20507,-5.21481 -0.56135,-4.88052 -0.34149,-6.87415 1.08453,-9.83372 1.46853,-3.04784 4.37091,-6.06866 5.54828,-5.77471 0.30956,0.0773 1.51534,-0.17427 2.67951,-0.55901 2.73022,-0.90231 4.92369,-0.96024 6.43963,-0.1701 0.60555,0.31563 1.10099,0.45672 1.10099,0.31354 0,-0.37595 0.78716,-0.32062 2.17729,0.15305 0.92127,0.31391 1.2614,0.5845 1.41345,1.12448 0.11013,0.3911 0.18685,0.78194 0.1705,0.86854 -0.0164,0.0866 0.54749,0.41833 1.25301,0.73718 1.44137,0.65142 2.65763,1.74054 2.66074,2.38259 10e-4,0.23482 0.26902,0.55709 0.59531,0.71616 0.32628,0.15906 0.95043,0.47192 1.387,0.69525 2.65038,1.3558 6.13051,2.45211 6.28764,1.98074 0.0533,-0.15996 0.48155,-0.19215 1.07503,-0.0808 0.57896,0.10861 0.91647,0.29822 0.81709,0.45901 -0.11384,0.1842 0.30491,0.21471 1.27796,0.0931 1.33738,-0.1671 1.45868,-0.13724 1.59739,0.39319 0.13876,0.53062 0.19661,0.54482 0.76521,0.18778 0.80389,-0.5048 2.32866,-0.73129 2.99634,-0.44508 0.31221,0.13383 0.37549,0.23446 0.15434,0.24543 -0.20615,0.0102 -0.31966,0.0738 -0.25223,0.14118 0.0674,0.0674 0.71234,-0.0565 1.43316,-0.27533 0.72081,-0.21885 2.33157,-0.62685 3.57946,-0.90666 2.71843,-0.60955 5.215,-1.69162 6.92538,-3.00162 1.10986,-0.85004 1.25677,-0.90091 1.25677,-0.43514 0,0.65263 0.54968,0.67759 1.31287,0.0596 0.53952,-0.43688 0.55668,-0.55143 0.25937,-1.73214 -0.29339,-1.16514 -0.27414,-1.31138 0.24533,-1.86433 0.81242,-0.86478 0.70573,-1.32705 -0.5608,-2.42978 -1.28033,-1.11475 -3.31987,-2.10091 -5.47131,-2.64549 -1.80611,-0.45717 -5.04587,-0.72031 -5.04587,-0.40983 0,0.12489 -0.45911,0.0689 -1.02023,-0.12441 -0.56112,-0.19332 -2.43636,-0.54247 -4.16719,-0.77588 -3.75391,-0.50623 -4.50673,-0.72411 -5.84064,-1.69039 -0.65161,-0.47203 -1.50033,-0.79315 -2.36781,-0.89588 -0.74367,-0.0881 -2.34985,-0.54876 -3.56928,-1.02374 -1.21944,-0.47498 -2.86473,-0.99639 -3.65621,-1.1587 -1.56816,-0.32158 -1.99596,-0.79311 -1.0403,-1.14664 0.58791,-0.21748 0.59078,-0.23365 0.0883,-0.49722 -0.28565,-0.14983 -1.1261,-0.40053 -1.86768,-0.5571 -4.01382,-0.84743 -6.40866,-2.63105 -9.51509,-7.08658 -0.94993,-1.36248 -2.13871,-2.80563 -2.64175,-3.207 -0.50304,-0.40138 -0.91462,-0.94596 -0.91463,-1.21019 0,-0.26423 -0.13186,-0.7268 -0.29303,-1.02793 -0.23407,-0.43737 -0.33855,-0.47385 -0.51934,-0.18132 -0.29005,0.46931 -2.42167,-1.55997 -4.12579,-3.92772 -0.99324,-1.38003 -1.19883,-1.87576 -1.26186,-3.04271 -0.0572,-1.05859 -0.16953,-1.37772 -0.46688,-1.32612 -1.13568,0.19708 -2.04913,-2.66493 -2.05884,-6.45077 -0.005,-1.81318 -0.11248,-2.34088 -0.68919,-3.37273 -0.37603,-0.67278 -0.85771,-1.32063 -1.0704,-1.43966 -0.60713,-0.33976 -0.76887,-5.18984 -0.26553,-7.96272 0.22209,-1.22353 0.49947,-2.29509 0.61639,-2.38125 0.11693,-0.0862 0.23336,-0.47201 0.25873,-0.85745 0.058,-0.8815 1.12641,-2.53971 1.7398,-2.70031 0.25466,-0.0667 0.46302,-0.32555 0.46302,-0.57527 0,-0.37359 0.0703,-0.39568 0.39687,-0.12466 0.53166,0.44123 1.19063,-0.0892 1.19063,-0.95844 0,-0.39581 0.15435,-0.62907 0.41627,-0.62907 0.60444,0 0.35677,-0.85478 -0.34972,-1.207 -0.58504,-0.29168 -0.57837,-0.31146 0.7604,-2.25561 2.79417,-4.05766 5.73165,-7.32791 5.97699,-6.65409 0.0782,0.21472 0.59651,-0.0925 1.44869,-0.85871 0.72983,-0.65617 1.88953,-1.39285 2.57711,-1.63706 1.03838,-0.3688 1.23183,-0.5398 1.14205,-1.00947 -0.0594,-0.31099 0.0744,-0.71687 0.29736,-0.90195 0.43674,-0.36246 1.48918,-0.16709 1.48918,0.27646 0,0.14794 0.44649,-0.0742 0.99219,-0.49363 1.90616,-1.46509 2.33179,-1.66327 2.74019,-1.27587 0.51545,0.48896 1.55929,0.77303 1.55929,0.42435 0,-0.15533 -0.29063,-0.28242 -0.64584,-0.28242 -0.35522,0 -0.71943,-0.11906 -0.80937,-0.26458 -0.0961,-0.15543 0.18731,-0.26458 0.68685,-0.26458 0.83361,0 0.84093,-0.0104 0.37148,-0.52917 -0.43066,-0.47588 -0.43479,-0.52917 -0.041,-0.52917 0.61764,0 0.5459,-0.3602 -0.26329,-1.32186 -0.75401,-0.89609 -0.83873,-1.6522 -0.37719,-3.36624 0.37402,-1.38899 2.13681,-4.08337 3.13792,-4.79623 0.55193,-0.39301 0.76034,-0.72657 0.66993,-1.07227 -0.21222,-0.81156 0.34077,-1.51428 2.23494,-2.84002 0.98035,-0.68616 1.97488,-1.48262 2.21007,-1.76992 0.37226,-0.45475 0.8517,-0.53845 3.70416,-0.64667 3.03337,-0.11509 3.45093,-0.0698 5.62602,0.6103 1.3307,0.41608 2.82121,1.09443 3.43739,1.56441 1.55219,1.18389 3.0244,3.20943 2.88036,3.96293 -0.0871,0.45564 0.18793,0.90766 1.0984,1.80525 1.33232,1.31347 1.29862,1.21491 1.22094,3.57084 -0.0605,1.83516 0.13147,2.0007 1.27484,1.09924 0.60574,-0.47758 0.71505,-0.49591 0.78874,-0.13229 0.0901,0.44441 0.36567,0.54416 0.66805,0.24178 0.29766,-0.29766 3.14307,-0.0672 3.86564,0.31315 0.89648,0.47183 2.69556,2.37839 3.55266,3.76489 0.38065,0.61576 1.00865,2.04451 1.39556,3.175 0.61224,1.78888 0.70657,2.50146 0.72738,5.49501 0.018,2.59424 -0.0562,3.42371 -0.30217,3.37498 -0.32176,-0.0637 -0.42489,0.22998 -0.71941,2.04898 -0.41091,2.53772 -2.50042,5.38155 -5.28189,7.18863 -1.41055,0.91642 -1.6083,0.97739 -2.0052,0.61819 -0.63693,-0.57641 -0.95346,-0.49769 -1.58929,0.39526 -0.56429,0.79246 -1.36611,1.00984 -2.07271,0.56193 -0.28152,-0.17845 -0.26376,-0.25792 0.0878,-0.39282 0.24238,-0.093 0.66206,-0.16911 0.93261,-0.16911 0.27055,0 0.56549,-0.11906 0.65543,-0.26458 0.32966,-0.5334 -1.65687,-0.25717 -2.56048,0.35603 -0.503,0.34134 -1.23905,0.70207 -1.63568,0.80162 l -0.72114,0.18099 0.45335,-0.6919 c 0.3856,-0.58849 0.39717,-0.72747 0.0774,-0.92986 -0.75498,-0.47785 -1.49323,-0.23106 -2.42985,0.81228 -0.52255,0.58208 -1.19233,1.05833 -1.48839,1.05833 -0.29607,0 -1.00982,-0.47625 -1.58611,-1.05833 -1.09075,-1.1017 -1.94842,-1.32517 -2.97577,-0.77535 -0.41659,0.22295 -0.49263,0.44745 -0.35846,1.05833 0.16587,0.7552 0.14316,0.77535 -0.87377,0.77535 -0.57424,0 -1.66087,0.25633 -2.41474,0.56963 -1.52145,0.63228 -1.99713,0.46385 -2.01949,-0.71506 -0.0103,-0.54443 0.11686,-0.65166 0.79375,-0.6692 0.44333,-0.0115 0.65722,-0.081 0.47532,-0.15434 -0.54389,-0.21947 -0.37875,-0.53444 0.46302,-0.88311 0.43656,-0.18083 0.79375,-0.4334 0.79375,-0.56126 0,-0.47886 -1.25998,-0.2067 -2.40505,0.51948 -0.95862,0.60794 -1.24673,0.68668 -1.50416,0.41109 -0.17514,-0.18748 -0.24744,-0.52587 -0.16068,-0.75197 0.1893,-0.4933 -0.43949,-0.55838 -0.90428,-0.0936 -0.43883,0.43884 -0.39718,1.13908 0.0919,1.54498 0.22517,0.18687 0.30231,0.40981 0.17141,0.49542 -0.13089,0.0856 -0.81333,0.87002 -1.51653,1.74314 -0.7032,0.87313 -1.37565,1.62719 -1.49433,1.6757 -0.38716,0.15824 -0.22755,0.7452 0.34258,1.25986 l 0.55837,0.50403 -0.7568,0.13489 c -0.85893,0.15309 -1.06986,0.95153 -0.2315,0.87631 0.74891,-0.0672 0.95116,0.43018 0.47218,1.1612 -0.38226,0.5834 -0.37197,0.6652 0.14427,1.14615 0.30575,0.28485 0.65933,0.5179 0.78573,0.5179 0.12641,0 0.17901,0.34622 0.11691,0.76936 -0.10926,0.74446 -0.0671,0.77722 1.30259,1.0121 l 1.41551,0.24274 -1.12447,0.32102 c -0.83162,0.23741 -1.12448,0.45618 -1.12448,0.83998 0,0.45734 0.18668,0.51897 1.57188,0.51897 0.90085,0 1.65231,-0.13013 1.76028,-0.30482 0.11695,-0.18924 0.349,0.0353 0.61196,0.59225 0.66667,1.4119 4.39407,2.94709 5.84884,2.40894 0.52341,-0.19363 0.69866,-0.13892 0.91715,0.28631 0.14855,0.28912 0.80588,0.72478 1.46072,0.96814 0.84792,0.31511 1.16825,0.57176 1.11288,0.89166 -0.0594,0.34289 0.11695,0.44919 0.745,0.44919 0.45251,0 1.05304,-0.12325 1.33451,-0.27389 0.39697,-0.21245 0.51178,-0.18755 0.51178,0.11102 0,0.62274 2.53559,1.33753 4.43273,1.2496 1.46793,-0.068 1.63505,-0.0257 1.48133,0.37487 -0.13999,0.3648 -0.0661,0.41752 0.38475,0.27444 0.40171,-0.1275 0.6531,-0.0249 0.89742,0.36634 0.52985,0.84843 1.27043,0.70252 1.27043,-0.2503 0,-0.43656 0.10914,-0.79375 0.24254,-0.79375 0.37478,0 0.50593,0.61048 0.24157,1.12448 -0.30013,0.58356 -0.0195,0.59044 1.37203,0.0336 0.98995,-0.3961 1.10986,-0.3961 1.54754,0 0.26095,0.23616 0.6139,0.42937 0.78434,0.42937 0.17045,0 0.3099,0.12579 0.3099,0.27953 0,0.17293 0.57093,0.2486 1.49721,0.19844 l 1.49721,-0.0811 0.55331,1.11213 c 0.41224,0.82858 0.71335,1.11528 1.18102,1.12448 0.53168,0.0104 0.57656,0.074 0.29338,0.41519 -0.18389,0.22157 -0.53576,0.33892 -0.78195,0.26079 -0.30266,-0.0961 -0.54709,0.0763 -0.75479,0.53211 -0.26077,0.57234 -0.23747,0.69914 0.15424,0.8394 2.63766,0.94451 6.16692,2.637 7.96852,3.82139 l 0.89253,0.58675 -0.18996,-0.59851 c -0.17222,-0.54263 -0.1382,-0.57082 0.36424,-0.30192 0.48901,0.2617 0.55421,0.22391 0.55421,-0.32126 0,-0.33981 -0.14883,-0.7741 -0.33073,-0.96508 -0.27042,-0.28392 -0.21011,-0.31158 0.33073,-0.15169 0.3638,0.10755 1.01864,0.3831 1.45521,0.61234 l 0.79375,0.4168 -0.79375,0.14759 c -1.13457,0.21098 -0.8746,0.58889 0.84704,1.23131 1.43522,0.53555 1.47367,0.57386 0.8895,0.8865 -0.58446,0.3128 -1.38887,0.26678 -2.53029,-0.14476 -0.3125,-0.11267 -0.0958,0.20544 0.52916,0.77688 1.07536,0.98324 1.42646,1.04743 3.01524,0.55124 0.57618,-0.17995 0.62185,-0.13449 0.50083,0.4986 -0.098,0.51248 -0.008,0.73645 0.3419,0.84738 0.526,0.16694 2.09516,1.85073 2.09516,2.24822 0,0.13874 -0.20836,0.22389 -0.46302,0.18923 -1.0393,-0.14147 -0.58434,0.52787 1.03619,1.52447 2.44169,1.5016 4.42049,3.2632 5.0509,4.4965 0.31669,0.61954 0.69114,2.20402 0.90145,3.81444 0.19785,1.51507 0.48781,2.909 0.64435,3.09762 0.16958,0.20433 0.57553,0.28476 1.0044,0.19898 0.58388,-0.11678 0.96148,0.0749 1.99984,1.01495 1.17471,1.06353 1.25328,1.20892 0.95477,1.76669 -0.24266,0.45342 -0.25181,0.78649 -0.036,1.31139 0.19455,0.47323 0.20643,0.9901 0.0363,1.57865 -0.13914,0.48128 -0.18399,1.05486 -0.0997,1.27462 0.25046,0.65267 -0.46066,1.64793 -1.31087,1.83466 -0.45692,0.10036 -0.86124,0.0562 -0.96084,-0.10496 -0.0946,-0.15303 -0.18513,0.2212 -0.20122,0.83161 -0.0161,0.61042 -0.1174,1.73299 -0.22512,2.49461 -0.15379,1.08737 -0.10147,1.52879 0.2436,2.05544 0.42324,0.64595 0.41052,0.71273 -0.34491,1.81071 -0.43139,0.62701 -1.22268,1.47435 -1.75842,1.88298 l -0.97407,0.74296 0.17366,-1.1603 c 0.16142,-1.07857 0.14485,-1.12412 -0.23528,-0.64671 -0.22491,0.28248 -0.4173,0.93732 -0.42753,1.45521 -0.0102,0.51789 -0.12092,1.17974 -0.24598,1.47078 -0.21396,0.49792 -0.22849,0.49271 -0.24599,-0.0882 -0.0306,-1.0162 -0.64425,-0.50506 -1.02897,0.85709 -0.23897,0.84608 -0.46924,1.21196 -0.70565,1.12124 -0.62318,-0.23913 -1.26419,0.76163 -1.06596,1.66419 0.13187,0.60039 0.0738,0.85182 -0.22295,0.9657 -0.22068,0.0847 -0.33648,0.32272 -0.25734,0.52895 0.13925,0.3629 -0.005,0.4072 -1.60792,0.49229 -0.4587,0.0244 -0.88452,0.64155 -0.93204,1.35092 -0.0111,0.16517 0.3704,0.23219 0.94188,0.16547 l 0.96047,-0.11213 -0.49745,0.84253 c -0.2736,0.4634 -0.78455,1.10331 -1.13543,1.42203 -0.35089,0.31872 -0.55222,0.43067 -0.44741,0.24877 0.60167,-1.04419 -2.05661,0.36217 -4.28181,2.26528 -2.98904,2.55639 -5.27955,3.75399 -7.17983,3.75399 -0.45765,0 -0.77664,0.19772 -0.95013,0.58893 -0.29771,0.6713 -2.54435,1.48527 -4.17209,1.51157 -0.56944,0.009 -1.05798,0.16597 -1.13392,0.36388 -0.0734,0.19124 0.0494,1.04969 0.27289,1.90767 0.59363,2.27911 0.54581,3.84309 -0.12285,4.01795 -0.29104,0.0761 -0.52917,0.31165 -0.52917,0.52343 0,0.21178 -0.29988,0.89675 -0.66639,1.52215 -0.67524,1.15221 -0.65447,2.15719 0.0391,1.89105 0.49092,-0.18838 0.47414,0.91851 -0.0481,3.17021 -0.43783,1.88791 -1.61814,4.44907 -2.71041,5.88137 -0.58251,0.76385 -2.56108,2.1697 -3.05359,2.1697 -0.43253,0 -0.10018,-0.43767 0.66167,-0.87137 0.55131,-0.31384 0.74463,-0.56338 0.571,-0.73702 -0.17364,-0.17363 -0.9715,0.0255 -2.35655,0.58803 -2.75731,1.11996 -5.20154,1.33457 -5.95755,0.52309 -0.65457,-0.7026 -1.04115,-0.71271 -1.21918,-0.0319 -0.18199,0.6959 -0.50261,0.66781 -1.22062,-0.10694 z m 26.6514,-30.92392 c 0.39542,-0.62688 -0.10148,-1.05024 -0.70735,-0.60265 -0.28581,0.21113 -0.40172,0.51717 -0.29813,0.78712 0.19773,0.5153 0.61201,0.4393 1.00548,-0.18447 z m 12.64988,-33.84056 c -0.40416,-0.40416 -0.70237,-0.10594 -0.47821,0.47821 0.13235,0.3449 0.2471,0.37908 0.48247,0.1437 0.23539,-0.23538 0.23437,-0.38329 -0.004,-0.62191 z m -6.14274,-8.12527 c 0,-0.50568 -0.48431,-0.82206 -1.25839,-0.82206 -0.33207,0 -0.28968,0.14016 0.20005,0.66146 0.74251,0.79036 1.05834,0.83828 1.05834,0.1606 z m -15.35521,-49.83612 -0.009,-0.8599 -0.37812,0.66146 c -0.48712,0.85213 -0.48712,1.05833 0,1.05833 0.27329,0 0.39396,-0.26776 0.3875,-0.85989 z m 94.31173,89.40752 c 0.0846,-0.26656 0.1539,-0.59398 0.1539,-0.7276 0,-0.13362 0.11906,-0.24295 0.26458,-0.24295 0.3831,0 0.32533,0.35348 -0.15389,0.94162 -0.38294,0.46998 -0.40541,0.47243 -0.26459,0.0289 z m -153.75793,-8.24659 c 0.002,-0.7276 0.0534,-0.99385 0.11418,-0.59167 0.0608,0.40218 0.0592,0.99749 -0.004,1.32292 -0.0628,0.32542 -0.11256,-0.004 -0.11057,-0.73125 z m 27.67182,-8.53281 c -0.3291,-0.41964 -0.31975,-0.429 0.0999,-0.0999 0.25466,0.19973 0.46302,0.40808 0.46302,0.46303 0,0.21776 -0.21727,0.0776 -0.56291,-0.36313 z m -5.67993,-3.80881 c -0.50132,-0.56462 -0.50083,-0.56599 0.0913,-0.25528 0.32743,0.17182 0.59532,0.42727 0.59532,0.56767 0,0.37588 -0.12665,0.31825 -0.6866,-0.31239 z m 138.04713,-7.36984 c 0,-0.3638 0.06,-0.51263 0.13345,-0.33072 0.0734,0.1819 0.0734,0.47955 0,0.66145 -0.0734,0.18191 -0.13345,0.0331 -0.13345,-0.33073 z m -81.16557,-10.74422 c -0.21938,-0.52505 -0.33237,-1.02114 -0.25108,-1.10243 0.0813,-0.0813 0.14779,-0.083 0.14779,-0.004 0,0.0792 0.18019,0.57533 0.40042,1.10243 0.22024,0.52709 0.33322,0.95835 0.25108,0.95835 -0.0821,0 -0.32883,-0.42959 -0.54821,-0.95464 z m -11.0835,-7.51203 c -0.0899,-0.14552 0.0291,-0.26458 0.26458,-0.26458 0.23546,0 0.35452,0.11906 0.26459,0.26458 -0.0899,0.14553 -0.209,0.26459 -0.26459,0.26459 -0.0556,0 -0.17464,-0.11906 -0.26458,-0.26459 z m -2.24896,-0.49535 c 0,-0.12692 -0.47588,-0.30686 -1.05751,-0.39987 -0.62551,-0.10002 -1.40913,-0.48896 -1.91823,-0.9521 l -0.86072,-0.783 0.99219,-0.008 c 0.64511,-0.005 0.99219,0.11339 0.99219,0.33855 0,0.19047 0.15825,0.56273 0.35167,0.82725 0.2829,0.38689 0.4573,0.42442 0.89177,0.1919 0.84197,-0.45062 2.72531,-0.81795 2.72531,-0.53156 0,0.4027 -1.26332,1.54735 -1.70777,1.54735 -0.2249,0 -0.4089,-0.10384 -0.4089,-0.23077 z m -35.98333,-25.8463 c 0,-0.22687 0.121,-0.33771 0.2689,-0.2463 0.14789,0.0914 0.2004,0.27702 0.11667,0.41249 -0.22681,0.36699 -0.38557,0.29856 -0.38557,-0.16619 z m 55.41463,-50.24681 c -0.28247,-0.21365 -0.38752,-0.39224 -0.23343,-0.39687 0.15409,-0.005 0.51127,0.16639 0.79375,0.38004 0.28247,0.21365 0.38752,0.39225 0.23343,0.39688 -0.15409,0.005 -0.51128,-0.1664 -0.79375,-0.38005 z m -59.78026,-12.5347 c 0.14552,-0.15341 0.80037,-0.3474 1.45521,-0.43109 1.33294,-0.17037 0.78856,0.18319 -0.79375,0.51551 -0.64566,0.1356 -0.84593,0.11004 -0.66146,-0.0844 z m 128.7988,171.27629 c 0.31938,-0.66974 0.35125,-0.92371 0.11515,-0.91763 -0.84237,0.0217 -1.57953,1.16385 -1.0761,1.66728 0.32777,0.32778 0.51789,0.17946 0.96095,-0.74965 z m 28.50309,-48.6256 c 0.33263,-0.26539 0.35136,-0.48116 0.10617,-1.22171 -0.33342,-1.00699 -0.50815,-0.87917 -0.78015,0.57068 -0.1929,1.02824 -0.0146,1.20044 0.67398,0.65103 z m 0.7784,-15.602 c -0.004,-0.18191 -0.31467,-0.80698 -0.68916,-1.38907 -0.37449,-0.58208 -0.60891,-0.84023 -0.52091,-0.57367 0.088,0.26656 0.15999,0.89164 0.15999,1.38906 0,0.72802 0.10322,0.9044 0.52917,0.9044 0.29104,0 0.52546,-0.14882 0.52091,-0.33072 z m -21.68758,-7.19268 c 0,-0.0633 -0.1259,-0.4462 -0.27977,-0.85093 -0.21609,-0.56835 -0.33235,-0.6508 -0.51071,-0.36221 -0.2531,0.40954 0.11708,1.32821 0.53521,1.32821 0.1404,0 0.25527,-0.0518 0.25527,-0.11507 z m -22.48186,-44.45791 c -0.18274,-0.2202 -0.45587,-0.32396 -0.60695,-0.23059 -0.16827,0.104 -0.0873,0.3068 0.2091,0.52352 0.59638,0.43608 0.8487,0.2503 0.39785,-0.29293 z m -51.07231,-68.4041 c -0.52126,-0.33687 -1.13423,-0.33687 -0.92604,0 0.0899,0.14552 0.42439,0.26276 0.74322,0.26053 0.47129,-0.003 0.50548,-0.052 0.18282,-0.26053 z m -4.04042,-1.50476 c 0.0816,-0.24473 -1.72049,-1.15343 -2.24879,-1.13396 -0.10619,0.004 0.22364,0.35769 0.73296,0.78616 0.92693,0.77978 1.34022,0.87461 1.51583,0.3478 z m -9.71791,220.05059 c 0.21828,-0.14106 0.69453,-0.24643 1.05833,-0.23416 l 0.66146,0.0223 -0.66146,0.21183 c -0.3638,0.11651 -0.84005,0.22188 -1.05833,0.23416 -0.35278,0.0198 -0.35278,-0.006 0,-0.23416 z m -73.15729,-0.23598 c -0.58209,-0.0885 -0.93927,-0.23025 -0.79375,-0.31501 0.14552,-0.0848 0.97896,-0.0107 1.85208,0.16451 1.62848,0.32686 0.83962,0.43903 -1.05833,0.1505 z m 183.356247,-73.31819 c 0.0899,-0.14552 0.21603,-0.26458 0.2802,-0.26458 0.0642,0 0.11668,0.11906 0.11668,0.26458 0,0.14553 -0.1261,0.26459 -0.2802,0.26459 -0.15412,0 -0.206607,-0.11906 -0.11668,-0.26459 z m -1.712117,-39.14799 c -0.21407,-0.13538 -0.32033,-0.31503 -0.23614,-0.39922 0.0842,-0.0842 0.30366,0.0284 0.48774,0.2502 0.38168,0.4599 0.3085,0.50324 -0.2516,0.14902 z m -36.1233,-71.44784 c -0.43138,-0.18537 -0.44648,-0.23083 -0.0818,-0.24599 0.24608,-0.0102 0.52099,0.10047 0.61093,0.24599 0.18803,0.30424 0.17884,0.30424 -0.52917,0 z"
         id="path7838" />
      <path
         style="fill:#f0e200;fill-opacity:1;stroke-width:2.85714"
         d="m -945.48314,1276.8244 c -5.37289,-1.6239 -12.25189,-2.3031 -15.28669,-1.5095 -5.72031,1.4959 -42.57187,-4.6802 -58.09737,-9.7367 -4.8769,-1.5884 -11.9483,-3.4716 -15.7143,-4.1849 -18.1703,-3.4417 -22.5335,-5.0489 -31.3356,-11.543 -5.2133,-3.8462 -12.1219,-6.998 -15.3523,-7.0038 -3.2304,-0.01 -10.052,-2.5584 -15.1592,-5.6723 -5.8514,-3.5677 -9.2857,-4.4132 -9.2857,-2.286 0,1.8566 -4.1786,-0.5919 -9.2857,-5.4411 -5.1071,-4.8492 -12.1786,-9.6881 -15.7143,-10.753 -3.5357,-1.065 -6.4373,-3.4568 -6.4481,-5.3152 -0.011,-1.8584 -4.5107,-6.4375 -10,-10.1758 -5.4892,-3.7382 -10.0522,-8.2382 -10.1399,-10 -0.2258,-4.5343 -31.6359,-28.8502 -37.7785,-29.2459 -6.4798,-0.4174 -10.2882,-4.3516 -5.7766,-5.9673 2.3674,-0.8479 2.6397,-3.302 0.88,-7.9306 -2.9937,-7.8739 -27.2957,-41.0042 -34.6242,-47.2022 -2.7871,-2.3571 -7.7966,-11.6541 -11.1322,-20.6599 -3.3356,-9.0059 -7.2672,-17.1175 -8.7369,-18.0258 -1.4697,-0.9083 -2.6847,-4.4685 -2.7001,-7.9115 -0.015,-3.4429 -3.3643,-13.3313 -7.442,-21.9742 -5.9758,-12.6655 -7.8297,-22.0889 -9.5558,-48.57141 -1.1778,-18.07143 -3.5828,-36.39286 -5.3443,-40.71429 -1.7616,-4.32143 -2.1646,-7.85714 -0.8956,-7.85714 1.269,0 1.7068,-7.24012 0.973,-16.08915 -0.7733,-9.32431 0.5737,-24.64102 3.2035,-36.42857 7.4159,-33.23982 10.5131,-50.31576 10.595,-58.41454 0.1181,-11.66694 14.4171,-42.69992 32.3545,-70.21821 10.6717,-16.37188 16.1396,-27.71171 16.1396,-33.47166 0,-5.63668 1.2438,-8.29661 3.5241,-7.53652 1.9382,0.64608 7.2945,-4.03019 11.9027,-10.39172 4.6083,-6.36152 16.8439,-19.83884 27.1903,-29.94958 23.8734,-23.32976 27.1424,-26.07148 31.0861,-26.07148 1.773,0 11.1488,-7.07143 20.835,-15.71429 9.6863,-8.64285 18.955,-15.71428 20.5973,-15.71428 1.6423,0 5.0158,-1.82903 7.4967,-4.06451 5.0138,-4.51785 26.528,-12.82664 36.9784,-14.2811 3.7144,-0.51696 7.5716,-2.11889 8.5715,-3.55984 3.5098,-5.05802 62.653,-19.23936 69.41537,-16.64439 2.57494,0.9881 5.57472,0.35163 6.66617,-1.41437 1.41589,-2.29096 13.9022,-2.63151 43.58089,-1.18864 37.7556,1.83555 41.93486,1.55945 45.26168,-2.99025 3.25218,-4.44762 4.32812,-4.54823 9.54709,-0.89273 3.235,2.26589 5.15843,4.84319 4.27426,5.72735 -0.88415,0.88415 5.22605,3.07309 13.57823,4.86431 25.16794,5.39756 54.36714,17.10045 61.28171,24.56142 3.94577,4.25756 9.68066,7.0256 14.55574,7.0256 4.42452,0 12.94306,3.32859 18.93006,7.39685 5.98697,4.06827 11.61231,6.66996 12.50074,5.78154 0.8884,-0.88842 -0.49728,-2.42599 -3.07934,-3.41681 -2.58206,-0.99083 -4.69466,-2.87308 -4.69466,-4.18276 0,-1.30969 5.68566,0.39827 12.63477,3.79546 6.94915,3.39718 12.01049,7.18681 11.24749,8.42139 -0.76303,1.23458 0.9442,2.98307 3.7938,3.88553 8.06394,2.55382 15.84957,6.44989 25.18109,12.60106 4.71428,3.10758 12.83031,7.87035 18.03562,10.58394 7.36469,3.83932 8.41866,5.30057 4.75106,6.58709 -3.41783,1.19891 -0.52226,3.90686 10.5358,9.85315 24.70289,13.28358 39.69329,24.45311 42.41086,31.60083 1.39883,3.67919 8.3526,10.95875 15.45283,16.1768 7.10023,5.21805 13.66097,11.6719 14.57945,14.34189 0.91849,2.66999 5.18389,8.61618 9.47866,13.21376 4.29477,4.59758 11.27237,13.34162 15.50574,19.43119 4.23338,6.08957 11.04106,15.16883 15.12823,20.17612 4.08717,5.00729 7.68037,10.80173 7.98489,12.87652 0.30451,2.0748 2.8104,6.97792 5.56866,10.89583 4.218,5.99137 5.44934,6.44237 7.74785,2.83777 2.30729,-3.61836 2.73966,-3.47291 2.7766,0.93406 0.0229,2.87088 3.91,9.08605 8.63543,13.81148 4.72543,4.72543 8.01454,9.52555 7.30912,10.66693 -2.96795,4.80224 5.76168,28.07501 13.40614,35.74018 5.22837,5.24255 7.7598,10.25838 6.87837,13.62898 -1.6342,6.24914 6.33063,28.53628 11.31034,31.64851 1.88715,1.17946 4.34249,7.60803 5.45635,14.28571 1.11382,6.67772 5.39791,18.56986 9.5202,26.427 10.33248,19.69392 10.33774,19.71289 4.87368,17.61612 -4.006,-1.53723 -4.48623,-0.73677 -2.72663,4.54471 1.17469,3.52583 1.97626,8.33917 1.78129,10.69632 -0.19486,2.35714 -0.98186,11.42704 -1.74869,20.15544 -0.7668,8.7283 -0.21828,17.7283 1.21895,20 2.0316,3.2111 2.62285,2.6997 2.65688,-2.2983 0.0229,-3.5357 1.4794,-6.4286 3.23412,-6.4286 1.91422,0 2.50125,2.5715 1.4676,6.4286 -0.94755,3.5357 -1.74038,7.9153 -1.76183,9.7325 -0.0229,1.9785 -2.52483,2.6539 -6.2352,1.6836 -5.00832,-1.3097 -5.83043,-0.6671 -4.28826,3.3517 3.00906,7.8415 -0.754,17.7363 -8.27623,21.7621 -3.79308,2.03 -9.71354,9.5876 -13.1566,16.7948 -3.44306,7.2071 -7.59723,13.9982 -9.23151,15.0914 -1.63429,1.0931 -2.17503,2.7839 -1.20166,3.7572 0.97337,0.9734 -0.7106,4.579 -3.74217,8.0125 -19.08472,21.6152 -27.75643,30.2052 -35.33594,35.0032 -4.71429,2.9843 -10.23786,7.6789 -12.27458,10.4324 -2.03674,2.7535 -9.3708,8.3279 -16.29791,12.3874 -6.92711,4.0596 -13.43694,10.0346 -14.46634,13.2779 -1.488,4.6883 -2.40389,5.0875 -4.46866,1.948 -2.14869,-3.2672 -3.08729,-3.1189 -5.43643,0.859 -3.00048,5.0807 -18.35048,13.7634 -24.33223,13.7634 -1.94757,0 -4.2728,1.9069 -5.16717,4.2376 -0.95248,2.4822 -3.50643,3.516 -6.16534,2.4957 -2.59157,-0.9945 -7.2352,0.7267 -10.82243,4.0114 -3.45577,3.1643 -11.81046,8.5281 -18.56603,11.9195 -6.75554,3.3914 -13.42406,9.0008 -14.81888,12.4653 -1.39486,3.4645 -2.61758,4.6161 -2.71718,2.5591 -0.0997,-2.0571 -1.61057,-2.8566 -3.35768,-1.7768 -1.74714,1.0797 -4.22026,0.2745 -5.49583,-1.7894 -3.20426,-5.1846 -24.84231,1.9556 -28.8994,9.5363 -2.47037,4.6159 -4.89854,5.1911 -15.31774,3.6287 -10.05677,-1.5081 -12.90569,-0.9211 -15.17057,3.1261 -1.8598,3.3232 -6.8218,5.1902 -14.89772,5.6053 -6.66003,0.3423 -13.07531,2.1857 -14.25623,4.0964 -1.18088,1.9108 -3.60543,2.5728 -5.38785,1.4712 -1.78243,-1.1016 -9.55069,0.093 -17.26283,2.6544 -17.17957,5.7062 -40.13526,8.1595 -40.13526,4.2894 0,-3.4524 -7.72514,-3.7669 -9.04763,-0.3684 -0.5238,1.3461 -14.45237,3.2135 -30.95237,4.1498 -16.5,0.9363 -35.78571,2.3562 -42.85714,3.1552 -7.07143,0.7992 -17.25315,0.1243 -22.626,-1.4995 z m 59.52725,-60.9608 c 1.43589,-0.8874 3.07269,-0.2274 3.63735,1.4665 0.60671,1.8201 4.12074,0.6461 8.59088,-2.8701 9.09789,-7.1564 17.92235,-28.7418 15.57446,-38.0965 -0.99254,-3.9547 0.104,-9.3058 2.65266,-12.9445 2.99351,-4.2738 3.75908,-9.3241 2.46177,-16.2395 -1.73183,-9.2314 -1.32809,-10.0366 5.03186,-10.0366 3.80311,0 9.41048,-1.8877 12.46082,-4.1949 3.05035,-2.3071 7.6112,-4.2357 10.13523,-4.2857 2.52403,-0.05 10.4826,-4.5909 17.68575,-10.0909 7.20311,-5.5 15.05705,-10 17.45317,-10 6.47714,0 11.96448,-11.4566 6.99551,-14.6053 -2.99246,-1.8962 -2.72023,-2.4599 1.20429,-2.4938 2.78888,-0.023 6.29903,-3.2745 7.80031,-7.2231 1.50129,-3.9487 7.90477,-11.9377 14.22994,-17.7533 10.1072,-9.2931 11.29175,-11.6859 9.77835,-19.753 -1.3414,-7.1503 -0.39746,-10.3132 4.27077,-14.3102 4.52503,-3.8745 5.99277,-8.4566 5.99277,-18.7086 0,-12.1962 -0.87191,-14.02824 -8.57143,-18.00981 -5.20308,-2.69063 -8.57143,-6.68526 -8.57143,-10.16515 0,-10.65048 -7.954,-24.86134 -16.85968,-30.12208 -4.87003,-2.87677 -8.8546,-7.239 -8.8546,-9.69383 0,-5.55949 -9.82132,-14.22872 -16.46123,-14.53023 -2.98466,-0.13543 -3.54183,-0.80077 -1.39592,-1.66666 5.29246,-2.13554 4.32838,-6.67257 -1.42857,-6.72294 -4.2656,-0.0374 -4.37051,-0.44443 -0.71428,-2.77166 3.36465,-2.1416 2.29008,-3.13003 -5,-4.59908 -5.46209,-1.10072 -9.28572,-3.61646 -9.28572,-6.10955 0,-3.03051 -1.92697,-3.75465 -6.76214,-2.54111 -5.03331,1.26329 -9.0442,-0.48369 -15.68826,-6.83311 -4.9094,-4.69169 -11.4334,-8.53032 -14.49783,-8.53032 -3.06442,0 -6.43551,-1.39771 -7.49131,-3.10606 -1.0558,-1.70831 -4.34597,-2.47154 -7.31149,-1.69605 -2.96551,0.77551 -5.39817,0.56608 -5.40594,-0.46537 -0.009,-1.03146 -5.78243,-2.20815 -12.8326,-2.61483 -7.05017,-0.40672 -20.06094,-3.94243 -28.91283,-7.85715 -8.85188,-3.91474 -18.3324,-7.11768 -21.0678,-7.11768 -2.7354,0 -8.24251,-2.57143 -12.238,-5.71429 -3.99548,-3.14285 -8.74477,-5.71428 -10.55394,-5.71428 -1.80914,0 -2.49477,-1.28572 -1.52357,-2.85715 0.9712,-1.57142 -0.02,-2.85714 -2.20572,-2.85714 -10.84774,0 -13.56314,-27.66738 -3.22142,-32.82328 3.23862,-1.61463 5.35608,-4.53278 4.7054,-6.48478 -0.65066,-1.952 0.20982,-3.54908 1.91222,-3.54908 1.70238,0 3.09523,1.92857 3.09523,4.28571 0,4.80765 1.25977,5.03377 13.92857,2.5 4.91072,-0.98214 8.92858,-3.55357 8.92858,-5.71428 0,-5.17121 4.126,-4.99929 8.57142,0.35714 4.58443,5.52389 8.30512,5.41237 14.77503,-0.44282 4.86606,-4.40372 5.22497,-4.39682 5.22497,0.10052 0,3.83043 1.104,4.23822 5.33863,1.97192 2.93623,-1.57143 6.09506,-2.10069 7.01963,-1.17613 0.92454,0.92456 3.98646,0.70081 6.80423,-0.49722 2.81777,-1.19803 7.40226,-2.42985 10.18774,-2.73738 13.55343,-1.49635 30.64977,-30.63946 30.64977,-52.24677 0,-13.89916 -8.63197,-34.51511 -17.61728,-42.07574 -5.98986,-5.04013 -11.92877,-7.18209 -19.9134,-7.18209 -6.51957,0 -10.65617,-1.16794 -9.68754,-2.7352 0.92974,-1.50435 -2.41772,-10.01445 -7.4388,-18.91132 -10.71575,-18.98725 -21.26009,-24.74165 -44.82083,-24.46023 -12.00763,0.14343 -17.5708,1.82164 -25.11595,7.57661 -5.33057,4.0658 -9.69191,9.09808 -9.69191,11.18284 0,2.08476 -2.12774,5.55504 -4.72829,7.71174 -7.66465,6.35644 -12.9988,21.77675 -9.6788,27.98018 2.30438,4.30577 1.49598,6.25529 -4.1196,9.93475 -3.84261,2.51777 -8.88101,4.57777 -11.19641,4.57777 -2.3155,0 -8.433,3.85714 -13.5945,8.57143 -5.1614,4.71428 -10.9848,8.57143 -12.9409,8.57143 -4.5274,0 -27.122,29.72454 -26.4362,34.77857 1.0428,7.68597 -0.2901,10.59114 -5.6379,12.28849 -3.0115,0.95582 -6.8687,5.73432 -8.5715,10.61889 -3.9688,11.38503 -4.0189,43.10529 -0.074,47.04991 1.6618,1.66185 3.7694,10.26725 4.6834,19.12305 0.914,8.85583 3.4114,17.55354 5.5498,19.32829 2.1384,1.77471 3.8881,5.57568 3.8881,8.44657 0,2.87088 5.9158,11.39203 13.1464,18.93588 7.2305,7.54383 18.266,20.40315 24.5234,28.57626 7.2461,9.46457 16.2184,17.1736 24.7107,21.23154 7.33357,3.50426 13.9766,7.29897 14.76231,8.43272 3.31438,4.78245 63.28475,22.40057 84.92066,24.94803 21.62886,2.54661 42.24583,10.31361 41.21663,15.52751 -0.23257,1.1786 -0.423,5.3571 -0.423,9.2857 0,4.5172 -1.61234,7.1429 -4.38623,7.1429 -2.41243,0 -7.47483,2.0237 -11.24977,4.4971 -11.93497,7.8201 -35.32331,12.4147 -55.44757,10.8926 -30.77717,-2.3279 -34.75566,-4.1973 -60.82252,-28.5784 -7.9434,-7.4297 -27.44401,-10.3806 -43.67631,-6.6092 -16.2354,3.7721 -28.1028,13.3042 -33.0698,26.5621 -1.8442,4.9225 -4.6403,11.6822 -6.2135,15.0215 -1.9583,4.1564 -1.8673,7.9272 0.2883,11.955 1.7319,3.236 3.1613,8.2181 3.1766,11.0714 0.075,14.0913 42.6745,51.6024 56.6077,49.8466 4.732,-0.5963 7.0839,0.8785 8.1986,5.1409 0.9233,3.5309 4.639,6.6022 9.07876,7.5044 4.13365,0.84 12.16491,2.7545 17.84723,4.2545 5.68231,1.4999 15.07962,2.7272 20.88291,2.7272 7.73066,0 9.95277,0.9548 8.31211,3.5714 -1.23162,1.9643 -2.56931,8.3434 -2.97268,14.1757 -0.57886,8.37 0.15828,10.262 3.49926,8.98 3.00945,-1.1548 4.23262,0.3446 4.23262,5.1886 0,3.7471 1.92683,9.5638 4.28186,12.926 3.3034,4.7163 3.46663,6.4559 0.71429,7.6128 -2.68192,1.1273 -2.50366,2.2097 0.71814,4.3603 2.35714,1.5734 8.78571,6.0178 14.28571,9.8763 7.95786,5.5829 12.77198,6.8171 23.57386,6.0436 7.46563,-0.5345 14.74869,-1.698 16.18454,-2.5854 z m -102.61554,-204.435 c 0,-1.5715 -1.28571,-2.8572 -2.85714,-2.8572 -1.57143,0 -2.85714,1.2857 -2.85714,2.8572 0,1.5714 1.28571,2.8571 2.85714,2.8571 1.57143,0 2.85714,-1.2857 2.85714,-2.8571 z m 213.14286,-70.28574 c -1.01683,-2.64983 -2.49166,-4.17503 -3.27737,-3.38932 -0.78572,0.78572 -0.5966,3.59663 0.42023,6.24646 1.01682,2.64983 2.49165,4.17503 3.27737,3.38931 0.78571,-0.78571 0.5966,-3.59662 -0.42023,-6.24645 z"
         id="path7840"
         transform="scale(0.26458333)" />
    </g>
  </g>
</svg>
