<?xml version="1.0" encoding="UTF-8" standalone="no"?>
<svg
   xmlns:dc="http://purl.org/dc/elements/1.1/"
   xmlns:cc="http://creativecommons.org/ns#"
   xmlns:rdf="http://www.w3.org/1999/02/22-rdf-syntax-ns#"
   xmlns:svg="http://www.w3.org/2000/svg"
   xmlns="http://www.w3.org/2000/svg"
   xmlns:sodipodi="http://sodipodi.sourceforge.net/DTD/sodipodi-0.dtd"
   xmlns:inkscape="http://www.inkscape.org/namespaces/inkscape"
   width="218.69862mm"
   height="122.96629mm"
   viewBox="0 0 218.69862 122.96628"
   version="1.1"
   id="svg206"
   inkscape:version="1.0.2 (e86c870879, 2021-01-15)"
   sodipodi:docname="information.svg">
  <defs
     id="defs200" />
  <sodipodi:namedview
     id="base"
     pagecolor="#ffffff"
     bordercolor="#666666"
     borderopacity="1.0"
     inkscape:pageopacity="0.0"
     inkscape:pageshadow="2"
     inkscape:zoom="1.979899"
     inkscape:cx="355.522"
     inkscape:cy="146.69553"
     inkscape:document-units="mm"
     inkscape:current-layer="layer1"
     inkscape:document-rotation="0"
     showgrid="false"
     fit-margin-top="0"
     fit-margin-left="0"
     fit-margin-right="0"
     fit-margin-bottom="0"
     inkscape:window-width="2560"
     inkscape:window-height="1403"
     inkscape:window-x="0"
     inkscape:window-y="0"
     inkscape:window-maximized="1" />
  <metadata
     id="metadata203">
    <rdf:RDF>
      <cc:Work
         rdf:about="">
        <dc:format>image/svg+xml</dc:format>
        <dc:type
           rdf:resource="http://purl.org/dc/dcmitype/StillImage" />
        <dc:title></dc:title>
      </cc:Work>
    </rdf:RDF>
  </metadata>
  <g
     inkscape:label="Layer 1"
     inkscape:groupmode="layer"
     id="layer1"
     transform="translate(243.24221,359.04896)">
    <path
       style="fill:#314f9c;fill-opacity:1;stroke-width:0.264583"
       d="m -65.129443,-236.18927 c -1.606886,-0.30998 -10.866197,-2.27203 -12.303125,-2.60702 -0.873125,-0.20356 -3.373438,-0.67856 -5.55625,-1.05555 -2.182813,-0.377 -5.814219,-1.02768 -8.069792,-1.44597 -7.323077,-1.35802 -12.41947,-2.14503 -17.19792,-2.6558 -1.67349,-0.17889 -3.52204,-0.42602 -4.10789,-0.5492 -1.35577,-0.28505 -13.8825,-1.78722 -17.72024,-2.12495 -11.33325,-0.99738 -22.05671,-2.53664 -26.59063,-3.81687 -7.33249,-2.07046 -9.71055,-3.62453 -10.85509,-7.09386 -0.77326,-2.34389 -0.0218,-5.44246 2.00191,-8.25453 0.57639,-0.80093 6.76298,-6.95845 13.74798,-13.68339 6.985,-6.72493 14.26299,-13.77746 16.17332,-15.67227 l 3.47332,-3.44513 0.17316,-1.85208 c 0.0952,-1.01865 0.51827,-4.70959 0.94006,-8.20209 0.4218,-3.49249 0.90281,-7.65968 1.06892,-9.26041 0.16611,-1.60073 0.64825,-5.30742 1.07141,-8.23709 0.42317,-2.92967 0.84148,-5.96577 0.92958,-6.74688 0.0881,-0.78111 0.33687,-2.67035 0.55284,-4.19832 0.21596,-1.52797 0.50802,-3.6711 0.64903,-4.7625 0.42812,-3.31391 1.56243,-7.6981 2.50833,-9.69488 1.72078,-3.63258 3.72161,-5.55268 7.11845,-6.83125 1.58135,-0.59522 2.18078,-0.67154 5.25902,-0.66962 1.91083,10e-4 4.48626,0.11396 5.72319,0.25059 2.67733,0.29574 8.440539,0.7091 14.816667,1.06272 14.146898,0.78458 19.60477,1.56559 30.299596,4.33579 6.427976,1.66499 11.953209,2.91622 17.722279,4.01334 7.214103,1.37193 9.666288,2.30195 13.07727,4.95975 1.616128,1.25926 3.103933,3.68522 3.989863,6.50567 0.492655,1.56845 0.653415,2.59536 1.331251,8.5033 0.629338,5.48541 0.421746,13.99812 -0.541998,22.225 -0.298345,2.54662 -0.595683,4.80881 -0.660771,5.02709 -0.06509,0.21828 -0.232595,1.17078 -0.372216,2.11666 -0.139647,0.94589 -0.49403,3.02948 -0.787532,4.63021 -0.293502,1.60073 -0.596186,3.26761 -0.67265,3.70417 -0.07646,0.43656 -0.385895,2.10344 -0.687626,3.70417 -0.301731,1.60072 -0.668681,3.62479 -0.815446,4.49791 -0.146764,0.87313 -0.503766,2.42094 -0.793353,3.43959 -0.289586,1.01864 -0.635159,2.2688 -0.767927,2.77812 -0.132767,0.50932 -0.730064,2.23573 -1.327308,3.83646 -0.597271,1.60073 -1.292596,3.46544 -1.545167,4.1438 -0.252598,0.67837 -0.586131,1.39274 -0.74123,1.5875 -0.155099,0.19476 -0.778219,1.48061 -1.384724,2.85744 -1.53789,3.4912 -4.631822,8.46981 -8.008302,12.8866 -4.742495,6.20369 -12.304012,13.64352 -15.564009,15.31357 -0.923208,0.47294 -4.148804,0.75173 -5.55625,0.48021 z m 4.365625,-3.05772 c 1.326663,-0.60156 2.044726,-1.12721 4.123944,-3.01894 2.076979,-1.88969 8.096102,-7.97496 8.244771,-8.33539 0.06985,-0.16931 0.892228,-1.23067 2.778681,-3.58616 0.618464,-0.77223 1.124479,-1.5163 1.124479,-1.65348 0,-0.13719 0.204153,-0.45357 0.453655,-0.70308 1.172607,-1.17262 7.015612,-11.81267 7.617619,-13.87164 0.106362,-0.36381 0.338031,-0.84006 0.514799,-1.05834 0.257572,-0.31805 1.532679,-3.58638 2.164583,-5.54818 0.212513,-0.65983 -0.237305,-0.0681 -1.887114,2.48253 -1.600438,2.47429 -3.938667,5.94305 -5.416868,8.03596 -0.440478,0.62362 -0.80727,1.21893 -0.815154,1.32292 -0.01667,0.21933 -1.080612,1.74371 -4.21902,6.0445 -1.236927,1.69505 -2.368021,3.26704 -2.513542,3.49331 -0.14552,0.22627 -1.639054,2.26349 -3.318959,4.52716 -1.679909,2.26367 -3.768794,5.08699 -4.641969,6.27405 -0.873176,1.18706 -2.097228,2.58408 -2.720116,3.10449 -2.024036,1.69103 -5.156816,2.16664 -8.977492,1.36294 -1.008565,-0.21216 -3.605959,-0.68656 -5.771986,-1.05422 -4.732872,-0.80335 -15.64444,-3.24494 -23.169603,-5.18447 l -5.47304,-1.41062 -1.53842,0.48042 c -2.7159,0.84813 -2.71557,0.84778 -1.00925,1.05151 1.47776,0.17644 3.58167,0.52448 15.345835,2.53864 4.126137,0.70644 8.94057,1.64411 15.08125,2.93724 1.309688,0.2758 3.036094,0.6249 3.836459,0.77576 0.800364,0.15087 1.752864,0.38954 2.116666,0.53037 0.363802,0.14084 1.733021,0.42001 3.042709,0.62038 2.35391,0.36013 3.998931,0.30853 5.027083,-0.15766 z m -1.176547,-4.32324 c 0.53271,-0.36917 1.366666,-1.23237 1.853237,-1.91823 0.703057,-0.99101 7.768874,-10.47943 10.090492,-13.55014 2.71826,-3.59532 15.346849,-22.26063 15.176405,-22.43105 -0.0563,-0.0563 -1.250024,0.0421 -2.652713,0.21864 -4.629441,0.58271 -16.011406,0.13972 -25.142957,-0.97857 -1.74625,-0.21386 -3.770313,-0.44771 -4.497917,-0.51968 -0.727604,-0.072 -3.227917,-0.41782 -5.55625,-0.76856 -17.235054,-2.59626 -32.780972,-5.78078 -41.275012,-8.45502 -8.00913,-2.52158 -11.12716,-3.30094 -14.94895,-3.73655 l -1.45521,-0.16587 -4.26655,4.19698 c -2.3466,2.30833 -6.39229,6.22103 -8.99043,8.69489 -2.59813,2.47385 -5.72265,5.45041 -6.94337,6.61458 -1.22072,1.16417 -2.89002,2.81736 -3.70957,3.67376 -0.81954,0.8564 -1.94446,1.89097 -2.4998,2.29905 -1.25537,0.92246 -4.53869,3.94907 -4.28402,3.94907 0.1031,0 -0.42418,0.66923 -1.17175,1.48719 -1.55298,1.6992 -2.27993,2.90259 -1.78673,2.9577 2.62326,0.29314 4.67753,0.56684 5.20951,0.69411 0.79596,0.19042 5.61687,0.86359 8.73125,1.2192 1.23693,0.14123 2.41716,0.31993 2.62275,0.3971 0.20559,0.0772 1.99152,0.31532 3.96875,0.52923 1.97723,0.21391 4.30933,0.50617 5.18246,0.64946 0.87312,0.1433 2.83765,0.45668 4.36562,0.69641 1.52797,0.23973 4.08781,0.70713 5.68854,1.03868 3.02319,0.62616 11.34469,2.44681 12.03855,2.63388 4.32146,1.16514 12.91874,3.33808 20.505212,5.18264 2.328333,0.56611 4.709583,1.14882 5.291666,1.29492 2.555447,0.64139 11.16125,2.38956 15.742709,3.19794 1.673489,0.29528 4.173802,0.75418 5.55625,1.01978 1.382448,0.2656 3.340579,0.49793 4.351404,0.51629 1.568484,0.0285 1.979824,-0.065 2.806424,-0.63783 z m -31.764078,-8.08637 c -0.999879,-0.24191 -4.926008,-1.00049 -6.217709,-1.20134 -1.662418,-0.2585 -11.436988,-2.25874 -12.700008,-2.59889 -0.7276,-0.19596 -2.8112,-0.6793 -4.63021,-1.07409 -7.55628,-1.64001 -7.76695,-1.83032 -5.92694,-5.35429 1.08739,-2.08254 1.77856,-3.12463 4.07853,-6.14922 0.38731,-0.50933 0.85407,-1.20758 1.03725,-1.55168 0.30889,-0.58022 0.44671,-0.61453 1.89836,-0.47265 0.86091,0.0842 2.01028,0.27307 2.55415,0.41984 1.54769,0.41763 5.14815,1.24411 9.19095,2.10976 2.03729,0.43622 4.954325,1.10622 6.482293,1.48889 1.527969,0.38266 3.586287,0.86264 4.574038,1.06661 0.987753,0.20398 1.999784,0.47998 2.248958,0.61333 0.249177,0.13336 0.512577,0.23086 0.585338,0.21667 0.07276,-0.0142 1.415439,0.31432 2.98373,0.73 4.119369,1.09186 4.909119,1.99693 3.432416,3.93363 -0.400183,0.52485 -1.059614,1.46395 -1.4654,2.08691 -3.836562,5.88979 -4.769618,6.5485 -8.125746,5.73652 z m 2.956705,-3.71487 c 0.338344,-0.33326 1.239232,-1.55842 2.001975,-2.72258 1.571998,-2.39932 1.600274,-2.31973 -1.030139,-2.89952 -0.923772,-0.20362 -3.405989,-0.80124 -5.516041,-1.32805 -4.266952,-1.06531 -19.870237,-4.3899 -20.603097,-4.3899 -0.4865,0 -2.59205,2.63383 -3.95929,4.95269 l -0.76614,1.29937 5.05749,1.12979 c 2.78162,0.62138 6.90296,1.52806 9.15853,2.01483 2.25558,0.48678 4.63683,1.02252 5.29167,1.19054 1.735247,0.44523 2.023354,0.50425 4.49792,0.92142 1.236927,0.20853 2.546615,0.43175 2.910417,0.49605 1.187227,0.20985 2.329579,-0.047 2.956705,-0.66464 z m 24.295378,-5.24243 c -0.654843,-0.11559 -2.797969,-0.52862 -4.7625,-0.91783 -1.964531,-0.38922 -4.524375,-0.87486 -5.688541,-1.07922 -2.364219,-0.415 -8.078291,-1.60307 -8.795819,-1.82884 -0.25553,-0.0804 -1.417098,-0.32214 -2.581265,-0.53721 -3.658222,-0.67584 -8.593614,-1.70002 -8.798846,-1.82592 -0.108344,-0.0665 -0.641265,-0.19116 -1.184272,-0.27709 -4.735367,-0.74937 -27.286227,-6.59213 -37.240297,-9.64868 -4.45312,-1.3674 -4.91213,-1.56432 -5.13705,-2.20387 -0.3608,-1.02593 0.46687,-2.96779 1.93548,-4.54101 0.66686,-0.71435 2.4031,-2.19153 3.85831,-3.28261 3.44192,-2.58067 4.02921,-3.14536 4.38155,-4.21296 0.55186,-1.67216 2.49518,-2.058 6.3329,-1.25738 2.16011,0.45065 5.41642,1.31955 5.77449,1.54084 0.12339,0.0763 0.63104,0.20987 1.12812,0.29692 0.49707,0.087 3.0469,0.67663 5.66628,1.31021 2.61937,0.63357 5.95312,1.40998 7.40833,1.72535 1.45521,0.31537 3.36021,0.73992 4.233338,0.94344 0.873125,0.20353 4.325938,0.8588 7.672917,1.45616 3.346979,0.59736 7.692761,1.37714 9.657292,1.73285 1.964531,0.35571 4.921369,0.82063 6.57075,1.03317 1.64938,0.21254 3.435318,0.49793 3.96875,0.6342 0.533431,0.13628 1.743781,0.33415 2.689667,0.43972 0.945885,0.10557 1.957916,0.23211 2.248958,0.28119 0.291042,0.0491 1.422135,0.20565 2.513542,0.34792 1.091406,0.14227 4.067968,0.55075 6.614583,0.90773 2.546615,0.35698 5.425562,0.72739 6.397662,0.82314 1.932572,0.19034 2.862755,0.74363 2.862755,1.70282 0,0.52642 -1.726676,3.35767 -2.566075,4.20762 -0.190418,0.19281 -0.723606,0.90718 -1.184865,1.5875 -2.092079,3.08563 -6.717292,8.06127 -9.170726,9.86555 -1.187532,0.87332 -2.789631,1.13213 -4.805418,0.77629 z m 3.383979,-3.42603 c 0.539906,-0.27689 1.255726,-0.79716 1.590712,-1.15618 l 0.609063,-0.65275 -0.609063,-0.16313 c -0.334986,-0.0897 -1.341118,-0.16476 -2.235846,-0.16675 l -1.62678,-0.004 -0.663802,1.12402 c -0.470535,0.79676 -0.574649,1.18075 -0.357595,1.31886 0.571293,0.36353 2.307415,0.20513 3.293311,-0.30046 z m -5.751526,-2.55581 c 0.320535,-0.38622 0.379526,-0.36328 -2.261867,-0.87946 -1.110129,-0.21695 -1.400839,-0.18714 -1.813026,0.18588 -0.57472,0.52012 -1.327288,1.8921 -1.140386,2.079 0.07101,0.071 1.002522,0.27828 2.070031,0.4606 l 1.94092,0.33148 0.453374,-0.90947 c 0.249357,-0.5002 0.587285,-1.07082 0.750954,-1.26803 z m -8.130741,0.3401 c 0.171505,-0.18582 0.58465,-0.72345 0.918096,-1.19472 0.655021,-0.92577 0.686157,-0.88633 -1.056658,-1.33859 l -0.979559,-0.25419 -0.394875,1.34704 c -0.217181,0.74087 -0.334899,1.44408 -0.261596,1.56269 0.208256,0.33696 1.42835,0.25293 1.774592,-0.12223 z m -4.475541,-1.69363 c 0.729816,-2.1419 0.654391,-2.30424 -1.364192,-2.93603 -1.607465,-0.50312 -10.736257,-2.86326 -12.087238,-3.12501 -2.781448,-0.5389 -3.939564,-0.74952 -7.161201,-1.30238 -2.03729,-0.34961 -5.05802,-0.87909 -6.71273,-1.17662 -3.37107,-0.60614 -4.94027,-0.67361 -6.0362,-0.25954 -0.84608,0.31967 -2.23942,1.55748 -2.06707,1.83633 0.0628,0.10159 1.51706,0.5146 3.23174,0.91781 1.71468,0.40321 4.48681,1.08634 6.1603,1.51805 5.35691,1.38194 12.952964,3.21337 14.658174,3.53413 0.305454,0.0575 1.091152,0.22351 1.745996,0.36901 0.654844,0.14551 2.619375,0.55767 4.365625,0.91593 1.74625,0.35826 3.413125,0.70388 3.704167,0.76804 1.044813,0.23032 1.14658,0.16131 1.562629,-1.05972 z m 23.760359,-1.20964 c 1.352169,-1.31593 1.363191,-1.43182 0.139671,-1.4684 -0.616546,-0.0184 -1.919388,-0.10898 -2.895204,-0.20121 l -1.774213,-0.16768 -0.539904,0.88557 c -0.296944,0.48706 -0.540348,0.95952 -0.54089,1.0499 -5.29e-4,0.0904 0.794665,0.18159 1.767133,0.20267 0.972466,0.0211 1.825747,0.096 1.896179,0.1664 0.326774,0.32678 1.39463,0.0705 1.947228,-0.46725 z m -8.553739,-1.52136 c 0.552966,-0.98387 0.561049,-1.06041 0.114866,-1.08791 -0.909687,-0.056 -2.333749,-0.21799 -3.012111,-0.34251 -0.542629,-0.0996 -0.775108,0.036 -1.150258,0.67111 -0.258598,0.43777 -0.419436,0.84669 -0.357418,0.90871 0.08611,0.0861 2.632978,0.70006 3.660389,0.88237 0.08234,0.0146 0.417383,-0.44968 0.744532,-1.03177 z m -6.899262,-1.96773 c -0.04422,-0.0308 -1.378286,-0.32257 -2.964584,-0.64841 -2.582537,-0.53047 -2.926305,-0.55031 -3.286969,-0.18964 -0.360662,0.36066 -0.322464,0.43333 0.365254,0.6948 0.422423,0.1606 0.829995,0.38507 0.905719,0.49882 0.07572,0.11375 1.030645,0.44478 2.122051,0.73563 l 1.984375,0.52881 0.477279,-0.78202 c 0.262502,-0.43011 0.441095,-0.80721 0.396875,-0.83799 z m 17.778971,-1.07498 c 0.181158,-0.21828 0.614204,-0.39687 0.962327,-0.39687 0.430347,0 0.800219,-0.27505 1.15551,-0.85928 l 0.522557,-0.85928 -0.592593,-0.15689 c -0.325927,-0.0863 -1.650322,-0.1461 -2.9431,-0.13291 l -2.350508,0.024 -0.803643,0.99098 c -0.442005,0.54505 -0.745765,1.04887 -0.675024,1.11961 0.15271,0.15271 2.708775,0.59251 3.699891,0.6366 0.382363,0.017 0.843426,-0.14766 1.024583,-0.36594 z m -27.516667,-0.63004 c 0,-0.30904 -1.908312,-0.77679 -3.857019,-0.94541 -1.418947,-0.12277 -1.479478,-0.10826 -0.640897,0.15363 0.509323,0.15906 1.402291,0.44534 1.984375,0.63619 1.244065,0.40788 2.513541,0.48646 2.513541,0.15559 z m 19.510042,-0.93484 c 0.305509,-0.35137 0.68153,-0.87439 0.835605,-1.16228 0.307168,-0.57395 0.139517,-0.63419 -2.750855,-0.98835 l -1.322916,-0.1621 -0.710856,1.19426 -0.710854,1.19426 1.504604,0.16551 c 0.827534,0.091 1.683199,0.20392 1.901481,0.25084 0.218281,0.0469 0.464701,0.0991 0.547597,0.11601 0.0829,0.0169 0.400688,-0.25679 0.706194,-0.60815 z m -56.413095,-0.70401 c 0.20513,-0.64632 0.25355,-0.59887 -0.97698,-0.95741 -0.99933,-0.29117 -1.54289,-0.0773 -1.54289,0.6071 0,0.25461 1.15222,0.71873 2.16498,0.87207 0.0993,0.015 0.25904,-0.21975 0.35489,-0.52176 z m 49.160168,-0.96383 c 0.866528,-1.21787 0.787188,-1.27309 -2.420157,-1.68442 -2.722992,-0.34921 -3.523491,-0.14612 -4.545542,1.1532 l -0.554368,0.70477 0.608039,0.14331 c 0.845634,0.19931 4.11681,0.59309 5.262136,0.63344 0.811763,0.0286 1.05174,-0.10962 1.649892,-0.9503 z m -54.590458,-0.86832 c 0.24678,-0.46111 0.20121,-0.52916 -0.3543,-0.52916 -0.35063,0 -1.15218,-0.18159 -1.78124,-0.40354 -1.07692,-0.37996 -1.17384,-0.37343 -1.65905,0.11179 -0.5107,0.5107 -0.50609,0.51769 0.51516,0.78032 2.66776,0.68608 2.93223,0.68935 3.27943,0.0406 z m 45.762992,-1.62648 c 0.0086,-0.14827 -0.781577,-0.31513 -4.248844,-0.89723 -0.52451,-0.0881 -0.915458,0.11323 -1.653645,0.85141 -0.53171,0.53171 -0.966743,1.0574 -0.966743,1.1682 0,0.11079 0.684609,0.27781 1.521354,0.37114 0.836745,0.0933 1.997604,0.26231 2.579688,0.37551 0.991997,0.19291 1.11161,0.14616 1.908294,-0.74597 0.467479,-0.52348 0.854432,-1.02886 0.859896,-1.12306 z m -20.098399,1.41677 c 0,-0.11533 -0.506013,-0.35892 -1.124483,-0.54129 -0.61846,-0.18237 -1.27331,-0.39558 -1.45521,-0.4738 -0.18287,-0.0786 -0.33073,0.0397 -0.33073,0.26472 0,0.26507 0.34591,0.46338 0.99219,0.56884 1.0126,0.16523 1.733657,0.3056 1.852087,0.36055 0.03638,0.0169 0.06615,-0.0637 0.06615,-0.17902 z m -32.287593,-1.96111 c 0.005,-0.10255 -0.43807,-0.2614 -0.98377,-0.35301 -0.5457,-0.0916 -1.34937,-0.2649 -1.78594,-0.3851 -1.86799,-0.51431 -2.19207,-0.53134 -2.34861,-0.12342 -0.17228,0.44897 0.32064,0.69438 2.87778,1.43272 1.44945,0.41851 1.61553,0.42172 1.90982,0.0368 0.17727,-0.23186 0.32609,-0.50546 0.33072,-0.60801 z m 43.664677,-0.88794 c 0,-0.17648 -0.939914,-0.43212 -2.275914,-0.61901 -2.099212,-0.29367 -2.304085,-0.28138 -2.638767,0.15834 -0.396523,0.52096 -0.743093,1.39832 -0.599583,1.51787 0.04967,0.0414 0.983274,0.25443 2.07468,0.47347 l 1.984375,0.39824 0.727605,-0.81414 c 0.400182,-0.44778 0.727604,-0.94943 0.727604,-1.11477 z m -25.817257,-0.5572 1.22038,-1.36701 -0.73229,-0.14019 c -2.69331,-0.51557 -2.98758,-0.50357 -3.58889,0.14634 -1.07201,1.15864 -2.36786,2.88328 -2.25283,2.9983 0.0626,0.0626 0.58293,0.21447 1.15637,0.33758 1.44056,0.30926 2.67769,-0.27287 4.19726,-1.97502 z m 8.63146,1.74122 c 0.16244,-0.30351 0.25592,-0.5747 0.20775,-0.60266 -0.0482,-0.0279 -0.74243,-0.32832 -1.54279,-0.66747 -2.40147,-1.01762 -2.6333,-1.01803 -3.4592,-0.006 l -0.73069,0.89527 2.0288,0.43644 c 2.77057,0.596 3.15069,0.58997 3.49613,-0.0555 z m -16.12332,-2.42474 1.09904,-1.38906 -2.08507,-0.19731 -2.08507,-0.19732 -0.74322,0.91239 c -0.40877,0.50182 -0.74498,1.00733 -0.74714,1.12336 -0.004,0.19671 2.41566,1.05335 3.13785,1.11107 0.17852,0.0143 0.81915,-0.59914 1.42361,-1.36313 z m 25.397649,0.4137 0.528069,-0.83402 -1.40153,-0.26526 c -3.120928,-0.59067 -3.050879,-0.59144 -3.263318,0.0363 -0.10855,0.32074 -0.2103,0.69642 -0.22612,0.83486 -0.026,0.22723 3.112216,1.17632 3.622828,1.09566 0.116599,-0.0184 0.449633,-0.4088 0.740071,-0.86752 z m -32.965199,-1.93667 c 0.2642,-0.29194 0.4133,-0.59785 0.33135,-0.6798 -0.33523,-0.33523 -4.42372,-0.31037 -4.88884,0.0297 -0.43073,0.31496 -0.40348,0.35928 0.32301,0.5253 0.43639,0.0997 1.15062,0.27728 1.58718,0.39458 1.35241,0.36335 2.14765,0.2823 2.6473,-0.26981 z m 25.86249,-0.0645 c 0.13441,-0.39989 -1.65383,-0.98699 -2.97749,-0.97754 -0.91589,0.007 -0.91009,0.0136 0.52916,0.64682 1.64553,0.72393 2.28703,0.81059 2.44833,0.33072 z m -9.3275,-2.32457 c -0.54191,-0.12868 -1.0303,-0.11745 -1.17739,0.0271 -0.15624,0.15351 0.19422,0.23672 0.92604,0.21989 l 1.1774,-0.0271 z m -4.7625,-0.77689 c 0,-0.20616 -1.53239,-0.74566 -3.30729,-1.16437 -0.14552,-0.0343 -0.62,0.27148 -1.05439,0.67957 l -0.78981,0.74199 h 2.57575 c 1.49142,0 2.57574,-0.10827 2.57574,-0.25719 z m -7.67291,-1.10643 0.86026,-0.86027 -0.89315,-0.32313 c -1.39421,-0.50441 -2.37564,-0.44852 -2.53062,0.14411 -0.073,0.27913 -0.47857,0.65076 -0.90127,0.82585 -1.31118,0.54311 -0.9365,0.95907 0.91798,1.0191 1.58288,0.0512 1.73941,0.002 2.5468,-0.80566 z m -1.79059,37.93357 c -0.44431,-0.41505 -1.13766,-1.49386 -1.54078,-2.39737 -0.49215,-1.10303 -0.91283,-1.68231 -1.28048,-1.76321 -3.73383,-0.82159 -15.28524,-2.63904 -19.33295,-3.04178 -2.29566,-0.22841 -8.33913,-1.05288 -13.85362,-1.88996 -0.92554,-0.1405 -1.74108,-0.19716 -1.81231,-0.12593 -0.0712,0.0712 0.0102,0.55276 0.18089,1.07006 0.35329,1.07048 1.68442,2.26902 3.43838,3.09589 1.78843,0.84313 11.06752,3.27795 13.47166,3.53496 0.52594,0.0562 2.14688,0.28112 3.60209,0.49978 1.4552,0.21866 4.55083,0.5378 6.87916,0.7092 2.32834,0.1714 5.06677,0.4551 6.08542,0.63045 1.01865,0.17535 2.5537,0.3444 3.41123,0.37568 l 1.55915,0.0569 z m 13.43225,-0.73717 c -1.38245,-0.34608 -2.87073,-0.68493 -3.30729,-0.75301 -0.43656,-0.0681 -1.68672,-0.32 -2.77812,-0.55982 -4.7275,-1.03882 -5.39254,-1.16977 -5.48273,-1.07958 -0.0524,0.0524 0.20581,0.45308 0.5738,0.89041 0.58238,0.69213 0.98657,0.85151 3.11972,1.23017 2.83016,0.5024 6.51659,0.87543 8.80066,0.89054 l 1.58751,0.0105 -2.51355,-0.62923 z m 76.332302,-33.98878 c 4.031192,-0.39428 4.371764,-0.43637 4.465056,-0.55179 0.21717,-0.26867 2.37191,-11.82098 3.078665,-16.50575 1.327123,-8.79691 1.635125,-12.60721 1.646793,-20.37291 0.02889,-19.21136 -2.246815,-22.15888 -19.419411,-25.15216 -4.272482,-0.74472 -8.768821,-1.75512 -15.567978,-3.49836 -9.842812,-2.52362 -13.753465,-3.02511 -31.353125,-4.02066 -2.764896,-0.1564 -6.336772,-0.398 -7.937502,-0.5369 -4.7191,-0.40949 -9.11756,-0.64085 -11.29943,-0.59436 -2.59609,0.0553 -4.28804,0.75497 -5.84126,2.41549 -2.43844,2.60689 -3.36508,5.00983 -4.40037,11.4109 -0.15299,0.94589 -0.35275,2.16524 -0.44392,2.70967 -0.0912,0.54443 -0.27936,0.91966 -0.4182,0.83385 -0.15508,-0.0958 -0.18079,0.22595 -0.0667,0.83431 0.13136,0.70023 0.0993,0.93691 -0.1093,0.80797 -0.20763,-0.12833 -0.24935,0.14453 -0.14077,0.92079 0.0956,0.68328 0.0566,1.0428 -0.10234,0.94456 -0.14789,-0.0914 -0.25932,0.25899 -0.26298,0.82689 -0.003,0.54203 -0.15824,1.93801 -0.3439,3.10217 -0.18567,1.16417 -0.31804,2.65245 -0.29416,3.30729 0.0315,0.86324 -0.0283,1.0815 -0.21729,0.79375 -0.19089,-0.2906 -0.26178,-0.0666 -0.26475,0.83653 -0.004,1.16934 -0.28412,3.60674 -1.21205,10.54056 -0.78058,5.83274 -0.89742,6.75705 -1.05355,8.33437 -0.0864,0.87313 -0.19095,2.06375 -0.23227,2.64584 -0.0413,0.58208 -0.16788,2.14408 -0.28122,3.47112 l -0.20608,2.41278 1.81458,0.19433 c 2.26223,0.24226 7.62871,1.57934 13.33737,3.32305 2.4011,0.73341 5.91344,1.73765 7.80521,2.23164 1.89178,0.49399 4.15396,1.08724 5.02709,1.31833 0.87313,0.23109 2.122272,0.48532 2.775883,0.56494 0.653608,0.0796 1.963296,0.31784 2.910417,0.52935 0.947118,0.21153 3.150785,0.6228 4.897035,0.91395 1.74625,0.29115 4.544219,0.7647 6.217708,1.05233 1.67349,0.28764 4.411928,0.70004 6.085417,0.91644 1.67349,0.21641 3.816615,0.50518 4.7625,0.6417 0.945886,0.13653 2.255573,0.31513 2.910417,0.39689 1.296247,0.16185 5.896419,0.75809 10.373553,1.34455 8.065905,1.05654 16.77021,1.30117 23.360822,0.65655 z m -8.863542,-8.49583 c -1.466902,-0.2268 -7.176756,-0.90435 -10.847916,-1.28724 -8.147836,-0.84979 -19.075062,-2.12813 -19.579167,-2.29051 -0.218281,-0.0703 0.515652,-0.48118 1.63096,-0.91304 4.793756,-1.85618 9.600626,-4.68505 12.274098,-7.22338 1.628733,-1.5464 3.822025,-4.24549 3.822025,-4.70341 0,-0.12083 0.231003,-0.7244 0.513342,-1.34128 2.130618,-4.65517 1.41722,-12.57884 -1.529799,-16.99135 -3.069355,-4.59569 -7.170561,-7.9112 -10.992393,-8.88652 -0.452892,-0.11557 -1.478285,-0.39491 -2.27865,-0.62075 -1.597715,-0.45082 -6.285907,-0.60354 -8.863542,-0.28873 -5.165566,0.63089 -10.411346,3.30233 -13.629253,6.94078 -1.404107,1.58761 -2.934859,3.85478 -3.532021,5.23122 -0.252532,0.58208 -0.579133,1.27579 -0.725776,1.54156 -0.146643,0.26577 -0.336465,1.07292 -0.421828,1.79366 -0.08536,0.72075 -0.25727,1.37353 -0.38202,1.45062 -0.12474,0.0771 -0.22651,1.53214 -0.22614,3.23342 0.002,7.32261 3.238126,13.56397 9.392038,18.11161 1.054164,0.779 1.055151,0.78141 0.250802,0.6114 -0.444141,-0.0939 -2.111016,-0.33587 -3.704167,-0.53776 -3.11812,-0.39513 -8.372423,-1.25659 -11.363303,-1.86304 -1.01865,-0.20654 -3.81662,-0.75033 -6.21771,-1.20842 -7.64825,-1.45914 -9.00838,-1.9908 -9.82691,-3.84122 -0.78854,-1.78261 -0.66324,-3.6215 0.66548,-9.76683 1.72153,-7.96202 1.69782,-7.83007 2.16284,-12.03854 0.55044,-4.98165 0.73278,-6.0565 2.01976,-11.90625 1.20294,-5.46778 1.59911,-6.45841 3.01452,-7.538 0.88328,-0.67371 1.2371,-0.76055 3.55317,-0.87207 3.14395,-0.1514 6.44624,0.21955 10.978852,1.23324 8.513222,1.90392 25.987896,5.02382 32.787394,5.8538 1.030163,0.12574 4.61146,0.5873 7.958439,1.02568 3.34698,0.43838 7.752292,0.93015 9.789584,1.09283 2.037291,0.16268 5.354002,0.46697 7.370445,0.6762 2.016469,0.20922 4.222379,0.3804 4.902068,0.3804 0.717894,0 1.495795,0.18212 1.85621,0.43457 0.673815,0.47196 0.674053,0.50542 0.0295,4.59252 -0.149172,0.94588 -0.334565,2.37463 -0.411982,3.175 -0.07744,0.80036 -0.249846,1.99099 -0.383143,2.64583 -0.133271,0.65484 -0.320093,2.32172 -0.415132,3.70417 -0.09501,1.38244 -0.217646,2.98979 -0.27252,3.57187 -0.05485,0.58208 -0.21762,4.57068 -0.361712,8.86354 -0.144092,4.29287 -0.385736,8.77173 -0.537025,9.95303 -0.2853,2.22787 -1.286907,5.55191 -2.001573,6.64261 -1.02579,1.56555 -2.76606,1.93115 -6.467845,1.35878 z m -39.521887,-6.3175 c -0.925639,-0.39052 -2.34492,-1.08876 -3.153955,-1.55165 -1.452888,-0.83125 -4.061669,-2.97374 -4.528021,-3.71867 -0.132178,-0.21114 -0.686816,-0.86827 -1.232529,-1.4603 -1.284341,-1.39334 -2.772096,-4.37431 -3.327146,-6.66648 -0.241285,-0.99643 -0.434653,-2.82372 -0.429708,-4.06065 0.03251,-8.13071 4.863582,-14.78769 12.684369,-17.47844 5.9245,-2.03833 12.948804,-1.42648 18.022861,1.56988 0.770245,0.45485 1.721528,1.12473 2.113963,1.48861 0.392438,0.36389 0.804034,0.66162 0.914662,0.66162 0.110627,0 0.201141,0.1323 0.201141,0.29401 0,0.1617 0.450125,0.84631 1.000279,1.52135 2.690841,3.30167 3.53713,5.41809 4.160007,10.40342 0.200189,1.60225 -0.276392,5.24372 -0.686274,5.24372 -0.132374,0 -0.240678,0.11553 -0.240678,0.25674 0,0.14121 -0.294844,0.90134 -0.655209,1.68917 -1.387295,3.03294 -4.917879,6.3569 -8.766289,8.25325 -1.034479,0.50975 -1.952241,0.99819 -2.039469,1.08542 -0.450284,0.45028 -4.752412,1.98112 -6.878196,2.44749 -3.864369,0.8478 -5.191821,0.85179 -7.159808,0.0215 z m 10.14384,-2.63103 c 0.795253,-0.15538 1.563206,-0.3998 1.706562,-0.54315 0.143359,-0.14336 0.48246,-0.26065 0.753557,-0.26065 0.667092,0 3.172863,-1.21771 4.989211,-2.42456 2.990123,-1.98675 5.540301,-5.53159 6.620108,-9.20218 0.190228,-0.64664 0.348967,-2.37305 0.352759,-3.83646 0.0074,-2.84218 -0.547646,-4.91916 -1.893854,-7.08728 -0.337036,-0.54281 -0.612796,-1.14912 -0.612796,-1.34735 0,-0.58517 -3.34822,-3.40198 -5.388387,-4.53318 -1.702176,-0.94379 -2.584231,-1.2316 -6.120988,-1.99721 -1.79342,-0.38822 -6.693953,-0.10601 -8.334375,0.47996 -5.23649,1.87052 -9.214937,4.83084 -10.912859,8.12013 -3.422711,6.63063 0.600726,18.00632 7.706543,21.78914 2.791309,1.48596 6.432108,1.76154 11.134519,0.84279 z m -5.778572,-2.174 c -3.741523,-0.31687 -6.071367,-1.79387 -8.412736,-5.33323 -4.553078,-6.8827 -4.604296,-12.08763 -0.162113,-16.47488 4.468722,-4.41347 10.157727,-5.95914 16.306908,-4.43049 0.851025,0.21156 1.743993,0.47991 1.984375,0.59634 0.240382,0.11642 0.908368,0.43756 1.484411,0.71363 1.332071,0.63841 3.653737,2.65621 4.512884,3.92224 0.902515,1.32992 1.836444,3.14502 1.760008,3.42058 -0.03452,0.12446 0.06948,0.38564 0.231114,0.5804 0.35433,0.42694 0.445399,3.11745 0.176546,5.21575 -0.185338,1.44649 -1.69554,5.03798 -2.031209,4.83052 -0.08667,-0.0536 -0.439915,0.31466 -0.784995,0.81826 -0.785691,1.14665 -3.394948,3.20091 -5.308574,4.17944 -1.449435,0.74116 -4.588449,1.62165 -6.35,1.78115 -0.509323,0.0461 -0.985573,0.14777 -1.058333,0.22591 -0.07276,0.0781 -1.129491,0.0576 -2.348286,-0.0456 z m 2.557947,-6.52776 c 0.188074,-0.11932 0.434213,-0.56398 0.546978,-0.98814 0.134951,-0.50761 0.402405,-0.80009 0.782527,-0.85574 0.317624,-0.0465 0.577501,-0.19533 0.577501,-0.33073 0,-0.1354 0.217371,-0.24618 0.483047,-0.24618 0.986599,0 2.162786,-1.96302 2.162786,-3.60963 0,-1.14408 -1.363713,-3.26954 -2.097768,-3.26954 -0.155916,0 -0.283482,-0.11104 -0.283482,-0.24675 0,-0.13572 -0.244946,-0.3245 -0.544322,-0.41952 -0.624681,-0.19826 -1.126988,-1.29869 -0.907899,-1.98898 0.216611,-0.68248 1.808342,-1.34515 3.05445,-1.27162 1.550427,0.0915 2.075723,-0.86184 1.043604,-1.89396 -0.291041,-0.29105 -0.529166,-0.64823 -0.529166,-0.79375 0,-0.14552 -0.239938,-0.50452 -0.533197,-0.79778 -0.395041,-0.39504 -0.72068,-0.48732 -1.256771,-0.35614 -0.84225,0.2061 -1.110781,0.52975 -1.116398,1.34556 -0.0027,0.3964 -0.284758,0.73015 -0.863947,1.02239 -2.155658,1.08767 -2.957976,2.66009 -2.237333,4.38483 0.443945,1.06251 1.949869,2.86625 2.397033,2.87108 0.166828,0.002 0.566068,0.409 0.887203,0.90489 l 0.58388,0.90162 -0.536937,0.68261 c -0.671386,0.85352 -2.09318,0.91824 -3.349199,0.15245 -1.086358,-0.66236 -1.703314,-0.66797 -2.288964,-0.0208 -0.74109,0.8189 -0.433287,1.64641 0.84015,2.2587 0.843767,0.40571 1.124479,0.6937 1.124479,1.15367 0,1.35352 1.035593,2.0625 2.061745,1.4115 z m 1.886654,-36.53169 c -0.884545,-0.88454 -0.981258,-1.75131 -0.345017,-3.09209 0.278643,-0.58719 0.671703,-0.95608 1.124479,-1.05532 0.382855,-0.0839 0.81516,-0.18534 0.960681,-0.22541 0.978009,-0.26927 2.513542,1.50509 2.513542,2.90447 0,1.06299 -1.321668,2.24175 -2.513542,2.24175 -0.715732,0 -1.167558,-0.20081 -1.740143,-0.7734 z m -127.645452,91.30139 c -0.43894,-0.26769 -1.37924,-1.13044 -2.08954,-1.91724 -2.93109,-3.24675 -9.84618,-12.87989 -13.46775,-18.76138 -0.86609,-1.40656 -1.09166,-1.61382 -1.5875,-1.45865 -0.31787,0.0995 -2.18762,0.24477 -4.15498,0.32287 -9.61827,0.38185 -15.11123,-3.29254 -17.21419,-11.51506 -2.36021,-9.22834 2.72911,-18.68471 16.52767,-30.70972 8.43491,-7.35076 21.0899,-17.01052 30.15313,-23.01639 2.38554,-1.58081 2.00073,-1.33839 5.19895,-3.27521 3.01749,-1.82736 4.00959,-2.31388 4.71848,-2.31388 0.84106,0 4.93112,6.16369 9.59191,14.45496 0.34804,0.61915 1.02159,1.3078 1.55267,1.5875 2.68737,1.41533 5.98715,5.95098 6.29106,8.64726 0.12524,1.11112 -0.49376,3.94204 -0.99568,4.55363 -0.12668,0.15436 0.0599,1.1246 0.43249,2.24896 0.36041,1.08762 0.88801,2.92998 1.17245,4.09415 0.28444,1.16416 0.97676,3.86232 1.5385,5.9959 1.50976,5.73442 1.25199,6.70251 -2.20917,8.29678 -1.01864,0.46921 -3.49446,1.64225 -5.50182,2.60677 -2.00736,0.96452 -3.69027,1.75367 -3.73981,1.75367 -0.0495,0 -2.15763,0.9926 -4.68464,2.20578 -5.17536,2.48461 -12.95051,5.83831 -18.08831,7.80214 -3.33612,1.27517 -10.96842,3.74627 -11.59616,3.75447 -0.17055,0.002 -0.47042,0.10565 -0.66637,0.22984 -0.27324,0.17317 0.009,0.71177 1.21022,2.31105 1.76605,2.3509 4.92324,6.71063 6.64333,9.17369 0.631,0.90356 1.3939,1.93319 1.69532,2.28808 3.2475,3.8235 4.43345,5.96719 4.43345,8.0138 0,1.14355 -0.11772,1.43346 -0.89958,2.21532 -0.77621,0.77621 -1.07558,0.89945 -2.18281,0.89859 -0.77875,-5.3e-4 -1.59699,-0.19233 -2.08132,-0.48768 z m 2.12931,-3.1443 c -0.18428,-0.73425 -1.06056,-2.03654 -4.21907,-6.27022 -0.96942,-1.29942 -1.94425,-2.7454 -2.16629,-3.21331 -0.22203,-0.46791 -0.79433,-1.30975 -1.27178,-1.87076 -0.47744,-0.56102 -1.17311,-1.49628 -1.54591,-2.07836 -1.61827,-2.5267 -4.9143,-6.8847 -5.2526,-6.94498 -0.20313,-0.0362 -0.53044,0.038 -0.72737,0.16479 -0.45128,0.29065 -0.36952,0.44772 2.49327,4.78947 6.46381,9.80313 11.34093,16.14593 12.41498,16.14593 0.3647,0 0.41977,-0.14483 0.27477,-0.72256 z m -4.9031,-26.1344 c 1.38245,-0.49201 4.53761,-1.68711 7.01146,-2.65576 6.47149,-2.53396 6.98733,-2.74264 8.59896,-3.47855 0.80036,-0.36547 2.05052,-0.93413 2.77812,-1.26369 1.41124,-0.6392 3.88281,-1.80646 8.99584,-4.24853 1.74625,-0.83404 4.43181,-2.07108 5.96791,-2.74899 5.34909,-2.36066 5.65411,-2.70152 4.79076,-5.35383 -0.3008,-0.92408 -0.7375,-2.45406 -0.97044,-3.39994 -1.14004,-4.62931 -3.48335,-11.57003 -5.35969,-15.875 -3.05181,-7.00191 -9.09121,-17.96654 -11.24694,-20.41902 l -0.85452,-0.97215 -2.77813,1.82744 c -7.60161,5.00032 -16.15216,11.04112 -19.84375,14.01922 -0.65484,0.52828 -2.6789,2.13038 -4.49791,3.56021 -1.81901,1.42984 -3.42636,2.7346 -3.57188,2.89949 -0.14552,0.16488 -1.39567,1.23058 -2.77812,2.36823 -1.38245,1.13764 -3.58511,3.0508 -4.89479,4.25144 -1.30969,1.20065 -2.75647,2.49751 -3.21507,2.8819 l -0.83382,0.69889 1.63153,1.65207 c 1.91687,1.941 3.56102,4.5743 6.48301,10.38332 2.84645,5.65881 4.1587,8.77176 5.87468,13.93595 l 1.43675,4.32388 2.38125,-0.74601 c 1.30969,-0.4103 3.51234,-1.14855 4.89479,-1.64057 z m 46.96354,-31.7703 c -2.54354,-0.32574 -2.98545,-0.4581 -3.50573,-1.04999 -0.73014,-0.83065 -0.74894,-1.28787 -0.0805,-1.95636 0.54832,-0.54832 0.58842,-0.54794 4.37993,0.0419 2.18406,0.33976 9.79062,0.33781 12.43477,-0.003 2.30011,-0.29664 3.46595,-0.0233 3.63325,0.85194 0.0665,0.34765 0.0191,0.81388 -0.10524,1.03606 -0.66492,1.18816 -10.80668,1.8416 -16.75653,1.07964 z m -3.93829,-7.33178 c -1.36279,-1.36279 -0.23915,-2.24128 5.3752,-4.20243 1.24699,-0.43559 3.33882,-1.24519 4.64851,-1.7991 6.7325,-2.84742 7.95537,-3.13749 8.66448,-2.05525 0.77837,1.18794 0.28469,1.57834 -4.34069,3.43257 -2.37809,0.95333 -6.10973,2.45108 -8.29254,3.32832 -5.2312,2.10237 -5.24544,2.10541 -6.05496,1.29589 z m -3.9582,-8.07898 c -0.98369,-1.08696 -0.47753,-1.79325 3.49354,-4.87486 1.07889,-0.83723 2.74905,-2.22336 3.71146,-3.08028 4.76701,-4.2445 5.98722,-4.8968 7.02175,-3.75366 0.63682,0.70368 0.32577,1.35292 -1.25937,2.62856 -1.5084,1.2139 -8.91687,7.48495 -9.42756,7.98016 -0.84933,0.82358 -2.09191,1.58393 -2.58848,1.58393 -0.2824,0 -0.7105,-0.21773 -0.95134,-0.48385 z m -5.99197,-4.14376 c -0.20877,-0.25155 -0.27671,-0.85014 -0.18767,-1.65364 0.20426,-1.84347 1.72161,-8.68792 2.3177,-10.4547 0.2825,-0.83732 0.51364,-1.67977 0.51364,-1.87211 0,-0.59306 1.2266,-1.55045 1.86532,-1.45592 1.04108,0.15408 1.21371,0.81194 0.69749,2.65803 -0.80267,2.87047 -1.4628,5.79027 -2.01367,8.90656 -0.29264,1.65549 -0.71725,3.2926 -0.94358,3.63802 -0.47592,0.72634 -1.73208,0.85689 -2.24923,0.23376 z"
       id="path833" />
    <path
       style="fill:#f0e200;fill-opacity:1;stroke:#000000;stroke-width:0.000252537"
       d="m -79.646536,-310.76458 c -0.470366,-0.24526 -0.689457,-0.62702 -0.780447,-1.35991 -0.08189,-0.65958 -0.218419,-0.83098 -0.987139,-1.23922 -1.415799,-0.75188 -1.723567,-1.44186 -1.006518,-2.25647 0.333653,-0.37905 0.721191,-0.54558 1.127755,-0.48461 0.162449,0.0244 0.601316,0.20474 0.975257,0.40085 0.857012,0.44945 1.331963,0.59028 1.981901,0.58766 0.406469,-0.002 0.581649,-0.0367 0.868627,-0.174 0.444564,-0.21265 0.484196,-0.24641 0.907156,-0.77276 l 0.342185,-0.42583 -0.378116,-0.5977 c -0.427857,-0.67632 -0.957947,-1.25675 -1.14777,-1.25675 -0.32543,0 -1.754706,-1.64957 -2.20894,-2.5494 -0.805577,-1.59584 -0.348927,-3.05289 1.308933,-4.17644 0.220073,-0.14914 0.534514,-0.33951 0.69876,-0.42305 0.633261,-0.32205 0.937492,-0.66755 0.937492,-1.06465 0,-0.72282 0.306631,-1.11309 1.02797,-1.30835 0.37909,-0.10261 0.48514,-0.10804 0.722321,-0.037 0.328303,0.0984 0.921154,0.67026 1.050853,1.01372 0.155329,0.41133 0.231987,0.53638 0.555191,0.90573 0.390271,0.44599 0.520534,0.6878 0.531789,0.98723 0.01132,0.30117 -0.152239,0.53801 -0.490837,0.71075 -0.219535,0.112 -0.467801,0.15196 -1.21844,0.1961 -1.014222,0.0596 -1.45855,0.16306 -2.053466,0.47795 -0.922097,0.48806 -1.121754,1.15012 -0.635823,2.10837 0.198017,0.39048 0.35346,0.53754 0.7966,0.7536 0.200895,0.098 0.385299,0.24567 0.445831,0.35714 0.0616,0.11345 0.200625,0.22353 0.34477,0.273 0.132845,0.0456 0.335402,0.14973 0.450123,0.23142 0.438576,0.3123 1.133787,1.38144 1.419508,2.18302 0.348938,0.97892 0.04046,2.3979 -0.767403,3.53002 -0.367871,0.51552 -0.7376,0.77873 -1.195096,0.85077 -0.26348,0.0415 -0.390102,0.10289 -0.516168,0.25029 -0.193768,0.22655 -0.398428,0.34242 -0.604824,0.34242 -0.23917,0 -0.632159,0.45339 -0.752912,0.86863 -0.163203,0.56121 -0.446508,0.96108 -0.773636,1.09198 -0.346866,0.13878 -0.715836,0.14085 -0.975487,0.005 z"
       id="path835" />
    <path
       style="fill:#d8388b;fill-opacity:1;stroke:#000000;stroke-width:0.00190895"
       d="m 285.2638,99.78968 c -1.76554,-1.765538 -2.02646,-2.288778 -1.73012,-3.469474 0.62942,-2.507833 3.6983,-5.537295 14.05004,-13.869576 5.61472,-4.519373 12.87219,-10.5525 16.12773,-13.406949 12.4055,-10.87713 18.02036,-14.777112 21.2748,-14.777112 1.81844,0 4.37331,2.475077 4.37331,4.236722 0,1.91462 -2.14158,4.053978 -14.12333,14.108661 -5.98287,5.020629 -14.69995,12.435932 -19.3713,16.478451 -9.84975,8.52385 -14.58537,12.019397 -16.88363,12.462487 -1.44039,0.2777 -1.88969,0.0646 -3.7175,-1.76321 z"
       id="path839"
       transform="matrix(0.26458333,0,0,0.26458333,-243.24221,-359.04896)" />
    <path
       style="fill:#d8388b;fill-opacity:1;stroke:#000000;stroke-width:0.00190895"
       d="m 300.57295,131.04839 c -0.81866,-0.68886 -1.77225,-1.93758 -2.1191,-2.77494 -1.56595,-3.78054 2.53246,-6.1581 24.74327,-14.35393 4.86136,-1.79385 13.27088,-5.10958 18.68782,-7.36828 12.99118,-5.41692 20.90523,-8.090497 23.94867,-8.090497 2.05045,0 2.63633,0.23684 3.88042,1.568647 1.73448,1.85676 1.86959,3.58293 0.39581,5.05672 -1.79167,1.79167 -10.19905,5.48647 -35.96843,15.80707 -31.33102,12.54803 -30.88508,12.41312 -33.56846,10.15521 z"
       id="path841"
       transform="matrix(0.26458333,0,0,0.26458333,-243.24221,-359.04896)" />
    <path
       style="fill:#d8388b;fill-opacity:1;stroke:#000000;stroke-width:0.00190895"
       d="m 325.21742,159.08146 c -9.52588,-0.57493 -18.55466,-1.89989 -21.03055,-3.0862 -2.12697,-1.01912 -4.72834,-4.12618 -4.72834,-5.6475 0,-0.46154 0.7054,-1.64257 1.56755,-2.62451 1.38907,-1.58205 1.84599,-1.78534 4.01291,-1.78534 1.34495,0 5.58298,0.48851 9.41786,1.08558 6.1185,0.95262 9.19955,1.09121 25.15525,1.13153 11.91154,0.0301 20.40528,-0.18625 24.62677,-0.6273 10.34806,-1.08114 14.01156,0.0159 14.01156,4.19561 0,3.19279 -1.71998,4.14108 -10.10152,5.56936 -9.8649,1.68105 -30.48275,2.54011 -42.93149,1.78877 z"
       id="path843"
       transform="matrix(0.26458333,0,0,0.26458333,-243.24221,-359.04896)" />
    <path
       style="fill:#d8388b;fill-opacity:1;stroke:#000000;stroke-width:0.00190895"
       d="m 263.71704,85.310305 c -1.67431,-0.672651 -2.28223,-2.760161 -1.93487,-6.644102 0.56669,-6.336326 5.89015,-30.586679 8.84879,-40.309536 0.80305,-2.639024 1.60524,-5.502492 1.78265,-6.363263 0.36866,-1.788711 2.88834,-4.43367 4.972,-5.219197 1.06323,-0.400836 1.83234,-0.357576 3.1063,0.174721 2.76896,1.156942 2.73504,2.358779 -0.42496,15.057996 -1.5396,6.187221 -3.93358,16.954722 -5.31997,23.92778 -3.02414,15.210418 -3.93449,17.961129 -6.31864,19.092485 -1.89096,0.897314 -3.01442,0.964827 -4.7113,0.283116 z"
       id="path845"
       transform="matrix(0.26458333,0,0,0.26458333,-243.24221,-359.04896)" />
  </g>
</svg>
