<?xml version="1.0" encoding="UTF-8" standalone="no"?>
<svg
   xmlns:dc="http://purl.org/dc/elements/1.1/"
   xmlns:cc="http://creativecommons.org/ns#"
   xmlns:rdf="http://www.w3.org/1999/02/22-rdf-syntax-ns#"
   xmlns:svg="http://www.w3.org/2000/svg"
   xmlns="http://www.w3.org/2000/svg"
   xmlns:sodipodi="http://sodipodi.sourceforge.net/DTD/sodipodi-0.dtd"
   xmlns:inkscape="http://www.inkscape.org/namespaces/inkscape"
   width="116.73883mm"
   height="168.98126mm"
   viewBox="0 0 116.73883 168.98126"
   version="1.1"
   id="svg8"
   inkscape:version="1.0.2 (e86c870879, 2021-01-15)"
   sodipodi:docname="user1C.svg">
  <defs
     id="defs2" />
  <sodipodi:namedview
     id="base"
     pagecolor="#ffffff"
     bordercolor="#666666"
     borderopacity="1.0"
     inkscape:pageopacity="0.0"
     inkscape:pageshadow="2"
     inkscape:zoom="1.4"
     inkscape:cx="132.89273"
     inkscape:cy="351.26142"
     inkscape:document-units="mm"
     inkscape:current-layer="g899"
     inkscape:document-rotation="0"
     showgrid="false"
     inkscape:window-width="2560"
     inkscape:window-height="1403"
     inkscape:window-x="0"
     inkscape:window-y="0"
     inkscape:window-maximized="1"
     fit-margin-top="0"
     fit-margin-left="0"
     fit-margin-right="0"
     fit-margin-bottom="0" />
  <metadata
     id="metadata5">
    <rdf:RDF>
      <cc:Work
         rdf:about="">
        <dc:format>image/svg+xml</dc:format>
        <dc:type
           rdf:resource="http://purl.org/dc/dcmitype/StillImage" />
        <dc:title></dc:title>
      </cc:Work>
    </rdf:RDF>
  </metadata>
  <g
     inkscape:label="Layer 1"
     inkscape:groupmode="layer"
     id="layer1"
     transform="translate(-56.11568,-35.059074)">
    <g
       id="g899"
       transform="translate(154.44316,29.896602)">
      <path
         style="fill:#d2edf2;stroke-width:0.0846667"
         d="m -17.311753,171.23622 c 0,-0.0176 -0.06668,-0.0842 -0.148167,-0.14816 -0.13429,-0.10531 -0.137279,-0.10232 -0.03197,0.032 0.110608,0.14103 0.180137,0.18588 0.180137,0.11619 z m -2.292681,-8.56875 c -0.0041,-0.0986 -0.02413,-0.11869 -0.05115,-0.0512 -0.02446,0.0611 -0.02146,0.13414 0.0067,0.16228 0.02813,0.0281 0.04815,-0.0219 0.04448,-0.11113 z m -3.386666,0 c -0.0041,-0.0986 -0.02413,-0.11869 -0.05116,-0.0512 -0.02446,0.0611 -0.02145,0.13414 0.0067,0.16228 0.02814,0.0281 0.04815,-0.0219 0.04448,-0.11113 z m 3.295311,-1.30528 c 0,-0.11641 -0.01922,-0.16404 -0.04271,-0.10583 -0.02349,0.0582 -0.02349,0.15346 0,0.21167 0.02349,0.0582 0.04271,0.0106 0.04271,-0.10584 z m -3.386667,-0.33866 c 0,-0.11642 -0.01922,-0.16405 -0.0427,-0.10584 -0.02349,0.0582 -0.02349,0.15346 0,0.21167 0.02349,0.0582 0.0427,0.0106 0.0427,-0.10583 z m 3.302,-3.81 c 0,-0.11642 -0.01922,-0.16405 -0.0427,-0.10584 -0.02349,0.0582 -0.02349,0.15346 0,0.21167 0.02349,0.0582 0.0427,0.0106 0.0427,-0.10583 z m -3.386666,-0.33867 c 0,-0.11642 -0.01922,-0.16404 -0.04271,-0.10583 -0.02349,0.0582 -0.02349,0.15345 0,0.21166 0.02349,0.0582 0.04271,0.0106 0.04271,-0.10583 z m 3.132666,-3.89467 c 0,-0.11641 -0.01922,-0.16404 -0.0427,-0.10583 -0.02349,0.0582 -0.02349,0.15346 0,0.21167 0.02349,0.0582 0.0427,0.0106 0.0427,-0.10584 z m -3.397512,-0.55033 c -8.47e-4,-0.23283 -0.01708,-0.31803 -0.03654,-0.18934 -0.01946,0.1287 -0.01894,0.3192 0.0012,0.42333 0.02009,0.10414 0.03602,-0.001 0.03538,-0.23399 z m 3.404201,-0.76905 c -0.0041,-0.0986 -0.02413,-0.1187 -0.05115,-0.0512 -0.02446,0.0611 -0.02146,0.13415 0.0067,0.16228 0.02813,0.0281 0.04815,-0.0219 0.04448,-0.11112 z m -44.629155,-12.43895 c -0.002,-0.1397 -0.0207,-0.1866 -0.0422,-0.10422 -0.0215,0.0824 -0.0201,0.19668 0.003,0.254 0.0232,0.0573 0.0408,-0.0101 0.039,-0.14978 z m 3.39649,-0.17639 c -0.004,-0.0986 -0.0241,-0.11869 -0.0512,-0.0511 -0.0245,0.0611 -0.0215,0.13414 0.007,0.16228 0.0281,0.0281 0.0482,-0.0219 0.0445,-0.11113 z m 0.0847,-2.45533 c -0.004,-0.0986 -0.0241,-0.11869 -0.0512,-0.0512 -0.0245,0.0611 -0.0215,0.13415 0.007,0.16229 0.0281,0.0281 0.0482,-0.0219 0.0445,-0.11113 z m -14.03212,-1.78645 c -0.0611,-0.0245 -0.13414,-0.0215 -0.16228,0.007 -0.0281,0.0281 0.0219,0.0481 0.11113,0.0445 0.0986,-0.004 0.11869,-0.0241 0.0512,-0.0512 z m -6.42937,-0.25591 c -0.10478,-0.0202 -0.27623,-0.0202 -0.381,0 -0.10478,0.0202 -0.019,0.0367 0.1905,0.0367 0.20955,0 0.29527,-0.0165 0.1905,-0.0367 z m -1.27,0.004 c -0.0582,-0.0235 -0.15346,-0.0235 -0.21167,0 -0.0582,0.0235 -0.0106,0.0427 0.10584,0.0427 0.11641,0 0.16404,-0.0192 0.10583,-0.0427 z m 8.08406,-3.13527 c -0.0824,-0.0215 -0.19668,-0.0201 -0.254,0.003 -0.0573,0.0232 0.0101,0.0408 0.14977,0.039 0.1397,-0.002 0.1866,-0.0207 0.10423,-0.0422 z m 34.31277,-1.66659 c 0,-0.0176 -0.0667,-0.0843 -0.14816,-0.14817 -0.13429,-0.10531 -0.13728,-0.10232 -0.032,0.032 0.1106,0.14103 0.18013,0.18589 0.18013,0.1162 z m -2.58233,-2.50803 c -0.32347,-0.32597 -0.60718,-0.59267 -0.63046,-0.59267 -0.0233,0 0.22232,0.2667 0.54579,0.59267 0.32347,0.32596 0.60718,0.59266 0.63046,0.59266 0.0233,0 -0.22232,-0.2667 -0.54579,-0.59266 z m -20.11501,-0.38806 c -0.004,-0.0986 -0.0241,-0.11869 -0.0512,-0.0512 -0.0245,0.0611 -0.0215,0.13414 0.007,0.16228 0.0281,0.0281 0.0481,-0.0219 0.0445,-0.11113 z m 16.00868,-3.70791 c 0,-0.0176 -0.0667,-0.0843 -0.14817,-0.14817 -0.13429,-0.10531 -0.13728,-0.10232 -0.032,0.032 0.11061,0.14103 0.18014,0.18589 0.18014,0.1162 z m 27.278537,-1.63454 c -0.06112,-0.0245 -0.134146,-0.0214 -0.162281,0.007 -0.02813,0.0281 0.02188,0.0482 0.111125,0.0445 0.09864,-0.004 0.118695,-0.0241 0.05116,-0.0512 z m 7.371292,-0.16757 c -0.05821,-0.0235 -0.153459,-0.0235 -0.211667,0 -0.05821,0.0235 -0.01058,0.0427 0.105833,0.0427 0.116417,0 0.164042,-0.0192 0.105834,-0.0427 z m 2.280708,-0.0864 c -0.06112,-0.0245 -0.134146,-0.0215 -0.162281,0.007 -0.02813,0.0281 0.02188,0.0481 0.111125,0.0445 0.09864,-0.004 0.118695,-0.0241 0.05116,-0.0512 z m -51.923217,-2.10821 c -0.004,-0.0986 -0.0241,-0.1187 -0.0512,-0.0512 -0.0245,0.0611 -0.0215,0.13415 0.007,0.16228 0.0281,0.0281 0.0482,-0.0219 0.0445,-0.11112 z m 49.981175,-1.19202 c -0.05821,-0.0235 -0.153458,-0.0235 -0.211666,0 -0.05821,0.0235 -0.01058,0.0427 0.105833,0.0427 0.116417,0 0.164042,-0.0192 0.105833,-0.0427 z m 2.2859999,-0.0847 c -0.05821,-0.0235 -0.1534579,-0.0235 -0.2116659,0 -0.05821,0.0235 -0.01058,0.0427 0.105833,0.0427 0.1164169,0 0.1640419,-0.0192 0.1058329,-0.0427 z m -52.1892049,-0.19793 c 0,-0.11641 -0.0192,-0.16404 -0.0427,-0.10583 -0.0235,0.0582 -0.0235,0.15346 0,0.21167 0.0235,0.0582 0.0427,0.0106 0.0427,-0.10584 z m 0.007,-1.31938 c -0.004,-0.0986 -0.0241,-0.1187 -0.0511,-0.0512 -0.0245,0.0611 -0.0215,0.13415 0.007,0.16228 0.0281,0.0281 0.0482,-0.0219 0.0445,-0.11112 z m -0.0164,-0.54328 c 0,-0.20955 -0.0165,-0.29528 -0.0367,-0.1905 -0.0202,0.10477 -0.0202,0.27622 0,0.381 0.0202,0.10477 0.0367,0.019 0.0367,-0.1905 z m 0.0164,-2.75872 c -0.004,-0.0986 -0.0241,-0.1187 -0.0511,-0.0512 -0.0245,0.0611 -0.0215,0.13415 0.007,0.16228 0.0281,0.0281 0.0482,-0.0219 0.0445,-0.11112 z m 57.9345569,-6.61245 c -0.06112,-0.0245 -0.134146,-0.0215 -0.162281,0.007 -0.02813,0.0281 0.02188,0.0481 0.111125,0.0445 0.09864,-0.004 0.118695,-0.0241 0.05116,-0.0512 z m -57.3517069,-1.33917 c -0.002,-0.1397 -0.0207,-0.18659 -0.0422,-0.10422 -0.0215,0.0824 -0.02,0.19668 0.003,0.254 0.0232,0.0573 0.0407,-0.0101 0.039,-0.14978 z m -0.47033,-11.697744 c -0.0582,-0.0235 -0.15346,-0.0235 -0.21167,0 -0.0582,0.0235 -0.0106,0.0427 0.10583,0.0427 0.11642,0 0.16404,-0.0192 0.10584,-0.0427 z m 71.5154819,-0.33198 c -0.0041,-0.0986 -0.02413,-0.11869 -0.05116,-0.0512 -0.02446,0.0611 -0.02145,0.13414 0.0067,0.16228 0.02813,0.0281 0.04815,-0.0219 0.04447,-0.11113 z m 0.08467,-1.27 c -0.0041,-0.0986 -0.02413,-0.11869 -0.05116,-0.0511 -0.02446,0.0611 -0.02145,0.13414 0.0067,0.16228 0.02813,0.0281 0.04815,-0.0219 0.04447,-0.11113 z m -69.4199919,-1.16791 c 0,-0.0176 -0.0667,-0.0843 -0.14816,-0.14817 -0.13429,-0.10531 -0.13728,-0.10232 -0.032,0.032 0.1106,0.14103 0.18013,0.18589 0.18013,0.1162 z m -1.25412,-0.61854 c -0.0611,-0.0245 -0.13415,-0.0214 -0.16228,0.007 -0.0281,0.0281 0.0219,0.0481 0.11112,0.0445 0.0986,-0.004 0.1187,-0.0241 0.0512,-0.0512 z m 70.8434459,-0.83821 c -0.0041,-0.0986 -0.02413,-0.1187 -0.05116,-0.0512 -0.02446,0.0611 -0.02145,0.13415 0.0067,0.16228 0.02813,0.0281 0.04815,-0.0219 0.04447,-0.11112 z M -94.534432,88.584136 c -0.004,-0.0986 -0.0241,-0.11869 -0.0512,-0.0512 -0.0245,0.0611 -0.0215,0.13415 0.007,0.16229 0.0281,0.0281 0.0481,-0.0219 0.0445,-0.11113 z m -3.39336,-0.28928 c 0,-0.11642 -0.0192,-0.16404 -0.0427,-0.10583 -0.0235,0.0582 -0.0235,0.15345 0,0.21166 0.0235,0.0582 0.0427,0.0106 0.0427,-0.10583 z M 9.8595659,87.906806 c -0.0041,-0.0986 -0.02413,-0.1187 -0.05115,-0.0512 -0.02446,0.0611 -0.02146,0.13415 0.0067,0.16228 0.02813,0.0281 0.04815,-0.0219 0.04448,-0.11112 z m -82.4720179,-0.88195 c 0,-0.11642 -0.0192,-0.16404 -0.0427,-0.10583 -0.0235,0.0582 -0.0235,0.15345 0,0.21166 0.0235,0.0582 0.0427,0.0106 0.0427,-0.10583 z m -3.39636,-0.508 c 0,-0.20955 -0.0165,-0.29528 -0.0367,-0.1905 -0.0202,0.10477 -0.0202,0.27622 0,0.381 0.0202,0.10477 0.0367,0.0191 0.0367,-0.1905 z m 85.9530449,0.11995 c -0.0041,-0.0986 -0.02413,-0.1187 -0.05116,-0.0512 -0.02446,0.0611 -0.02145,0.13415 0.0067,0.16228 0.02813,0.0281 0.04815,-0.0219 0.04448,-0.11112 z m -85.9433549,-1.22062 c 0,-0.11641 -0.0192,-0.16404 -0.0427,-0.10583 -0.0235,0.0582 -0.0235,0.15346 0,0.21167 0.0235,0.0582 0.0427,0.0106 0.0427,-0.10584 z m 17.28537,-1.13263 c 0,-0.0176 -0.0667,-0.0843 -0.14817,-0.14817 -0.13429,-0.10531 -0.13728,-0.10232 -0.032,0.032 0.11061,0.14103 0.18014,0.18589 0.18014,0.1162 z m -0.33867,-0.33867 c 0,-0.0176 -0.0667,-0.0842 -0.14816,-0.14817 -0.13429,-0.10531 -0.13728,-0.10232 -0.032,0.032 0.1106,0.14103 0.18013,0.18589 0.18013,0.1162 z m 69.165988,-0.18675 c -0.0041,-0.0986 -0.02413,-0.11869 -0.05116,-0.0512 -0.02446,0.0611 -0.02146,0.13415 0.0067,0.16229 0.02813,0.0281 0.04815,-0.0219 0.04447,-0.11113 z m -104.647998,0 c -0.004,-0.0986 -0.0241,-0.11869 -0.0512,-0.0512 -0.0245,0.0611 -0.0215,0.13415 0.007,0.16229 0.0281,0.0281 0.0481,-0.0219 0.0445,-0.11113 z M 8.0748779,83.130186 c 0,-0.11641 -0.01922,-0.16404 -0.04271,-0.10583 -0.02349,0.0582 -0.02349,0.15346 0,0.21167 0.02349,0.0582 0.04271,0.0106 0.04271,-0.10584 z m -26.2466669,-0.42333 c 0,-0.11642 -0.01922,-0.16404 -0.04271,-0.10583 -0.02349,0.0582 -0.02349,0.15345 0,0.21166 0.02349,0.0582 0.04271,0.0106 0.04271,-0.10583 z m 31.750001,-0.59267 c 0,-0.11641 -0.01922,-0.16404 -0.0427,-0.10583 -0.02349,0.0582 -0.02349,0.15346 0,0.21167 0.02349,0.0582 0.0427,0.0106 0.0427,-0.10584 z m -107.943314,-0.21872 c -0.004,-0.0986 -0.0241,-0.11869 -0.0511,-0.0512 -0.0245,0.0611 -0.0215,0.13414 0.007,0.16228 0.0281,0.0281 0.0481,-0.0219 0.0445,-0.11113 z m 104.641313,-1.64394 c 0,-0.11642 -0.01922,-0.16405 -0.04271,-0.10584 -0.02349,0.0582 -0.02349,0.15346 0,0.21167 0.02349,0.0582 0.04271,0.0106 0.04271,-0.10583 z m -2.1946451,-0.13406 c -0.0041,-0.0986 -0.02413,-0.11869 -0.05116,-0.0512 -0.02446,0.0611 -0.02145,0.13414 0.0067,0.16228 0.02813,0.0281 0.04815,-0.0219 0.04447,-0.11113 z m 5.5781751,-0.24694 c -0.0017,-0.1397 -0.0207,-0.1866 -0.04217,-0.10423 -0.02147,0.0824 -0.02005,0.19668 0.0031,0.254 0.02319,0.0573 0.04076,-0.0101 0.03903,-0.14977 z m -107.855503,0.0776 c -0.004,-0.0986 -0.0241,-0.11869 -0.0512,-0.0512 -0.0245,0.0611 -0.0215,0.13415 0.007,0.16229 0.0281,0.0281 0.0481,-0.0219 0.0445,-0.11113 z M 8.0686039,79.658856 c 0,-0.16298 -0.01742,-0.22966 -0.03872,-0.14817 -0.0213,0.0815 -0.0213,0.21484 0,0.29634 0.02129,0.0815 0.03872,0.0148 0.03872,-0.14817 z M -94.111102,78.678136 c -0.004,-0.0986 -0.0241,-0.11869 -0.0512,-0.0512 -0.0245,0.0611 -0.0215,0.13415 0.007,0.16229 0.0281,0.0281 0.0482,-0.0219 0.0445,-0.11113 z m 104.462285,-1.55928 c 0,-0.20955 -0.01651,-0.29528 -0.03669,-0.1905 -0.02018,0.10477 -0.02018,0.27622 0,0.381 0.02018,0.10477 0.03669,0.019 0.03669,-0.1905 z m -107.770975,-0.0847 c 0,-0.11641 -0.0192,-0.16404 -0.0427,-0.10583 -0.0235,0.0582 -0.0235,0.15346 0,0.21167 0.0235,0.0582 0.0427,0.0106 0.0427,-0.10584 z m 3.39336,-0.38805 c -0.004,-0.0986 -0.0241,-0.11869 -0.0512,-0.0512 -0.0245,0.0611 -0.0214,0.13415 0.007,0.16229 0.0281,0.0281 0.0481,-0.0219 0.0445,-0.11113 z m 107.77084,-0.41625 c -0.0017,-0.1397 -0.0207,-0.1866 -0.04217,-0.10422 -0.02147,0.0824 -0.02005,0.19668 0.0031,0.254 0.02319,0.0573 0.04076,-0.0101 0.03903,-0.14978 z m -38.012197,0.0423 c 0,-0.11641 -0.01922,-0.16404 -0.04271,-0.10583 -0.02349,0.0582 -0.02349,0.15346 0,0.21167 0.02349,0.0582 0.04271,0.0106 0.04271,-0.10584 z m -69.758643,0.0353 c -0.004,-0.0986 -0.0241,-0.11869 -0.0512,-0.0512 -0.0245,0.0611 -0.0214,0.13414 0.007,0.16228 0.0281,0.0281 0.0481,-0.0219 0.0445,-0.11113 z m -3.40134,-0.75494 c -9.3e-4,-0.18627 -0.0183,-0.2525 -0.0385,-0.14718 -0.0203,0.10532 -0.0195,0.25772 0.002,0.33867 0.0212,0.0809 0.0378,-0.005 0.0368,-0.19149 z m 100.7680049,-0.007 c -0.0041,-0.0986 -0.02413,-0.1187 -0.05116,-0.0512 -0.02446,0.0611 -0.02145,0.13415 0.0067,0.16228 0.02813,0.0281 0.04815,-0.0219 0.04448,-0.11112 z M -97.422922,74.959906 c -0.002,-0.1397 -0.0207,-0.1866 -0.0422,-0.10423 -0.0215,0.0824 -0.0201,0.19668 0.003,0.254 0.0232,0.0573 0.0408,-0.0101 0.039,-0.14977 z m 45.97713,-0.127 c 0,-0.11642 -0.0192,-0.16405 -0.0427,-0.10584 -0.0235,0.0582 -0.0235,0.15346 0,0.21167 0.0235,0.0582 0.0427,0.0106 0.0427,-0.10583 z m 3.39336,-0.13406 c -0.004,-0.0986 -0.0241,-0.11869 -0.0512,-0.0511 -0.0245,0.0611 -0.0215,0.13414 0.007,0.16228 0.0281,0.0281 0.0482,-0.0219 0.0445,-0.11113 z m -46.06536,-1.64397 c 0,-0.11642 -0.0192,-0.16404 -0.0427,-0.10583 -0.0235,0.0582 -0.0235,0.15345 0,0.21166 0.0235,0.0582 0.0427,0.0106 0.0427,-0.10583 z M 7.1569129,72.514886 c 0,-0.0176 -0.06667,-0.0842 -0.148166,-0.14817 -0.13429,-0.10531 -0.137279,-0.10232 -0.03197,0.032 0.110608,0.14103 0.180136,0.18589 0.180136,0.1162 z m -58.3549749,-1.66136 c 0,-0.16299 -0.0174,-0.22966 -0.0387,-0.14817 -0.0213,0.0815 -0.0213,0.21484 0,0.29633 0.0213,0.0815 0.0387,0.0148 0.0387,-0.14816 z m -43.08906,-0.67734 c 0,-0.11641 -0.0192,-0.16404 -0.0427,-0.10583 -0.0235,0.0582 -0.0235,0.15346 0,0.21167 0.0235,0.0582 0.0427,0.0106 0.0427,-0.10584 z m -0.078,-1.31938 c -0.004,-0.0986 -0.0241,-0.1187 -0.0511,-0.0512 -0.0245,0.0611 -0.0215,0.13415 0.007,0.16228 0.0281,0.0281 0.0481,-0.0219 0.0445,-0.11112 z m -3.38666,0 c -0.004,-0.0986 -0.0241,-0.1187 -0.0512,-0.0512 -0.0245,0.0611 -0.0215,0.13415 0.007,0.16228 0.0281,0.0281 0.0482,-0.0219 0.0445,-0.11112 z m 111.499327,-0.28928 c 0,-0.11642 -0.01922,-0.16405 -0.0427,-0.10584 -0.02349,0.0582 -0.02349,0.15346 0,0.21167 0.02349,0.0582 0.0427,0.0106 0.0427,-0.10583 z m -3.386667,-0.33867 c 0,-0.11642 -0.01922,-0.16404 -0.04271,-0.10583 -0.02349,0.0582 -0.02349,0.15345 0,0.21166 0.02349,0.0582 0.04271,0.0106 0.04271,-0.10583 z m -41.875465,-0.22541 c -0.05821,-0.0235 -0.153458,-0.0235 -0.211666,0 -0.05821,0.0235 -0.01058,0.0427 0.105833,0.0427 0.116417,0 0.164042,-0.0192 0.105833,-0.0427 z m -19.761865,-1.38326 c 0,-0.11641 -0.0192,-0.16404 -0.0427,-0.10583 -0.0235,0.0582 -0.0235,0.15346 0,0.21167 0.0235,0.0582 0.0427,0.0106 0.0427,-0.10584 z m 3.39335,-0.21872 c -0.004,-0.0986 -0.0241,-0.11869 -0.0512,-0.0511 -0.0245,0.0611 -0.0215,0.13414 0.007,0.16228 0.0281,0.0281 0.0482,-0.0219 0.0445,-0.11113 z m 61.467998,-0.84666 c -0.0041,-0.0986 -0.02412,-0.1187 -0.05115,-0.0512 -0.02446,0.0611 -0.02145,0.13415 0.0067,0.16228 0.02813,0.0281 0.04814,-0.0219 0.04447,-0.11112 z m -28.61733,0 c -0.0041,-0.0986 -0.02413,-0.1187 -0.05115,-0.0512 -0.02446,0.0611 -0.02146,0.13415 0.0067,0.16228 0.02813,0.0281 0.04815,-0.0219 0.04448,-0.11112 z m -79.840668,-1.778 c -0.004,-0.0986 -0.0241,-0.1187 -0.0512,-0.0512 -0.0245,0.0611 -0.0215,0.13415 0.007,0.16228 0.0281,0.0281 0.0482,-0.0219 0.0445,-0.11112 z m -3.39335,-0.11995 c 0,-0.11642 -0.0192,-0.16404 -0.0427,-0.10583 -0.0235,0.0582 -0.0235,0.15345 0,0.21166 0.0235,0.0582 0.0427,0.0106 0.0427,-0.10583 z m 111.597348,-1.06539 c -0.0041,-0.0986 -0.02412,-0.11869 -0.05115,-0.0511 -0.02446,0.0611 -0.02145,0.13414 0.0067,0.16228 0.02813,0.0281 0.04814,-0.0219 0.04447,-0.11113 z m -37.569441,-0.51645 c -0.06112,-0.0245 -0.134146,-0.0215 -0.162281,0.007 -0.02813,0.0281 0.02188,0.0482 0.111125,0.0445 0.09864,-0.004 0.118695,-0.0241 0.05116,-0.0512 z m -60.061047,-0.15383 c -0.002,-0.1397 -0.0207,-0.18659 -0.0422,-0.10422 -0.0215,0.0824 -0.0201,0.19668 0.003,0.254 0.0232,0.0573 0.0408,-0.0101 0.039,-0.14978 z m -3.38666,-0.33866 c -0.002,-0.1397 -0.0207,-0.1866 -0.0422,-0.10423 -0.0215,0.0824 -0.02,0.19668 0.003,0.254 0.0232,0.0573 0.0408,-0.0101 0.039,-0.14977 z m 15.92715,-0.43039 c -0.004,-0.0986 -0.0241,-0.11869 -0.0512,-0.0512 -0.0245,0.0611 -0.0215,0.13415 0.007,0.16229 0.0281,0.0281 0.0481,-0.0219 0.0445,-0.11113 z m -26.50735,-0.28928 c 0,-0.11642 -0.0192,-0.16404 -0.0427,-0.10583 -0.0235,0.0582 -0.0235,0.15345 0,0.21166 0.0235,0.0582 0.0427,0.0106 0.0427,-0.10583 z m 13.97669,-0.13405 c -0.004,-0.0986 -0.0241,-0.1187 -0.0512,-0.0512 -0.0245,0.0611 -0.0215,0.13415 0.007,0.16228 0.0281,0.0281 0.0481,-0.0219 0.0445,-0.11112 z m -10.58334,-0.254 c -0.004,-0.0986 -0.0241,-0.1187 -0.0512,-0.0512 -0.0245,0.0611 -0.0215,0.13415 0.007,0.16228 0.0281,0.0281 0.0482,-0.0219 0.0445,-0.11112 z m 72.247525,-1.11117 c -0.105317,-0.0203 -0.257717,-0.0195 -0.338667,0.002 -0.08094,0.0212 0.0052,0.0378 0.191491,0.0368 0.186266,-9.3e-4 0.252501,-0.0183 0.147176,-0.0385 z m -4.738455,-10e-4 c -0.1503,-0.0187 -0.417,-0.019 -0.592667,-8.5e-4 -0.175666,0.0183 -0.05269,0.0336 0.273279,0.034 0.325967,0 0.469688,-0.0146 0.319388,-0.0333 z m -4.108221,-8.5e-4 c -0.174625,-0.0183 -0.460375,-0.0183 -0.635,0 -0.174625,0.0183 -0.03175,0.0332 0.3175,0.0332 0.34925,0 0.492125,-0.0149 0.3175,-0.0332 z m -1.063625,0.004 c -0.06112,-0.0245 -0.134146,-0.0215 -0.162281,0.007 -0.02814,0.0281 0.02188,0.0481 0.111125,0.0445 0.09864,-0.004 0.118694,-0.0241 0.05116,-0.0512 z m 13.297958,-0.0829 c -0.05821,-0.0235 -0.153458,-0.0235 -0.211667,0 -0.05821,0.0235 -0.01058,0.0427 0.105834,0.0427 0.116416,0 0.164041,-0.0192 0.105833,-0.0427 z m -15.922625,-0.002 c -0.06112,-0.0245 -0.134146,-0.0215 -0.162281,0.007 -0.02813,0.0281 0.02188,0.0481 0.111125,0.0445 0.09864,-0.004 0.118695,-0.0241 0.05116,-0.0512 z m 17.615958,-0.0829 c -0.05821,-0.0235 -0.153458,-0.0235 -0.211666,0 -0.05821,0.0235 -0.01058,0.0427 0.105833,0.0427 0.116417,0 0.164042,-0.0192 0.105833,-0.0427 z m 1.857375,-0.0864 c -0.06112,-0.0245 -0.134146,-0.0215 -0.16228,0.007 -0.02813,0.0281 0.02188,0.0481 0.111125,0.0445 0.09864,-0.004 0.118694,-0.0241 0.05115,-0.0512 z m 7.1172919,-0.5909 c -0.05821,-0.0235 -0.153458,-0.0235 -0.211667,0 -0.05821,0.0235 -0.01058,0.0427 0.105834,0.0427 0.116416,0 0.164041,-0.0192 0.105833,-0.0427 z m -37.4438319,-2.35664 c 0,-0.0698 -0.0369,-0.127 -0.082,-0.127 -0.0451,0 -0.0601,0.0572 -0.0333,0.127 0.0268,0.0699 0.0637,0.127 0.082,0.127 0.0183,0 0.0333,-0.0572 0.0333,-0.127 z m 23.897165,-0.18307 c -0.05821,-0.0235 -0.153458,-0.0235 -0.211666,0 -0.05821,0.0235 -0.01058,0.0427 0.105833,0.0427 0.116417,0 0.164042,-0.0192 0.105833,-0.0427 z m -6.185958,-0.002 c -0.06112,-0.0245 -0.134146,-0.0215 -0.162281,0.007 -0.02813,0.0281 0.02188,0.0481 0.111125,0.0445 0.09864,-0.004 0.118695,-0.0241 0.05116,-0.0512 z m -0.333375,0.002 c -0.05821,-0.0235 -0.153458,-0.0235 -0.211667,0 -0.05821,0.0235 -0.01058,0.0427 0.105834,0.0427 0.116416,0 0.164041,-0.0192 0.105833,-0.0427 z m -2.286991,-0.004 c -0.105316,-0.0203 -0.257716,-0.0195 -0.338666,0.002 -0.08094,0.0212 0.0052,0.0378 0.19149,0.0368 0.186267,-9.3e-4 0.252502,-0.0183 0.147176,-0.0385 z m -1.692342,0 c -0.104775,-0.0202 -0.276225,-0.0202 -0.381,0 -0.104775,0.0202 -0.01905,0.0367 0.1905,0.0367 0.20955,0 0.295275,-0.0165 0.1905,-0.0367 z m 17.012708,-0.25209 c -0.06112,-0.0245 -0.134146,-0.0215 -0.162281,0.007 -0.02813,0.0281 0.02188,0.0481 0.111125,0.0445 0.09864,-0.004 0.118695,-0.0241 0.05116,-0.0512 z m 24.8694449,-0.41489 c -0.0041,-0.0986 -0.02413,-0.11869 -0.05116,-0.0511 -0.02446,0.0611 -0.02145,0.13415 0.0067,0.16228 0.02813,0.0281 0.04815,-0.0219 0.04447,-0.11113 z m -21.4827779,0.0762 c -0.06112,-0.0245 -0.134146,-0.0215 -0.162281,0.007 -0.02814,0.0281 0.02188,0.0482 0.111125,0.0445 0.09864,-0.004 0.118694,-0.0241 0.05116,-0.0512 z m -29.718004,-0.0847 c -0.0611,-0.0245 -0.13414,-0.0215 -0.16228,0.007 -0.0281,0.0281 0.0219,0.0481 0.11113,0.0445 0.0986,-0.004 0.11869,-0.0241 0.0511,-0.0512 z m 31.665337,-0.0847 c -0.06112,-0.0245 -0.134146,-0.0215 -0.162281,0.007 -0.02813,0.0281 0.02188,0.0482 0.111125,0.0445 0.09864,-0.004 0.118695,-0.0241 0.05116,-0.0511 z m 2.0780159,-0.0855 c -0.08238,-0.0215 -0.19668,-0.02 -0.254,0.003 -0.05733,0.0232 0.01008,0.0408 0.149776,0.039 0.1397,-0.002 0.186597,-0.0207 0.104224,-0.0422 z m 5.711317,-0.0838 c -0.06112,-0.0245 -0.134146,-0.0215 -0.16228,0.007 -0.02813,0.0281 0.02188,0.0481 0.111125,0.0445 0.09864,-0.004 0.118694,-0.0241 0.05116,-0.0512 z m -26.3699829,-3.38751 c -0.08238,-0.02146 -0.196681,-0.02006 -0.254,0.0031 -0.05733,0.02319 0.01008,0.04075 0.149775,0.03903 0.1397,-0.0017 0.186597,-0.0207 0.104225,-0.04217 z m -37.497927,-0.618524 c 0,-0.116416 -0.0192,-0.164041 -0.0427,-0.105833 -0.0235,0.05821 -0.0235,0.153458 0,0.211667 0.0235,0.05821 0.0427,0.01058 0.0427,-0.105834 z m 39.122688,-1.065326 c -0.0041,-0.09864 -0.02413,-0.118694 -0.05115,-0.05115 -0.02446,0.06112 -0.02146,0.134146 0.0067,0.16228 0.02813,0.02814 0.04815,-0.02188 0.04448,-0.111125 z m -3.393355,-0.28928 c 0,-0.116417 -0.01922,-0.164042 -0.04271,-0.105834 -0.02349,0.05821 -0.02349,0.153459 0,0.211667 0.02349,0.05821 0.04271,0.01058 0.04271,-0.105833 z m 49.028685,-0.98072 c -0.0041,-0.09864 -0.02412,-0.118694 -0.05115,-0.05115 -0.02446,0.06112 -0.02145,0.134146 0.0067,0.16228 0.02813,0.02814 0.04814,-0.02188 0.04447,-0.111125 z m -21.7869391,-3.189114 0.16129,-0.1905 -0.1905,0.16129 c -0.17902,0.151571 -0.229041,0.21971 -0.16129,0.21971 0.01607,0 0.101794,-0.08572 0.1905,-0.1905 z m -70.3579989,-8.466666 0.16129,-0.1905 -0.1905,0.16129 c -0.10478,0.08871 -0.1905,0.17443 -0.1905,0.1905 0,0.06775 0.0681,0.01773 0.21971,-0.16129 z m 66.7516219,-2.88947 c 0,-0.01758 -0.06668,-0.08425 -0.148167,-0.148167 -0.134289,-0.105311 -0.137278,-0.102316 -0.03197,0.03197 0.110609,0.141029 0.180137,0.185886 0.180137,0.116197 z M -11.80842,33.906889 c 0,-0.01758 -0.06668,-0.08426 -0.148167,-0.148167 -0.134289,-0.105314 -0.137278,-0.102319 -0.03197,0.03197 0.110609,0.141034 0.180137,0.185886 0.180137,0.1162 z m 3.9793329,-0.677333 c 0,-0.01758 -0.06667,-0.08426 -0.148166,-0.148167 -0.13429,-0.105314 -0.137279,-0.10232 -0.03197,0.03197 0.110608,0.141033 0.180136,0.185884 0.180136,0.1162 z M -37.366952,31.250689 c 0.10531,-0.134286 0.10232,-0.137281 -0.032,-0.03197 -0.0815,0.06391 -0.14816,0.130586 -0.14816,0.148167 0,0.06968 0.0695,0.02483 0.18013,-0.1162 z M 6.6489129,26.784522 c -0.109364,-0.116416 -0.217898,-0.211666 -0.241181,-0.211666 -0.02328,0 0.04715,0.09525 0.156515,0.211666 0.109364,0.116417 0.217898,0.211667 0.241181,0.211667 0.02328,0 -0.04715,-0.09525 -0.156515,-0.211667 z m -2.201333,-2.021633 c 0,-0.01758 -0.06667,-0.08426 -0.148167,-0.148167 -0.134289,-0.105314 -0.137278,-0.102319 -0.03197,0.03197 0.110609,0.141034 0.180137,0.185884 0.180137,0.1162 z m -7.281333,-2.286 c 0,-0.01758 -0.06667,-0.08426 -0.148167,-0.148167 -0.13429,-0.105314 -0.137279,-0.102319 -0.03197,0.03197 0.110608,0.141034 0.180137,0.185884 0.180137,0.1162 z m -78.8138589,-0.1162 c 0.1053,-0.134286 0.10232,-0.137281 -0.032,-0.03197 -0.14103,0.110606 -0.18589,0.180134 -0.1162,0.180134 0.0176,0 0.0842,-0.06667 0.14817,-0.148167 z m 77.9671919,-0.815133 c 0,-0.01758 -0.06668,-0.08426 -0.148167,-0.148167 -0.134289,-0.105314 -0.137278,-0.10232 -0.03197,0.03197 0.110609,0.141033 0.180137,0.185884 0.180137,0.1162 z m 4.48733301,-0.08467 c 0,-0.01758 -0.06667,-0.08426 -0.148166,-0.148167 -0.13429,-0.105314 -0.137279,-0.102319 -0.03197,0.03197 0.110608,0.141034 0.180136,0.185884 0.180136,0.1162 z m -76.36292491,-0.6242 0.20526,-0.232833 -0.23283,0.205258 c -0.12806,0.112893 -0.23284,0.217668 -0.23284,0.232833 0,0.0664 0.0686,0.01236 0.26041,-0.205258 z m -4.48294,-0.169333 c 0.10531,-0.134287 0.10232,-0.137281 -0.032,-0.03197 -0.14103,0.110606 -0.18588,0.180133 -0.11619,0.180133 0.0176,0 0.0842,-0.06668 0.14816,-0.148166 z m 5.67267,-1.100667 c 0.10531,-0.134286 0.10232,-0.137281 -0.032,-0.03197 -0.0815,0.06391 -0.14817,0.130586 -0.14817,0.148167 0,0.06968 0.0695,0.02483 0.18014,-0.1162 z m 73.47986191,0.03153 c 0,-0.01758 -0.06667,-0.08426 -0.14816701,-0.148166 -0.134289,-0.105315 -0.137278,-0.10232 -0.03197,0.03197 0.11060901,0.141034 0.18013701,0.185884 0.18013701,0.1162 z m -77.79786191,-0.3702 c 0.10531,-0.134286 0.10232,-0.137281 -0.032,-0.03197 -0.14103,0.110606 -0.18589,0.180133 -0.1162,0.180133 0.0176,0 0.0842,-0.06667 0.14817,-0.148167 z m 5.67267,-1.016 c 0.1053,-0.134286 0.10232,-0.137281 -0.032,-0.03197 -0.0815,0.06391 -0.14817,0.130585 -0.14817,0.148166 0,0.06968 0.0695,0.02483 0.18014,-0.1162 z m 69.8391919,-1.0795 c -0.157971,-0.162983 -0.306265,-0.296333 -0.329548,-0.296333 -0.02328,0 0.08691,0.13335 0.244881,0.296333 0.157971,0.162984 0.306265,0.296334 0.329548,0.296334 0.02328,0 -0.08691,-0.13335 -0.244881,-0.296334 z m -72.9363419,-0.656166 0.33468,-0.359834 -0.35984,0.334684 c -0.33464,0.311251 -0.39874,0.384983 -0.33468,0.384983 0.0138,0 0.17575,-0.161925 0.35984,-0.359833 z m 44.92755,-6.217331 c -0.06112,-0.02446 -0.134146,-0.02145 -0.16228,0.0067 -0.02813,0.02813 0.02188,0.04815 0.111125,0.04447 0.09864,-0.0041 0.118694,-0.02413 0.05115,-0.05115 z m 2.882968,-0.08671 c -0.105317,-0.02025 -0.257717,-0.01948 -0.338667,0.0017 -0.08094,0.02119 0.0053,0.03776 0.191491,0.03682 0.186267,-9.4e-4 0.252501,-0.01828 0.147176,-0.03853 z m -0.889618,0.0012 c -0.08238,-0.02147 -0.196681,-0.02005 -0.254,0.0031 -0.05733,0.02319 0.01008,0.04076 0.149775,0.03903 0.1397,-0.0017 0.186597,-0.0207 0.104225,-0.04217 z m -3.596725,-3.2147329 c -0.05821,-0.02349 -0.153458,-0.02349 -0.211666,0 -0.05821,0.02349 -0.01058,0.04271 0.105833,0.04271 0.116417,0 0.164042,-0.01922 0.105833,-0.04271 z m 3.889375,-0.171088 c -0.06112,-0.02446 -0.134146,-0.02145 -0.16228,0.0067 -0.02814,0.02813 0.02188,0.04814 0.111125,0.04447 0.09864,-0.0041 0.118694,-0.02412 0.05115,-0.05115 z m -24.55333,-1.27 c -0.0611,-0.02446 -0.13415,-0.02145 -0.16228,0.0067 -0.0281,0.02813 0.0219,0.04814 0.11112,0.04447 0.0986,-0.0041 0.1187,-0.02412 0.0512,-0.05115 z m 2.62466,-0.254 c -0.0611,-0.02446 -0.13414,-0.02145 -0.16228,0.0067 -0.0281,0.02813 0.0219,0.04814 0.11113,0.04447 0.0986,-0.0041 0.11869,-0.02413 0.0511,-0.05115 z m 4.318,-0.08467 c -0.0611,-0.02446 -0.13414,-0.02145 -0.16228,0.0067 -0.0281,0.02813 0.0219,0.04815 0.11113,0.04447 0.0986,-0.0041 0.11869,-0.02412 0.0511,-0.05115 z m -3.302,0 c -0.0611,-0.02446 -0.13414,-0.02145 -0.16228,0.0067 -0.0281,0.02813 0.0219,0.04815 0.11113,0.04447 0.0986,-0.0041 0.11869,-0.02412 0.0512,-0.05115 z"
         id="path913" />
      <path
         style="fill:#f4ee9e;stroke-width:0.0846667"
         d="m -41.272422,144.05822 c 0,-0.0176 -0.0667,-0.0842 -0.14816,-0.14816 -0.13429,-0.10531 -0.13728,-0.10232 -0.032,0.032 0.1106,0.14103 0.18013,0.18588 0.18013,0.11619 z m -0.508,-0.42333 c 0,-0.0176 -0.0667,-0.0842 -0.14816,-0.14817 -0.13429,-0.10531 -0.13728,-0.10232 -0.032,0.032 0.1106,0.14103 0.18013,0.18589 0.18013,0.1162 z m -0.508,-0.42333 c 0,-0.0176 -0.0667,-0.0843 -0.14816,-0.14817 -0.13429,-0.10531 -0.13728,-0.10232 -0.032,0.032 0.1106,0.14103 0.18013,0.18589 0.18013,0.1162 z m -0.762,-0.67186 c 0,-0.0146 -0.12382,-0.1384 -0.27516,-0.27517 l -0.27517,-0.24867 0.24867,0.27517 c 0.2318,0.25649 0.30166,0.31408 0.30166,0.24867 z m -0.93133,-1.02148 c 0,-0.0176 -0.0667,-0.0842 -0.14817,-0.14816 -0.13429,-0.10531 -0.13728,-0.10232 -0.032,0.032 0.11061,0.14103 0.18014,0.18588 0.18014,0.11619 z m -0.42333,-0.508 c 0,-0.0176 -0.0667,-0.0842 -0.14817,-0.14816 -0.13429,-0.10531 -0.13728,-0.10232 -0.032,0.032 0.11061,0.14103 0.18014,0.18588 0.18014,0.11619 z m -0.889,-1.06869 c -0.0843,-0.0931 -0.1723,-0.16934 -0.19558,-0.16934 -0.0233,0 0.0266,0.0762 0.11091,0.16934 0.0843,0.0931 0.1723,0.16933 0.19558,0.16933 0.0233,0 -0.0266,-0.0762 -0.11091,-0.16933 z m -0.762,-0.84667 c -0.0843,-0.0931 -0.1723,-0.16933 -0.19558,-0.16933 -0.0233,0 0.0266,0.0762 0.11091,0.16933 0.0843,0.0931 0.1723,0.16933 0.19558,0.16933 0.0233,0 -0.0266,-0.0762 -0.11091,-0.16933 z m -0.42334,-0.508 c -0.0843,-0.0931 -0.17229,-0.16933 -0.19558,-0.16933 -0.0233,0 0.0266,0.0762 0.11092,0.16933 0.0843,0.0931 0.17229,0.16933 0.19558,0.16933 0.0233,0 -0.0266,-0.0762 -0.11092,-0.16933 z m -0.97366,-1.2173 c 0,-0.0176 -0.0667,-0.0843 -0.14817,-0.14817 -0.13429,-0.10531 -0.13728,-0.10232 -0.032,0.032 0.11061,0.14103 0.18014,0.18589 0.18014,0.1162 z m -1.524,-1.61903 c -0.10937,-0.11642 -0.2179,-0.21167 -0.24119,-0.21167 -0.0233,0 0.0472,0.0952 0.15652,0.21167 0.10936,0.11641 0.2179,0.21166 0.24118,0.21166 0.0233,0 -0.0472,-0.0952 -0.15651,-0.21166 z m -1.524,-1.60867 c -0.10937,-0.11642 -0.2179,-0.21167 -0.24119,-0.21167 -0.0233,0 0.0472,0.0952 0.15652,0.21167 0.10936,0.11642 0.2179,0.21167 0.24118,0.21167 0.0233,0 -0.0472,-0.0952 -0.15651,-0.21167 z m -5.92667,-9.04897 c 0,-0.0176 -0.0667,-0.0842 -0.14817,-0.14817 -0.13429,-0.10531 -0.13728,-0.10232 -0.032,0.032 0.11061,0.14103 0.18014,0.18589 0.18014,0.1162 z m 1.35467,-3.92289 c 0,-0.0486 -0.0667,-0.1407 -0.14817,-0.20461 -0.13706,-0.10748 -0.13885,-0.1035 -0.024,0.0531 0.0683,0.0931 0.13499,0.1852 0.14816,0.20461 0.0132,0.0194 0.024,-0.004 0.024,-0.0531 z M 8.5748939,97.904526 c -9.32e-4,-0.18627 -0.01828,-0.2525 -0.03853,-0.14718 -0.02025,0.10532 -0.01948,0.25772 0.0017,0.33867 0.02119,0.0809 0.03776,-0.005 0.03682,-0.19149 z m -9.806661,-22.02039 c -0.0041,-0.0986 -0.02413,-0.11869 -0.05116,-0.0512 -0.02446,0.0611 -0.02146,0.13415 0.0067,0.16229 0.02814,0.0281 0.04815,-0.0219 0.04448,-0.11113 z"
         id="path911" />
      <path
         style="fill:#c2d8e5;stroke-width:0.0846667"
         d="m -19.858434,155.55547 c -0.0041,-0.0986 -0.02413,-0.11869 -0.05115,-0.0512 -0.02446,0.0611 -0.02146,0.13414 0.0067,0.16228 0.02813,0.0281 0.04815,-0.0219 0.04448,-0.11113 z m -0.169333,-4.14866 c -0.0041,-0.0986 -0.02413,-0.1187 -0.05115,-0.0512 -0.02446,0.0611 -0.02146,0.13415 0.0067,0.16228 0.02813,0.0281 0.04815,-0.0219 0.04448,-0.11112 z m -44.619335,-11.85334 c -0.004,-0.0986 -0.0241,-0.11869 -0.0512,-0.0512 -0.0245,0.0611 -0.0215,0.13414 0.007,0.16228 0.0281,0.0281 0.0482,-0.0219 0.0445,-0.11113 z m 3.38667,-0.762 c -0.004,-0.0986 -0.0241,-0.11869 -0.0512,-0.0512 -0.0245,0.0611 -0.0215,0.13414 0.007,0.16228 0.0281,0.0281 0.0482,-0.0219 0.0445,-0.11113 z m -3.302,-1.86266 c -0.004,-0.0986 -0.0241,-0.1187 -0.0512,-0.0512 -0.0245,0.0611 -0.0215,0.13415 0.007,0.16228 0.0281,0.0281 0.0481,-0.0219 0.0445,-0.11112 z m 17.10935,-14.03725 c 0,-0.0176 -0.0667,-0.0843 -0.14817,-0.14817 -0.13429,-0.10531 -0.13728,-0.10232 -0.032,0.032 0.11061,0.14103 0.18014,0.18589 0.18014,0.1162 z m -14.65402,-4.92809 c -0.004,-0.0986 -0.0241,-0.11869 -0.0511,-0.0512 -0.0245,0.0611 -0.0215,0.13414 0.007,0.16228 0.0281,0.0281 0.0482,-0.0219 0.0445,-0.11113 z m 0,-2.62466 c -0.004,-0.0986 -0.0241,-0.1187 -0.0511,-0.0512 -0.0245,0.0611 -0.0215,0.13415 0.007,0.16228 0.0281,0.0281 0.0482,-0.0219 0.0445,-0.11112 z M 0.90745491,102.03769 c -0.06112,-0.0245 -0.134146,-0.0214 -0.162281,0.007 -0.02813,0.0281 0.02188,0.0481 0.111125,0.0445 0.09864,-0.004 0.118695,-0.0241 0.05116,-0.0512 z M -72.387422,97.354186 c -0.0843,-0.0931 -0.17229,-0.16933 -0.19558,-0.16933 -0.0233,0 0.0266,0.0762 0.11092,0.16933 0.0843,0.0931 0.17229,0.16934 0.19558,0.16934 0.0233,0 -0.0266,-0.0762 -0.11092,-0.16934 z m -3.52034,-8.68538 c -0.004,-0.0986 -0.0241,-0.1187 -0.0512,-0.0512 -0.0245,0.0611 -0.0214,0.13415 0.007,0.16228 0.0281,0.0281 0.0482,-0.0219 0.0445,-0.11112 z m 3.302,-1.35467 c -0.004,-0.0986 -0.0241,-0.11869 -0.0512,-0.0512 -0.0245,0.0611 -0.0215,0.13415 0.007,0.16229 0.0281,0.0281 0.0481,-0.0219 0.0445,-0.11113 z m -3.38667,-1.27 c -0.004,-0.0986 -0.0241,-0.11869 -0.0512,-0.0512 -0.0245,0.0611 -0.0215,0.13415 0.007,0.16229 0.0281,0.0281 0.0481,-0.0219 0.0445,-0.11113 z m 57.827332,-3.64067 c -0.0041,-0.0986 -0.02413,-0.11869 -0.05116,-0.0512 -0.02446,0.0611 -0.02145,0.13414 0.0067,0.16228 0.02813,0.0281 0.04815,-0.0219 0.04447,-0.11113 z m 26.2466659,-0.16933 c -0.0041,-0.0986 -0.02413,-0.11869 -0.05116,-0.0512 -0.02446,0.0611 -0.02145,0.13415 0.0067,0.16229 0.02813,0.0281 0.04815,-0.0219 0.04447,-0.11113 z m 0,-0.33867 c -0.0041,-0.0986 -0.02413,-0.11869 -0.05116,-0.0512 -0.02446,0.0611 -0.02145,0.13414 0.0067,0.16228 0.02813,0.0281 0.04815,-0.0219 0.04447,-0.11113 z m 0,-0.33866 c -0.0041,-0.0986 -0.02413,-0.1187 -0.05116,-0.0512 -0.02446,0.0611 -0.02145,0.13415 0.0067,0.16228 0.02813,0.0281 0.04815,-0.0219 0.04447,-0.11112 z m 2.2860001,-3.97934 c -0.0041,-0.0986 -0.02413,-0.11869 -0.05116,-0.0512 -0.02446,0.0611 -0.02145,0.13414 0.0067,0.16228 0.02813,0.0281 0.04815,-0.0219 0.04447,-0.11113 z m -61.806668,-2.20133 c -0.004,-0.0986 -0.0241,-0.11869 -0.0512,-0.0512 -0.0245,0.0611 -0.0215,0.13415 0.007,0.16229 0.0281,0.0281 0.0481,-0.0219 0.0445,-0.11113 z m -43.434,-11.34533 c -0.004,-0.0986 -0.0241,-0.1187 -0.0512,-0.0512 -0.0245,0.0611 -0.0215,0.13415 0.007,0.16228 0.0281,0.0281 0.0482,-0.0219 0.0445,-0.11112 z m -3.38666,-0.67734 c -0.004,-0.0986 -0.0241,-0.11869 -0.0512,-0.0511 -0.0245,0.0611 -0.0214,0.13414 0.007,0.16228 0.0281,0.0281 0.0481,-0.0219 0.0445,-0.11113 z m 75.127175,-3.98602 c -0.05821,-0.0235 -0.153458,-0.0235 -0.211666,0 -0.05821,0.0235 -0.01058,0.0427 0.105833,0.0427 0.116417,0 0.164042,-0.0192 0.105833,-0.0427 z m -3.132666,0 c -0.05821,-0.0235 -0.153459,-0.0235 -0.211667,0 -0.05821,0.0235 -0.01058,0.0427 0.105833,0.0427 0.116417,0 0.164042,-0.0192 0.105834,-0.0427 z m -0.428625,-0.002 c -0.06112,-0.0245 -0.134146,-0.0215 -0.162281,0.007 -0.02814,0.0281 0.02188,0.0482 0.111125,0.0445 0.09864,-0.004 0.118694,-0.0241 0.05116,-0.0512 z m 7.112,-0.0847 c -0.06112,-0.0245 -0.134146,-0.0215 -0.162281,0.007 -0.02814,0.0281 0.02188,0.0482 0.111125,0.0445 0.09864,-0.004 0.118694,-0.0241 0.05116,-0.0511 z m 10.6679999,-0.762 c -0.06112,-0.0245 -0.134146,-0.0215 -0.162281,0.007 -0.02814,0.0281 0.02188,0.0482 0.111125,0.0445 0.09864,-0.004 0.118694,-0.0241 0.05116,-0.0511 z m -12.9539999,-2.54 c -0.06112,-0.0245 -0.134146,-0.0215 -0.162281,0.007 -0.02813,0.0281 0.02188,0.0481 0.111125,0.0445 0.09864,-0.004 0.118694,-0.0241 0.05116,-0.0512 z m 2.963333,-0.0847 c -0.06112,-0.0245 -0.134146,-0.0214 -0.162281,0.007 -0.02813,0.0281 0.02188,0.0481 0.111125,0.0445 0.09864,-0.004 0.118695,-0.0241 0.05116,-0.0512 z M -77.244952,22.614689 c 0.10531,-0.134286 0.10232,-0.137281 -0.032,-0.03197 -0.14103,0.110606 -0.18588,0.180134 -0.11619,0.180134 0.0176,0 0.0842,-0.06668 0.14816,-0.148167 z M -30.842545,6.8723521 c -0.06112,-0.02446 -0.134146,-0.02145 -0.162281,0.0067 -0.02813,0.02813 0.02188,0.04814 0.111125,0.04447 0.09864,-0.0041 0.118695,-0.02412 0.05116,-0.05115 z"
         id="path909" />
      <path
         style="fill:#ede560;stroke-width:0.0846667"
         d="m -24.339087,147.81553 c 0,-0.0466 -0.04035,-0.0847 -0.08966,-0.0847 -0.04932,0 -0.06612,0.0381 -0.03734,0.0847 0.02878,0.0466 0.06913,0.0847 0.08966,0.0847 0.02054,0 0.03734,-0.0381 0.03734,-0.0847 z m -4.487333,-1.64064 c 0,-0.0176 -0.05375,-0.0766 -0.119465,-0.13111 -0.09147,-0.0759 -0.134205,-0.0753 -0.182414,0.003 -0.03991,0.0646 -0.02717,0.0797 0.0348,0.0414 0.05376,-0.0332 0.09775,-0.0201 0.09775,0.0292 0,0.0493 0.0381,0.0897 0.08467,0.0897 0.04657,0 0.08467,-0.0144 0.08467,-0.032 z m -13.885332,-3.39703 c -0.10937,-0.11642 -0.2179,-0.21167 -0.24118,-0.21167 -0.0233,0 0.0471,0.0952 0.15651,0.21167 0.10937,0.11642 0.2179,0.21167 0.24118,0.21167 0.0233,0 -0.0472,-0.0952 -0.15651,-0.21167 z m -1.05833,-1.05833 c -0.0843,-0.0931 -0.1723,-0.16934 -0.19558,-0.16934 -0.0233,0 0.0266,0.0762 0.11091,0.16934 0.0843,0.0931 0.1723,0.16933 0.19558,0.16933 0.0233,0 -0.0266,-0.0762 -0.11091,-0.16933 z m -0.381,-0.45531 c 0,-0.0176 -0.0667,-0.0842 -0.14817,-0.14816 -0.13429,-0.10531 -0.13728,-0.10232 -0.032,0.032 0.11061,0.14103 0.18014,0.18588 0.18014,0.11619 z m -0.42334,-0.508 c 0,-0.0176 -0.0667,-0.0842 -0.14816,-0.14816 -0.13429,-0.10531 -0.13728,-0.10232 -0.032,0.032 0.1106,0.14103 0.18013,0.18588 0.18013,0.11619 z m -1.143,-1.32269 c -0.0843,-0.0931 -0.17229,-0.16934 -0.19558,-0.16934 -0.0233,0 0.0266,0.0762 0.11092,0.16934 0.0843,0.0931 0.17229,0.16933 0.19558,0.16933 0.0233,0 -0.0266,-0.0762 -0.11092,-0.16933 z m -2.66346,-3.06917 c -0.35086,-0.37382 -0.42687,-0.44104 -0.42687,-0.37746 0,0.0136 0.18097,0.19456 0.40217,0.40217 l 0.40216,0.37746 z m -1.3582,-1.4605 c -0.3,-0.30268 -0.56449,-0.55033 -0.58778,-0.55033 -0.0233,0 0.20312,0.24765 0.50311,0.55033 0.29999,0.30268 0.56449,0.55033 0.58777,0.55033 0.0233,0 -0.20311,-0.24765 -0.5031,-0.55033 z m -1.143,-1.22767 c -0.0843,-0.0931 -0.1723,-0.16933 -0.19558,-0.16933 -0.0233,0 0.0266,0.0762 0.11091,0.16933 0.0843,0.0931 0.1723,0.16934 0.19558,0.16934 0.0233,0 -0.0266,-0.0762 -0.11091,-0.16934 z m -4.06762,-12.35548 c 0.0268,-0.0433 0.0163,-0.0988 -0.0232,-0.12327 -0.0396,-0.0245 -0.072,0.011 -0.072,0.0788 0,0.14277 0.0267,0.15524 0.0952,0.0445 z m -0.37738,-0.50885 c 0,-0.0438 -0.0377,-0.10295 -0.0837,-0.1314 -0.048,-0.0297 -0.0622,0.004 -0.0333,0.0797 0.0563,0.14668 0.11698,0.17351 0.11698,0.0517 z M 7.2204129,104.83117 c -0.08149,-0.0213 -0.214841,-0.0213 -0.296333,0 -0.08149,0.0213 -0.01482,0.0387 0.148167,0.0387 0.162983,0 0.229658,-0.0174 0.148166,-0.0387 z m 1.35277,-6.291644 c 0,-0.20955 -0.01651,-0.29528 -0.03669,-0.1905 -0.02018,0.10477 -0.02018,0.27622 0,0.381 0.02018,0.10477 0.03669,0.019 0.03669,-0.1905 z m -0.06828,-1.48872 c -0.0041,-0.0986 -0.02413,-0.1187 -0.05116,-0.0512 -0.02446,0.0611 -0.02145,0.13415 0.0067,0.16228 0.02813,0.0281 0.04815,-0.0219 0.04448,-0.11112 z m -9.834296,-22.04862 c 0,-0.16298 -0.01742,-0.22966 -0.03872,-0.14816 -0.0213,0.0815 -0.0213,0.21484 0,0.29633 0.02129,0.0815 0.03872,0.0148 0.03872,-0.14817 z m 3.314962,-0.0494 c -0.0041,-0.0986 -0.02413,-0.1187 -0.05116,-0.0512 -0.02446,0.0611 -0.02146,0.13415 0.0067,0.16228 0.02813,0.0281 0.04815,-0.0219 0.04447,-0.11112 z m -2.77651599,-1.19945 c 0.105309,-0.13429 0.10232,-0.13728 -0.03197,-0.032 -0.141029,0.11061 -0.18588601,0.18014 -0.116197,0.18014 0.01758,0 0.08425,-0.0667 0.148167,-0.14817 z"
         id="path907" />
      <path
         style="fill:#f0e200;fill-opacity:1;stroke-width:0.0846667"
         d="m -23.406941,151.13869 c 0.0019,-1.3182 0.562746,-5.08137 1.155641,-7.75386 0.163551,-0.73721 0.281161,-1.35658 0.261366,-1.37637 -0.0198,-0.0198 -0.48978,-0.0944 -1.044405,-0.16577 -3.890959,-0.50072 -7.430102,-1.62698 -11.676414,-3.7158 -2.768859,-1.36204 -4.841169,-2.88391 -8.351649,-6.13329 -1.80201,-1.66799 -7.56489,-7.48086 -8.48331,-8.55692 -2.14148,-2.50903 -3.69592,-4.83551 -5.09043,-7.61873 -0.58306,-1.16369 -1.64889,-3.4988 -1.83161,-4.01285 l -0.11497,-0.32343 -0.0729,0.23876 c -0.0401,0.13132 -0.10441,1.99136 -0.14288,4.13343 -0.0385,2.1424 -0.11435,4.18544 -0.16867,4.54094 -0.0912,0.59712 -0.0855,0.67233 0.0761,0.98905 0.33441,0.65551 1.94115,3.02787 2.76305,4.07968 1.06012,1.35666 1.24855,1.65739 1.93149,3.08257 0.31036,0.64767 0.7561,1.49628 0.99053,1.88581 0.77606,1.28945 2.11016,3.05798 3.07036,4.07018 2.14905,2.26543 2.5657,2.7224 3.14544,3.44982 0.33402,0.41913 0.92851,1.12505 1.32106,1.56873 0.39255,0.44368 1.06563,1.22701 1.49572,1.74072 1.58171,1.88921 3.53947,3.3892 6.23275,4.77535 1.23695,0.63664 4.21069,1.85812 7.209262,2.96125 1.332916,0.49037 2.982874,1.12051 5.91174,2.25777 0.643721,0.24996 1.224746,0.45446 1.291167,0.45446 0.09257,0 0.120946,-0.13344 0.121572,-0.5715 z m -1.101479,-3.32316 c 0,-0.0466 0.0381,-0.0847 0.08467,-0.0847 0.04657,0 0.08467,0.0381 0.08467,0.0847 0,0.0466 -0.0381,0.0847 -0.08467,0.0847 -0.04657,0 -0.08467,-0.0381 -0.08467,-0.0847 z m -4.668114,-1.73236 c -0.272821,-0.11845 -0.275463,-0.12382 -0.06242,-0.127 0.122352,-0.002 0.269892,0.0538 0.327863,0.12369 0.131301,0.15821 0.09245,0.1587 -0.265447,0.003 z m -26.273648,-25.36098 c -0.0395,-0.0699 0.0657,0.0254 0.23378,0.21167 0.16808,0.18627 0.30719,0.4128 0.30913,0.50341 0.003,0.1461 -0.22827,-0.15867 -0.54291,-0.71508 z M 7.7919129,104.67252 c 0.1397,-0.0722 0.304064,-0.18055 0.365252,-0.24076 0.06279,-0.0618 0.186436,-0.65906 0.28382,-1.37101 0.150901,-1.1032 0.166268,-1.53257 0.122428,-3.420564 -0.08031,-3.45795 -0.125713,-3.70262 -1.398566,-7.53533 -0.502616,-1.51342 -1.031579,-3.15172 -1.175487,-3.64067 -0.143908,-0.48895 -0.373304,-1.25645 -0.509761,-1.70556 -0.136466,-0.44912 -0.274261,-0.99092 -0.306214,-1.204 -0.03295,-0.21978 -0.176919,-0.56254 -0.332698,-0.7921 -0.411412,-0.60629 -0.647107,-1.30668 -0.647107,-1.92295 0,-0.31485 -0.07038,-0.7323 -0.173609,-1.02963 -0.09548,-0.27505 -0.326085,-1.05254 -0.512445,-1.72776 -0.186368,-0.67521 -0.603038,-2.00871 -0.925949,-2.96333 -0.322901,-0.95462 -0.612063,-1.92617 -0.642569,-2.159 -0.108348,-0.82677 -0.54814,-1.36705 -1.26879699,-1.55871 -0.752797,-0.2002 -1.619945,0.23587 -1.88991301,0.95039 -0.116239,0.30765 -0.115028,1.0295 0.0027,1.59899 0.07604,0.3679 0.66922301,2.18299 1.02246901,3.1287 0.05994,0.16049 0.163796,0.23969 0.363364,0.27713 0.399872,0.075 0.92205399,0.48288 1.10636499,0.86416 0.08703,0.18004 0.168156,0.54459 0.18028,0.81012 0.02631,0.57622 0.195978,1.2613 0.546634,2.20711 0.142079,0.38322 0.542798,1.53498 0.890481,2.55944 0.347684,1.02447 0.838895,2.30456 1.091582,2.84464 0.460045,0.9833 1.31219,3.22281 1.800928,4.73303 0.349259,1.0792 0.491245,1.79395 1.034373,5.207 0.1408,0.88477 0.38862,2.148204 0.550723,2.807634 0.162094,0.65943 0.294724,1.38716 0.294724,1.61719 0,0.7225 -0.296452,1.33296 -0.794901,1.63691 l -0.263432,0.16063 h 0.465667 c 0.256116,0 0.579966,-0.0593 0.719666,-0.1315 z"
         id="path905" />
      <path
         style="fill:#d34591;stroke-width:0.0846667"
         d="m -19.773767,157.58747 c -0.0041,-0.0986 -0.02413,-0.11869 -0.05116,-0.0511 -0.02446,0.0611 -0.02145,0.13414 0.0067,0.16228 0.02813,0.0281 0.04815,-0.0219 0.04448,-0.11113 z m 1.038555,-18.88911 c -0.06112,-0.0245 -0.134146,-0.0215 -0.16228,0.007 -0.02813,0.0281 0.02188,0.0481 0.111125,0.0445 0.09864,-0.004 0.118694,-0.0241 0.05116,-0.0512 z m 10.0753339,-17.526 c -0.06112,-0.0245 -0.134146,-0.0215 -0.162281,0.007 -0.02813,0.0281 0.02188,0.0481 0.111125,0.0445 0.09864,-0.004 0.118694,-0.0241 0.05116,-0.0512 z m -3.2173339,-3.21734 c -0.06112,-0.0245 -0.134146,-0.0215 -0.16228,0.007 -0.02814,0.0281 0.02188,0.0481 0.111125,0.0445 0.09864,-0.004 0.118694,-0.0241 0.05115,-0.0512 z m 5.9887779,-13.19955 c -0.0041,-0.0986 -0.02413,-0.11869 -0.05116,-0.0512 -0.02446,0.0611 -0.02146,0.13414 0.0067,0.16228 0.02813,0.0281 0.04815,-0.0219 0.04447,-0.11113 z M -97.921102,87.906806 c -0.004,-0.0986 -0.0241,-0.1187 -0.0512,-0.0512 -0.0245,0.0611 -0.0215,0.13415 0.007,0.16228 0.0281,0.0281 0.0482,-0.0219 0.0445,-0.11112 z m 75.968557,-1.10912 c -0.06112,-0.0245 -0.134146,-0.0215 -0.162281,0.007 -0.02813,0.0281 0.02188,0.0481 0.111125,0.0445 0.09864,-0.004 0.118695,-0.0241 0.05116,-0.0512 z m 30.0341109,-4.30955 c -0.0041,-0.0986 -0.02413,-0.11869 -0.05116,-0.0512 -0.02446,0.0611 -0.02145,0.13415 0.0067,0.16229 0.02813,0.0281 0.04815,-0.0219 0.04447,-0.11113 z m -26.2596289,-0.45861 c 0,-0.16299 -0.01742,-0.22966 -0.03872,-0.14817 -0.0213,0.0815 -0.0213,0.21484 0,0.29633 0.02129,0.0815 0.03872,0.0148 0.03872,-0.14816 z m 16.2591409,-0.889 c -0.0017,-0.1397 -0.0207,-0.1866 -0.04217,-0.10423 -0.02146,0.0824 -0.02006,0.19668 0.0031,0.254 0.02319,0.0573 0.04075,-0.0101 0.03903,-0.14977 z M -18.1651,79.778806 c -0.0041,-0.0986 -0.02413,-0.1187 -0.05116,-0.0512 -0.02446,0.0611 -0.02145,0.13415 0.0067,0.16228 0.02813,0.0281 0.04815,-0.0219 0.04447,-0.11112 z m 31.834662,-0.254 c -0.0041,-0.0986 -0.02413,-0.1187 -0.05115,-0.0512 -0.02446,0.0611 -0.02145,0.13415 0.0067,0.16228 0.02813,0.0281 0.04814,-0.0219 0.04447,-0.11112 z m -38.015329,-1.524 c -0.0041,-0.0986 -0.02413,-0.1187 -0.05115,-0.0512 -0.02446,0.0611 -0.02146,0.13415 0.0067,0.16228 0.02813,0.0281 0.04815,-0.0219 0.04448,-0.11112 z m 0.06999,-1.17828 c -9.31e-4,-0.18627 -0.01828,-0.2525 -0.03853,-0.14718 -0.02025,0.10532 -0.01948,0.25772 0.0017,0.33867 0.02119,0.0809 0.03776,-0.005 0.03682,-0.19149 z m -27.163325,-1.10772 c -0.004,-0.0986 -0.0241,-0.1187 -0.0512,-0.0512 -0.0245,0.0611 -0.0215,0.13415 0.007,0.16228 0.0281,0.0281 0.0481,-0.0219 0.0445,-0.11112 z m 27.031224,-10.25312 c -0.06112,-0.0245 -0.134146,-0.0215 -0.162281,0.007 -0.02814,0.0281 0.02188,0.0481 0.111125,0.0445 0.09864,-0.004 0.118694,-0.0241 0.05116,-0.0511 z m 0.931333,-0.0847 c -0.06112,-0.0245 -0.134146,-0.0215 -0.162281,0.007 -0.02813,0.0281 0.02188,0.0481 0.111125,0.0445 0.09864,-0.004 0.118695,-0.0241 0.05116,-0.0512 z m 24.37892791,-0.59833 c 0.10530899,-0.13429 0.10231999,-0.13728 -0.03197,-0.032 -0.08149,0.0639 -0.148166,0.13059 -0.148166,0.14817 0,0.0697 0.06953,0.0248 0.180136,-0.1162 z M -84.780282,63.085326 c 0.10531,-0.13429 0.10232,-0.13728 -0.032,-0.032 -0.0815,0.0639 -0.14817,0.13059 -0.14817,0.14817 0,0.0697 0.0695,0.0248 0.18014,-0.1162 z m 63.50507,-1.095 c -0.06112,-0.0245 -0.134146,-0.0215 -0.16228,0.007 -0.02814,0.0281 0.02188,0.0482 0.111125,0.0445 0.09864,-0.004 0.118694,-0.0241 0.05115,-0.0512 z m -50.49371,-0.4925 c -0.002,-0.1397 -0.0207,-0.1866 -0.0422,-0.10422 -0.0215,0.0824 -0.0201,0.19668 0.003,0.254 0.0232,0.0573 0.0408,-0.0101 0.039,-0.14978 z m -23.10418,-1.36172 c -0.004,-0.0986 -0.0241,-0.11869 -0.0512,-0.0512 -0.0245,0.0611 -0.0215,0.13415 0.007,0.16229 0.0281,0.0281 0.0482,-0.0219 0.0445,-0.11113 z m 69.449224,-0.77045 c -0.06112,-0.0245 -0.134146,-0.0215 -0.162281,0.007 -0.02814,0.0281 0.02188,0.0481 0.111125,0.0445 0.09864,-0.004 0.118694,-0.0241 0.05116,-0.0512 z m 17.7799999,-4.23333 c -0.06112,-0.0245 -0.134146,-0.0215 -0.162281,0.007 -0.02814,0.0281 0.02188,0.0481 0.111125,0.0445 0.09864,-0.004 0.118694,-0.0241 0.05116,-0.0511 z M -30.011753,51.263522 c 0,-0.01758 -0.06668,-0.08425 -0.148167,-0.148166 -0.13429,-0.105309 -0.137279,-0.10232 -0.03197,0.03197 0.110608,0.141029 0.180137,0.185885 0.180137,0.116196 z m -39.189859,-1.386166 c 0.1053,-0.13429 0.10232,-0.137279 -0.032,-0.03197 -0.14103,0.110608 -0.18589,0.180136 -0.1162,0.180136 0.0176,0 0.0842,-0.06667 0.14817,-0.148166 z m 38.583823,-0.613834 c 0,-0.116416 -0.01922,-0.164041 -0.04271,-0.105833 -0.02349,0.05821 -0.02349,0.153458 0,0.211667 0.02349,0.05821 0.04271,0.01058 0.04271,-0.105834 z m -43.579163,-11.7475 c 0.10531,-0.134289 0.10232,-0.137278 -0.032,-0.03197 -0.14103,0.110609 -0.18588,0.180137 -0.11619,0.180137 0.0176,0 0.0842,-0.06668 0.14816,-0.148167 z m 1.15803,-1.8415 c -0.002,-0.1397 -0.0207,-0.186596 -0.0422,-0.104224 -0.0215,0.08238 -0.0201,0.19668 0.003,0.254 0.0232,0.05733 0.0408,-0.01008 0.039,-0.149776 z m -3.36376,-0.6985 0.20526,-0.232833 -0.23283,0.205258 c -0.12806,0.112894 -0.23283,0.217669 -0.23283,0.232833 0,0.0664 0.0686,0.01236 0.2604,-0.205258 z m 0.5124,-0.508 c 0.10531,-0.134289 0.10232,-0.137278 -0.032,-0.03197 -0.0815,0.06391 -0.14817,0.13059 -0.14817,0.148167 0,0.06969 0.0695,0.02483 0.18014,-0.116197 z m 64.335862,-0.307136 c 0,-0.01758 -0.06668,-0.08425 -0.148167,-0.148167 -0.134289,-0.105311 -0.137278,-0.102316 -0.03197,0.03197 0.110609,0.141029 0.180137,0.185886 0.180137,0.116197 z m 3.4713329,-1.18533 c 0,-0.01758 -0.06668,-0.08426 -0.148166,-0.148167 -0.13429,-0.105314 -0.137279,-0.10232 -0.03197,0.03197 0.110608,0.141033 0.180136,0.185884 0.180136,0.1162 z M -34.92242,31.366889 c 0,-0.01758 -0.06667,-0.08426 -0.148167,-0.148167 -0.134289,-0.105314 -0.137278,-0.102319 -0.03197,0.03197 0.110609,0.141034 0.180137,0.185884 0.180137,0.1162 z m 22.140333,-3.439367 c -0.08429,-0.09313 -0.172296,-0.169333 -0.19558,-0.169333 -0.02328,0 0.02663,0.0762 0.110914,0.169333 0.08429,0.09313 0.172296,0.169334 0.19558,0.169334 0.02328,0 -0.02663,-0.0762 -0.110914,-0.169334 z"
         id="path903" />
      <path
         style="fill:#000000;fill-opacity:1;stroke-width:0.0846667"
         d="m -17.811905,173.94979 c 0.544932,-0.2878 0.867495,-0.84359 0.861458,-1.48433 -0.007,-0.74268 -0.467301,-1.48159 -1.035245,-1.66186 -0.111184,-0.0353 -0.18409,-0.15728 -0.218524,-0.36568 -0.02842,-0.172 -0.08567,-0.40798 -0.127203,-0.52439 -0.179697,-0.50365 -0.595385,-2.33113 -0.714418,-3.14079 -0.07123,-0.48449 -0.222944,-1.43333 -0.337151,-2.10855 -0.262407,-1.55144 -0.382888,-3.09908 -0.388535,-4.99109 -0.0047,-1.55961 -0.08074,-3.33012 -0.253856,-5.90787 -0.0791,-1.17781 -0.08103,-1.85953 -0.0081,-2.87867 0.148852,-2.08141 0.627812,-5.00854 1.210962,-7.4008 l 0.343416,-1.40877 0.816525,-0.0565 c 7.9226499,-0.54806 14.9036369,-4.19674 19.8790059,-10.38998 1.7611,-2.19218 2.805853,-3.8327 4.008272,-6.29399 2.673469,-5.47247 4.3321481,-11.56655 5.2080251,-19.13467 0.07545,-0.65193 0.248471,-2.06163 0.384496,-3.13267 0.760037,-5.984614 0.91263,-7.727794 1.471167,-16.806334 0.283889,-4.61437 0.298325,-4.93788 0.389139,-8.72067 0.152696,-6.36048 0.09374,-9.33672 -0.264975,-13.37733 -0.09715,-1.09432 -0.188264,-2.23732 -0.202472,-2.54 -0.01421,-0.30268 -0.08429,-0.96943 -0.155747,-1.48167 -0.128932,-0.92429 -0.426317,-4.21752 -0.527544,-5.842 l -0.05276,-0.84666 0.537629,-0.27419 c 0.673064,-0.34325 1.835972,-1.119571 2.80438,-1.872105 0.551411,-0.42849 0.855454,-0.603191 1.180256,-0.678163 0.564361,-0.130277 0.932987,-0.416797 1.172341,-0.911234 0.173072,-0.357522 0.192216,-0.524196 0.19719,-1.716803 0.0047,-1.130647 -0.02854,-1.485425 -0.230981,-2.463842 C 17.63774,43.135602 17.455915,42.60033 16.423598,40.500512 15.415796,38.450555 14.003273,36.086213 12.964046,34.709761 12.626345,34.262476 12.20706,33.678136 12.0323,33.411231 11.252215,32.21984 8.4256019,28.758184 6.9452899,27.181348 6.3039989,26.498243 4.1226379,24.488142 2.8394389,23.397846 1.5432089,22.296482 1.1172509,21.87444 -0.45045409,20.138179 -3.8303051,16.394944 -4.9645671,15.388571 -8.5694031,12.934684 c -0.849579,-0.578327 -1.9735289,-1.346153 -2.4976669,-1.706278 -1.067655,-0.733567 -3.315936,-1.8898659 -4.32799,-2.2258959 -1.888338,-0.626986 -5.472871,-1.349408 -7.962214,-1.604698 -0.694047,-0.07118 -1.722747,-0.212679 -2.286,-0.314449 -1.184504,-0.21402 -3.439889,-0.250567 -7.501103,-0.121551 -2.721695,0.08646 -3.173256,0.03986 -6.053665,-0.624695 -4.08912,-0.943429 -7.98561,-1.339389 -10.922,-1.109889 -2.14442,0.167602 -4.52857,0.435118 -5.43706,0.61007 -1.22366,0.235647 -2.96918,0.742485 -4.73208,1.374039 -0.83317,0.298479 -1.74346,0.612704 -2.02286,0.698278 -0.2794,0.08557 -1.23449,0.526847 -2.12242,0.980607 -0.88794,0.453761 -2.14524,1.059993 -2.794,1.3471849 -0.64877,0.287191 -1.35103,0.609009 -1.56058,0.715151 -1.04395,0.528786 -4.41529,2.977081 -6.13833,4.457721 -0.51223,0.44017 -1.73143,1.655166 -2.70933,2.699992 -0.9779,1.044825 -2.2498,2.385113 -2.82643,2.978417 -1.19738,1.231995 -1.90541,2.097517 -2.99713,3.663824 -1.25186,1.796042 -2.05817,2.881927 -3.23772,4.360334 -1.21077,1.517552 -2.36567,3.092107 -3.8192,5.207 -1.18677,1.726768 -1.55259,2.348865 -1.96663,3.344333 -0.184,0.442383 -0.5902,1.375833 -0.90267,2.074333 -0.95991,2.145767 -1.05989,2.41372 -1.39765,3.745874 -0.17996,0.709803 -0.61429,2.214753 -0.96518,3.344333 -0.69267,2.229858 -0.80451,2.695118 -1.0694,4.448599 -0.0965,0.638657 -0.40012,2.247048 -0.67477,3.574198 -0.65635,3.17154 -0.66003,3.19803 -0.76085,5.4697 -0.0898,2.02193 -0.007,4.98498 0.16857,6.00263 0.16745,0.97319 0.33488,2.63572 0.43059,4.27567 0.053,0.90805 0.12679,2.12725 0.164,2.70933 0.10853,1.69808 0.0305,5.09366 -0.16634,7.239 -0.27608,3.00887 -0.33645,3.96078 -0.33829,5.334 -0.003,1.94389 0.14451,4.29604 0.33625,5.37633 0.24951,1.40574 1.05762,4.35148 1.54457,5.63034 0.7733,2.03084 1.04676,2.90278 1.83223,5.842004 0.46425,1.7372 0.61934,2.46888 1.02149,4.81912 0.35088,2.05059 0.57448,3.04577 1.02882,4.57888 0.138,0.46566 0.46135,1.79916 0.71856,2.96333 0.65216,2.95184 0.79969,3.50578 1.4206,5.334 0.81754,2.40717 0.93814,2.64406 3.50131,6.87697 0.37289,0.61581 0.75876,1.33971 0.8575,1.60867 0.20966,0.57114 0.32191,1.45452 0.28028,2.20581 l -0.0294,0.53145 -0.44805,0.28661 c -0.6909,0.44197 -0.92399,0.80216 -0.95609,1.47748 -0.0324,0.68088 0.16945,1.09428 0.72477,1.48458 0.29821,0.20958 0.44778,0.25511 0.84595,0.25752 0.31241,0.002 0.58862,-0.0526 0.78002,-0.15383 0.7012,-0.37088 1.19743,-0.43066 3.38667,-0.408 1.14088,0.0118 2.63216,0.0779 3.31395,0.14689 1.0178,0.10299 1.66168,0.11026 3.59833,0.0406 3.46087,-0.12441 5.48471,-0.36826 8.85823,-1.06736 0.54791,-0.11353 1.02611,-0.20643 1.0627,-0.20643 0.0366,0 0.0196,0.33337 -0.0377,0.74083 -0.22311,1.58627 -0.30194,3.55704 -0.33781,8.4455 -0.0205,2.794 -0.0606,5.2492 -0.0892,5.45601 -0.0337,0.24386 -0.004,0.52651 0.0836,0.80433 0.0745,0.23558 0.17847,0.57217 0.23098,0.74798 0.17972,0.60172 0.85857,1.1549 1.42372,1.16015 0.12012,10e-4 0.38668,0.17267 0.6685,0.43024 0.41836,0.38236 1.17341,0.90461 3.5767,2.47394 0.39582,0.25846 1.0326,0.69768 1.41508,0.97603 0.38247,0.27835 1.12542,0.74524 1.651,1.03754 0.52557,0.29229 1.26867,0.7329 1.65135,0.97912 0.38267,0.24621 1.25897,0.7412 1.94733,1.09999 0.68836,0.35878 1.65162,0.88699 2.14057,1.17382 0.48895,0.28681 1.8796,1.0182 3.09034,1.6253 1.21073,0.6071 2.90618,1.50333 3.76766,1.99162 0.86149,0.48829 2.02301,1.12828 2.58117,1.42219 0.55816,0.29391 1.24555,0.6756 1.52753,0.84819 0.74919,0.45856 3.347824,1.93928 4.230965,2.41084 0.4191,0.22378 1.0668,0.58642 1.439333,0.80586 2.709782,1.59617 6.311629,3.3367 8.382,4.05045 0.893471,0.30802 3.185787,1.01074 4.191,1.28479 0.535517,0.14599 1.162126,0.35764 1.392454,0.47035 0.544483,0.26643 1.084046,0.26912 1.578728,0.008 z m -5.303435,-4.67428 c -2.312966,-0.72204 -5.114019,-2.05601 -9.182413,-4.37301 -0.535517,-0.30499 -1.640417,-0.92822 -2.455334,-1.38496 -0.814916,-0.45675 -1.950955,-1.11044 -2.524525,-1.45265 -0.57357,-0.34221 -1.41177,-0.80839 -1.86266,-1.03596 -0.45091,-0.22757 -1.56276,-0.83829 -2.47081,-1.35715 -0.90805,-0.51887 -2.71645,-1.47879 -4.01866,-2.13317 -1.3022,-0.65437 -2.57565,-1.32283 -2.82988,-1.48546 -0.25423,-0.16262 -1.05568,-0.60353 -1.78101,-0.97979 -0.72533,-0.37625 -1.66169,-0.8991 -2.08079,-1.16188 -0.4191,-0.26277 -1.23825,-0.75267 -1.82033,-1.08867 -0.58208,-0.33599 -1.52199,-0.94285 -2.08867,-1.34859 -0.56668,-0.40573 -1.39453,-0.96028 -1.83964,-1.23234 -1.37496,-0.84035 -3.10691,-2.20832 -3.23276,-2.55335 -0.0872,-0.23909 -0.05,-7.92803 0.049,-10.1264 0.0925,-2.05427 0.15671,-2.58755 0.75827,-6.29894 0.23398,-1.44356 0.54153,-3.65336 0.68345,-4.91066 0.21441,-1.89931 0.65901,-5.07238 0.88382,-6.30767 0.0297,-0.16298 0.0864,-2.04893 0.12605,-4.191 0.0397,-2.14207 0.10528,-4.00211 0.1458,-4.13343 l 0.0737,-0.23876 0.11422,0.32343 c 0.22048,0.62428 1.46579,3.29991 2.13501,4.58724 1.60061,3.07895 3.38162,5.55107 6.13701,8.51845 1.42718,1.53698 6.54247,6.57037 8.00612,7.87792 3.25104,2.90434 5.01819,4.15273 7.733609,5.46337 4.15715,2.00651 7.756635,3.1368 11.415937,3.58477 0.551061,0.0675 1.02384,0.14456 1.050611,0.17134 0.02678,0.0268 -0.08841,0.64905 -0.255964,1.38284 -0.307094,1.34486 -0.803876,4.17141 -1.008278,5.73683 -0.140725,1.07772 -0.144569,4.57234 -0.0073,6.64633 0.05702,0.86149 0.12612,2.65219 0.153569,3.97934 0.02746,1.32715 0.08487,2.794 0.127575,3.25966 0.132758,1.4474 0.684412,4.76736 1.075013,6.4697 0.03732,0.16265 0.01914,0.19371 -0.08905,0.15219 -0.07477,-0.0287 -0.579078,-0.1905 -1.120682,-0.35957 z m 2.28992,-30.60613 c -4.17322,-0.26555 -7.896386,-1.33016 -12.440835,-3.55732 -3.119789,-1.52897 -5.437917,-3.43723 -11.357657,-9.34952 -4.21548,-4.21019 -5.39678,-5.54906 -6.96137,-7.8899 -1.82694,-2.73334 -3.8707,-7.08622 -4.74423,-10.10445 -0.3028,-1.04624 -2.21062,-8.642144 -2.47378,-9.849214 -0.14449,-0.66282 -0.23556,-0.89386 -0.44738,-1.13512 -0.65482,-0.74579 -1.73951,-0.80721 -2.43813,-0.13806 -0.30634,0.29342 -0.69394,0.36535 -1.98147,0.3677 -1.89301,0.003 -3.79368,-0.30626 -4.71665,-0.76862 -1.14498,-0.57357 -1.7934,-1.26554 -2.66375,-2.84269 -1.31609,-2.38487 -1.3996,-2.65528 -1.54355,-4.99823 -0.12353,-2.0106 -0.11269,-3.03261 0.0383,-3.61236 0.17723,-0.68043 0.64461,-1.66271 1.08623,-2.28289 0.20426,-0.28683 0.43222,-0.73107 0.50657,-0.98718 0.22752,-0.78363 0.98317,-1.76501 1.60773,-2.08798 0.8628,-0.44617 3.3662,-0.75828 4.29723,-0.53575 1.94359,0.46453 4.5355,2.20493 4.7964,3.22065 0.15645,0.60905 0.69069,1.31599 1.99098,2.63457 1.35008,1.36906 1.69672,1.59691 3.09385,2.03363 0.71581,0.22375 0.91657,0.25245 1.55318,0.22201 1.77594,-0.0849 2.6345,-1.01627 3.92264,-4.25523 0.99003,-2.48942 1.10341,-2.92919 1.4855,-5.76157 0.044,-0.32597 0.0818,-0.97367 0.0841,-1.43933 0.002,-0.46567 0.0468,-1.18957 0.0989,-1.60867 0.0548,-0.44061 0.10267,-2.4404 0.11349,-4.74133 0.0145,-3.07743 0.0473,-4.14245 0.14478,-4.699 0.18836,-1.07518 0.63254,-3.81265 0.7861,-4.8447 0.14263,-0.95867 0.76422,-3.5302 0.88169,-3.64768 0.0381,-0.0381 0.0881,0.2921 0.11122,0.73369 0.0518,0.98992 0.27066,1.4968 0.80685,1.86848 0.29526,0.20467 0.44668,0.24949 0.84666,0.2506 0.26791,8.5e-4 0.70337,-0.0518 0.96771,-0.11669 0.40605,-0.0997 0.73441,-0.10111 2.11667,-0.009 0.89982,0.0601 1.94085,0.14359 2.31339,0.18564 0.37253,0.0421 1.00118,0.11354 1.397,0.15887 0.39581,0.0453 1.234012,0.12104 1.862662,0.16827 1.516211,0.1139 14.628436,0.12159 16.891,0.01 0.9779,-0.0483 2.2352,-0.10967 2.794,-0.13645 0.907169,-0.0435 2.572207,-0.20248 4.953,-0.47302 0.442383,-0.0503 2.6712329,-0.12339 4.9529999,-0.16251 6.11140901,-0.10475 7.182434,-0.22892 10.616167,-1.23081 1.511749,-0.44109 2.67136,-0.91892 3.861833,-1.59128 l 0.846667,-0.47819 0.05853,0.74152 c 0.07978,1.01069 0.230928,2.67889 0.290974,3.21149 l 0.04938,0.43797 -0.411107,0.0526 c -2.310223,0.29569 -3.957236,1.05902 -5.884469,2.72721 -1.087306,0.94116 -2.86329099,2.79333 -3.00605599,3.13501 -0.231538,0.55415 -0.08591,1.33465 0.334289,1.79174 0.43654199,0.47485 1.32416999,0.65615 1.86283599,0.38048 0.149022,-0.0763 0.943907,-0.79676 1.766409,-1.60111 1.961879,-1.91857 2.917631,-2.56829 4.270206,-2.90289 0.367953,-0.091 0.827227,-0.18445 1.020606,-0.20759 l 0.351595,-0.0421 0.04906,0.35067 c 0.02699,0.19287 0.1164251,1.13173 0.1987461,2.08634 0.126272,1.46438 0.149259,2.70173 0.147083,7.91634 -0.0028,6.70873 -0.02628,7.36973 -0.5517901,15.53633 -0.458249,7.1213 -0.508677,7.64385 -1.527403,15.827934 -0.524874,4.2167 -0.864828,6.34784 -1.391048,8.72045 -0.729717,3.29017 -1.895941,6.7641 -3.303321,9.83992 -2.176771,4.75732 -5.529165,8.78798 -9.564522,11.49967 -3.44336,2.31387 -7.5440799,3.70453 -11.7263339,3.97671 -1.460745,0.0951 -1.624008,0.0952 -3.090333,0.002 z m 0.662457,-17.15621 c 0.03062,-0.0306 2.027699,-0.0857 4.437948,-0.12235 6.2674839,-0.0954 9.8839519,-0.3398 11.6254869,-0.78576 1.09104,-0.27939 3.014353,-1.0988 3.36359501,-1.43303 0.48773,-0.46676 0.622189,-1.30868 0.308186,-1.92977 -0.159046,-0.31459 -0.64568501,-0.71816 -1.01161401,-0.83893 -0.452306,-0.14928 -0.812013,-0.0735 -1.976848,0.41647 -1.37105,0.57669 -1.700691,0.65432 -3.627882,0.85427 -2.165012,0.22464 -5.1329509,0.34732 -8.4049959,0.34743 -3.276329,0 -5.78391,0.17173 -6.338434,0.43382 -0.659393,0.31166 -1.043762,1.15033 -0.854033,1.86345 0.224358,0.84323 0.809744,1.25009 1.79865,1.25009 0.343341,0 0.649317,-0.025 0.679941,-0.0557 z m 17.3712889,-15.27894 c 0.512089,-0.089 1.514179,-0.3137 2.22686001,-0.49928 1.181524,-0.30767 1.390591,-0.33743 2.37092099,-0.33749 2.522118,0 4.833764,-0.41385 5.326956,-0.9533 0.573972,-0.62779 0.64317,-1.321 0.280958,-2.8143 -0.269325,-1.11036 -0.590466,-2.816064 -0.76515,-4.064004 -0.175827,-1.2562 -0.601819,-3.3647 -0.8181,-4.04935 -0.418685,-1.32538 -1.371566,-3.83747 -1.801775,-4.75007 -0.239945,-0.50897 -0.625966,-1.48052 -0.857834,-2.159 -0.231859,-0.67846 -0.663185,-1.91938 -0.958494,-2.75758 -0.60292,-1.71131 -0.722816,-2.15964 -0.762627,-2.85179 -0.03435,-0.59724 -0.343721,-1.15987 -0.79054899,-1.43768 -0.249352,-0.15503 -0.438726,-0.19786 -0.874759,-0.19786 -0.72396,0 -1.16008601,0.26658 -1.48496101,0.90768 -0.204724,0.40401 -0.219803,0.50222 -0.178629,1.16379 0.02945,0.4734 0.146736,1.05824 0.340131,1.69619 0.59084601,1.94897 1.95017801,5.74382 2.47172501,6.90034 0.54844499,1.21616 1.17518999,2.85358 1.63655599,4.27566 0.260367,0.80254 0.556946,2.25877 0.819074,4.02167 0.151502,1.01895 0.520979,3.108054 0.601751,3.402414 0.06702,0.24428 -0.08361,0.26683 -2.131204,0.31895 -1.54866299,0.0394 -1.66971099,0.0553 -2.957728,0.38776 -0.738641,0.19065 -1.891132,0.43803 -2.561082,0.54973 -1.380304,0.23012 -1.688008,0.37131 -2.011198,0.92279 -0.476461,0.81302 -0.163186,1.92745 0.652873,2.32249 0.461281,0.2233 0.95184,0.22379 2.226285,0.002 z M -61.042082,93.371086 c 1.72902,-0.18827 2.15412,-2.34896 0.6172,-3.13713 -0.22303,-0.11438 -0.49312,-0.16146 -0.93133,-0.16235 -1.56194,-0.003 -2.50617,-0.49292 -3.06432,-1.58937 -0.24363,-0.47862 -0.49599,-0.72717 -0.91682,-0.90301 -1.10322,-0.46095 -2.29527,0.34145 -2.29419,1.54425 9.3e-4,1.05836 1.31706,2.74749 2.69699,3.46139 1.16035,0.60029 2.71541,0.9144 3.89247,0.78622 z m 40.232325,-6.88876 c 1.10816,-0.40579 1.575799,-0.78817 2.006626,-1.64076 0.462347,-0.915 0.57183,-1.57821 0.587696,-3.56022 0.0141,-1.7609 0.0053,-1.86873 -0.219024,-2.69981 -0.130285,-0.48257 -0.287739,-1.40053 -0.355803,-2.07434 -0.119295,-1.18099 -0.407839,-2.41571 -0.694876,-2.97344 -0.27664,-0.53752 -0.960493,-1.48423 -1.190371,-1.64792 -0.630708,-0.4491 -1.335854,-0.40994 -2.100436,0.11665 -0.557285,0.38382 -0.88398,0.87043 -1.181549,1.75995 -0.192998,0.57694 -0.232867,0.88596 -0.30033,2.32833 -0.07856,1.67947 -0.116696,2.14054 -0.385851,4.66506 -0.120421,1.12939 -0.13125,1.5303 -0.05721,2.11666 0.107696,0.85283 0.337278,1.54978 0.692463,2.10206 0.141241,0.21962 0.356878,0.60121 0.479188,0.84798 0.475767,0.95986 1.332433,1.1677 2.719477,0.6598 z m 27.4464949,-1.08219 c 0.518524,-0.11547 1.031122,-0.6445 1.226575,-1.26589 0.131961,-0.41955 0.148022,-0.81352 0.136279,-3.34333 -0.0087,-1.87113 0.02284,-3.13233 0.09069,-3.62913 0.14638,-1.0717 0.07088,-1.9665 -0.215282,-2.5514 -0.125747,-0.25701 -0.282499,-0.48797 -0.348352,-0.51323 -0.08491,-0.0326 -0.104835,-0.12534 -0.0685,-0.31898 0.136372,-0.72694 -0.44218,-1.58424 -1.202182,-1.78139 -1.223577,-0.31739 -2.213263,0.60113 -2.748052,2.55044 -0.2191,0.79862 -0.236397,1.78083 -0.052,2.95263 0.07328,0.46567 0.17609,1.24672 0.228473,1.73567 0.05238,0.48895 0.173558,1.21285 0.269291,1.60866 0.09572,0.39582 0.202523,1.17687 0.237329,1.73567 0.05188,0.83296 0.104369,1.10752 0.29133,1.524 0.476978,1.06255 1.213629,1.50578 2.154401,1.29628 z M -30.816087,67.783486 c 0.186267,-0.10946 0.706561,-0.4669 1.156208,-0.79431 0.907475,-0.66077 1.501123,-0.89835 3.028248,-1.21189 1.991123,-0.40881 4.970559,-0.54654 6.408953,-0.29627 1.000481,0.17408 1.534338,0.43115 2.08087,1.00201 0.67448,0.70451 1.296263,0.89107 1.995788,0.59879 1.011309,-0.42255 1.331019,-1.55638 0.715077,-2.53596 -0.487993,-0.77611 -1.782072,-1.67479 -2.93701,-2.03964 -1.594426,-0.50367 -3.512964,-0.6247 -6.064005,-0.38252 -2.619942,0.24872 -4.578493,0.69107 -5.833795,1.31759 -0.929014,0.46367 -2.565189,1.68922 -2.790563,2.09023 -0.407018,0.72417 -0.172161,1.70922 0.516103,2.16469 0.494631,0.32733 1.250501,0.36559 1.724126,0.0873 z M -78.187082,131.3514 c -0.76835,-0.0714 -1.95898,-0.13001 -2.64584,-0.13019 h -1.24883 v -0.42667 c 0,-1.88732 -0.44067,-3.27716 -1.67675,-5.28833 -2.24841,-3.65832 -2.46046,-4.06958 -3.15577,-6.12068 -0.58174,-1.71607 -0.73586,-2.29862 -1.38233,-5.22466 -0.25721,-1.16416 -0.58569,-2.5139 -0.72996,-2.99941 -0.41485,-1.39607 -0.65059,-2.45668 -0.97054,-4.36659 -0.36029,-2.15073 -0.51149,-2.84149 -1.149,-5.24933 -0.75356,-2.846194 -1.03119,-3.734624 -1.73559,-5.554074 -0.77841,-2.01058 -1.49118,-4.87964 -1.64558,-6.62373 -0.1615,-1.82442 -0.10259,-5.21816 0.13328,-7.67653 0.3203,-3.33857 0.36033,-6.70642 0.12477,-10.49867 -0.0998,-1.60655 -0.25787,-3.4925 -0.35128,-4.191 -0.25585,-1.91297 -0.32156,-2.87697 -0.32607,-4.78367 -0.006,-2.50482 0.10769,-3.71437 0.54407,-5.79242 0.56859,-2.70758 0.60943,-2.92071 0.9261,-4.833243 0.24274,-1.465995 0.39988,-2.112298 0.89549,-3.683 0.3306,-1.04775 0.75229,-2.49555 0.93708,-3.217333 0.36691,-1.433077 0.48872,-1.767773 1.2634,-3.471334 0.28588,-0.62865 0.67251,-1.517362 0.8592,-1.974917 0.47409,-1.161923 0.6413,-1.435524 2.51875,-4.121083 1.30252,-1.86318 2.02246,-2.823243 3.40332,-4.538418 0.44599,-0.553986 1.24353,-1.616848 1.77228,-2.361915 2.05948,-2.902041 2.52622,-3.505754 3.46912,-4.487333 0.53679,-0.5588 1.89323,-1.98755 3.01432,-3.175 2.16066,-2.288576 3.14667,-3.16497 5.5037,-4.891864 1.83673,-1.345693 2.33794,-1.651488 3.69318,-2.253238 0.66539,-0.295446 2.00991,-0.936627 2.98781,-1.424847 0.9779,-0.48822 1.88708,-0.914165 2.02041,-0.946545 0.13332,-0.03238 0.91437,-0.300603 1.73566,-0.596052 3.00471,-1.0809029 4.24463,-1.3743349 7.03893,-1.6657849 2.40766,-0.251124 5.19661,-0.302922 6.82171,-0.126698 1.98307,0.215043 3.77289,0.51865 5.78935,0.982047 3.32578,0.7642859 4.241407,0.8353959 8.216939,0.6381419 3.146713,-0.156129 3.665321,-0.140646 5.672666,0.16936 0.721784,0.111469 1.731434,0.243836 2.243667,0.29415 2.263741,0.222352 5.065717,0.776291 6.942667,1.372536 1.405873,0.446598 3.361046,1.524992 4.953,2.731863 0.256116,0.194165 1.018116,0.71474 1.693333,1.156834 1.4528879,0.95127 3.1358669,2.272783 4.1809079,3.282948 0.413554,0.399749 1.622509,1.685462 2.686566,2.857142 1.992419,2.19393 2.19696501,2.393227 4.562526,4.445526 1.761625,1.528338 3.175821,2.894323 3.842131,3.711147 0.284895,0.34925 0.975267,1.1684 1.53416,1.820334 1.292293,1.507429 1.719927,2.053827 2.558898,3.269505 0.373303,0.540926 0.8673161,1.229537 1.0977961,1.530248 0.782083,1.020386 2.169813,3.392077 3.075115,5.255514 0.796362,1.639197 0.976317,2.173182 1.312345,3.894116 0.329275,1.686366 0.414618,1.474995 -1.03829,2.571572 -1.531105,1.155599 -1.87746,1.369171 -4.1694881,2.570997 -1.001184,0.524967 -2.258484,1.195244 -2.794,1.489484 -1.318785,0.72461 -1.968433,0.98841 -3.522786,1.43051 -2.93201499,0.83395 -3.84980099,0.92803 -9.939214,1.01889 -2.965374,0.0443 -4.6901869,0.14843 -7.0695479,0.427 -2.61311,0.30594 -7.82685,0.46615 -14.507693,0.44582 -5.891742,-0.0179 -7.28831,-0.0649 -9.453088,-0.31812 -0.79164,-0.0926 -2.10609,-0.20998 -2.921,-0.26086 -0.81492,-0.0509 -1.63468,-0.11058 -1.8217,-0.13266 l -0.34003,-0.0401 -0.19059,-0.71945 c -0.32018,-1.20865 -1.11996,-2.892269 -1.66088,-3.49634 -0.76101,-0.849833 -2.02759,-0.828235 -2.73006,0.04654 -0.3451,0.42976 -0.87745,1.30186 -1.26759,2.07657 -0.6848,1.35984 -1.49056,4.35983 -1.80315,6.71351 -0.0929,0.69963 -0.28452,1.91194 -0.42578,2.69402 -0.43163,2.38971 -0.57789,4.69759 -0.43547,6.87125 0.0672,1.02521 0.0689,1.79257 0.006,2.667 -0.0486,0.67522 -0.1247,1.9493 -0.16914,2.8313 -0.084,1.66676 -0.23743,2.91237 -0.50123,4.06904 -0.17169,0.75277 -1.13248,3.24708 -1.58578,4.1168 l -0.29229,0.5608 -0.43964,-0.12876 c -0.2418,-0.0708 -0.57739,-0.21565 -0.74577,-0.32186 -0.50407,-0.31795 -1.69364,-1.66891 -1.86346,-2.11626 -0.0832,-0.2192 -0.224,-0.47898 -0.31288,-0.5773 -0.0889,-0.0983 -0.26709,-0.36221 -0.39601,-0.58644 -0.96531,-1.67892 -4.18068,-3.73706 -6.79322,-4.34831 -1.67191,-0.39118 -4.66586,-0.0111 -6.41496,0.81443 -1.29656,0.61192 -2.48772,1.91899 -3.16769,3.4759 -0.15253,0.34925 -0.41659,0.86333 -0.58681,1.14239 -0.42888,0.70312 -0.79912,1.50111 -1.12709,2.42924 -0.27546,0.77955 -0.27905,0.80929 -0.30969,2.56333 -0.0356,2.03646 0.0866,3.94669 0.33058,5.16804 0.18888,0.94561 0.75534,2.20931 1.91418,4.27028 0.97234,1.72927 2.16372,2.89574 3.79628,3.71688 1.1965,0.60181 1.83542,0.76474 4.06091,1.035514 1.20708,0.14687 1.75289,0.17407 2.62467,0.13081 0.60536,-0.03 1.19786,-0.076 1.31666,-0.1022 0.21089,-0.0465 0.22067,-0.0278 0.41381,0.79036 0.16243,0.68808 0.18108,0.88991 0.10426,1.12848 -0.0517,0.16057 -0.10143,1.01017 -0.11117,1.89921 -0.0215,1.95688 -0.10974,3.63454 -0.28293,5.37633 -0.34429,3.46271 -0.38357,4.18212 -0.33047,6.05367 0.064,2.25576 -0.0349,3.68627 -0.4245,6.13833 -0.25196,1.58594 -0.54163,3.82813 -0.68911,5.334 -0.0251,0.25612 -0.12587,1.02426 -0.22398,1.70698 l -0.17838,1.24129 -0.34743,0.0942 c -0.19108,0.0518 -0.74748,0.16832 -1.23643,0.2589 -0.48895,0.0906 -1.40335,0.26237 -2.032,0.38179 -3.6934,0.70156 -7.88609,0.96286 -10.922,0.68068 z m -7.15434,-67.899544 c 0.31876,-0.1427 0.76574,-0.60915 0.88381,-0.92235 0.0494,-0.13108 0.0899,-0.576 0.0899,-0.9887 0,-1.53223 0.33757,-3.06118 1.43076,-6.48014 1.73064,-5.412689 3.5693,-10.402655 4.38227,-11.893144 0.85044,-1.559204 2.92663,-4.232037 4.73522,-6.096 0.60145,-0.619861 0.71242,-0.84543 0.71242,-1.448214 0,-1.409099 -1.66686,-2.148479 -2.72464,-1.208583 -1.19278,1.059866 -3.62188,3.985878 -4.80588,5.789024 -1.40365,2.137621 -2.37181,4.530166 -4.83104,11.93844 -1.77319,5.341647 -2.20158,7.123187 -2.19875,9.143997 10e-4,1.05743 0.11766,1.47054 0.51679,1.83746 0.45694,0.42007 1.2732,0.56815 1.80918,0.32821 z m 15.93328,-0.46771 c 0.44445,-0.20179 0.84996,-0.74552 0.90845,-1.21811 0.22412,-1.81097 0.96253,-6.58056 1.2011,-7.7582 0.23959,-1.18267 0.35767,-1.5826 0.58987,-1.997803 0.35107,-0.627778 0.38449,-1.143804 0.11072,-1.709369 -0.33401,-0.689966 -1.26461,-1.046988 -2.05183,-0.787189 -0.35341,0.116637 -0.9282,0.722842 -1.25513,1.323747 -0.31541,0.579704 -0.78059,2.810934 -1.25176,6.003964 -0.1443,0.9779 -0.33736,2.26626 -0.42903,2.86301 -0.0917,0.59676 -0.16667,1.36083 -0.16667,1.69793 0,0.53021 0.033,0.66491 0.2444,0.99828 0.4368,0.68876 1.32482,0.93561 2.09988,0.58374 z m 41.132055,-11.467872 c 0.355389,-0.155711 0.782219,-0.616865 0.899296,-0.971609 0.123579,-0.374447 0.05286,-2.340373 -0.135941,-3.778809 -0.175675,-1.338487 -0.510193,-3.006056 -0.819387,-4.08465 -0.62915,-2.194721 -2.091648,-5.244279 -3.40084,-7.09135 -0.548699,-0.774133 -2.972003,-3.897452 -3.308782,-4.264596 -0.999989,-1.090126 -2.850811,-0.340997 -2.842151,1.150376 0.003,0.485178 0.23261,0.89383 1.17992,2.09822 2.773905,3.526722 3.597136,4.865226 4.657679,7.573044 0.76614,1.956121 1.179051,3.98261 1.36381,6.693289 0.04919,0.721783 0.106494,1.429961 0.127339,1.573725 0.04812,0.331952 0.575412,0.952915 0.9377,1.10429 0.34776,0.145305 1.007483,0.144357 1.341357,-0.0019 z m 24.2041009,-5.594469 c 0.939393,-0.334848 1.571193,-1.76342 1.442787,-3.262283 -0.217771,-2.542099 -1.408083,-5.000184 -3.727255,-7.697063 -1.022071,-1.188526 -5.9004879,-6.461862 -6.4438439,-6.965483 -0.821758,-0.761665 -1.766367,-0.741682 -2.463326,0.05211 -0.482143,0.549133 -0.543831,1.297979 -0.159326,1.934126 0.10204,0.168824 0.606086,0.737382 1.120098,1.263465 0.514011,0.526081 1.561761,1.63787 2.328333,2.470643 4.1730759,4.533457 5.0052389,5.638763 5.6386479,7.489492 0.384208,1.122587 0.451468,1.903196 0.211971,2.45993 -0.204275,0.474845 -0.22573,0.783531 -0.08357,1.202648 0.163043,0.480695 0.414655,0.763185 0.867622,0.974107 0.489407,0.22788 0.79524,0.24677 1.267858,0.07831 z"
         id="path901" />
    </g>
  </g>
</svg>
